<svg xmlns="http://www.w3.org/2000/svg" width="1200" height="700" viewBox="0 0 1200 700">
  <rect x="0" y="0" width="1200" height="700" fill="#ffffff" />
  <text x="600.0" y="32" text-anchor="middle" font-family="Arial" font-size="24" font-weight="bold">Neighborhood Makespan Comparison</text>
  <line x1="90.0" y1="600.0" x2="1160.0" y2="600.0" stroke="#e6e6e6" stroke-width="1" /><text x="82.0" y="604.0" text-anchor="end" font-family="Arial" font-size="11" fill="#555">2845</text><line x1="90.0" y1="472.5" x2="1160.0" y2="472.5" stroke="#e6e6e6" stroke-width="1" /><text x="82.0" y="476.5" text-anchor="end" font-family="Arial" font-size="11" fill="#555">2977</text><line x1="90.0" y1="345.0" x2="1160.0" y2="345.0" stroke="#e6e6e6" stroke-width="1" /><text x="82.0" y="349.0" text-anchor="end" font-family="Arial" font-size="11" fill="#555">3110</text><line x1="90.0" y1="217.5" x2="1160.0" y2="217.5" stroke="#e6e6e6" stroke-width="1" /><text x="82.0" y="221.5" text-anchor="end" font-family="Arial" font-size="11" fill="#555">3243</text><line x1="90.0" y1="90.0" x2="1160.0" y2="90.0" stroke="#e6e6e6" stroke-width="1" /><text x="82.0" y="94.0" text-anchor="end" font-family="Arial" font-size="11" fill="#555">3375</text>
  <line x1="90" y1="600" x2="1160" y2="600" stroke="#333" stroke-width="1.5" />
  <line x1="90" y1="90" x2="90" y2="600" stroke="#333" stroke-width="1.5" />
  <polyline fill="none" stroke="#1f77b4" stroke-width="2.5" points="90.0,113.2 95.4,263.2 100.8,274.8 106.1,274.8 111.5,281.5 116.9,281.5 122.3,294.0 127.6,301.7 133.0,311.3 138.4,327.7 143.8,339.2 149.1,339.2 154.5,339.2 159.9,347.9 165.3,357.5 170.7,371.0 176.0,380.6 181.4,380.6 186.8,380.6 192.2,388.3 197.5,388.3 202.9,388.3 208.3,388.3 213.7,388.3 219.0,388.3 224.4,388.3 229.8,405.6 235.2,405.6 240.6,417.1 245.9,436.4 251.3,446.0 256.7,482.6 262.1,482.6 267.4,488.3 272.8,493.1 278.2,505.6 283.6,505.6 288.9,507.6 294.3,507.6 299.7,507.6 305.1,507.6 310.5,507.6 315.8,507.6 321.2,507.6 326.6,507.6 332.0,507.6 337.3,507.6 342.7,507.6 348.1,525.8 353.5,525.8 358.8,525.8 364.2,525.8 369.6,525.8 375.0,527.8 380.4,527.8 385.7,527.8 391.1,527.8 396.5,527.8 401.9,527.8 407.2,527.8 412.6,527.8 418.0,527.8 423.4,527.8 428.7,527.8 434.1,527.8 439.5,527.8 444.9,527.8 450.3,527.8 455.6,527.8 461.0,527.8 466.4,527.8 471.8,527.8 477.1,527.8 482.5,527.8 487.9,527.8 493.3,527.8 498.6,527.8 504.0,527.8 509.4,527.8 514.8,527.8 520.2,527.8 525.5,527.8 530.9,527.8 536.3,527.8 541.7,527.8 547.0,527.8 552.4,527.8 557.8,527.8 563.2,527.8 568.5,527.8 573.9,527.8 579.3,527.8 584.7,527.8 590.1,527.8 595.4,527.8 600.8,527.8 606.2,527.8 611.6,527.8 616.9,527.8 622.3,527.8 627.7,527.8 633.1,527.8 638.4,527.8 643.8,527.8 649.2,527.8 654.6,528.7 659.9,528.7 665.3,528.7 670.7,528.7 676.1,528.7 681.5,528.7 686.8,528.7 692.2,528.7 697.6,528.7 703.0,528.7 708.3,528.7 713.7,528.7 719.1,528.7 724.5,528.7 729.8,528.7 735.2,528.7 740.6,528.7 746.0,528.7 751.4,528.7 756.7,534.5 762.1,538.3 767.5,550.8 772.9,550.8 778.2,550.8 783.6,550.8 789.0,552.8 794.4,552.8 799.7,552.8 805.1,552.8 810.5,552.8 815.9,552.8 821.3,552.8 826.6,552.8 832.0,552.8 837.4,552.8 842.8,552.8 848.1,552.8 853.5,552.8 858.9,552.8 864.3,552.8 869.6,552.8 875.0,552.8 880.4,552.8 885.8,552.8 891.2,552.8 896.5,558.5 901.9,558.5 907.3,558.5 912.7,558.5 918.0,558.5 923.4,558.5 928.8,558.5 934.2,558.5 939.5,558.5 944.9,558.5 950.3,558.5 955.7,558.5 961.1,558.5 966.4,558.5 971.8,558.5 977.2,558.5 982.6,558.5 987.9,558.5 993.3,558.5 998.7,566.2 1004.1,566.2 1009.4,566.2 1014.8,566.2 1020.2,566.2 1025.6,566.2 1031.0,566.2 1036.3,566.2 1041.7,566.2 1047.1,566.2 1052.5,566.2 1057.8,566.2 1063.2,566.2 1068.6,566.2 1074.0,566.2 1079.3,566.2 1084.7,566.2 1090.1,566.2 1095.5,566.2 1100.9,566.2 1106.2,571.0 1111.6,571.0 1117.0,571.0 1122.4,571.0 1127.7,572.0 1133.1,572.0 1138.5,572.0 1143.9,572.0 1149.2,572.0 1154.6,572.0 1160.0,572.0" /><polyline fill="none" stroke="#d62728" stroke-width="2.5" points="90.0,113.2 95.4,252.7 100.8,252.7 106.1,252.7 111.5,252.7 116.9,252.7 122.3,280.6 127.6,296.9 133.0,296.9 138.4,296.9 143.8,296.9 149.1,296.9 154.5,314.2 159.9,314.2 165.3,314.2 170.7,314.2 176.0,314.2 181.4,319.0 186.8,336.3 192.2,336.3 197.5,336.3 202.9,336.3 208.3,336.3 213.7,356.5 219.0,364.2 224.4,364.2 229.8,371.9 235.2,371.9 240.6,371.9 245.9,371.9 251.3,371.9 256.7,379.6 262.1,406.6 267.4,406.6 272.8,406.6 278.2,406.6 283.6,406.6 288.9,406.6 294.3,406.6 299.7,406.6 305.1,406.6 310.5,406.6 315.8,406.6 321.2,406.6 326.6,406.6 332.0,406.6 337.3,409.4 342.7,422.0 348.1,422.0 353.5,422.0 358.8,422.0 364.2,422.0 369.6,422.0 375.0,431.6 380.4,431.6 385.7,431.6 391.1,437.3 396.5,449.8 401.9,458.5 407.2,458.5 412.6,458.5 418.0,477.7 423.4,489.3 428.7,489.3 434.1,489.3 439.5,489.3 444.9,489.3 450.3,489.3 455.6,489.3 461.0,489.3 466.4,489.3 471.8,489.3 477.1,489.3 482.5,489.3 487.9,489.3 493.3,489.3 498.6,489.3 504.0,493.1 509.4,493.1 514.8,493.1 520.2,493.1 525.5,493.1 530.9,493.1 536.3,493.1 541.7,493.1 547.0,493.1 552.4,493.1 557.8,493.1 563.2,493.1 568.5,493.1 573.9,493.1 579.3,493.1 584.7,493.1 590.1,493.1 595.4,493.1 600.8,495.1 606.2,513.3 611.6,525.8 616.9,525.8 622.3,525.8 627.7,525.8 633.1,525.8 638.4,525.8 643.8,525.8 649.2,525.8 654.6,525.8 659.9,525.8 665.3,541.2 670.7,541.2 676.1,541.2 681.5,541.2 686.8,541.2 692.2,541.2 697.6,541.2 703.0,541.2 708.3,541.2 713.7,541.2 719.1,541.2 724.5,541.2 729.8,541.2 735.2,541.2 740.6,541.2 746.0,541.2 751.4,541.2 756.7,541.2 762.1,541.2 767.5,541.2 772.9,541.2 778.2,541.2 783.6,541.2 789.0,541.2 794.4,541.2 799.7,541.2 805.1,541.2 810.5,541.2 815.9,541.2 821.3,541.2 826.6,541.2 832.0,541.2 837.4,541.2 842.8,541.2 848.1,541.2 853.5,541.2 858.9,541.2 864.3,541.2 869.6,541.2 875.0,545.1 880.4,545.1 885.8,576.8 891.2,576.8 896.5,576.8 901.9,576.8 907.3,576.8 912.7,576.8 918.0,576.8 923.4,576.8 928.8,576.8 934.2,576.8 939.5,576.8 944.9,576.8 950.3,576.8 955.7,576.8 961.1,576.8 966.4,576.8 971.8,576.8 977.2,576.8 982.6,576.8 987.9,576.8 993.3,576.8 998.7,576.8 1004.1,576.8 1009.4,576.8 1014.8,576.8 1020.2,576.8 1025.6,576.8 1031.0,576.8 1036.3,576.8 1041.7,576.8 1047.1,576.8 1052.5,576.8 1057.8,576.8 1063.2,576.8 1068.6,576.8 1074.0,576.8 1079.3,576.8 1084.7,576.8 1090.1,576.8 1095.5,576.8 1100.9,576.8 1106.2,576.8 1111.6,576.8 1117.0,576.8 1122.4,576.8 1127.7,576.8 1133.1,576.8 1138.5,576.8 1143.9,576.8 1149.2,576.8 1154.6,576.8 1160.0,576.8" /><polyline fill="none" stroke="#2ca02c" stroke-width="2.5" points="90.0,113.2 95.4,274.8 100.8,311.3 106.1,311.3 111.5,311.3 116.9,311.3 122.3,311.3 127.6,311.3 133.0,311.3 138.4,311.3 143.8,311.3 149.1,311.3 154.5,311.3 159.9,311.3 165.3,311.3 170.7,311.3 176.0,311.3 181.4,311.3 186.8,311.3 192.2,333.5 197.5,333.5 202.9,346.0 208.3,357.5 213.7,357.5 219.0,357.5 224.4,357.5 229.8,357.5 235.2,357.5 240.6,357.5 245.9,357.5 251.3,357.5 256.7,357.5 262.1,357.5 267.4,371.9 272.8,371.9 278.2,371.9 283.6,371.9 288.9,371.9 294.3,371.9 299.7,371.9 305.1,375.8 310.5,375.8 315.8,375.8 321.2,375.8 326.6,375.8 332.0,375.8 337.3,375.8 342.7,386.4 348.1,386.4 353.5,389.2 358.8,395.0 364.2,395.0 369.6,395.0 375.0,401.8 380.4,401.8 385.7,401.8 391.1,401.8 396.5,406.6 401.9,415.2 407.2,422.9 412.6,422.9 418.0,430.6 423.4,430.6 428.7,430.6 434.1,430.6 439.5,430.6 444.9,430.6 450.3,430.6 455.6,430.6 461.0,430.6 466.4,430.6 471.8,430.6 477.1,430.6 482.5,430.6 487.9,430.6 493.3,430.6 498.6,442.2 504.0,442.2 509.4,442.2 514.8,442.2 520.2,442.2 525.5,442.2 530.9,442.2 536.3,442.2 541.7,450.8 547.0,468.1 552.4,468.1 557.8,468.1 563.2,468.1 568.5,468.1 573.9,468.1 579.3,468.1 584.7,468.1 590.1,472.9 595.4,472.9 600.8,472.9 606.2,472.9 611.6,472.9 616.9,472.9 622.3,487.4 627.7,495.1 633.1,500.8 638.4,500.8 643.8,500.8 649.2,500.8 654.6,500.8 659.9,500.8 665.3,500.8 670.7,500.8 676.1,500.8 681.5,500.8 686.8,500.8 692.2,500.8 697.6,500.8 703.0,500.8 708.3,500.8 713.7,500.8 719.1,500.8 724.5,500.8 729.8,500.8 735.2,500.8 740.6,500.8 746.0,500.8 751.4,500.8 756.7,500.8 762.1,500.8 767.5,500.8 772.9,500.8 778.2,500.8 783.6,500.8 789.0,500.8 794.4,500.8 799.7,502.8 805.1,502.8 810.5,512.4 815.9,512.4 821.3,512.4 826.6,512.4 832.0,512.4 837.4,512.4 842.8,512.4 848.1,512.4 853.5,512.4 858.9,512.4 864.3,514.3 869.6,514.3 875.0,514.3 880.4,514.3 885.8,514.3 891.2,514.3 896.5,514.3 901.9,530.6 907.3,530.6 912.7,530.6 918.0,530.6 923.4,530.6 928.8,530.6 934.2,530.6 939.5,530.6 944.9,530.6 950.3,530.6 955.7,531.6 961.1,531.6 966.4,531.6 971.8,531.6 977.2,531.6 982.6,531.6 987.9,531.6 993.3,531.6 998.7,531.6 1004.1,531.6 1009.4,531.6 1014.8,531.6 1020.2,531.6 1025.6,531.6 1031.0,531.6 1036.3,537.4 1041.7,537.4 1047.1,537.4 1052.5,537.4 1057.8,538.3 1063.2,538.3 1068.6,538.3 1074.0,538.3 1079.3,538.3 1084.7,538.3 1090.1,538.3 1095.5,538.3 1100.9,538.3 1106.2,538.3 1111.6,538.3 1117.0,538.3 1122.4,538.3 1127.7,538.3 1133.1,538.3 1138.5,538.3 1143.9,538.3 1149.2,538.3 1154.6,538.3 1160.0,538.3" />
  <text x="90.0" y="618.0" text-anchor="middle" font-family="Arial" font-size="11" fill="#555">0</text><text x="305.1" y="618.0" text-anchor="middle" font-family="Arial" font-size="11" fill="#555">2010</text><text x="520.2" y="618.0" text-anchor="middle" font-family="Arial" font-size="11" fill="#555">4020</text><text x="729.8" y="618.0" text-anchor="middle" font-family="Arial" font-size="11" fill="#555">5979</text><text x="944.9" y="618.0" text-anchor="middle" font-family="Arial" font-size="11" fill="#555">7989</text><text x="1160.0" y="618.0" text-anchor="middle" font-family="Arial" font-size="11" fill="#555">10000</text>
  <rect x="100" y="55" width="12" height="12" fill="#1f77b4" /><text x="118" y="65" font-family="Arial" font-size="12">adjacent</text><rect x="260" y="55" width="12" height="12" fill="#d62728" /><text x="278" y="65" font-family="Arial" font-size="12">n5</text><rect x="420" y="55" width="12" height="12" fill="#2ca02c" /><text x="438" y="65" font-family="Arial" font-size="12">n6</text>
  <text x="625.0" y="645.0" text-anchor="middle" font-family="Arial" font-size="14" font-weight="bold">Iteration</text>
  <text x="30.0" y="345.0" text-anchor="middle" font-family="Arial" font-size="14" font-weight="bold" transform="rotate(-90 30.0 345.0)">Makespan</text>
</svg>