<svg xmlns="http://www.w3.org/2000/svg" width="1200" height="700" viewBox="0 0 1200 700">
  <rect x="0" y="0" width="1200" height="700" fill="#ffffff" />
  <text x="600.0" y="32" text-anchor="middle" font-family="Arial" font-size="24" font-weight="bold">Neighborhood Makespan Comparison</text>
  <line x1="90.0" y1="600.0" x2="1160.0" y2="600.0" stroke="#e6e6e6" stroke-width="1" /><text x="82.0" y="604.0" text-anchor="end" font-family="Arial" font-size="11" fill="#555">2924</text><line x1="90.0" y1="472.5" x2="1160.0" y2="472.5" stroke="#e6e6e6" stroke-width="1" /><text x="82.0" y="476.5" text-anchor="end" font-family="Arial" font-size="11" fill="#555">3102</text><line x1="90.0" y1="345.0" x2="1160.0" y2="345.0" stroke="#e6e6e6" stroke-width="1" /><text x="82.0" y="349.0" text-anchor="end" font-family="Arial" font-size="11" fill="#555">3280</text><line x1="90.0" y1="217.5" x2="1160.0" y2="217.5" stroke="#e6e6e6" stroke-width="1" /><text x="82.0" y="221.5" text-anchor="end" font-family="Arial" font-size="11" fill="#555">3458</text><line x1="90.0" y1="90.0" x2="1160.0" y2="90.0" stroke="#e6e6e6" stroke-width="1" /><text x="82.0" y="94.0" text-anchor="end" font-family="Arial" font-size="11" fill="#555">3636</text>
  <line x1="90" y1="600" x2="1160" y2="600" stroke="#333" stroke-width="1.5" />
  <line x1="90" y1="90" x2="90" y2="600" stroke="#333" stroke-width="1.5" />
  <polyline fill="none" stroke="#1f77b4" stroke-width="2.5" points="90.0,113.2 95.4,195.5 100.8,230.5 106.1,274.9 111.5,299.9 116.9,324.3 122.3,345.7 127.6,347.9 133.0,366.5 138.4,380.8 143.8,387.2 149.1,387.2 154.5,387.2 159.9,387.2 165.3,387.2 170.7,393.7 176.0,393.7 181.4,405.8 186.8,410.1 192.2,410.1 197.5,424.4 202.9,428.0 208.3,434.4 213.7,434.4 219.0,434.4 224.4,434.4 229.8,434.4 235.2,434.4 240.6,434.4 245.9,434.4 251.3,434.4 256.7,434.4 262.1,434.4 267.4,434.4 272.8,434.4 278.2,434.4 283.6,435.2 288.9,436.6 294.3,436.6 299.7,436.6 305.1,451.6 310.5,460.9 315.8,460.9 321.2,460.9 326.6,460.9 332.0,460.9 337.3,460.9 342.7,470.2 348.1,470.2 353.5,479.5 358.8,482.4 364.2,488.8 369.6,499.5 375.0,499.5 380.4,499.5 385.7,499.5 391.1,499.5 396.5,499.5 401.9,499.5 407.2,499.5 412.6,499.5 418.0,499.5 423.4,499.5 428.7,499.5 434.1,499.5 439.5,499.5 444.9,499.5 450.3,499.5 455.6,499.5 461.0,499.5 466.4,499.5 471.8,499.5 477.1,499.5 482.5,499.5 487.9,499.5 493.3,499.5 498.6,499.5 504.0,499.5 509.4,506.7 514.8,506.7 520.2,506.7 525.5,506.7 530.9,506.7 536.3,506.7 541.7,506.7 547.0,506.7 552.4,506.7 557.8,506.7 563.2,511.7 568.5,511.7 573.9,511.7 579.3,511.7 584.7,511.7 590.1,511.7 595.4,511.7 600.8,511.7 606.2,511.7 611.6,511.7 616.9,511.7 622.3,511.7 627.7,511.7 633.1,511.7 638.4,511.7 643.8,511.7 649.2,511.7 654.6,511.7 659.9,511.7 665.3,511.7 670.7,511.7 676.1,511.7 681.5,511.7 686.8,511.7 692.2,511.7 697.6,511.7 703.0,511.7 708.3,511.7 713.7,511.7 719.1,511.7 724.5,511.7 729.8,511.7 735.2,511.7 740.6,513.9 746.0,518.1 751.4,518.1 756.7,518.1 762.1,518.1 767.5,518.1 772.9,518.1 778.2,518.1 783.6,518.1 789.0,518.1 794.4,533.9 799.7,533.9 805.1,533.9 810.5,553.9 815.9,553.9 821.3,553.9 826.6,553.9 832.0,553.9 837.4,553.9 842.8,553.9 848.1,553.9 853.5,553.9 858.9,553.9 864.3,553.9 869.6,553.9 875.0,553.9 880.4,553.9 885.8,553.9 891.2,553.9 896.5,553.9 901.9,553.9 907.3,553.9 912.7,553.9 918.0,553.9 923.4,553.9 928.8,553.9 934.2,553.9 939.5,553.9 944.9,553.9 950.3,553.9 955.7,553.9 961.1,553.9 966.4,553.9 971.8,564.7 977.2,566.8 982.6,566.8 987.9,566.8 993.3,566.8 998.7,566.8 1004.1,566.8 1009.4,566.8 1014.8,566.8 1020.2,566.8 1025.6,566.8 1031.0,566.8 1036.3,566.8 1041.7,566.8 1047.1,566.8 1052.5,566.8 1057.8,576.8 1063.2,576.8 1068.6,576.8 1074.0,576.8 1079.3,576.8 1084.7,576.8 1090.1,576.8 1095.5,576.8 1100.9,576.8 1106.2,576.8 1111.6,576.8 1117.0,576.8 1122.4,576.8 1127.7,576.8 1133.1,576.8 1138.5,576.8 1143.9,576.8 1149.2,576.8 1154.6,576.8 1160.0,576.8" /><polyline fill="none" stroke="#d62728" stroke-width="2.5" points="90.0,113.2 95.4,186.9 100.8,229.8 106.1,245.5 111.5,245.5 116.9,274.2 122.3,297.1 127.6,319.2 133.0,340.0 138.4,373.6 143.8,380.1 149.1,390.1 154.5,390.1 159.9,390.1 165.3,390.8 170.7,396.5 176.0,406.5 181.4,424.4 186.8,434.4 192.2,434.4 197.5,434.4 202.9,434.4 208.3,434.4 213.7,434.4 219.0,434.4 224.4,435.2 229.8,435.2 235.2,435.2 240.6,440.2 245.9,443.0 251.3,443.0 256.7,443.0 262.1,443.0 267.4,443.0 272.8,443.0 278.2,443.0 283.6,443.0 288.9,443.0 294.3,449.5 299.7,449.5 305.1,449.5 310.5,449.5 315.8,449.5 321.2,455.2 326.6,460.9 332.0,460.9 337.3,460.9 342.7,460.9 348.1,460.9 353.5,460.9 358.8,460.9 364.2,460.9 369.6,460.9 375.0,460.9 380.4,460.9 385.7,460.9 391.1,460.9 396.5,460.9 401.9,463.1 407.2,463.1 412.6,470.9 418.0,470.9 423.4,470.9 428.7,473.1 434.1,473.1 439.5,473.1 444.9,473.1 450.3,473.1 455.6,473.1 461.0,473.1 466.4,473.1 471.8,473.1 477.1,473.1 482.5,473.1 487.9,473.1 493.3,473.1 498.6,473.1 504.0,473.1 509.4,473.1 514.8,473.1 520.2,473.1 525.5,473.1 530.9,473.1 536.3,473.1 541.7,473.1 547.0,473.1 552.4,490.2 557.8,490.2 563.2,496.0 568.5,496.0 573.9,496.0 579.3,496.0 584.7,496.0 590.1,496.0 595.4,505.3 600.8,505.3 606.2,505.3 611.6,505.3 616.9,505.3 622.3,505.3 627.7,505.3 633.1,505.3 638.4,505.3 643.8,505.3 649.2,505.3 654.6,505.3 659.9,505.3 665.3,505.3 670.7,505.3 676.1,505.3 681.5,505.3 686.8,505.3 692.2,505.3 697.6,505.3 703.0,505.3 708.3,505.3 713.7,505.3 719.1,505.3 724.5,505.3 729.8,505.3 735.2,505.3 740.6,505.3 746.0,505.3 751.4,505.3 756.7,505.3 762.1,505.3 767.5,505.3 772.9,505.3 778.2,505.3 783.6,505.3 789.0,505.3 794.4,505.3 799.7,505.3 805.1,505.3 810.5,505.3 815.9,505.3 821.3,505.3 826.6,505.3 832.0,505.3 837.4,505.3 842.8,505.3 848.1,505.3 853.5,505.3 858.9,505.3 864.3,505.3 869.6,505.3 875.0,505.3 880.4,505.3 885.8,505.3 891.2,505.3 896.5,505.3 901.9,505.3 907.3,505.3 912.7,505.3 918.0,505.3 923.4,505.3 928.8,505.3 934.2,505.3 939.5,505.3 944.9,505.3 950.3,505.3 955.7,505.3 961.1,505.3 966.4,505.3 971.8,505.3 977.2,505.3 982.6,505.3 987.9,505.3 993.3,505.3 998.7,505.3 1004.1,505.3 1009.4,505.3 1014.8,505.3 1020.2,505.3 1025.6,505.3 1031.0,505.3 1036.3,505.3 1041.7,505.3 1047.1,505.3 1052.5,505.3 1057.8,505.3 1063.2,505.3 1068.6,505.3 1074.0,505.3 1079.3,505.3 1084.7,505.3 1090.1,505.3 1095.5,505.3 1100.9,505.3 1106.2,505.3 1111.6,505.3 1117.0,505.3 1122.4,505.3 1127.7,505.3 1133.1,505.3 1138.5,505.3 1143.9,505.3 1149.2,505.3 1154.6,505.3 1160.0,505.3" /><polyline fill="none" stroke="#2ca02c" stroke-width="2.5" points="90.0,113.2 95.4,216.2 100.8,257.7 106.1,287.0 111.5,314.9 116.9,323.5 122.3,351.4 127.6,362.9 133.0,401.5 138.4,407.2 143.8,422.3 149.1,431.6 154.5,431.6 159.9,431.6 165.3,431.6 170.7,431.6 176.0,431.6 181.4,431.6 186.8,431.6 192.2,431.6 197.5,431.6 202.9,431.6 208.3,431.6 213.7,431.6 219.0,431.6 224.4,434.4 229.8,445.9 235.2,445.9 240.6,447.3 245.9,447.3 251.3,447.3 256.7,447.3 262.1,447.3 267.4,447.3 272.8,456.6 278.2,456.6 283.6,456.6 288.9,456.6 294.3,456.6 299.7,456.6 305.1,456.6 310.5,456.6 315.8,456.6 321.2,456.6 326.6,456.6 332.0,456.6 337.3,456.6 342.7,456.6 348.1,456.6 353.5,456.6 358.8,456.6 364.2,456.6 369.6,456.6 375.0,456.6 380.4,456.6 385.7,460.2 391.1,460.2 396.5,460.2 401.9,460.2 407.2,460.2 412.6,460.2 418.0,460.2 423.4,460.2 428.7,460.2 434.1,460.2 439.5,460.2 444.9,460.2 450.3,460.2 455.6,460.2 461.0,471.6 466.4,488.1 471.8,488.1 477.1,488.1 482.5,488.1 487.9,488.1 493.3,488.1 498.6,488.1 504.0,488.1 509.4,488.1 514.8,488.1 520.2,488.1 525.5,488.1 530.9,488.1 536.3,488.1 541.7,488.1 547.0,490.2 552.4,490.2 557.8,490.2 563.2,490.2 568.5,490.2 573.9,490.2 579.3,490.2 584.7,490.2 590.1,490.2 595.4,490.2 600.8,490.2 606.2,490.2 611.6,490.2 616.9,490.2 622.3,490.2 627.7,490.2 633.1,490.2 638.4,490.2 643.8,490.2 649.2,490.2 654.6,491.0 659.9,491.0 665.3,491.0 670.7,491.0 676.1,491.0 681.5,491.0 686.8,491.0 692.2,491.0 697.6,491.0 703.0,491.0 708.3,491.0 713.7,491.0 719.1,491.0 724.5,491.0 729.8,491.0 735.2,491.0 740.6,496.0 746.0,496.0 751.4,496.0 756.7,496.0 762.1,496.0 767.5,496.0 772.9,496.0 778.2,496.0 783.6,496.0 789.0,496.0 794.4,496.0 799.7,496.0 805.1,496.0 810.5,496.0 815.9,496.0 821.3,496.0 826.6,496.0 832.0,496.0 837.4,496.0 842.8,496.0 848.1,496.0 853.5,496.0 858.9,496.0 864.3,496.0 869.6,496.0 875.0,496.0 880.4,496.0 885.8,496.0 891.2,496.0 896.5,496.0 901.9,496.0 907.3,496.0 912.7,496.0 918.0,496.0 923.4,496.0 928.8,496.0 934.2,496.0 939.5,496.0 944.9,496.0 950.3,496.0 955.7,496.0 961.1,496.0 966.4,496.0 971.8,496.0 977.2,496.0 982.6,496.0 987.9,496.0 993.3,496.0 998.7,496.0 1004.1,496.0 1009.4,496.0 1014.8,496.0 1020.2,496.0 1025.6,496.0 1031.0,496.0 1036.3,496.0 1041.7,496.0 1047.1,496.0 1052.5,496.0 1057.8,496.0 1063.2,496.0 1068.6,496.0 1074.0,496.0 1079.3,496.0 1084.7,496.0 1090.1,496.0 1095.5,496.0 1100.9,496.0 1106.2,496.0 1111.6,496.0 1117.0,496.0 1122.4,496.0 1127.7,496.0 1133.1,496.0 1138.5,496.0 1143.9,496.0 1149.2,496.0 1154.6,496.0 1160.0,496.0" />
  <text x="90.0" y="618.0" text-anchor="middle" font-family="Arial" font-size="11" fill="#555">0</text><text x="305.1" y="618.0" text-anchor="middle" font-family="Arial" font-size="11" fill="#555">894</text><text x="520.2" y="618.0" text-anchor="middle" font-family="Arial" font-size="11" fill="#555">1788</text><text x="729.8" y="618.0" text-anchor="middle" font-family="Arial" font-size="11" fill="#555">2660</text><text x="944.9" y="618.0" text-anchor="middle" font-family="Arial" font-size="11" fill="#555">3554</text><text x="1160.0" y="618.0" text-anchor="middle" font-family="Arial" font-size="11" fill="#555">4449</text>
  <rect x="100" y="55" width="12" height="12" fill="#1f77b4" /><text x="118" y="65" font-family="Arial" font-size="12">adjacent</text><rect x="260" y="55" width="12" height="12" fill="#d62728" /><text x="278" y="65" font-family="Arial" font-size="12">n5</text><rect x="420" y="55" width="12" height="12" fill="#2ca02c" /><text x="438" y="65" font-family="Arial" font-size="12">n6</text>
  <text x="625.0" y="645.0" text-anchor="middle" font-family="Arial" font-size="14" font-weight="bold">Iteration</text>
  <text x="30.0" y="345.0" text-anchor="middle" font-family="Arial" font-size="14" font-weight="bold" transform="rotate(-90 30.0 345.0)">Makespan</text>
</svg>