<svg xmlns="http://www.w3.org/2000/svg" width="1200" height="700" viewBox="0 0 1200 700">
  <rect x="0" y="0" width="1200" height="700" fill="#ffffff" />
  <text x="600.0" y="32" text-anchor="middle" font-family="Arial" font-size="24" font-weight="bold">Neighborhood Makespan Comparison - Time limit 300s</text>
  <line x1="90.0" y1="600.0" x2="1160.0" y2="600.0" stroke="#e6e6e6" stroke-width="1" /><text x="82.0" y="604.0" text-anchor="end" font-family="Arial" font-size="11" fill="#555">2900</text><line x1="90.0" y1="536.2" x2="1160.0" y2="536.2" stroke="#e6e6e6" stroke-width="1" /><text x="82.0" y="540.2" text-anchor="end" font-family="Arial" font-size="11" fill="#555">3000</text><line x1="90.0" y1="472.5" x2="1160.0" y2="472.5" stroke="#e6e6e6" stroke-width="1" /><text x="82.0" y="476.5" text-anchor="end" font-family="Arial" font-size="11" fill="#555">3100</text><line x1="90.0" y1="408.8" x2="1160.0" y2="408.8" stroke="#e6e6e6" stroke-width="1" /><text x="82.0" y="412.8" text-anchor="end" font-family="Arial" font-size="11" fill="#555">3200</text><line x1="90.0" y1="345.0" x2="1160.0" y2="345.0" stroke="#e6e6e6" stroke-width="1" /><text x="82.0" y="349.0" text-anchor="end" font-family="Arial" font-size="11" fill="#555">3300</text><line x1="90.0" y1="281.2" x2="1160.0" y2="281.2" stroke="#e6e6e6" stroke-width="1" /><text x="82.0" y="285.2" text-anchor="end" font-family="Arial" font-size="11" fill="#555">3400</text><line x1="90.0" y1="217.5" x2="1160.0" y2="217.5" stroke="#e6e6e6" stroke-width="1" /><text x="82.0" y="221.5" text-anchor="end" font-family="Arial" font-size="11" fill="#555">3500</text><line x1="90.0" y1="153.8" x2="1160.0" y2="153.8" stroke="#e6e6e6" stroke-width="1" /><text x="82.0" y="157.8" text-anchor="end" font-family="Arial" font-size="11" fill="#555">3600</text><line x1="90.0" y1="90.0" x2="1160.0" y2="90.0" stroke="#e6e6e6" stroke-width="1" /><text x="82.0" y="94.0" text-anchor="end" font-family="Arial" font-size="11" fill="#555">3700</text>
  <line x1="90" y1="600" x2="1160" y2="600" stroke="#333" stroke-width="1.5" />
  <line x1="90" y1="90" x2="90" y2="600" stroke="#333" stroke-width="1.5" />
  <polyline fill="none" stroke="#1f77b4" stroke-width="2.5" points="90.0,151.2 90.4,174.8 90.9,182.4 91.4,197.7 92.0,209.8 92.5,213.7 93.0,214.3 93.6,220.7 94.1,225.2 94.6,225.2 95.2,230.2 95.5,238.5 96.1,244.9 96.6,249.4 97.1,250.6 97.7,254.5 98.2,260.8 98.7,266.6 99.3,272.3 99.8,277.4 100.3,287.6 100.9,294.0 101.2,295.3 101.8,295.3 102.3,295.3 102.8,295.3 103.4,301.7 103.9,302.3 104.4,307.4 105.0,317.6 105.5,317.6 106.0,317.6 106.4,317.6 106.9,317.6 107.5,318.9 108.0,324.6 108.5,327.1 109.1,330.3 109.6,336.7 110.2,346.3 110.7,350.1 111.2,350.1 111.8,350.1 112.1,350.1 112.6,350.1 113.2,354.6 113.7,358.4 114.3,360.3 114.8,360.3 115.3,360.3 115.9,360.3 116.4,360.3 116.9,360.3 117.3,360.3 117.8,360.3 118.4,360.3 118.9,367.9 119.4,372.4 120.0,375.6 120.5,376.9 121.0,376.9 121.6,376.9 122.1,376.9 122.6,376.9 123.0,376.9 123.5,376.9 124.1,378.1 124.6,381.3 125.1,387.7 125.7,389.6 126.2,390.3 126.7,395.4 127.3,395.4 127.8,395.4 128.3,395.4 128.7,395.4 129.2,395.4 129.8,395.4 130.3,395.4 130.8,395.4 131.4,395.4 131.9,395.4 132.4,395.4 133.0,395.4 133.5,395.4 133.9,395.4 134.4,395.4 134.9,395.4 135.5,395.4 136.0,395.4 136.5,395.4 137.1,395.4 137.6,395.4 138.2,395.4 138.7,395.4 139.2,395.4 139.6,395.4 140.1,395.4 140.6,395.4 141.2,395.4 141.7,395.4 142.3,395.4 142.8,395.4 143.3,395.4 143.9,395.4 144.4,395.4 144.7,395.4 145.3,395.4 145.8,395.4 146.4,395.4 146.9,395.4 147.4,395.4 148.0,395.4 148.5,397.3 149.0,401.1 149.6,401.1 150.1,401.1 150.5,401.1 151.0,401.1 151.5,401.1 152.1,401.1 152.6,401.1 153.1,401.1 153.7,401.1 154.2,401.1 154.7,410.7 155.3,411.9 155.6,411.9 156.2,411.9 156.7,411.9 157.2,411.9 157.8,411.9 158.3,413.9 158.8,415.8 159.4,415.8 159.9,415.8 160.4,415.8 161.0,415.8 161.3,415.8 161.9,415.8 162.4,415.8 162.9,415.8 163.5,415.8 164.0,415.8 164.5,415.8 165.1,415.8 165.6,415.8 166.1,415.8 166.7,420.2 167.0,420.2 167.6,420.2 168.1,421.5 168.6,421.5 169.2,426.0 169.7,428.5 170.2,430.4 170.8,431.7 171.3,431.7 171.9,431.7 172.2,431.7 172.7,431.7 173.3,431.7 173.8,431.7 174.4,431.7 174.9,431.7 175.4,431.7 176.0,432.3 176.5,433.6 177.0,437.4 177.6,437.4 177.9,437.4 178.5,437.4 179.0,437.4 179.5,437.4 180.1,437.4 180.6,437.4 181.1,437.4 181.7,437.4 182.2,437.4 182.7,437.4 183.1,437.4 183.6,437.4 184.2,437.4 184.7,437.4 185.2,437.4 185.8,437.4 186.3,437.4 186.8,437.4 187.4,437.4 187.9,437.4 188.4,437.4 188.8,437.4 189.3,437.4 189.9,437.4 190.4,437.4 190.9,437.4 191.5,437.4 192.0,437.4 192.5,437.4 193.1,437.4 193.6,437.4 194.0,437.4 194.5,437.4 195.0,437.4 195.6,437.4 196.1,437.4 196.6,437.4 197.2,437.4 197.7,437.4 198.2,437.4 198.8,437.4 199.3,437.4 199.7,437.4 200.2,437.4 200.7,437.4 201.3,437.4 201.8,437.4 202.3,437.4 202.9,437.4 203.4,437.4 204.0,437.4 204.5,437.4 205.0,437.4 205.4,437.4 205.9,437.4 206.5,437.4 207.0,437.4 207.5,437.4 208.1,437.4 208.6,437.4 209.1,437.4 209.7,437.4 210.2,437.4 210.6,437.4 211.1,437.4 211.6,437.4 212.2,437.4 212.7,437.4 213.2,437.4 213.8,437.4 214.3,437.4 214.8,437.4 215.4,437.4 215.9,437.4 216.3,437.4 216.8,437.4 217.3,437.4 217.9,437.4 218.4,437.4 218.9,437.4 219.5,437.4 220.0,437.4 220.5,437.4 221.1,437.4 221.4,437.4 222.0,437.4 222.5,437.4 223.0,437.4 223.6,437.4 224.1,437.4 224.6,437.4 225.2,437.4 225.7,437.4 226.2,437.4 226.8,437.4 227.1,437.4 227.7,437.4 228.2,437.4 228.7,437.4 229.3,437.4 229.8,437.4 230.3,437.4 230.9,437.4 231.4,437.4 232.0,437.4 232.3,437.4 232.8,437.4 233.4,438.1 233.9,439.4 234.5,439.4 235.0,439.4 235.5,439.4 236.1,439.4 236.6,439.4 237.1,439.4 237.7,439.4 238.0,439.4 238.6,439.4 239.1,439.4 239.6,439.4 240.2,439.4 240.7,439.4 241.2,439.4 241.8,439.4 242.3,439.4 242.8,439.4 243.4,439.4 243.7,439.4 244.3,439.4 244.8,439.4 245.3,439.4 245.9,439.4 246.4,439.4 246.9,439.4 247.5,439.4 248.0,439.4 248.5,447.6 248.9,450.2 249.4,452.7 250.0,456.6 250.5,457.8 251.0,461.0 251.6,461.0 252.1,461.0 252.6,461.0 253.2,461.0 253.7,461.0 254.2,461.0 254.6,461.0 255.1,461.0 255.7,461.0 256.2,461.0 256.7,461.0 257.3,461.0 257.8,461.0 258.3,461.0 258.9,461.0 259.4,461.0 259.8,461.0 260.3,461.0 260.8,461.0 261.4,461.0 261.9,461.0 262.4,461.0 263.0,461.0 263.5,461.0 264.1,461.0 264.6,461.0 265.1,461.0 265.5,461.0 266.0,461.0 266.6,461.0 267.1,461.0 267.6,461.0 268.2,461.0 268.7,461.0 269.2,461.0 269.8,461.0 270.3,461.0 270.8,461.0 271.2,461.0 271.7,461.0 272.3,461.0 272.8,461.0 273.3,461.0 273.9,468.7 274.4,469.3 274.9,469.3 275.5,469.3 276.0,469.3 276.4,469.3 276.9,469.3 277.4,469.3 278.0,469.3 278.5,469.3 279.0,469.3 279.6,469.3 280.1,469.3 280.6,469.3 281.2,469.3 281.7,469.3 282.1,469.3 282.6,469.3 283.1,471.9 283.7,471.9 284.2,471.9 284.7,473.1 285.3,477.6 285.8,477.6 286.3,478.2 286.9,478.2 287.2,480.1 287.8,480.1 288.3,480.1 288.8,480.1 289.4,480.1 289.9,480.1 290.4,480.1 291.0,482.7 291.5,483.3 292.1,485.9 292.6,485.9 292.9,485.9 293.5,485.9 294.0,485.9 294.5,485.9 295.1,485.9 295.6,485.9 296.2,489.7 296.7,494.8 297.2,495.4 297.8,495.4 298.1,495.4 298.6,495.4 299.2,495.4 299.7,495.4 300.3,495.4 300.8,495.4 301.3,495.4 301.9,495.4 302.4,495.4 302.9,495.4 303.5,495.4 303.8,495.4 304.4,495.4 304.9,495.4 305.4,495.4 306.0,495.4 306.5,495.4 307.0,495.4 307.6,495.4 308.1,495.4 308.6,495.4 309.2,495.4 309.5,495.4 310.1,495.4 310.6,495.4 311.1,495.4 311.7,495.4 312.2,495.4 312.7,495.4 313.3,495.4 313.8,495.4 314.3,495.4 314.7,495.4 315.2,495.4 315.8,495.4 316.3,495.4 316.8,495.4 317.4,495.4 317.9,495.4 318.4,495.4 319.0,495.4 319.5,495.4 320.0,495.4 320.4,495.4 320.9,495.4 321.5,495.4 322.0,495.4 322.5,495.4 323.1,495.4 323.6,495.4 324.2,495.4 324.7,495.4 325.2,495.4 325.6,495.4 326.1,495.4 326.6,495.4 327.2,495.4 327.7,495.4 328.3,495.4 328.8,495.4 329.3,495.4 329.9,495.4 330.4,495.4 330.9,495.4 331.3,495.4 331.8,495.4 332.4,495.4 332.9,495.4 333.4,495.4 334.0,495.4 334.5,495.4 335.0,495.4 335.6,495.4 336.1,495.4 336.5,495.4 337.0,495.4 337.5,495.4 338.1,495.4 338.6,495.4 339.1,495.4 339.7,495.4 340.2,495.4 340.7,495.4 341.3,495.4 341.8,495.4 342.2,495.4 342.7,495.4 343.2,495.4 343.8,495.4 344.3,495.4 344.8,495.4 345.4,495.4 345.9,495.4 346.4,495.4 347.0,495.4 347.5,495.4 347.9,495.4 348.4,495.4 348.9,495.4 349.5,495.4 350.0,495.4 350.5,495.4 351.1,495.4 351.6,495.4 352.1,495.4 352.7,495.4 353.0,495.4 353.6,495.4 354.1,495.4 354.6,495.4 355.2,495.4 355.7,495.4 356.3,495.4 356.8,495.4 357.3,495.4 357.9,495.4 358.4,495.4 358.7,495.4 359.3,495.4 359.8,495.4 360.4,495.4 360.9,495.4 361.4,495.4 362.0,495.4 362.5,495.4 363.0,495.4 363.6,495.4 363.9,495.4 364.5,495.4 365.0,495.4 365.5,495.4 366.1,495.4 366.6,495.4 367.1,495.4 367.7,495.4 368.2,495.4 368.7,495.4 369.3,495.4 369.6,495.4 370.2,495.4 370.7,495.4 371.2,495.4 371.8,495.4 372.3,495.4 372.8,495.4 373.4,495.4 373.9,495.4 374.4,495.4 374.8,495.4 375.3,495.4 375.9,495.4 376.4,495.4 376.9,495.4 377.5,495.4 378.0,495.4 378.5,495.4 379.1,495.4 379.6,495.4 380.1,495.4 380.5,495.4 381.0,495.4 381.6,495.4 382.1,495.4 382.6,495.4 383.2,495.4 383.7,495.4 384.2,495.4 384.8,495.4 385.3,495.4 385.9,495.4 386.2,495.4 386.7,495.4 387.3,495.4 387.8,495.4 388.4,495.4 388.9,495.4 389.4,495.4 390.0,495.4 390.5,495.4 391.0,495.4 391.4,495.4 391.9,495.4 392.5,495.4 393.0,495.4 393.5,495.4 394.1,495.4 394.6,495.4 395.1,495.4 395.7,495.4 396.2,495.4 396.7,495.4 397.1,495.4 397.6,495.4 398.2,498.0 398.7,501.2 399.2,501.8 399.8,501.8 400.3,501.8 400.8,501.8 401.4,501.8 401.9,501.8 402.3,501.8 402.8,501.8 403.3,501.8 403.9,501.8 404.4,501.8 404.9,501.8 405.5,501.8 406.0,501.8 406.5,501.8 407.1,501.8 407.6,501.8 408.0,501.8 408.5,501.8 409.0,501.8 409.6,501.8 410.1,501.8 410.6,501.8 411.2,501.8 411.7,501.8 412.2,501.8 412.8,501.8 413.3,501.8 413.7,501.8 414.2,501.8 414.7,501.8 415.3,501.8 415.8,501.8 416.3,501.8 416.9,501.8 417.4,501.8 418.0,501.8 418.5,501.8 418.8,501.8 419.4,501.8 419.9,501.8 420.5,501.8 421.0,501.8 421.5,501.8 422.1,501.8 422.6,501.8 423.1,501.8 423.7,501.8 424.2,501.8 424.6,501.8 425.1,501.8 425.6,501.8 426.2,501.8 426.7,501.8 427.2,501.8 427.8,501.8 428.3,501.8 428.8,501.8 429.4,501.8 429.7,501.8 430.3,501.8 430.8,501.8 431.3,501.8 431.9,501.8 432.4,501.8 432.9,501.8 433.5,501.8 434.0,501.8 434.5,501.8 435.1,501.8 435.4,501.8 436.0,501.8 436.5,501.8 437.0,501.8 437.6,501.8 438.1,502.5 438.6,502.5 439.2,502.5 439.7,505.0 440.2,506.3 440.6,506.3 441.1,506.3 441.7,506.3 442.2,506.3 442.7,506.3 443.3,506.3 443.8,506.3 444.3,506.3 444.9,506.3 445.4,506.3 446.0,506.3 446.3,506.3 446.8,506.3 447.4,506.3 447.9,506.3 448.5,506.3 449.0,506.3 449.5,506.3 450.1,506.3 450.6,506.3 451.1,506.3 451.7,506.3 452.0,506.3 452.6,506.3 453.1,506.3 453.6,506.3 454.2,506.3 454.7,506.3 455.2,506.3 455.8,506.3 456.3,506.3 456.8,506.3 457.2,506.3 457.7,506.3 458.3,506.3 458.8,506.3 459.3,506.3 459.9,506.3 460.4,506.3 460.9,506.3 461.5,506.3 462.0,506.3 462.5,506.3 462.9,506.3 463.4,506.3 464.0,506.3 464.5,506.3 465.0,506.3 465.6,506.3 466.1,506.3 466.6,506.3 467.2,506.3 467.7,506.3 468.1,506.3 468.6,506.3 469.1,506.3 469.7,506.3 470.2,506.3 470.7,506.3 471.3,506.3 471.8,506.3 472.3,506.3 472.9,506.3 473.4,506.3 473.8,506.3 474.3,506.3 474.8,506.3 475.4,506.3 475.9,506.3 476.4,506.3 477.0,506.3 477.5,506.3 478.1,506.3 478.6,506.3 478.9,506.3 479.5,506.3 480.0,506.3 480.6,506.3 481.1,506.3 481.6,506.3 482.2,506.3 482.7,506.3 483.2,506.3 483.8,506.3 484.3,506.3 484.7,506.3 485.2,506.3 485.7,506.3 486.3,506.3 486.8,506.3 487.3,506.3 487.9,506.3 488.4,506.3 488.9,506.3 489.5,506.3 490.0,506.3 490.4,506.3 490.9,506.3 491.4,506.3 492.0,506.3 492.5,506.3 493.0,506.3 493.6,506.3 494.1,506.3 494.6,506.3 495.2,506.3 495.5,506.3 496.1,506.3 496.6,506.3 497.1,506.3 497.7,506.3 498.2,506.3 498.7,506.3 499.3,506.3 499.8,506.3 500.3,506.3 500.9,506.3 501.2,506.3 501.8,506.3 502.3,506.3 502.8,506.3 503.4,506.3 503.9,506.3 504.4,506.3 505.0,506.3 505.5,506.3 506.1,506.3 506.4,506.3 506.9,506.3 507.5,506.3 508.0,506.3 508.5,506.3 509.1,506.3 509.6,506.3 510.2,506.3 510.7,506.3 511.2,506.3 511.8,506.3 512.1,506.3 512.7,506.3 513.2,506.3 513.7,506.3 514.3,506.3 514.8,506.3 515.3,506.3 515.9,506.3 516.4,506.3 516.9,506.3 517.3,506.3 517.8,506.3 518.4,506.3 518.9,506.3 519.4,506.3 520.0,506.3 520.5,506.3 521.0,506.3 521.6,506.3 522.1,506.3 522.6,506.3 523.0,506.3 523.5,506.3 524.1,506.3 524.6,506.3 525.1,506.3 525.7,506.3 526.2,506.3 526.7,506.3 527.3,506.3 527.8,506.3 528.3,506.3 528.7,506.3 529.2,506.3 529.8,506.3 530.3,506.3 530.8,506.3 531.4,506.3 531.9,506.3 532.4,506.3 533.0,506.3 533.5,506.3 533.9,506.3 534.4,506.3 534.9,506.3 535.5,506.3 536.0,506.3 536.5,506.3 537.1,506.3 537.6,506.3 538.2,506.3 538.7,506.3 539.2,506.3 539.6,506.3 540.1,506.3 540.6,506.3 541.2,506.3 541.7,506.3 542.3,506.3 542.8,506.3 543.3,506.3 543.9,506.3 544.4,506.3 544.8,506.3 545.3,506.3 545.8,506.3 546.4,506.3 546.9,506.3 547.4,506.3 548.0,506.3 548.5,506.3 549.0,506.3 549.6,506.3 550.1,506.3 550.5,506.3 551.0,506.3 551.5,506.3 552.1,506.3 552.6,506.3 553.1,506.3 553.7,506.3 554.2,506.3 554.7,506.3 555.3,506.3 555.8,506.3 556.2,506.3 556.7,506.3 557.2,506.3 557.8,506.3 558.3,506.3 558.8,506.3 559.4,506.3 559.9,506.3 560.4,506.3 561.0,506.3 561.3,506.3 561.9,506.3 562.4,506.3 562.9,506.3 563.5,506.3 564.0,506.3 564.5,506.3 565.1,506.3 565.6,506.3 566.2,506.3 566.7,506.3 567.0,506.3 567.6,506.3 568.1,506.3 568.6,506.3 569.2,506.3 569.7,506.3 570.3,506.3 570.8,506.3 571.3,506.3 571.9,506.3 572.2,508.2 572.7,512.0 573.3,512.0 573.8,512.0 574.4,512.0 574.9,512.0 575.4,512.0 576.0,512.0 576.5,512.0 577.0,512.0 577.6,512.0 577.9,512.0 578.5,512.0 579.0,512.0 579.5,512.0 580.1,512.0 580.6,512.0 581.1,512.0 581.7,512.0 582.2,512.0 582.7,512.0 583.1,512.0 583.6,512.0 584.2,512.0 584.7,512.0 585.2,512.0 585.8,512.0 586.3,512.0 586.8,512.0 587.4,512.0 587.9,512.0 588.4,512.0 588.8,512.0 589.3,512.0 589.9,512.0 590.4,512.0 590.9,512.0 591.5,512.0 592.0,512.0 592.5,512.0 593.1,512.0 593.6,512.0 594.1,512.0 594.5,512.0 595.0,512.0 595.6,512.0 596.1,512.0 596.6,512.0 597.2,512.0 597.7,512.0 598.2,512.0 598.8,512.0 599.3,512.0 599.7,512.0 600.2,512.0 600.7,512.0 601.3,512.0 601.8,512.0 602.4,512.0 602.9,512.0 603.4,512.0 604.0,512.0 604.5,512.0 605.0,512.0 605.4,512.0 605.9,512.0 606.5,512.0 607.0,512.0 607.5,512.0 608.1,512.0 608.6,519.7 609.1,521.0 609.7,521.0 610.2,523.5 610.6,526.0 611.1,526.0 611.6,526.0 612.2,526.0 612.7,526.0 613.2,526.0 613.8,526.0 614.3,526.0 614.8,526.0 615.4,526.0 615.9,526.0 616.3,526.0 616.8,526.0 617.3,526.0 617.9,526.0 618.4,526.0 618.9,526.0 619.5,526.0 620.0,526.0 620.5,526.0 621.1,526.0 621.4,526.7 622.0,526.7 622.5,526.7 623.0,531.1 623.6,536.2 624.1,543.9 624.6,543.9 625.2,543.9 625.7,543.9 626.2,543.9 626.8,543.9 627.1,543.9 627.7,543.9 628.2,543.9 628.7,543.9 629.3,543.9 629.8,543.9 630.4,543.9 630.9,543.9 631.4,543.9 632.0,543.9 632.5,543.9 632.8,543.9 633.4,543.9 633.9,543.9 634.5,543.9 635.0,543.9 635.5,543.9 636.1,543.9 636.6,543.9 637.1,543.9 637.7,543.9 638.0,543.9 638.6,543.9 639.1,543.9 639.6,543.9 640.2,543.9 640.7,543.9 641.2,543.9 641.8,543.9 642.3,543.9 642.8,543.9 643.4,543.9 643.7,543.9 644.3,543.9 644.8,543.9 645.3,543.9 645.9,543.9 646.4,543.9 646.9,543.9 647.5,543.9 648.0,543.9 648.5,543.9 648.9,543.9 649.4,543.9 650.0,543.9 650.5,543.9 651.0,543.9 651.6,543.9 652.1,543.9 652.6,543.9 653.2,543.9 653.7,543.9 654.2,543.9 654.6,543.9 655.1,543.9 655.7,543.9 656.2,543.9 656.7,543.9 657.3,543.9 657.8,543.9 658.3,543.9 658.9,543.9 659.4,543.9 659.8,543.9 660.3,543.9 660.8,543.9 661.4,543.9 661.9,543.9 662.5,543.9 663.0,543.9 663.5,543.9 664.1,543.9 664.6,543.9 665.1,543.9 665.5,543.9 666.0,543.9 666.6,543.9 667.1,543.9 667.6,543.9 668.2,543.9 668.7,543.9 669.2,543.9 669.8,543.9 670.3,543.9 670.8,543.9 671.2,543.9 671.7,543.9 672.3,543.9 672.8,543.9 673.3,543.9 673.9,543.9 674.4,543.9 674.9,543.9 675.5,543.9 676.0,543.9 676.4,543.9 676.9,543.9 677.4,543.9 678.0,543.9 678.5,543.9 679.0,543.9 679.6,543.9 680.1,543.9 680.6,543.9 681.2,543.9 681.7,543.9 682.1,543.9 682.6,543.9 683.1,543.9 683.7,543.9 684.2,543.9 684.7,543.9 685.3,543.9 685.8,543.9 686.3,543.9 686.9,543.9 687.2,543.9 687.8,543.9 688.3,543.9 688.8,543.9 689.4,543.9 689.9,543.9 690.4,543.9 691.0,543.9 691.5,543.9 692.1,543.9 692.6,543.9 692.9,543.9 693.5,543.9 694.0,543.9 694.5,543.9 695.1,543.9 695.6,543.9 696.2,543.9 696.7,543.9 697.2,543.9 697.8,543.9 698.3,543.9 698.7,543.9 699.2,543.9 699.7,543.9 700.3,543.9 700.8,543.9 701.3,543.9 701.9,543.9 702.4,543.9 702.9,543.9 703.5,543.9 703.8,543.9 704.4,543.9 704.9,543.9 705.4,543.9 706.0,543.9 706.5,543.9 707.0,543.9 707.6,543.9 708.1,543.9 708.6,543.9 709.2,543.9 709.5,543.9 710.1,543.9 710.6,543.9 711.1,543.9 711.7,543.9 712.2,543.9 712.7,543.9 713.3,543.9 713.8,543.9 714.3,543.9 714.7,543.9 715.2,543.9 715.8,543.9 716.3,543.9 716.8,543.9 717.4,543.9 717.9,543.9 718.4,543.9 719.0,543.9 719.5,543.9 720.1,543.9 720.4,543.9 720.9,543.9 721.5,543.9 722.0,543.9 722.5,543.9 723.1,543.9 723.6,543.9 724.2,543.9 724.7,543.9 725.2,543.9 725.6,543.9 726.1,543.9 726.6,543.9 727.2,543.9 727.7,543.9 728.3,543.9 728.8,543.9 729.3,543.9 729.9,543.9 730.4,543.9 730.9,543.9 731.3,543.9 731.8,543.9 732.4,543.9 732.9,543.9 733.4,543.9 734.0,543.9 734.5,543.9 735.0,543.9 735.6,543.9 736.1,543.9 736.6,543.9 737.0,543.9 737.5,543.9 738.1,543.9 738.6,543.9 739.1,543.9 739.7,543.9 740.2,543.9 740.7,543.9 741.3,543.9 741.8,543.9 742.2,543.9 742.7,543.9 743.2,550.9 743.8,553.5 744.3,554.7 744.8,554.7 745.4,555.4 745.9,555.4 746.4,555.4 747.0,555.4 747.5,555.4 747.9,555.4 748.4,555.4 748.9,555.4 749.5,555.4 750.0,555.4 750.5,555.4 751.1,555.4 751.6,555.4 752.2,555.4 752.7,555.4 753.0,555.4 753.6,555.4 754.1,555.4 754.6,555.4 755.2,555.4 755.7,555.4 756.3,555.4 756.8,555.4 757.3,555.4 757.9,555.4 758.4,555.4 758.8,555.4 759.3,555.4 759.8,555.4 760.4,555.4 760.9,555.4 761.4,555.4 762.0,555.4 762.5,555.4 763.0,555.4 763.6,555.4 763.9,555.4 764.5,555.4 765.0,555.4 765.5,555.4 766.1,555.4 766.6,555.4 767.1,555.4 767.7,555.4 768.2,555.4 768.7,555.4 769.3,555.4 769.6,555.4 770.2,555.4 770.7,555.4 771.2,555.4 771.8,555.4 772.3,555.4 772.8,555.4 773.4,555.4 773.9,555.4 774.4,555.4 775.0,555.4 775.3,555.4 775.9,555.4 776.4,555.4 776.9,555.4 777.5,555.4 778.0,555.4 778.5,555.4 779.1,555.4 779.6,555.4 780.1,555.4 780.5,555.4 781.0,555.4 781.6,555.4 782.1,555.4 782.6,555.4 783.2,555.4 783.7,555.4 784.3,555.4 784.8,555.4 785.3,555.4 785.9,555.4 786.2,555.4 786.7,555.4 787.3,555.4 787.8,555.4 788.4,555.4 788.9,555.4 789.4,555.4 790.0,555.4 790.5,555.4 791.0,555.4 791.4,555.4 791.9,555.4 792.5,555.4 793.0,555.4 793.5,555.4 794.1,555.4 794.6,555.4 795.1,555.4 795.7,555.4 796.2,555.4 796.7,555.4 797.1,555.4 797.6,555.4 798.2,555.4 798.7,555.4 799.2,555.4 799.8,555.4 800.3,555.4 800.8,555.4 801.4,555.4 801.9,555.4 802.3,555.4 802.8,555.4 803.3,555.4 803.9,555.4 804.4,557.3 804.9,557.3 805.5,557.3 806.0,560.5 806.5,562.4 807.1,563.0 807.6,564.3 808.0,564.3 808.5,564.3 809.0,564.3 809.6,564.3 810.1,564.3 810.6,564.3 811.2,564.3 811.7,564.3 812.2,564.3 812.8,564.3 813.3,564.3 813.7,564.3 814.2,564.3 814.7,564.3 815.3,564.3 815.8,564.3 816.4,564.3 816.9,564.3 817.4,564.3 818.0,564.3 818.5,564.3 818.8,564.3 819.4,564.3 819.9,564.3 820.5,564.3 821.0,564.3 821.5,564.3 822.1,564.3 822.6,564.3 823.1,564.3 823.7,564.3 824.2,564.3 824.6,564.3 825.1,564.3 825.6,564.3 826.2,564.3 826.7,564.3 827.2,564.3 827.8,564.3 828.3,564.3 828.8,564.3 829.4,564.3 829.7,564.3 830.3,564.3 830.8,564.3 831.3,564.3 831.9,564.3 832.4,564.3 832.9,564.3 833.5,564.3 834.0,564.3 834.5,564.3 835.1,564.3 835.4,564.3 836.0,564.3 836.5,564.3 837.0,564.3 837.6,564.3 838.1,564.3 838.6,564.3 839.2,564.3 839.7,564.3 840.2,564.3 840.8,564.3 841.1,564.3 841.7,564.3 842.2,564.3 842.7,564.3 843.3,564.3 843.8,564.3 844.3,564.3 844.9,564.3 845.4,564.3 846.0,564.3 846.3,564.3 846.8,564.3 847.4,564.3 847.9,564.3 848.5,564.3 849.0,564.3 849.5,564.3 850.1,564.3 850.6,564.3 851.1,564.3 851.7,564.3 852.0,564.3 852.6,564.3 853.1,564.3 853.6,564.3 854.2,564.3 854.7,564.3 855.2,564.3 855.8,564.3 856.3,564.3 856.8,564.3 857.2,564.3 857.7,564.3 858.3,564.3 858.8,564.3 859.3,564.3 859.9,564.3 860.4,564.3 860.9,564.3 861.5,564.3 862.0,564.3 862.5,564.3 862.9,564.3 863.4,564.3 864.0,564.3 864.5,564.3 865.0,564.3 865.6,564.3 866.1,564.3 866.6,564.3 867.2,564.3 867.7,564.3 868.1,564.3 868.6,564.3 869.1,564.3 869.7,564.3 870.2,564.3 870.7,564.3 871.3,564.3 871.8,564.3 872.3,564.3 872.9,564.3 873.4,564.3 873.8,564.3 874.3,564.3 874.8,564.3 875.4,564.3 875.9,564.3 876.4,564.3 877.0,564.3 877.5,564.3 878.1,564.3 878.6,564.3 879.1,564.3 879.5,564.3 880.0,564.3 880.6,564.3 881.1,564.3 881.6,564.3 882.2,564.3 882.7,564.3 883.2,564.3 883.8,564.3 884.3,564.3 884.7,564.3 885.2,564.3 885.7,564.3 886.3,564.3 886.8,564.3 887.3,564.3 887.9,564.3 888.4,564.3 888.9,564.3 889.5,564.3 890.0,564.3 890.4,564.3 890.9,564.3 891.4,564.3 892.0,564.3 892.5,564.3 893.0,564.3 893.6,564.3 894.1,564.3 894.6,564.3 895.2,564.3 895.5,564.3 896.1,564.3 896.6,564.3 897.1,564.3 897.7,564.3 898.2,564.3 898.7,564.3 899.3,564.3 899.8,564.3 900.3,564.3 900.9,564.3 901.2,564.3 901.8,564.3 902.3,564.3 902.8,564.3 903.4,564.3 903.9,564.3 904.4,564.3 905.0,564.3 905.5,564.3 906.1,564.3 906.4,564.3 906.9,564.3 907.5,564.3 908.0,564.3 908.6,564.3 909.1,564.3 909.6,564.3 910.2,564.3 910.7,564.3 911.2,564.3 911.8,564.3 912.1,564.3 912.7,564.3 913.2,564.3 913.7,564.3 914.3,564.3 914.8,564.3 915.3,564.3 915.9,564.3 916.4,564.3 916.9,564.3 917.5,564.3 917.8,564.3 918.4,564.3 918.9,564.3 919.4,564.3 920.0,564.3 920.5,564.3 921.0,564.3 921.6,564.3 922.1,564.3 922.6,564.3 923.0,564.3 923.5,564.3 924.1,564.3 924.6,564.3 925.1,564.3 925.7,564.3 926.2,564.3 926.7,564.3 927.3,564.3 927.8,564.3 928.3,564.3 928.7,564.3 929.2,564.3 929.8,564.3 930.3,564.3 930.8,564.3 931.4,564.3 931.9,564.3 932.4,564.3 933.0,564.3 933.5,564.3 933.9,564.3 934.4,564.3 934.9,564.3 935.5,564.3 936.0,564.3 936.5,564.3 937.1,564.3 937.6,564.3 938.2,564.3 938.7,564.3 939.2,564.3 939.6,564.3 940.1,564.3 940.7,564.3 941.2,564.3 941.7,564.3 942.3,564.3 942.8,564.3 943.3,564.3 943.9,564.3 944.4,564.3 944.8,564.3 945.3,564.9 945.8,569.4 946.4,569.4 946.9,569.4 947.4,570.0 948.0,570.0 948.5,570.0 949.0,570.0 949.6,570.0 950.1,570.0 950.5,570.0 951.0,570.0 951.5,570.0 952.1,570.0 952.6,570.0 953.1,570.0 953.7,570.0 954.2,570.0 954.7,570.0 955.3,570.0 955.8,570.0 956.2,570.0 956.7,570.0 957.2,570.0 957.8,570.0 958.3,570.0 958.8,570.0 959.4,570.0 959.9,570.0 960.4,570.0 961.0,570.0 961.3,570.0 961.9,570.0 962.4,570.0 962.9,570.0 963.5,570.0 964.0,570.0 964.5,570.0 965.1,570.0 965.6,570.0 966.2,570.0 966.7,570.0 967.0,570.0 967.6,570.0 968.1,570.0 968.6,570.0 969.2,570.0 969.7,570.0 970.3,570.0 970.8,570.0 971.3,570.0 971.9,570.0 972.2,570.0 972.8,570.0 973.3,570.0 973.8,570.0 974.4,570.0 974.9,570.0 975.4,570.0 976.0,570.0 976.5,570.0 977.0,570.0 977.6,570.0 977.9,570.0 978.5,570.0 979.0,570.0 979.5,570.0 980.1,570.0 980.6,570.0 981.1,570.0 981.7,570.0 982.2,570.0 982.7,570.0 983.3,570.0 983.6,570.0 984.2,570.0 984.7,570.0 985.2,570.0 985.8,570.0 986.3,570.0 986.8,570.0 987.4,570.0 987.9,570.0 988.4,570.0 988.8,570.0 989.3,570.0 989.9,570.0 990.4,570.0 990.9,570.0 991.5,570.0 992.0,570.0 992.5,570.0 993.1,570.0 993.6,570.0 994.1,570.0 994.5,570.0 995.0,570.0 995.6,570.0 996.1,570.0 996.6,570.0 997.2,570.0 997.7,570.0 998.3,570.0 998.8,570.0 999.3,570.0 999.7,570.0 1000.2,570.0 1000.7,570.0 1001.3,570.0 1001.8,570.0 1002.4,570.0 1002.9,570.0 1003.4,570.0 1004.0,570.0 1004.5,570.0 1005.0,570.0 1005.4,570.0 1005.9,570.0 1006.5,570.0 1007.0,570.0 1007.5,570.0 1008.1,570.0 1008.6,570.0 1009.1,570.0 1009.7,570.0 1010.2,570.0 1010.6,570.0 1011.1,570.0 1011.6,570.0 1012.2,570.0 1012.7,570.0 1013.2,570.0 1013.8,570.0 1014.3,570.0 1014.8,570.0 1015.4,570.0 1015.9,570.0 1016.3,570.0 1016.8,570.0 1017.3,570.0 1017.9,570.0 1018.4,570.0 1018.9,570.0 1019.5,570.0 1020.0,570.0 1020.5,570.0 1021.1,570.0 1021.6,570.0 1022.0,570.0 1022.5,570.0 1023.0,570.0 1023.6,570.0 1024.1,570.0 1024.6,570.0 1025.2,570.0 1025.7,570.0 1026.2,570.0 1026.8,570.0 1027.1,570.0 1027.7,570.0 1028.2,570.0 1028.7,570.0 1029.3,570.0 1029.8,570.0 1030.4,570.0 1030.9,570.0 1031.4,570.0 1032.0,570.0 1032.5,570.0 1032.8,570.0 1033.4,570.0 1033.9,570.0 1034.5,570.0 1035.0,570.0 1035.5,570.0 1036.1,570.0 1036.6,570.0 1037.1,570.0 1037.7,570.0 1038.0,570.0 1038.6,570.0 1039.1,570.0 1039.6,570.0 1040.2,570.0 1040.7,570.0 1041.2,570.0 1041.8,570.0 1042.3,570.0 1042.8,570.0 1043.4,570.0 1043.7,570.0 1044.3,570.0 1044.8,570.0 1045.3,570.0 1045.9,570.0 1046.4,570.0 1046.9,570.0 1047.5,570.0 1048.0,570.0 1048.5,570.0 1048.9,570.0 1049.4,570.0 1050.0,570.0 1050.5,570.0 1051.0,570.0 1051.6,570.0 1052.1,570.0 1052.6,570.0 1053.2,570.0 1053.7,570.0 1054.2,570.0 1054.6,570.0 1055.1,570.0 1055.7,570.0 1056.2,570.0 1056.7,570.0 1057.3,570.0 1057.8,570.0 1058.3,570.0 1058.9,570.0 1059.4,570.0 1060.0,570.0 1060.3,570.0 1060.8,570.0 1061.4,570.0 1061.9,570.0 1062.5,570.0 1063.0,570.0 1063.5,570.0 1064.1,570.0 1064.6,570.0 1065.1,570.0 1065.5,570.0 1066.0,570.0 1066.6,570.0 1067.1,570.0 1067.6,570.0 1068.2,570.0 1068.7,570.0 1069.2,570.0 1069.8,570.0 1070.3,570.0 1070.8,570.0 1071.2,570.0 1071.7,570.0 1072.3,570.0 1072.8,570.0 1073.3,570.0 1073.9,570.0 1074.4,570.0 1074.9,570.0 1075.5,570.0 1076.0,570.0 1076.4,570.0 1076.9,570.0 1077.4,570.0 1078.0,570.0 1078.5,570.0 1079.0,570.0 1079.6,570.0 1080.1,570.0 1080.6,570.0 1081.2,570.0 1081.7,570.0 1082.1,570.0 1082.6,570.0 1083.1,570.0 1083.7,570.0 1084.2,570.0 1084.7,570.0 1085.3,570.0 1085.8,570.0 1086.3,570.0 1086.9,570.0 1087.2,570.0 1087.8,570.0 1088.3,570.0 1088.8,570.0 1089.4,570.0 1089.9,570.0 1090.5,570.0 1091.0,570.0 1091.5,570.0 1092.1,570.0 1092.6,570.0 1092.9,570.0 1093.5,570.0 1094.0,570.0 1094.6,570.0 1095.1,570.0 1095.6,570.0 1096.2,570.0 1096.7,570.0 1097.2,570.0 1097.8,570.0 1098.3,570.0 1098.7,570.0 1099.2,570.0 1099.7,570.0 1100.3,570.0 1100.8,570.0 1101.3,570.0 1101.9,570.0 1102.4,570.0 1102.9,570.0 1103.5,570.0 1103.8,570.0 1104.4,570.0 1104.9,570.0 1105.4,570.0 1106.0,570.0 1106.5,570.0 1107.0,570.0 1107.6,570.0 1108.1,570.0 1108.6,570.0 1109.2,570.0 1109.5,570.0 1110.1,570.0 1110.6,570.0 1111.1,570.0 1111.7,570.0 1112.2,570.0 1112.7,570.0 1113.3,570.0 1113.8,570.0 1114.3,570.0 1114.7,570.0 1115.2,570.0 1115.8,570.0 1116.3,570.0 1116.8,570.0 1117.4,570.0 1117.9,570.0 1118.4,570.0 1119.0,570.0 1119.5,570.0 1120.1,570.0 1120.4,570.0 1120.9,570.0 1121.5,570.0 1122.0,570.0 1122.5,570.0 1123.1,570.0 1123.6,570.0 1124.2,570.0 1124.7,570.0 1125.2,570.0 1125.8,570.0" /><polyline fill="none" stroke="#d62728" stroke-width="2.5" points="90.0,151.2 90.2,169.1 90.5,176.7 90.7,179.2 91.1,183.1 91.2,184.4 91.6,189.4 91.8,191.4 92.1,201.6 92.3,206.0 92.7,208.6 93.0,210.5 93.2,212.4 93.6,214.3 93.7,216.9 94.1,219.4 94.3,220.7 94.6,222.6 94.8,222.6 95.2,226.4 95.5,229.6 95.7,229.6 96.1,233.4 96.2,234.1 96.6,246.2 96.8,248.1 97.1,248.7 97.3,251.9 97.7,255.1 97.8,255.1 98.2,257.0 98.6,265.3 98.7,265.3 99.1,266.6 99.3,266.6 99.6,269.1 99.8,269.1 100.2,269.1 100.3,269.1 100.7,269.1 101.1,269.1 101.2,269.1 101.6,269.1 101.8,269.1 102.1,269.1 102.3,269.1 102.7,269.1 102.8,269.1 103.2,269.1 103.4,269.1 103.7,269.1 104.1,269.1 104.3,269.1 104.6,269.1 104.8,269.1 105.2,269.1 105.3,269.1 105.7,269.1 105.9,269.1 106.2,269.1 106.6,269.1 106.8,269.1 107.1,269.1 107.3,271.1 107.7,273.6 107.8,276.1 108.2,279.3 108.4,283.8 108.7,288.9 109.1,294.6 109.3,294.6 109.6,294.6 109.8,294.6 110.2,294.6 110.3,294.6 110.7,294.6 110.9,294.6 111.2,295.3 111.4,295.9 111.8,295.9 112.1,295.9 112.3,295.9 112.6,299.1 112.8,303.6 113.2,311.9 113.4,311.9 113.7,313.8 113.9,315.0 114.3,318.2 114.6,318.2 114.8,318.2 115.1,322.0 115.3,323.3 115.7,324.0 115.9,324.0 116.2,331.0 116.4,331.0 116.8,332.2 116.9,332.2 117.3,334.8 117.6,334.8 117.8,334.8 118.2,334.8 118.4,334.8 118.7,338.0 118.9,338.6 119.2,338.6 119.4,338.6 119.8,344.4 120.1,344.4 120.3,344.4 120.7,350.7 120.9,350.7 121.2,353.3 121.4,353.3 121.7,353.3 121.9,353.3 122.3,353.3 122.5,353.9 122.8,353.9 123.2,353.9 123.3,354.6 123.7,364.8 123.9,365.4 124.2,367.9 124.4,367.9 124.8,367.9 125.0,367.9 125.3,371.1 125.7,371.1 125.8,383.2 126.2,387.1 126.4,389.0 126.7,389.0 126.9,389.0 127.3,389.0 127.5,389.0 127.8,389.0 128.2,389.0 128.3,389.0 128.7,389.0 128.9,389.0 129.2,389.0 129.4,389.0 129.8,389.0 129.9,389.0 130.3,389.0 130.5,389.0 130.8,389.0 131.2,389.0 131.4,389.0 131.7,389.0 131.9,394.7 132.3,396.0 132.4,396.0 132.8,396.0 133.0,397.3 133.3,397.9 133.7,397.9 133.9,397.9 134.2,397.9 134.4,397.9 134.8,397.9 134.9,397.9 135.3,397.9 135.5,397.9 135.8,397.9 136.0,397.9 136.4,397.9 136.7,397.9 136.9,397.9 137.3,397.9 137.4,397.9 137.8,397.9 138.0,397.9 138.3,397.9 138.5,397.9 138.9,397.9 139.2,397.9 139.4,397.9 139.8,397.9 139.9,397.9 140.3,397.9 140.5,397.9 140.8,397.9 141.0,397.9 141.4,397.9 141.5,397.9 141.9,397.9 142.3,397.9 142.4,397.9 142.8,397.9 143.0,397.9 143.3,397.9 143.5,397.9 143.9,397.9 144.0,397.9 144.4,397.9 144.7,397.9 144.9,397.9 145.3,397.9 145.5,397.9 145.8,401.7 146.0,403.0 146.4,403.6 146.5,403.6 146.9,403.6 147.2,403.6 147.4,403.6 147.8,403.6 148.0,403.6 148.3,403.6 148.5,403.6 148.8,403.6 149.0,403.6 149.4,403.6 149.6,403.6 149.9,403.6 150.3,403.6 150.5,403.6 150.8,403.6 151.0,403.6 151.3,403.6 151.5,403.6 151.9,406.8 152.1,407.5 152.4,411.3 152.8,411.3 153.0,411.3 153.3,411.9 153.5,412.6 153.8,412.6 154.0,412.6 154.4,417.0 154.6,417.0 154.9,417.0 155.1,417.0 155.4,417.0 155.8,417.0 156.0,418.3 156.3,419.0 156.5,420.2 156.9,421.5 157.1,423.4 157.4,426.6 157.6,427.2 157.9,428.5 158.3,428.5 158.5,428.5 158.8,428.5 159.0,428.5 159.4,428.5 159.6,431.7 159.9,436.8 160.1,437.4 160.4,437.4 160.6,437.4 161.0,437.4 161.3,437.4 161.5,437.4 161.9,437.4 162.0,437.4 162.4,437.4 162.6,437.4 162.9,437.4 163.1,437.4 163.5,437.4 163.8,437.4 164.0,437.4 164.4,437.4 164.5,437.4 164.9,437.4 165.1,437.4 165.4,437.4 165.6,437.4 166.0,437.4 166.3,437.4 166.5,437.4 166.9,437.4 167.0,437.4 167.4,437.4 167.6,437.4 167.9,437.4 168.1,437.4 168.5,437.4 168.6,437.4 169.0,437.4 169.4,437.4 169.5,437.4 169.9,437.4 170.1,437.4 170.4,437.4 170.6,437.4 171.0,437.4 171.1,437.4 171.5,437.4 171.9,437.4 172.0,437.4 172.4,437.4 172.6,437.4 172.9,437.4 173.1,437.4 173.5,437.4 173.6,437.4 174.0,437.4 174.2,437.4 174.5,437.4 174.9,437.4 175.1,437.4 175.4,437.4 175.6,437.4 176.0,437.4 176.1,437.4 176.5,437.4 176.7,437.4 177.0,437.4 177.4,437.4 177.6,437.4 177.9,437.4 178.1,437.4 178.5,437.4 178.6,437.4 179.0,437.4 179.2,437.4 179.5,437.4 179.9,437.4 180.1,437.4 180.4,437.4 180.6,437.4 180.9,437.4 181.1,437.4 181.5,437.4 181.7,437.4 182.0,437.4 182.2,437.4 182.6,437.4 182.9,437.4 183.1,437.4 183.4,437.4 183.6,437.4 184.0,437.4 184.2,437.4 184.5,437.4 184.7,437.4 185.1,437.4 185.4,437.4 185.6,437.4 185.9,437.4 186.1,437.4 186.5,438.1 186.7,438.1 187.0,438.1 187.2,438.1 187.5,438.1 187.7,438.1 188.1,438.1 188.4,438.1 188.6,438.1 189.0,438.1 189.2,438.1 189.5,438.1 189.7,438.1 190.0,438.1 190.2,438.1 190.6,438.1 190.9,438.1 191.1,438.1 191.5,438.1 191.7,438.1 192.0,438.1 192.2,438.1 192.5,438.1 192.7,438.1 193.1,438.1 193.3,438.1 193.6,438.1 194.0,438.1 194.1,438.1 194.5,438.1 194.7,438.1 195.0,438.1 195.2,438.1 195.6,438.1 195.8,438.1 196.1,438.1 196.5,438.1 196.6,438.1 197.0,438.1 197.2,438.1 197.5,438.1 197.7,438.1 198.1,438.1 198.2,438.1 198.6,438.1 199.0,438.1 199.1,438.1 199.5,438.1 199.7,438.1 200.0,438.1 200.2,438.1 200.6,438.1 200.7,438.1 201.1,438.1 201.3,441.3 201.6,442.5 202.0,443.8 202.2,445.1 202.5,445.1 202.7,445.1 203.1,445.1 203.2,445.1 203.6,445.1 203.8,445.1 204.1,445.1 204.5,445.1 204.7,445.1 205.0,445.1 205.2,445.1 205.6,445.1 205.7,445.1 206.1,445.1 206.3,445.1 206.6,445.1 206.8,445.1 207.2,445.1 207.5,445.1 207.7,445.1 208.1,445.1 208.2,445.1 208.6,445.1 208.8,445.1 209.1,445.1 209.3,445.1 209.7,445.1 210.0,445.1 210.2,445.1 210.6,445.1 210.7,445.1 211.1,445.1 211.3,445.1 211.6,445.1 211.8,445.1 212.2,445.1 212.3,445.1 212.7,445.1 213.1,445.1 213.2,445.1 213.6,445.1 213.8,445.1 214.1,445.1 214.3,445.1 214.7,445.1 214.8,445.1 215.2,445.1 215.5,445.1 215.7,445.1 216.1,445.1 216.3,445.1 216.6,445.1 216.8,445.1 217.2,445.1 217.3,445.1 217.7,445.1 218.0,445.1 218.2,445.1 218.6,445.1 218.8,445.1 219.1,445.1 219.3,445.1 219.6,445.1 219.8,445.1 220.2,445.1 220.4,445.1 220.7,445.1 221.1,445.1 221.3,445.1 221.6,445.1 221.8,445.1 222.1,445.1 222.3,445.1 222.7,445.1 222.9,445.1 223.2,445.1 223.6,445.1 223.8,445.1 224.1,445.1 224.3,445.1 224.6,445.1 224.8,445.1 225.2,445.1 225.4,445.1 225.7,445.1 225.9,445.1 226.2,445.1 226.6,445.1 226.8,445.1 227.1,445.1 227.3,445.1 227.7,445.1 227.9,445.1 228.2,445.1 228.4,445.1 228.7,445.1 229.1,445.1 229.3,445.1 229.6,445.1 229.8,445.1 230.2,445.1 230.3,445.1 230.7,445.1 230.9,445.1 231.2,445.1 231.4,445.1 231.8,445.1 232.1,445.1 232.3,445.1 232.7,445.1 232.8,445.1 233.2,445.1 233.4,445.1 233.7,445.1 233.9,445.1 234.3,445.1 234.6,445.1 234.8,445.1 235.2,445.1 235.3,445.1 235.7,445.1 235.9,445.1 236.2,445.1 236.4,445.1 236.8,445.1 237.1,445.1 237.3,445.1 237.7,445.1 237.8,445.1 238.2,445.1 238.4,445.1 238.7,445.1 238.9,445.1 239.3,445.1 239.4,445.1 239.8,445.1 240.2,448.3 240.3,448.9 240.7,449.6 240.9,450.8 241.2,450.8 241.4,450.8 241.8,450.8 241.9,450.8 242.3,450.8 242.7,450.8 242.8,450.8 243.2,450.8 243.4,450.8 243.7,450.8 243.9,450.8 244.3,450.8 244.4,450.8 244.8,450.8 245.0,450.8 245.3,450.8 245.7,450.8 245.9,450.8 246.2,450.8 246.4,450.8 246.8,450.8 246.9,450.8 247.3,450.8 247.5,450.8 247.8,450.8 248.2,450.8 248.4,450.8 248.7,450.8 248.9,450.8 249.3,450.8 249.4,450.8 249.8,450.8 250.0,450.8 250.3,450.8 250.7,450.8 250.9,450.8 251.2,450.8 251.4,450.8 251.7,450.8 251.9,450.8 252.3,450.8 252.5,450.8 252.8,450.8 253.0,450.8 253.4,450.8 253.7,450.8 253.9,450.8 254.2,450.8 254.4,450.8 254.8,450.8 255.0,450.8 255.3,450.8 255.5,450.8 255.8,450.8 256.2,450.8 256.4,450.8 256.7,450.8 256.9,450.8 257.3,450.8 257.5,450.8 257.8,450.8 258.0,450.8 258.3,450.8 258.5,450.8 258.9,450.8 259.2,450.8 259.4,450.8 259.8,454.0 260.0,455.3 260.3,455.3 260.5,455.3 260.8,455.3 261.0,455.3 261.4,455.9 261.7,461.0 261.9,461.0 262.3,461.0 262.4,461.0 262.8,461.0 263.0,461.0 263.3,461.0 263.5,461.0 263.9,461.0 264.1,461.0 264.4,461.0 264.8,461.0 264.9,461.0 265.3,461.0 265.5,461.0 265.8,461.0 266.0,461.0 266.4,461.0 266.6,461.0 266.9,461.0 267.3,461.0 267.4,461.0 267.8,461.0 268.0,461.0 268.3,461.0 268.5,461.0 268.9,461.0 269.0,461.0 269.4,461.0 269.8,461.0 269.9,461.0 270.3,461.0 270.5,461.0 270.8,461.0 271.0,461.0 271.4,461.0 271.5,461.0 271.9,461.0 272.1,461.0 272.4,461.0 272.8,461.0 273.0,461.0 273.3,461.0 273.5,461.0 273.9,461.0 274.0,461.0 274.4,461.0 274.6,461.0 274.9,461.0 275.3,461.0 275.5,461.0 275.8,461.0 276.0,461.0 276.4,461.0 276.5,461.0 276.9,461.0 277.1,461.0 277.4,461.0 277.6,461.0 278.0,461.0 278.3,461.0 278.5,461.0 278.9,461.0 279.0,461.0 279.4,461.0 279.6,461.0 279.9,461.0 280.1,461.0 280.5,461.0 280.8,461.0 281.0,461.0 281.4,461.0 281.5,461.0 281.9,461.0 282.1,461.0 282.4,461.0 282.6,461.0 283.0,461.0 283.1,461.0 283.5,461.0 283.8,461.0 284.0,461.0 284.4,461.0 284.6,461.0 284.9,461.0 285.1,461.0 285.5,461.0 285.6,461.0 286.0,461.0 286.3,461.0 286.5,461.0 286.9,461.0 287.1,461.0 287.4,461.0 287.6,461.0 287.9,461.0 288.1,461.0 288.5,461.0 288.8,461.0 289.0,461.0 289.4,461.0 289.6,461.0 289.9,461.0 290.1,461.0 290.4,461.0 290.6,461.0 291.0,461.0 291.2,461.0 291.5,461.0 291.9,461.0 292.1,461.0 292.4,461.0 292.6,461.0 292.9,461.0 293.1,461.0 293.5,461.0 293.7,461.0 294.0,461.0 294.4,461.0 294.5,461.0 294.9,461.0 295.1,461.0 295.4,461.0 295.6,461.0 296.0,461.0 296.2,461.0 296.5,461.0 296.7,461.0 297.0,461.0 297.4,461.0 297.6,461.0 297.9,461.0 298.1,461.0 298.5,461.0 298.6,461.0 299.0,461.0 299.2,461.0 299.5,461.0 299.9,461.0 300.1,461.0 300.4,461.0 300.6,461.0 301.0,461.0 301.1,461.0 301.5,461.0 301.7,461.0 302.0,461.0 302.2,461.0 302.6,461.0 302.9,461.0 303.1,461.0 303.5,461.0 303.6,461.0 304.0,461.0 304.2,461.0 304.5,461.0 304.7,461.0 305.1,461.0 305.4,461.0 305.6,461.0 306.0,461.0 306.1,461.0 306.5,461.0 306.7,461.0 307.0,461.0 307.2,461.0 307.6,461.0 307.9,461.0 308.1,461.0 308.5,461.0 308.6,461.0 309.0,461.0 309.2,461.0 309.5,461.0 309.7,461.0 310.1,461.0 310.2,461.0 310.6,461.0 311.0,461.0 311.1,461.0 311.5,461.0 311.7,461.0 312.0,461.0 312.2,461.0 312.6,461.0 312.7,461.0 313.1,461.0 313.5,461.0 313.6,461.0 314.0,461.0 314.2,461.0 314.5,461.0 314.7,461.0 315.1,461.0 315.2,461.0 315.6,461.0 315.8,461.0 316.1,461.0 316.5,461.0 316.7,461.0 317.0,461.0 317.2,461.0 317.6,461.0 317.7,461.0 318.1,461.0 318.3,461.0 318.6,461.0 319.0,461.0 319.2,461.7 319.5,462.9 319.7,462.9 320.0,462.9 320.2,462.9 320.6,462.9 320.8,462.9 321.1,462.9 321.3,462.9 321.7,462.9 322.0,462.9 322.2,462.9 322.5,462.9 322.7,462.9 323.1,462.9 323.3,462.9 323.6,462.9 323.8,462.9 324.2,462.9 324.5,462.9 324.7,462.9 325.0,462.9 325.2,462.9 325.6,462.9 325.8,462.9 326.1,462.9 326.3,462.9 326.6,469.9 327.0,469.9 327.2,469.9 327.5,469.9 327.7,469.9 328.1,469.9 328.3,469.9 328.6,469.9 328.8,469.9 329.1,469.9 329.3,469.9 329.7,469.9 330.0,469.9 330.2,469.9 330.6,469.9 330.8,469.9 331.1,469.9 331.3,469.9 331.6,469.9 331.8,469.9 332.2,469.9 332.5,469.9 332.7,469.9 333.1,469.9 333.2,469.9 333.6,469.9 333.8,469.9 334.1,469.9 334.3,469.9 334.7,469.9 334.9,469.9 335.2,469.9 335.6,469.9 335.7,469.9 336.1,469.9 336.3,469.9 336.6,469.9 336.8,469.9 337.2,469.9 337.3,469.9 337.7,469.9 338.1,469.9 338.2,469.9 338.6,469.9 338.8,469.9 339.1,469.9 339.3,469.9 339.7,469.9 339.8,469.9 340.2,469.9 340.6,469.9 340.7,471.9 341.1,471.9 341.3,471.9 341.6,471.9 341.8,471.9 342.2,471.9 342.3,471.9 342.7,471.9 342.9,471.9 343.2,471.9 343.6,471.9 343.8,471.9 344.1,471.9 344.3,471.9 344.7,471.9 344.8,471.9 345.2,471.9 345.4,471.9 345.7,471.9 346.1,471.9 346.3,471.9 346.6,471.9 346.8,471.9 347.2,471.9 347.3,471.9 347.7,471.9 347.9,471.9 348.2,471.9 348.4,471.9 348.8,471.9 349.1,471.9 349.3,471.9 349.7,471.9 349.8,471.9 350.2,471.9 350.4,471.9 350.7,471.9 350.9,471.9 351.3,471.9 351.6,471.9 351.8,471.9 352.1,471.9 352.3,471.9 352.7,471.9 352.9,471.9 353.2,471.9 353.4,471.9 353.8,471.9 353.9,471.9 354.3,471.9 354.6,471.9 354.8,471.9 355.2,471.9 355.4,471.9 355.7,471.9 355.9,471.9 356.3,471.9 356.4,471.9 356.8,471.9 357.1,471.9 357.3,471.9 357.7,471.9 357.9,471.9 358.2,471.9 358.4,471.9 358.7,471.9 358.9,471.9 359.3,471.9 359.6,471.9 359.8,471.9 360.2,471.9 360.4,471.9 360.7,471.9 360.9,471.9 361.2,471.9 361.4,471.9 361.8,471.9 362.0,471.9 362.3,471.9 362.7,471.9 362.9,471.9 363.2,471.9 363.4,471.9 363.7,471.9 363.9,471.9 364.3,471.9 364.5,471.9 364.8,471.9 365.2,471.9 365.3,471.9 365.7,471.9 365.9,471.9 366.2,471.9 366.4,471.9 366.8,471.9 367.0,471.9 367.3,471.9 367.5,471.9 367.8,471.9 368.2,471.9 368.4,471.9 368.7,471.9 368.9,471.9 369.3,471.9 369.4,471.9 369.8,471.9 370.0,471.9 370.3,471.9 370.7,471.9 370.9,471.9 371.2,471.9 371.4,471.9 371.8,471.9 371.9,471.9 372.3,471.9 372.5,471.9 372.8,471.9 373.0,471.9 373.4,471.9 373.7,471.9 373.9,471.9 374.3,471.9 374.4,471.9 374.8,471.9 375.0,471.9 375.3,471.9 375.5,471.9 375.9,471.9 376.2,471.9 376.4,471.9 376.8,471.9 376.9,471.9 377.3,471.9 377.5,471.9 377.8,471.9 378.0,471.9 378.4,471.9 378.7,471.9 378.9,471.9 379.3,471.9 379.4,471.9 379.8,471.9 380.0,471.9 380.3,471.9 380.5,471.9 380.9,471.9 381.0,471.9 381.4,471.9 381.8,471.9 381.9,471.9 382.3,471.9 382.5,471.9 382.8,471.9 383.0,471.9 383.4,471.9 383.5,471.9 383.9,471.9 384.2,471.9 384.4,471.9 384.8,471.9 385.0,471.9 385.3,471.9 385.5,471.9 385.9,471.9 386.0,471.9 386.4,471.9 386.6,471.9 386.9,471.9 387.3,471.9 387.5,471.9 387.8,471.9 388.0,471.9 388.4,471.9 388.5,471.9 388.9,471.9 389.1,471.9 389.4,471.9 389.8,471.9 390.0,471.9 390.3,471.9 390.5,471.9 390.8,471.9 391.0,471.9 391.4,471.9 391.6,471.9 391.9,471.9 392.1,471.9 392.5,471.9 392.8,471.9 393.0,471.9 393.3,471.9 393.5,471.9 393.9,471.9 394.1,471.9 394.4,471.9 394.6,471.9 394.9,471.9 395.3,471.9 395.5,471.9 395.8,471.9 396.0,471.9 396.4,471.9 396.6,471.9 396.9,471.9 397.1,471.9 397.4,471.9 397.8,471.9 398.0,471.9 398.3,471.9 398.5,471.9 398.9,471.9 399.1,471.9 399.4,471.9 399.6,471.9 399.9,471.9 400.1,471.9 400.5,471.9 400.8,471.9 401.0,471.9 401.4,471.9 401.5,471.9 401.9,471.9 402.1,471.9 402.4,471.9 402.6,471.9 403.0,471.9 403.3,471.9 403.5,471.9 403.9,471.9 404.0,471.9 404.4,471.9 404.6,471.9 404.9,471.9 405.1,471.9 405.5,471.9 405.6,471.9 406.0,471.9 406.4,471.9 406.5,471.9 406.9,471.9 407.1,471.9 407.4,471.9 407.6,471.9 408.0,471.9 408.1,471.9 408.5,471.9 408.9,471.9 409.0,471.9 409.4,471.9 409.6,471.9 409.9,471.9 410.1,471.9 410.5,471.9 410.6,471.9 411.0,471.9 411.4,471.9 411.5,471.9 411.9,471.9 412.1,471.9 412.4,471.9 412.6,471.9 413.0,471.9 413.1,471.9 413.5,471.9 413.7,471.9 414.0,471.9 414.4,471.9 414.6,471.9 414.9,471.9 415.1,471.9 415.5,471.9 415.6,471.9 416.0,471.9 416.2,471.9 416.5,471.9 416.9,471.9 417.1,471.9 417.4,471.9 417.6,471.9 418.0,471.9 418.1,471.9 418.5,471.9 418.7,471.9 419.0,471.9 419.2,471.9 419.6,471.9 419.9,471.9 420.1,471.9 420.5,471.9 420.6,471.9 421.0,471.9 421.2,471.9 421.5,471.9 421.7,471.9 422.1,471.9 422.4,471.9 422.6,471.9 422.9,471.9 423.1,471.9 423.5,471.9 423.7,471.9 424.0,471.9 424.2,471.9 424.6,471.9 424.7,471.9 425.1,471.9 425.4,471.9 425.6,471.9 426.0,471.9 426.2,471.9 426.5,471.9 426.7,471.9 427.1,471.9 427.2,471.9 427.6,471.9 427.9,471.9 428.1,471.9 428.5,471.9 428.7,471.9 429.0,471.9 429.2,471.9 429.5,471.9 429.7,471.9 430.1,471.9 430.4,471.9 430.6,477.6 431.0,477.6 431.2,478.9 431.5,480.1 431.7,484.0 432.0,487.2 432.2,487.2 432.6,487.2 432.8,487.2 433.1,487.2 433.5,487.2 433.6,487.2 434.0,487.2 434.2,487.2 434.5,487.2 434.7,487.2 435.1,487.2 435.3,487.2 435.6,487.2 436.0,487.2 436.1,487.2 436.5,487.2 436.7,487.2 437.0,487.2 437.2,487.2 437.6,487.2 437.8,487.2 438.1,487.2 438.3,487.2 438.6,487.2 439.0,487.2 439.2,487.2 439.5,487.2 439.7,491.0 440.1,492.3 440.2,492.3 440.6,492.3 440.8,492.3 441.1,492.3 441.5,492.3 441.7,492.3 442.0,492.3 442.2,492.3 442.6,492.3 442.7,492.3 443.1,492.3 443.3,492.3 443.6,492.3 443.8,492.3 444.2,492.3 444.5,492.3 444.7,492.3 445.1,492.3 445.2,492.3 445.6,492.3 445.8,492.3 446.1,492.3 446.3,492.3 446.7,492.3 447.0,492.3 447.2,492.3 447.6,492.3 447.7,492.3 448.1,492.3 448.3,492.3 448.6,492.3 448.8,492.3 449.2,492.3 449.5,492.3 449.7,492.3 450.1,492.3 450.2,492.3 450.6,492.3 450.8,492.3 451.1,492.3 451.3,492.3 451.7,492.3 451.8,492.3 452.2,492.3 452.6,492.3 452.7,492.3 453.1,492.3 453.3,492.3 453.6,492.3 453.8,492.3 454.2,492.3 454.3,492.3 454.7,492.3 455.0,492.3 455.2,492.3 455.6,492.3 455.8,492.3 456.1,492.3 456.3,492.3 456.7,492.3 456.8,492.3 457.2,492.3 457.4,492.3 457.7,492.3 458.1,492.3 458.3,492.3 458.6,492.3 458.8,492.3 459.1,492.3 459.3,492.3 459.7,492.3 459.9,492.3 460.2,492.3 460.6,492.3 460.8,492.3 461.1,492.9 461.3,493.5 461.6,494.2 461.8,494.8 462.2,494.8 462.4,494.8 462.7,494.8 462.9,494.8 463.3,494.8 463.6,495.4 463.8,495.4 464.1,498.6 464.3,499.9 464.7,500.6 464.9,500.6 465.2,500.6 465.4,500.6 465.7,500.6 466.1,500.6 466.3,500.6 466.6,500.6 466.8,500.6 467.2,500.6 467.4,500.6 467.7,500.6 467.9,500.6 468.2,500.6 468.6,500.6 468.8,500.6 469.1,500.6 469.3,500.6 469.7,500.6 469.8,500.6 470.2,500.6 470.4,500.6 470.7,500.6 470.9,500.6 471.3,500.6 471.6,500.6 471.8,500.6 472.2,500.6 472.3,500.6 472.7,500.6 472.9,500.6 473.2,500.6 473.4,500.6 473.8,500.6 474.1,500.6 474.3,500.6 474.7,500.6 474.8,500.6 475.2,500.6 475.4,500.6 475.7,500.6 475.9,500.6 476.3,500.6 476.4,500.6 476.8,500.6 477.2,500.6 477.3,500.6 477.7,500.6 477.9,500.6 478.2,500.6 478.4,500.6 478.8,500.6 478.9,500.6 479.3,500.6 479.7,500.6 479.8,500.6 480.2,500.6 480.4,500.6 480.7,500.6 480.9,500.6 481.3,500.6 481.4,500.6 481.8,500.6 482.0,500.6 482.3,500.6 482.7,500.6 482.9,500.6 483.2,500.6 483.4,500.6 483.8,500.6 483.9,500.6 484.3,500.6 484.5,500.6 484.8,500.6 485.2,500.6 485.4,500.6 485.7,500.6 485.9,500.6 486.3,500.6 486.4,500.6 486.8,500.6 487.0,500.6 487.3,500.6 487.7,500.6 487.9,500.6 488.2,500.6 488.4,500.6 488.8,500.6 488.9,500.6 489.3,500.6 489.5,500.6 489.8,500.6 490.0,500.6 490.4,500.6 490.7,500.6 490.9,500.6 491.2,500.6 491.4,500.6 491.8,500.6 492.0,500.6 492.3,500.6 492.5,500.6 492.9,500.6 493.2,500.6 493.4,500.6 493.7,500.6 493.9,500.6 494.3,500.6 494.5,500.6 494.8,500.6 495.0,500.6 495.4,500.6 495.5,500.6 495.9,500.6 496.2,500.6 496.4,500.6 496.8,500.6 497.0,500.6 497.3,500.6 497.5,500.6 497.8,500.6 498.0,500.6 498.4,500.6 498.7,500.6 498.9,500.6 499.3,500.6 499.5,500.6 499.8,500.6 500.0,500.6 500.3,500.6 500.5,500.6 500.9,500.6 501.2,500.6 501.4,500.6 501.8,500.6 501.9,500.6 502.3,500.6 502.5,500.6 502.8,500.6 503.0,500.6 503.4,500.6 503.6,500.6 503.9,500.6 504.3,500.6 504.4,500.6 504.8,500.6 505.0,500.6 505.3,500.6 505.5,500.6 505.9,500.6 506.1,500.6 506.4,500.6 506.8,500.6 506.9,500.6 507.3,500.6 507.5,500.6 507.8,500.6 508.0,500.6 508.4,500.6 508.5,500.6 508.9,500.6 509.1,500.6 509.4,500.6 509.8,500.6 510.0,500.6 510.3,500.6 510.5,500.6 510.9,500.6 511.0,500.6 511.4,500.6 511.6,500.6 511.9,500.6 512.3,500.6 512.5,500.6 512.8,500.6 513.0,500.6 513.4,500.6 513.5,500.6 513.9,500.6 514.1,500.6 514.4,500.6 514.6,500.6 515.0,500.6 515.3,500.6 515.5,500.6 515.9,500.6 516.0,500.6 516.4,500.6 516.6,500.6 516.9,500.6 517.1,500.6 517.5,500.6 517.8,500.6 518.0,500.6 518.4,500.6 518.5,500.6 518.9,500.6 519.1,500.6 519.4,500.6 519.6,500.6 520.0,500.6 520.3,500.6 520.5,500.6 520.9,500.6 521.0,500.6 521.4,500.6 521.6,500.6 521.9,500.6 522.1,500.6 522.5,500.6 522.6,500.6 523.0,500.6 523.4,500.6 523.5,500.6 523.9,500.6 524.1,500.6 524.4,500.6 524.6,500.6 525.0,500.6 525.1,500.6 525.5,500.6 525.8,500.6 526.0,500.6 526.4,500.6 526.6,500.6 526.9,500.6 527.1,500.6 527.5,500.6 527.6,500.6 528.0,500.6 528.2,500.6 528.5,500.6 528.9,500.6 529.1,500.6 529.4,500.6 529.6,500.6 529.9,500.6 530.1,500.6 530.5,500.6 530.7,500.6 531.0,500.6 531.4,500.6 531.6,500.6 531.9,500.6 532.1,500.6 532.4,500.6 532.6,500.6 533.0,500.6 533.2,500.6 533.5,500.6 533.7,500.6 534.0,500.6 534.4,500.6 534.6,500.6 534.9,500.6 535.1,500.6 535.5,500.6 535.7,500.6 536.0,500.6 536.2,500.6 536.5,500.6 536.9,500.6 537.1,500.6 537.4,500.6 537.6,500.6 538.0,500.6 538.2,500.6 538.5,500.6 538.7,500.6 539.0,500.6 539.4,500.6 539.6,500.6 539.9,500.6 540.1,500.6 540.5,500.6 540.6,500.6 541.0,500.6 541.2,500.6 541.5,500.6 541.7,500.6 542.1,500.6 542.4,500.6 542.6,500.6 543.0,500.6 543.1,500.6 543.5,500.6 543.7,500.6 544.0,500.6 544.2,500.6 544.6,500.6 544.9,500.6 545.1,500.6 545.5,500.6 545.6,500.6 546.0,500.6 546.2,500.6 546.5,500.6 546.7,500.6 547.1,500.6 547.2,500.6 547.6,500.6 548.0,500.6 548.1,500.6 548.5,500.6 548.7,500.6 549.0,500.6 549.2,500.6 549.6,500.6 549.7,500.6 550.1,500.6 550.5,500.6 550.6,500.6 551.0,500.6 551.2,500.6 551.5,500.6 551.7,500.6 552.1,500.6 552.2,500.6 552.6,500.6 552.8,500.6 553.1,500.6 553.5,500.6 553.7,500.6 554.0,500.6 554.2,500.6 554.6,500.6 554.7,500.6 555.1,500.6 555.3,500.6 555.6,500.6 556.0,500.6 556.2,500.6 556.5,500.6 556.7,500.6 557.1,500.6 557.2,500.6 557.6,500.6 557.8,500.6 558.1,500.6 558.5,500.6 558.7,500.6 559.0,500.6 559.2,500.6 559.6,500.6 559.7,500.6 560.1,500.6 560.3,500.6 560.6,500.6 560.8,500.6 561.2,500.6 561.5,500.6 561.7,500.6 562.0,500.6 562.2,500.6 562.6,500.6 562.8,500.6 563.1,500.6 563.3,500.6 563.7,500.6 564.0,500.6 564.2,500.6 564.5,500.6 564.7,500.6 565.1,500.6 565.3,500.6 565.6,500.6 565.8,500.6 566.2,500.6 566.3,500.6 566.7,500.6 567.0,500.6 567.2,500.6 567.6,500.6 567.8,500.6 568.1,500.6 568.3,500.6 568.6,500.6 568.8,500.6 569.2,500.6 569.5,500.6 569.7,500.6 570.1,500.6 570.3,500.6 570.6,500.6 570.8,500.6 571.1,500.6 571.3,500.6 571.7,500.6 572.0,500.6 572.2,500.6 572.6,500.6 572.7,500.6 573.1,500.6 573.3,500.6 573.6,500.6 573.8,500.6 574.2,500.6 574.4,500.6 574.7,500.6 575.1,500.6 575.2,500.6 575.6,500.6 575.8,500.6 576.1,500.6 576.3,500.6 576.7,500.6 576.9,500.6 577.2,500.6 577.6,500.6 577.7,500.6 578.1,500.6 578.3,500.6 578.6,500.6 578.8,500.6 579.2,500.6 579.3,500.6 579.7,500.6 579.9,500.6 580.2,500.6 580.6,500.6 580.8,500.6 581.1,500.6 581.3,500.6 581.7,500.6 581.8,500.6 582.2,500.6 582.4,500.6 582.7,500.6 583.1,500.6 583.3,500.6 583.6,500.6 583.8,500.6 584.2,500.6 584.3,500.6 584.7,500.6 584.9,500.6 585.2,500.6 585.4,500.6 585.8,500.6 586.1,500.6 586.3,500.6 586.7,500.6 586.8,500.6 587.2,500.6 587.4,500.6 587.7,500.6 587.9,500.6 588.3,500.6 588.6,500.6 588.8,500.6 589.2,500.6 589.3,500.6 589.7,500.6 589.9,500.6 590.2,500.6 590.4,500.6 590.8,500.6 591.1,500.6 591.3,500.6 591.7,500.6 591.8,500.6 592.2,500.6 592.4,500.6 592.7,500.6 592.9,500.6 593.3,500.6 593.4,500.6 593.8,500.6 594.1,500.6 594.3,500.6 594.7,500.6 594.9,500.6 595.2,500.6 595.4,500.6 595.8,500.6 595.9,500.6 596.3,500.6 596.6,500.6 596.8,500.6 597.2,500.6 597.4,500.6 597.7,500.6 597.9,500.6 598.2,500.6 598.4,500.6 598.8,500.6 599.0,500.6 599.3,500.6 599.7,500.6 599.9,500.6 600.2,500.6 600.4,500.6 600.7,500.6 600.9,500.6 601.3,500.6 601.5,500.6 601.8,500.6 602.2,500.6 602.4,500.6 602.7,500.6 602.9,500.6 603.2,500.6 603.4,500.6 603.8,500.6 604.0,500.6 604.3,500.6 604.5,500.6 604.8,500.6 605.2,500.6 605.4,500.6 605.7,500.6 605.9,500.6 606.3,500.6 606.5,500.6 606.8,500.6 607.0,500.6 607.3,500.6 607.7,500.6 607.9,500.6 608.2,500.6 608.4,500.6 608.8,500.6 608.9,500.6 609.3,500.6 609.5,500.6 609.8,500.6 610.2,500.6 610.4,500.6 610.7,500.6 610.9,500.6 611.3,500.6 611.4,500.6 611.8,500.6 612.0,500.6 612.3,500.6 612.5,500.6 612.9,500.6 613.2,500.6 613.4,500.6 613.8,500.6 613.9,500.6 614.3,500.6 614.5,500.6 614.8,500.6 615.0,500.6 615.4,500.6 615.7,500.6 615.9,500.6 616.3,500.6 616.4,500.6 616.8,500.6 617.0,500.6 617.3,500.6 617.5,500.6 617.9,500.6 618.0,500.6 618.4,500.6 618.8,500.6 618.9,500.6 619.3,500.6 619.5,500.6 619.8,500.6 620.0,500.6 620.4,500.6 620.5,500.6 620.9,500.6 621.3,500.6 621.4,500.6 621.8,500.6 622.0,500.6 622.3,500.6 622.5,500.6 622.9,500.6 623.0,500.6 623.4,500.6 623.6,500.6 623.9,500.6 624.3,500.6 624.5,500.6 624.8,500.6 625.0,500.6 625.4,500.6 625.5,500.6 625.9,500.6 626.1,500.6 626.4,500.6 626.8,500.6 627.0,500.6 627.3,500.6 627.5,500.6 627.9,500.6 628.0,500.6 628.4,500.6 628.6,500.6 628.9,500.6 629.3,500.6 629.5,500.6 629.8,500.6 630.0,500.6 630.4,500.6 630.5,500.6 630.9,500.6 631.1,500.6 631.4,500.6 631.6,500.6 632.0,500.6 632.3,500.6 632.5,500.6 632.8,500.6 633.0,500.6 633.4,500.6 633.6,500.6 633.9,500.6 634.1,500.6 634.5,500.6 634.8,500.6 635.0,500.6 635.3,500.6 635.5,500.6 635.9,500.6 636.1,500.6 636.4,500.6 636.6,500.6 636.9,500.6 637.1,500.6 637.5,500.6 637.8,500.6 638.0,500.6 638.4,500.6 638.6,500.6 638.9,500.6 639.1,500.6 639.4,500.6 639.6,500.6 640.0,500.6 640.3,500.6 640.5,500.6 640.9,500.6 641.1,500.6 641.4,500.6 641.6,500.6 641.9,500.6 642.1,500.6 642.5,500.6 642.8,500.6" /><polyline fill="none" stroke="#2ca02c" stroke-width="2.5" points="90.0,151.2 90.4,190.1 90.7,197.7 91.1,206.0 91.4,213.7 91.8,218.1 92.1,224.5 92.5,229.0 92.9,238.5 93.4,239.8 93.7,241.1 94.1,244.3 94.5,248.1 94.8,256.4 95.2,258.3 95.5,258.9 95.9,260.2 96.4,263.4 96.8,267.2 97.1,273.6 97.5,276.8 97.8,280.0 98.2,280.0 98.6,285.7 98.9,287.6 99.5,290.2 99.8,291.4 100.2,295.9 100.5,297.8 100.9,299.7 101.2,304.8 101.6,306.1 101.9,306.1 102.3,309.3 102.8,312.5 103.2,314.4 103.6,315.7 103.9,320.8 104.3,320.8 104.6,320.8 105.0,322.0 105.3,325.2 105.9,331.0 106.2,331.0 106.6,332.2 106.9,338.6 107.3,338.6 107.7,338.6 108.0,338.6 108.4,338.6 108.9,338.6 109.3,338.6 109.6,338.6 110.0,338.6 110.3,344.4 110.7,344.4 111.0,344.4 111.4,344.4 111.9,344.4 112.3,348.8 112.6,353.9 113.0,357.1 113.4,357.8 113.7,362.2 114.1,364.1 114.4,365.4 114.8,366.7 115.3,367.9 115.7,367.9 116.0,367.9 116.4,367.9 116.8,370.5 117.1,370.5 117.5,371.8 117.8,373.7 118.4,383.2 118.7,394.7 119.1,394.7 119.4,394.7 119.8,401.7 120.1,402.4 120.5,402.4 120.9,402.4 121.4,408.1 121.7,408.1 122.1,408.1 122.5,408.1 122.8,413.2 123.2,413.2 123.5,413.2 123.9,413.2 124.4,413.2 124.8,413.2 125.1,413.2 125.5,413.2 125.8,413.2 126.2,413.2 126.6,413.2 126.9,413.2 127.3,415.1 127.8,416.4 128.2,417.0 128.5,426.6 128.9,426.6 129.2,426.6 129.6,426.6 129.9,426.6 130.3,426.6 130.8,426.6 131.2,426.6 131.6,426.6 131.9,426.6 132.3,426.6 132.6,426.6 133.0,431.7 133.3,432.3 133.9,434.9 134.2,434.9 134.6,434.9 134.9,434.9 135.3,434.9 135.7,434.9 136.0,434.9 136.4,434.9 136.9,434.9 137.3,434.9 137.6,434.9 138.0,434.9 138.3,434.9 138.7,434.9 139.0,434.9 139.4,434.9 139.8,434.9 140.3,434.9 140.6,434.9 141.0,434.9 141.4,434.9 141.7,434.9 142.1,434.9 142.4,434.9 142.8,434.9 143.3,434.9 143.7,434.9 144.0,434.9 144.4,434.9 144.7,434.9 145.1,434.9 145.5,434.9 145.8,434.9 146.4,434.9 146.7,434.9 147.1,434.9 147.4,434.9 147.8,434.9 148.1,434.9 148.5,434.9 148.8,434.9 149.4,434.9 149.7,434.9 150.1,434.9 150.5,434.9 150.8,434.9 151.2,434.9 151.5,434.9 151.9,434.9 152.2,434.9 152.8,434.9 153.1,434.9 153.5,434.9 153.8,434.9 154.2,434.9 154.6,434.9 154.9,434.9 155.3,434.9 155.8,434.9 156.2,434.9 156.5,434.9 156.9,434.9 157.2,434.9 157.6,434.9 157.9,434.9 158.3,434.9 158.8,434.9 159.2,434.9 159.6,434.9 159.9,434.9 160.3,434.9 160.6,434.9 161.0,434.9 161.3,434.9 161.9,434.9 162.2,434.9 162.6,434.9 162.9,434.9 163.3,434.9 163.7,434.9 164.0,434.9 164.4,434.9 164.7,434.9 165.3,434.9 165.6,434.9 166.0,434.9 166.3,434.9 166.7,434.9 167.0,434.9 167.4,434.9 167.8,434.9 168.3,434.9 168.6,434.9 169.0,434.9 169.4,434.9 169.7,434.9 170.1,434.9 170.4,434.9 170.8,434.9 171.3,434.9 171.7,434.9 172.0,434.9 172.4,434.9 172.7,434.9 173.1,434.9 173.5,434.9 173.8,434.9 174.2,434.9 174.7,434.9 175.1,434.9 175.4,434.9 175.8,434.9 176.1,434.9 176.5,434.9 176.8,434.9 177.2,434.9 177.7,434.9 178.1,434.9 178.5,434.9 178.8,434.9 179.2,434.9 179.5,434.9 179.9,434.9 180.2,434.9 180.8,434.9 181.1,434.9 181.5,434.9 181.8,434.9 182.2,434.9 182.6,434.9 182.9,434.9 183.3,434.9 183.8,434.9 184.2,434.9 184.5,434.9 184.9,434.9 185.2,434.9 185.6,434.9 185.9,434.9 186.3,434.9 186.7,434.9 187.2,434.9 187.5,434.9 187.9,434.9 188.3,434.9 188.6,436.2 189.0,437.4 189.3,437.4 189.7,438.1 190.2,438.1 190.6,438.1 190.9,441.9 191.3,441.9 191.7,445.7 192.0,445.7 192.4,447.6 192.7,447.6 193.3,447.6 193.6,447.6 194.0,447.6 194.3,447.6 194.7,447.6 195.0,447.6 195.4,447.6 195.8,447.6 196.3,447.6 196.6,447.6 197.0,447.6 197.4,447.6 197.7,447.6 198.1,447.6 198.4,448.9 198.8,448.9 199.1,448.9 199.7,448.9 200.0,448.9 200.4,448.9 200.7,448.9 201.1,448.9 201.5,448.9 201.8,448.9 202.2,448.9 202.7,448.9 203.1,448.9 203.4,448.9 203.8,448.9 204.1,448.9 204.5,448.9 204.8,448.9 205.2,448.9 205.7,448.9 206.1,448.9 206.5,448.9 206.8,448.9 207.2,448.9 207.5,448.9 207.9,448.9 208.2,448.9 208.8,448.9 209.1,448.9 209.5,448.9 209.8,448.9 210.2,448.9 210.6,448.9 210.9,448.9 211.3,448.9 211.6,448.9 212.2,448.9 212.5,448.9 212.9,448.9 213.2,448.9 213.6,448.9 213.9,448.9 214.3,448.9 214.7,448.9 215.2,448.9 215.5,448.9 215.9,448.9 216.3,448.9 216.6,448.9 217.0,448.9 217.3,448.9 217.7,448.9 218.2,448.9 218.6,448.9 218.9,448.9 219.3,448.9 219.6,448.9 220.0,448.9 220.4,448.9 220.7,448.9 221.3,448.9 221.6,448.9 222.0,448.9 222.3,448.9 222.7,448.9 223.0,448.9 223.4,450.2 223.8,451.5 224.1,455.9 224.6,457.2 225.0,457.2 225.4,457.2 225.7,457.2 226.1,457.2 226.4,457.2 226.8,457.2 227.1,457.2 227.7,457.2 228.0,457.2 228.4,457.2 228.7,457.2 229.1,457.2 229.5,457.2 229.8,457.2 230.2,457.2 230.7,457.2 231.1,457.2 231.4,457.2 231.8,457.2 232.1,457.2 232.5,457.2 232.8,457.2 233.2,457.2 233.7,457.2 234.1,457.2 234.5,457.2 234.8,457.2 235.2,457.2 235.5,457.2 235.9,457.2 236.2,457.2 236.6,457.2 237.1,457.2 237.5,457.2 237.8,457.2 238.2,457.2 238.6,457.2 238.9,457.2 239.3,457.2 239.6,457.2 240.2,457.2 240.5,457.2 240.9,457.2 241.2,457.2 241.6,457.2 241.9,457.2 242.3,457.2 242.7,457.2 243.2,457.2 243.5,457.2 243.9,457.2 244.3,457.2 244.6,457.2 245.0,457.2 245.3,457.2 245.7,457.2 246.0,457.2 246.6,457.2 246.9,457.2 247.3,457.2 247.6,457.2 248.0,457.2 248.4,457.2 248.7,457.2 249.1,457.2 249.6,457.2 250.0,457.2 250.3,457.2 250.7,457.2 251.0,457.2 251.4,457.2 251.7,457.2 252.1,457.2 252.6,457.2 253.0,457.2 253.4,457.2 253.7,457.2 254.1,457.2 254.4,457.2 254.8,457.2 255.1,457.2 255.7,457.2 256.0,457.2 256.4,457.2 256.7,457.2 257.1,457.2 257.5,457.2 257.8,457.2 258.2,457.2 258.5,457.2 259.1,457.2 259.4,457.2 259.8,457.2 260.1,457.2 260.5,457.2 260.8,457.2 261.2,457.2 261.6,457.2 262.1,457.2 262.4,457.2 262.8,457.2 263.2,457.2 263.5,457.2 263.9,457.2 264.2,457.2 264.6,457.2 265.1,457.2 265.5,457.2 265.8,457.2 266.2,457.2 266.6,457.2 266.9,457.2 267.3,457.2 267.6,457.2 268.2,457.2 268.5,457.2 268.9,457.2 269.2,457.2 269.6,457.2 269.9,457.2 270.3,457.2 270.7,457.2 271.0,457.2 271.5,457.2 271.9,457.2 272.3,457.2 272.6,457.2 273.0,457.2 273.3,457.2 273.7,457.2 274.0,457.2 274.6,457.2 274.9,457.2 275.3,457.2 275.6,457.2 276.0,457.2 276.4,457.2 276.7,457.2 277.1,457.2 277.6,457.2 278.0,457.2 278.3,457.2 278.7,457.2 279.0,457.2 279.4,457.2 279.7,457.2 280.1,457.2 280.6,457.2 281.0,457.2 281.4,457.2 281.7,457.2 282.1,457.2 282.4,457.2 282.8,457.2 283.1,457.2 283.5,457.2 284.0,457.2 284.4,457.2 284.7,457.2 285.1,457.2 285.5,457.2 285.8,457.2 286.2,457.2 286.5,457.2 287.1,457.2 287.4,457.2 287.8,457.2 288.1,457.2 288.5,457.2 288.8,457.2 289.2,457.2 289.6,457.2 290.1,457.2 290.4,457.2 290.8,457.2 291.2,457.2 291.5,457.2 291.9,457.2 292.2,457.2 292.6,457.2 293.1,457.2 293.5,457.2 293.8,457.2 294.2,457.2 294.5,457.2 294.9,457.2 295.3,457.2 295.6,457.2 296.0,457.2 296.5,457.2 296.9,457.2 297.2,457.2 297.6,457.2 297.9,457.2 298.3,457.2 298.6,457.2 299.0,457.2 299.5,457.2 299.9,457.2 300.3,457.2 300.6,457.2 301.0,457.2 301.3,457.2 301.7,457.2 302.0,457.2 302.6,457.2 302.9,457.2 303.3,457.2 303.6,457.2 304.0,457.2 304.4,457.2 304.7,457.2 305.1,457.2 305.6,457.2 306.0,460.4 306.3,460.4 306.7,460.4 307.0,460.4 307.4,460.4 307.7,460.4 308.1,460.4 308.5,460.4 309.0,460.4 309.4,460.4 309.7,460.4 310.1,460.4 310.4,460.4 310.8,460.4 311.1,460.4 311.5,460.4 312.0,460.4 312.4,460.4 312.7,460.4 313.1,460.4 313.5,460.4 313.8,460.4 314.2,460.4 314.5,460.4 315.1,460.4 315.4,460.4 315.8,460.4 316.1,460.4 316.5,460.4 316.8,460.4 317.2,460.4 317.6,460.4 317.9,460.4 318.4,460.4 318.8,460.4 319.2,460.4 319.5,460.4 319.9,460.4 320.2,460.4 320.6,460.4 320.9,460.4 321.5,460.4 321.8,460.4 322.2,460.4 322.5,460.4 322.9,460.4 323.3,460.4 323.6,460.4 324.0,460.4 324.5,460.4 324.9,460.4 325.2,460.4 325.6,460.4 325.9,460.4 326.3,460.4 326.6,460.4 327.0,460.4 327.5,460.4 327.9,460.4 328.3,460.4 328.6,460.4 329.0,460.4 329.3,460.4 329.7,460.4 330.0,460.4 330.4,460.4 330.9,460.4 331.3,460.4 331.6,460.4 332.0,460.4 332.4,460.4 332.7,460.4 333.1,460.4 333.4,460.4 334.0,460.4 334.3,460.4 334.7,460.4 335.0,460.4 335.4,460.4 335.7,460.4 336.1,460.4 336.5,460.4 337.0,460.4 337.3,460.4 337.7,460.4 338.1,460.4 338.4,460.4 338.8,460.4 339.1,460.4 339.5,460.4 340.0,460.4 340.4,460.4 340.7,460.4 341.1,460.4 341.4,460.4 341.8,460.4 342.2,460.4 342.5,460.4 342.9,460.4 343.4,460.4 343.8,460.4 344.1,460.4 344.5,460.4 344.8,460.4 345.2,460.4 345.6,460.4 345.9,460.4 346.4,460.4 346.8,460.4 347.2,460.4 347.5,460.4 347.9,460.4 348.2,460.4 348.6,460.4 348.9,460.4 349.5,460.4 349.8,460.4 350.2,460.4 350.5,460.4 350.9,460.4 351.3,460.4 351.6,460.4 352.0,460.4 352.5,460.4 352.9,460.4 353.2,460.4 353.6,460.4 353.9,460.4 354.3,460.4 354.6,460.4 355.0,460.4 355.4,460.4 355.9,460.4 356.3,460.4 356.6,460.4 357.0,460.4 357.3,460.4 357.7,460.4 358.0,460.4 358.4,460.4 358.9,460.4 359.3,460.4 359.6,460.4 360.0,460.4 360.4,460.4 360.7,460.4 361.1,460.4 361.4,465.5 362.0,470.6 362.3,470.6 362.7,470.6 363.0,470.6 363.4,470.6 363.7,470.6 364.1,470.6 364.5,470.6 365.0,470.6 365.3,470.6 365.7,470.6 366.1,470.6 366.4,470.6 366.8,475.1 367.1,475.7 367.5,477.6 367.8,479.5 368.4,484.0 368.7,485.2 369.1,485.2 369.4,485.2 369.8,485.2 370.2,485.2 370.5,485.2 370.9,485.2 371.4,485.2 371.8,485.2 372.1,485.2 372.5,485.2 372.8,485.2 373.2,485.2 373.6,485.2 373.9,485.2 374.4,485.2 374.8,485.2 375.2,485.2 375.5,485.2 375.9,485.2 376.2,485.2 376.6,485.2 376.9,485.2 377.5,485.2 377.8,485.2 378.2,485.2 378.5,485.2 378.9,485.2 379.3,485.2 379.6,485.2 380.0,485.2 380.3,485.2 380.9,485.2 381.2,485.2 381.6,485.2 381.9,485.2 382.3,485.2 382.6,485.2 383.0,485.2 383.4,485.2 383.9,485.2 384.2,485.2 384.6,485.2 385.0,485.2 385.3,485.2 385.7,485.2 386.0,485.2 386.4,485.2 386.9,485.2 387.3,485.2 387.6,485.2 388.0,485.2 388.4,485.2 388.7,485.2 389.1,485.2 389.4,485.2 390.0,485.2 390.3,485.2 390.7,485.2 391.0,485.2 391.4,485.2 391.7,485.2 392.1,485.2 392.5,485.2 392.8,485.2 393.3,485.2 393.7,485.2 394.1,485.2 394.4,485.2 394.8,485.2 395.1,485.2 395.5,485.2 395.8,485.2 396.4,485.2 396.7,485.2 397.1,485.2 397.4,485.2 397.8,485.2 398.2,485.2 398.5,485.2 398.9,485.2 399.4,485.2 399.8,485.2 400.1,485.2 400.5,485.2 400.8,485.2 401.2,485.2 401.5,485.2 401.9,485.2 402.3,485.2 402.8,485.2 403.2,485.2 403.5,485.2 403.9,485.2 404.2,485.2 404.6,485.2 404.9,485.2 405.3,485.2 405.8,485.2 406.2,485.2 406.5,485.2 406.9,485.2 407.3,485.2 407.6,485.2 408.0,485.2 408.3,485.2 408.9,485.2 409.2,485.2 409.6,485.2 409.9,485.2 410.3,485.2 410.6,485.2 411.0,485.2 411.4,485.2 411.9,485.2 412.2,485.2 412.6,485.2 413.0,485.2 413.3,485.2 413.7,485.2 414.0,485.2 414.4,485.2 414.7,485.2 415.3,485.2 415.6,485.2 416.0,485.2 416.3,485.2 416.7,485.2 417.1,485.2 417.4,485.2 417.8,485.2 418.3,485.2 418.7,485.2 419.0,485.2 419.4,485.2 419.7,485.2 420.1,485.2 420.5,485.2 420.8,485.2 421.3,485.2 421.7,485.2 422.1,485.2 422.4,485.2 422.8,485.2 423.1,485.2 423.5,485.2 423.8,485.2 424.4,485.2 424.7,485.2 425.1,485.2 425.4,485.2 425.8,485.2 426.2,485.2 426.5,485.2 426.9,485.2 427.2,485.2 427.8,485.2 428.1,485.2 428.5,485.2 428.8,487.2 429.2,487.2 429.5,487.2 429.9,487.2 430.3,487.2 430.8,487.2 431.2,487.2 431.5,487.2 431.9,487.2 432.2,487.2 432.6,487.2 432.9,487.2 433.3,487.2 433.8,487.2 434.2,487.2 434.5,487.2 434.9,487.2 435.3,487.2 435.6,487.2 436.0,487.2 436.3,487.2 436.9,487.2 437.2,487.2 437.6,487.2 437.9,487.2 438.3,487.2 438.6,487.2 439.0,487.2 439.4,487.2 439.7,487.2 440.2,487.2 440.6,487.2 441.0,487.2 441.3,487.2 441.7,487.2 442.0,487.2 442.4,487.2 442.7,487.2 443.3,487.2 443.6,487.2 444.0,487.2 444.3,487.2 444.7,487.2 445.1,487.2 445.4,487.2 445.8,487.2 446.3,487.2 446.7,487.2 447.0,487.2 447.4,487.2 447.7,487.2 448.1,487.2 448.5,487.2 448.8,487.2 449.3,487.2 449.7,487.2 450.1,487.2 450.4,487.2 450.8,487.2 451.1,487.2 451.5,487.2 451.8,487.2 452.2,487.2 452.7,487.2 453.1,487.2 453.4,487.2 453.8,487.2 454.2,487.2 454.5,487.2 454.9,487.2 455.2,487.2 455.8,487.2 456.1,487.2 456.5,487.2 456.8,487.2 457.2,487.2 457.5,487.2 457.9,487.2 458.3,487.2 458.8,487.2 459.1,487.2 459.5,487.2 459.9,487.2 460.2,487.2 460.6,487.2 460.9,487.2 461.3,487.2 461.8,487.2 462.2,487.2 462.5,487.2 462.9,487.2 463.3,487.2 463.6,487.2 464.0,487.2 464.3,487.2 464.7,487.2 465.2,487.2 465.6,487.2 465.9,487.2 466.3,487.2 466.6,487.2 467.0,487.2 467.4,487.2 467.7,487.2 468.2,487.2 468.6,487.2 469.0,487.2 469.3,487.2 469.7,487.2 470.0,487.2 470.4,487.2 470.7,487.2 471.3,487.2 471.6,487.2 472.0,487.2 472.3,487.2 472.7,487.2 473.1,487.2 473.4,487.2 473.8,487.2 474.1,487.2 474.7,487.2 475.0,487.2 475.4,487.2 475.7,487.2 476.1,487.2 476.4,487.2 476.8,487.2 477.2,487.2 477.7,487.2 478.1,487.2 478.4,487.2 478.8,487.2 479.1,487.2 479.5,487.2 479.8,487.2 480.2,487.2 480.7,487.2 481.1,487.2 481.4,487.2 481.8,487.2 482.2,487.2 482.5,487.2 482.9,487.2 483.2,487.2 483.8,487.2 484.1,487.2 484.5,487.2 484.8,487.2 485.2,487.2 485.5,487.2 485.9,487.2 486.3,487.2 486.6,487.2 487.1,487.2 487.5,487.2 487.9,487.2 488.2,487.2 488.6,487.2 488.9,487.2 489.3,487.2 489.6,487.2 490.2,487.2 490.5,487.2 490.9,487.2 491.2,487.2 491.6,487.2 492.0,487.2 492.3,487.2 492.7,487.2 493.2,487.2 493.6,487.2 493.9,487.2 494.3,487.2 494.6,487.2 495.0,487.2 495.4,487.2 495.7,487.2 496.2,487.2 496.6,487.2 497.0,487.2 497.3,487.2 497.7,487.2 498.0,487.2 498.4,487.2 498.7,487.2 499.1,487.2 499.6,487.2 500.0,487.2 500.3,487.2 500.7,487.2 501.1,487.2 501.4,487.2 501.8,487.2 502.1,487.2 502.7,487.2 503.0,487.2 503.4,487.2 503.7,487.2 504.1,487.2 504.4,487.2 504.8,487.2 505.2,487.2 505.7,487.2 506.1,487.2 506.4,487.2 506.8,487.2 507.1,487.2 507.5,487.2 507.8,487.2 508.2,487.2 508.7,487.8 509.1,487.8 509.4,487.8 509.8,487.8 510.2,487.8 510.5,487.8 510.9,487.8 511.2,487.8 511.6,487.8 512.1,487.8 512.5,487.8 512.8,487.8 513.2,487.8 513.5,487.8 513.9,487.8 514.3,487.8 514.6,487.8 515.1,487.8 515.5,487.8 515.9,487.8 516.2,487.8 516.6,487.8 516.9,487.8 517.3,487.8 517.6,487.8 518.2,487.8 518.5,487.8 518.9,487.8 519.2,487.8 519.6,487.8 520.0,487.8 520.3,487.8 520.7,487.8 521.2,487.8 521.6,487.8 521.9,487.8 522.3,487.8 522.6,487.8 523.0,487.8 523.4,487.8 523.7,487.8 524.1,487.8 524.6,487.8 525.0,487.8 525.3,487.8 525.7,487.8 526.0,487.8 526.4,487.8 526.7,487.8 527.1,487.8 527.6,487.8 528.0,487.8 528.3,487.8 528.7,487.8 529.1,487.8 529.4,487.8 529.8,487.8 530.1,487.8 530.7,487.8 531.0,487.8 531.4,487.8 531.7,487.8 532.1,487.8 532.4,487.8 532.8,487.8 533.2,487.8 533.7,487.8 534.0,487.8 534.4,487.8 534.8,487.8 535.1,487.8 535.5,487.8 535.8,487.8 536.2,487.8 536.5,487.8 537.1,487.8 537.4,487.8 537.8,487.8 538.2,487.8 538.5,487.8 538.9,487.8 539.2,487.8 539.6,487.8 540.1,487.8 540.5,487.8 540.8,487.8 541.2,487.8 541.5,487.8 541.9,487.8 542.3,487.8 542.6,487.8 543.1,487.8 543.5,487.8 543.9,487.8 544.2,487.8 544.6,487.8 544.9,487.8 545.3,487.8 545.6,487.8 546.0,487.8 546.5,487.8 546.9,487.8 547.2,487.8 547.6,487.8 548.0,487.8 548.3,487.8 548.7,487.8 549.0,487.8 549.6,487.8 549.9,487.8 550.3,487.8 550.6,487.8 551.0,487.8 551.3,487.8 551.7,487.8 552.1,487.8 552.6,487.8 553.0,487.8 553.3,487.8 553.7,487.8 554.0,487.8 554.4,487.8 554.7,487.8 555.1,487.8 555.6,487.8 556.0,487.8 556.3,487.8 556.7,487.8 557.1,487.8 557.4,487.8 557.8,487.8 558.1,487.8 558.5,487.8 559.0,487.8 559.4,487.8 559.7,487.8 560.1,487.8 560.4,487.8 560.8,487.8 561.2,487.8 561.5,487.8 562.0,487.8 562.4,487.8 562.8,487.8 563.1,487.8 563.5,487.8 563.8,487.8 564.2,487.8 564.5,487.8 565.1,487.8 565.4,487.8 565.8,487.8 566.2,487.8 566.5,487.8 566.9,487.8 567.2,487.8 567.6,487.8 568.1,487.8 568.5,487.8 568.8,487.8 569.2,487.8 569.5,487.8 569.9,487.8 570.3,487.8 570.6,488.4 571.0,491.6 571.5,492.3 571.9,492.3 572.2,492.3 572.6,492.3 572.9,492.3 573.3,492.3 573.6,492.3 574.0,492.3 574.5,492.3 574.9,492.3 575.2,492.3 575.6,492.3 576.0,492.3 576.3,492.3 576.7,492.3 577.0,492.3 577.6,492.3 577.9,492.3 578.3,492.3 578.6,492.3 579.0,492.3 579.3,492.3 579.7,492.3 580.1,492.3 580.6,492.3 581.0,492.3 581.3,492.3 581.7,492.3 582.0,492.3 582.4,492.3 582.7,492.3 583.1,492.3 583.4,492.3 584.0,492.3 584.3,492.3 584.7,492.3 585.1,492.3 585.4,492.3 585.8,492.3 586.1,492.3 586.5,492.3 587.0,492.3 587.4,492.3 587.7,492.3 588.1,492.3 588.4,492.3 588.8,492.3 589.2,492.3 589.5,492.3 590.0,492.3 590.4,492.3 590.8,492.3 591.1,492.3 591.5,492.3 591.8,492.3 592.2,492.3 592.5,492.3 593.1,492.3 593.4,492.3 593.8,492.3 594.1,492.3 594.5,492.3 594.9,492.3 595.2,492.3 595.6,492.3 595.9,492.3 596.5,492.3 596.8,492.3 597.2,492.3 597.5,492.3 597.9,492.3 598.2,492.3 598.6,492.3 599.0,492.3 599.5,492.3 599.9,492.3 600.2,492.3 600.6,492.3 600.9,492.3 601.3,492.3 601.6,492.3 602.0,492.3 602.5,492.3 602.9,492.3 603.2,492.3 603.6,492.3 604.0,492.3 604.3,492.3 604.7,492.3 605.0,492.3 605.6,492.3 605.9,492.3 606.3,492.3 606.6,492.3 607.0,492.3 607.3,492.3 607.7,492.3 608.1,492.3 608.4,492.3 608.9,492.3 609.3,492.3 609.7,492.3 610.0,492.3 610.4,492.3 610.7,492.3 611.1,492.3 611.4,492.3 612.0,492.3 612.3,492.3 612.7,492.3 613.1,492.3 613.4,492.3 613.8,492.3 614.1,492.3 614.5,492.3 615.0,492.3 615.4,492.3 615.7,492.3 616.1,492.3 616.4,492.3 616.8,492.3 617.2,492.3 617.5,492.3 618.0,492.3 618.4,492.3 618.8,492.3 619.1,492.3 619.5,492.3 619.8,492.3 620.2,492.3 620.5,492.3 620.9,492.3 621.4,492.3 621.8,492.3 622.1,492.3 622.5,492.3 622.9,492.3 623.2,492.3 623.6,492.3 623.9,492.3 624.5,492.3 624.8,492.3 625.2,492.3 625.5,492.3 625.9,492.3 626.2,492.3 626.6,492.3 627.0,492.3 627.5,492.3 627.9,492.3 628.2,492.3 628.6,492.3 628.9,492.3 629.3,492.3 629.6,492.3 630.0,492.3 630.4,492.3 630.9,492.3 631.2,492.3 631.6,492.3 632.0,492.3 632.3,492.3 632.7,492.3 633.0,492.3 633.4,492.3 633.9,492.3 634.3,492.3 634.6,492.3 635.0,492.3 635.3,492.3 635.7,492.3 636.1,492.3 636.4,492.3 636.9,492.3 637.3,492.3 637.7,492.3 638.0,492.3 638.4,492.3 638.7,492.3 639.1,492.3 639.4,492.3 640.0,492.3 640.3,492.3 640.7,492.3 641.1,492.3 641.4,492.3 641.8,492.3 642.1,492.3 642.5,492.3 642.8,492.3 643.4,492.3 643.7,492.3 644.1,492.3 644.4,492.3 644.8,492.3 645.2,492.3 645.5,492.3 645.9,492.3 646.4,492.3 646.8,492.3 647.1,492.3 647.5,492.3 647.8,492.3 648.2,492.3 648.5,492.3 648.9,492.3 649.4,492.3 649.8,492.3 650.1,492.3 650.5,492.3 650.9,492.3 651.2,492.3 651.6,492.3 651.9,492.3 652.5,492.3 652.8,492.3 653.2,492.3 653.5,492.3 653.9,492.3 654.2,492.3 654.6,492.3 655.0,492.3 655.3,492.3 655.9,492.3 656.2,492.3 656.6,492.3 656.9,492.3 657.3,492.3 657.6,492.3 658.0,492.3 658.3,492.3 658.9,492.3 659.2,492.3 659.6,492.3 660.0,492.3 660.3,492.3 660.7,492.3 661.0,492.3 661.4,492.3 661.9,492.3 662.3,492.3 662.6,492.3 663.0,492.3 663.3,492.3 663.7,492.3 664.1,492.3 664.4,492.3 664.9,492.3 665.3,492.3 665.7,492.3 666.0,492.3 666.4,492.3 666.7,494.2 667.1,496.1 667.4,496.1 667.8,498.6 668.3,498.6 668.7,498.6 669.0,498.6 669.4,498.6 669.8,498.6 670.1,498.6 670.5,498.6 670.8,498.6 671.4,498.6 671.7,498.6 672.1,498.6 672.4,498.6 672.8,498.6 673.2,498.6 673.5,498.6 673.9,498.6 674.4,498.6 674.8,498.6 675.1,498.6 675.5,498.6 675.8,498.6 676.2,498.6 676.5,498.6 676.9,498.6 677.4,498.6 677.8,498.6 678.1,498.6 678.5,498.6 678.9,498.6 679.2,498.6 679.6,498.6 679.9,498.6 680.3,498.6 680.8,498.6 681.2,498.6 681.5,498.6 681.9,498.6 682.2,498.6 682.6,498.6 683.0,498.6 683.3,498.6 683.9,498.6 684.2,498.6 684.6,498.6 684.9,498.6 685.3,498.6 685.6,498.6 686.0,498.6 686.3,498.6 686.9,498.6 687.2,498.6 687.6,498.6 688.0,498.6 688.3,498.6 688.7,498.6 689.0,498.6 689.4,498.6 689.9,498.6 690.3,498.6 690.6,498.6 691.0,498.6 691.3,498.6 691.7,498.6 692.1,498.6 692.4,498.6 692.8,498.6 693.3,498.6 693.7,498.6 694.0,498.6 694.4,498.6 694.7,498.6 695.1,498.6 695.4,498.6 695.8,498.6 696.3,498.6 696.7,498.6 697.0,498.6 697.4,498.6 697.8,498.6 698.1,498.6 698.5,498.6 698.8,498.6 699.4,498.6 699.7,498.6 700.1,498.6 700.4,498.6 700.8,498.6 701.1,498.6 701.5,498.6 701.9,498.6 702.2,498.6 702.8,498.6 703.1,498.6 703.5,498.6 703.8,498.6 704.2,498.6 704.5,498.6 704.9,498.6 705.2,498.6 705.8,498.6 706.1,498.6 706.5,498.6 706.9,498.6 707.2,498.6 707.6,498.6 707.9,498.6 708.3,498.6 708.8,498.6 709.2,498.6 709.5,498.6 709.9,498.6 710.2,498.6 710.6,498.6 711.0,498.6 711.3,498.6 711.8,498.6 712.2,498.6 712.6,498.6 712.9,498.6 713.3,498.6 713.6,498.6 714.0,498.6 714.3,498.6 714.7,498.6 715.2,498.6 715.6,498.6 715.9,498.6 716.3,498.6 716.7,498.6 717.0,498.6 717.4,498.6 717.7,498.6 718.3,498.6 718.6,498.6 719.0,498.6 719.3,498.6 719.7,498.6 720.1,498.6 720.4,498.6 720.8,498.6 721.3,498.6 721.7,498.6 722.0,498.6 722.4,498.6 722.7,498.6 723.1,498.6 723.4,498.6 723.8,498.6 724.3,498.6 724.7,498.6 725.0,498.6 725.4,498.6 725.8,498.6 726.1,498.6 726.5,498.6 726.8,498.6 727.2,498.6 727.7,498.6 728.1,498.6 728.4,498.6 728.8,498.6 729.1,498.6 729.5,498.6 729.9,498.6 730.2,498.6 730.8,498.6 731.1,498.6 731.5,498.6 731.8,498.6 732.2,498.6 732.5,498.6 732.9,498.6 733.2,498.6 733.8,498.6 734.1,498.6 734.5,498.6 734.9,498.6 735.2,498.6 735.6,498.6 735.9,498.6 736.3,498.6 736.8,498.6 737.2,498.6 737.5,498.6 737.9,498.6 738.2,498.6 738.6,498.6 739.0,498.6 739.3,498.6 739.7,498.6 740.2,498.6 740.6,498.6 740.9,498.6 741.3,498.6 741.6,498.6 742.0,498.6 742.3,498.6 742.7,498.6 743.2,498.6 743.6,498.6 743.9,498.6 744.3,498.6 744.7,498.6 745.0,498.6 745.4,498.6 745.7,498.6 746.3,498.6 746.6,498.6 747.0,498.6 747.3,498.6 747.7,498.6 748.0,498.6 748.4,498.6 748.8,498.6 749.3,498.6 749.7,498.6 750.0,498.6 750.4,498.6 750.7,498.6 751.1,498.6 751.4,498.6 751.8,498.6 752.2,498.6 752.7,498.6 753.0,498.6 753.4,498.6 753.8,498.6 754.1,498.6 754.5,498.6 754.8,498.6 755.2,498.6 755.7,498.6 756.1,498.6 756.4,498.6 756.8,498.6 757.1,498.6 757.5,498.6 757.9,498.6 758.2,498.6 758.8,498.6 759.1,498.6 759.5,498.6 759.8,498.6 760.2,498.6 760.5,498.6 760.9,498.6 761.2,498.6 761.8,498.6 762.1,498.6 762.5,498.6 762.9,498.6 763.2,498.6 763.6,498.6 763.9,498.6 764.3,498.6 764.6,498.6 765.2,498.6 765.5,498.6 765.9,498.6 766.2,498.6 766.6,498.6 767.0,498.6 767.3,498.6 767.7,498.6 768.2,498.6 768.6,498.6 768.9,498.6 769.3,498.6 769.6,498.6 770.0,498.6 770.3,498.6 770.7,498.6 771.2,498.6 771.6,498.6 771.9,498.6 772.3,498.6 772.7,498.6 773.0,498.6 773.4,498.6 773.7,498.6 774.1,498.6 774.6,498.6 775.0,498.6 775.3,498.6 775.7,498.6 776.0,498.6 776.4,498.6 776.8,498.6 777.1,498.6 777.7,498.6 778.0,498.6 778.4,498.6 778.7,498.6 779.1,498.6 779.4,498.6 779.8,498.6 780.1,498.6 780.7,498.6 781.0,498.6 781.4,498.6 781.8,498.6 782.1,498.6 782.5,498.6 782.8,498.6 783.2,498.6 783.7,498.6 784.1,498.6 784.4,498.6 784.8,498.6 785.1,498.6 785.5,498.6 785.9,498.6 786.2,498.6 786.6,498.6 787.1,498.6 787.5,498.6 787.8,498.6 788.2,498.6 788.5,498.6 788.9,498.6 789.2,498.6 789.6,498.6 790.1,498.6 790.5,498.6 790.9,498.6 791.2,498.6 791.6,498.6 791.9,498.6 792.3,498.6 792.6,498.6 793.2,498.6 793.5,498.6 793.9,498.6 794.2,498.6 794.6,498.6 795.0,498.6 795.3,498.6 795.7,498.6 796.2,498.6 796.6,498.6 796.9,498.6 797.3,498.6 797.6,498.6 798.0,498.6 798.3,498.6 798.7,498.6 799.1,498.6 799.6,498.6 799.9,498.6 800.3,498.6 800.7,498.6 801.0,498.6 801.4,498.6 801.7,498.6 802.1,498.6 802.6,498.6 803.0,498.6 803.3,498.6 803.7,498.6 804.0,498.6 804.4,498.6 804.8,498.6 805.1,498.6 805.7,498.6 806.0,498.6 806.4,498.6 806.7,498.6 807.1,498.6 807.4,498.6 807.8,498.6 808.1,498.6 808.7,498.6 809.0,498.6 809.4,498.6 809.8,498.6 810.1,498.6 810.5,498.6 810.8,498.6 811.2,498.6 811.5,498.6 812.1,498.6 812.4,498.6 812.8,498.6 813.1,498.6 813.5,498.6 813.9,498.6 814.2,498.6 814.6,498.6 815.1,498.6 815.5,498.6 815.8,498.6 816.2,498.6 816.5,498.6 816.9,498.6 817.2,498.6 817.6,498.6 818.1,498.6 818.5,498.6 818.8,498.6 819.2,498.6 819.6,498.6 819.9,498.6 820.3,498.6 820.6,498.6 821.2,498.6 821.5,498.6 821.9,498.6 822.2,498.6 822.6,498.6 823.0,498.6 823.3,498.6 823.7,498.6 824.0,498.6 824.6,498.6 824.9,498.6 825.3,498.6 825.6,498.6 826.0,498.6 826.3,498.6 826.7,498.6 827.1,498.6 827.6,498.6 827.9,498.6 828.3,498.6 828.7,498.6 829.0,498.6 829.4,498.6 829.7,498.6 830.1,498.6 830.6,498.6 831.0,498.6 831.3,498.6 831.7,498.6 832.0,498.6 832.4,498.6 832.8,498.6 833.1,498.6 833.6,498.6 834.0,498.6 834.4,498.6 834.7,498.6 835.1,498.6 835.4,498.6 835.8,498.6 836.1,498.6 836.5,498.6 837.0,498.6 837.4,498.6 837.8,498.6 838.1,498.6 838.5,498.6 838.8,498.6 839.2,498.6 839.5,498.6 840.1,498.6 840.4,498.6 840.8,498.6 841.1,498.6 841.5,498.6 841.9,498.6 842.2,498.6 842.6,498.6 843.1,498.6 843.5,498.6 843.8,498.6 844.2,498.6 844.5,498.6 844.9,498.6 845.2,498.6 845.6,498.6 846.1,498.6" />
  <text x="90.0" y="618.0" text-anchor="middle" font-family="Arial" font-size="11" fill="#555">0</text><text x="268.3" y="618.0" text-anchor="middle" font-family="Arial" font-size="11" fill="#555">1000</text><text x="446.7" y="618.0" text-anchor="middle" font-family="Arial" font-size="11" fill="#555">2000</text><text x="625.0" y="618.0" text-anchor="middle" font-family="Arial" font-size="11" fill="#555">3000</text><text x="803.3" y="618.0" text-anchor="middle" font-family="Arial" font-size="11" fill="#555">4000</text><text x="981.7" y="618.0" text-anchor="middle" font-family="Arial" font-size="11" fill="#555">5000</text><text x="1160.0" y="618.0" text-anchor="middle" font-family="Arial" font-size="11" fill="#555">6000</text>
  <rect x="100" y="55" width="12" height="12" fill="#1f77b4" /><text x="118" y="65" font-family="Arial" font-size="12">adjacent</text><rect x="260" y="55" width="12" height="12" fill="#d62728" /><text x="278" y="65" font-family="Arial" font-size="12">n5</text><rect x="420" y="55" width="12" height="12" fill="#2ca02c" /><text x="438" y="65" font-family="Arial" font-size="12">n6</text>
  <text x="625.0" y="645.0" text-anchor="middle" font-family="Arial" font-size="14" font-weight="bold">Iteration</text>
  <text x="30.0" y="345.0" text-anchor="middle" font-family="Arial" font-size="14" font-weight="bold" transform="rotate(-90 30.0 345.0)">Makespan</text>
</svg>