<svg xmlns="http://www.w3.org/2000/svg" width="1200" height="700" viewBox="0 0 1200 700">
  <rect x="0" y="0" width="1200" height="700" fill="#ffffff" />
  <text x="600.0" y="32" text-anchor="middle" font-family="Arial" font-size="24" font-weight="bold">Neighborhood Makespan Comparison - Time limit 300s</text>
  <line x1="90.0" y1="600.0" x2="1160.0" y2="600.0" stroke="#e6e6e6" stroke-width="1" /><text x="82.0" y="604.0" text-anchor="end" font-family="Arial" font-size="11" fill="#555">3161</text><line x1="90.0" y1="472.5" x2="1160.0" y2="472.5" stroke="#e6e6e6" stroke-width="1" /><text x="82.0" y="476.5" text-anchor="end" font-family="Arial" font-size="11" fill="#555">3258</text><line x1="90.0" y1="345.0" x2="1160.0" y2="345.0" stroke="#e6e6e6" stroke-width="1" /><text x="82.0" y="349.0" text-anchor="end" font-family="Arial" font-size="11" fill="#555">3354</text><line x1="90.0" y1="217.5" x2="1160.0" y2="217.5" stroke="#e6e6e6" stroke-width="1" /><text x="82.0" y="221.5" text-anchor="end" font-family="Arial" font-size="11" fill="#555">3451</text><line x1="90.0" y1="90.0" x2="1160.0" y2="90.0" stroke="#e6e6e6" stroke-width="1" /><text x="82.0" y="94.0" text-anchor="end" font-family="Arial" font-size="11" fill="#555">3548</text>
  <line x1="90" y1="600" x2="1160" y2="600" stroke="#333" stroke-width="1.5" />
  <line x1="90" y1="90" x2="90" y2="600" stroke="#333" stroke-width="1.5" />
  <polyline fill="none" stroke="#1f77b4" stroke-width="2.5" points="90.0,113.2 95.4,135.6 100.8,188.5 106.1,218.9 111.5,218.9 116.9,225.5 122.3,225.5 127.6,247.9 133.0,247.9 138.4,247.9 143.8,247.9 149.1,247.9 154.5,257.2 159.9,303.4 165.3,324.5 170.7,348.3 176.0,348.3 181.4,348.3 186.8,348.3 192.2,348.3 197.5,348.3 202.9,348.3 208.3,357.5 213.7,357.5 219.0,357.5 224.4,361.5 229.8,365.5 235.2,368.1 240.6,368.1 245.9,368.1 251.3,368.1 256.7,391.9 262.1,391.9 267.4,391.9 272.8,394.5 278.2,402.5 283.6,428.9 288.9,428.9 294.3,428.9 299.7,428.9 305.1,428.9 310.5,428.9 315.8,428.9 321.2,439.4 326.6,455.3 332.0,455.3 337.3,455.3 342.7,455.3 348.1,455.3 353.5,455.3 358.8,455.3 364.2,455.3 369.6,455.3 375.0,455.3 380.4,455.3 385.7,455.3 391.1,455.3 396.5,455.3 401.9,455.3 407.2,455.3 412.6,455.3 418.0,455.3 423.4,455.3 428.7,455.3 434.1,460.6 439.5,460.6 444.9,460.6 450.3,460.6 455.6,460.6 461.0,465.9 466.4,465.9 471.8,465.9 477.1,465.9 482.5,479.1 487.9,479.1 493.3,479.1 498.6,479.1 504.0,479.1 509.4,479.1 514.8,479.1 520.2,479.1 525.5,479.1 530.9,479.1 536.3,479.1 541.7,479.1 547.0,479.1 552.4,479.1 557.8,479.1 563.2,479.1 568.5,479.1 573.9,479.1 579.3,479.1 584.7,479.1 590.1,479.1 595.4,479.1 600.8,479.1 606.2,479.1 611.6,487.0 616.9,487.0 622.3,487.0 627.7,487.0 633.1,487.0 638.4,487.0 643.8,487.0 649.2,487.0 654.6,487.0 659.9,494.9 665.3,514.7 670.7,514.7 676.1,514.7 681.5,514.7 686.8,514.7 692.2,514.7 697.6,514.7 703.0,514.7 708.3,514.7 713.7,514.7 719.1,514.7 724.5,520.0 729.8,521.3 735.2,521.3 740.6,521.3 746.0,521.3 751.4,521.3 756.7,521.3 762.1,521.3 767.5,526.6 772.9,526.6 778.2,526.6 783.6,531.9 789.0,533.2 794.4,533.2 799.7,533.2 805.1,533.2 810.5,533.2 815.9,533.2 821.3,533.2 826.6,533.2 832.0,533.2 837.4,533.2 842.8,533.2 848.1,533.2 853.5,533.2 858.9,533.2 864.3,533.2 869.6,533.2 875.0,545.1 880.4,559.6 885.8,559.6 891.2,559.6 896.5,559.6 901.9,559.6 907.3,559.6 912.7,559.6 918.0,559.6 923.4,559.6 928.8,559.6 934.2,559.6 939.5,559.6 944.9,559.6 950.3,559.6 955.7,559.6 961.1,559.6 966.4,559.6 971.8,559.6 977.2,559.6 982.6,559.6 987.9,559.6 993.3,559.6 998.7,559.6 1004.1,559.6 1009.4,559.6 1014.8,559.6 1020.2,559.6 1025.6,559.6 1031.0,559.6 1036.3,559.6 1041.7,559.6 1047.1,559.6 1052.5,559.6 1057.8,559.6 1063.2,559.6 1068.6,559.6 1074.0,559.6 1079.3,559.6 1084.7,559.6 1090.1,559.6 1095.5,559.6 1100.9,562.3 1106.2,576.8 1111.6,576.8 1117.0,576.8 1122.4,576.8 1127.7,576.8 1133.1,576.8 1138.5,576.8 1143.9,576.8 1149.2,576.8 1154.6,576.8 1160.0,576.8" /><polyline fill="none" stroke="#d62728" stroke-width="2.5" points="90.0,113.2 95.4,148.8 100.8,196.4 106.1,196.4 111.5,196.4 116.9,196.4 122.3,196.4 127.6,196.4 133.0,196.4 138.4,196.4 143.8,196.4 149.1,196.4 154.5,196.4 159.9,200.4 165.3,200.4 170.7,200.4 176.0,200.4 181.4,200.4 186.8,200.4 192.2,214.9 197.5,249.2 202.9,249.2 208.3,263.8 213.7,263.8 219.0,263.8 224.4,300.7 229.8,300.7 235.2,300.7 240.6,300.7 245.9,300.7 251.3,300.7 256.7,300.7 262.1,300.7 267.4,300.7 272.8,300.7 278.2,300.7 283.6,300.7 288.9,300.7 294.3,300.7 299.7,300.7 305.1,300.7 310.5,300.7 315.8,300.7 321.2,300.7 326.6,300.7 332.0,300.7 337.3,300.7 342.7,300.7 348.1,300.7 353.5,300.7 358.8,300.7 364.2,300.7 369.6,300.7 375.0,300.7 380.4,300.7 385.7,300.7 391.1,300.7 396.5,324.5 401.9,324.5 407.2,324.5 412.6,353.6 418.0,353.6 423.4,393.2 428.7,393.2 434.1,393.2 439.5,393.2 444.9,393.2 450.3,393.2 455.6,393.2 461.0,393.2 466.4,393.2 471.8,393.2 477.1,393.2 482.5,393.2 487.9,393.2 493.3,393.2 498.6,393.2 504.0,393.2 509.4,393.2 514.8,393.2 520.2,393.2 525.5,393.2 530.9,393.2 536.3,393.2 541.7,393.2 547.0,393.2 552.4,393.2 557.8,393.2 563.2,444.7 568.5,447.4 573.9,447.4 579.3,447.4 584.7,447.4 590.1,447.4 595.4,459.3 600.8,477.8 606.2,496.2 611.6,496.2 616.9,496.2 622.3,496.2 627.7,496.2 633.1,496.2 638.4,521.3 643.8,521.3 649.2,521.3 654.6,521.3 659.9,521.3 665.3,521.3 670.7,521.3 676.1,521.3 681.5,521.3 686.8,521.3 692.2,521.3 697.6,521.3 703.0,521.3 708.3,521.3 713.7,521.3 719.1,521.3 724.5,521.3 729.8,521.3 735.2,521.3 740.6,521.3 746.0,521.3 751.4,521.3 756.7,521.3 762.1,521.3 767.5,521.3 772.9,521.3 778.2,521.3 783.6,521.3 789.0,522.7 794.4,522.7 799.7,522.7 805.1,522.7 810.5,522.7 815.9,522.7 821.3,522.7 826.6,522.7 832.0,522.7 837.4,522.7 842.8,522.7 848.1,522.7 853.5,522.7 858.9,522.7 864.3,522.7 869.6,522.7 875.0,522.7 880.4,522.7 885.8,522.7 891.2,522.7 896.5,522.7 901.9,522.7 907.3,522.7 912.7,522.7 918.0,522.7 923.4,522.7 928.8,522.7 934.2,522.7 939.5,522.7 944.9,522.7 950.3,522.7 955.7,522.7 961.1,522.7 966.4,522.7 971.8,522.7 977.2,549.1 982.6,549.1 987.9,549.1 993.3,549.1 998.7,549.1 1004.1,549.1 1009.4,549.1 1014.8,549.1 1020.2,549.1 1025.6,549.1 1031.0,549.1 1036.3,549.1 1041.7,549.1 1047.1,549.1 1052.5,549.1 1057.8,549.1 1063.2,549.1 1068.6,549.1 1074.0,549.1 1079.3,549.1 1084.7,549.1 1090.1,549.1 1095.5,549.1 1100.9,549.1 1106.2,549.1 1111.6,549.1 1117.0,549.1 1122.4,549.1 1127.7,549.1 1133.1,549.1 1138.5,549.1 1143.9,549.1 1149.2,549.1 1154.6,549.1 1160.0,549.1" /><polyline fill="none" stroke="#2ca02c" stroke-width="2.5" points="90.0,113.2 95.4,184.5 100.8,212.2 106.1,259.8 111.5,295.5 116.9,295.5 122.3,295.5 127.6,295.5 133.0,295.5 138.4,295.5 143.8,295.5 149.1,295.5 154.5,316.6 159.9,316.6 165.3,321.9 170.7,321.9 176.0,321.9 181.4,321.9 186.8,321.9 192.2,321.9 197.5,321.9 202.9,321.9 208.3,321.9 213.7,321.9 219.0,321.9 224.4,321.9 229.8,321.9 235.2,321.9 240.6,336.4 245.9,336.4 251.3,336.4 256.7,336.4 262.1,336.4 267.4,336.4 272.8,336.4 278.2,339.1 283.6,339.1 288.9,339.1 294.3,339.1 299.7,339.1 305.1,339.1 310.5,339.1 315.8,344.3 321.2,344.3 326.6,344.3 332.0,344.3 337.3,344.3 342.7,344.3 348.1,344.3 353.5,344.3 358.8,344.3 364.2,344.3 369.6,344.3 375.0,344.3 380.4,344.3 385.7,344.3 391.1,344.3 396.5,380.0 401.9,401.1 407.2,401.1 412.6,401.1 418.0,401.1 423.4,401.1 428.7,401.1 434.1,401.1 439.5,401.1 444.9,402.5 450.3,402.5 455.6,402.5 461.0,402.5 466.4,402.5 471.8,402.5 477.1,402.5 482.5,402.5 487.9,402.5 493.3,403.8 498.6,461.9 504.0,469.8 509.4,469.8 514.8,469.8 520.2,469.8 525.5,469.8 530.9,469.8 536.3,473.8 541.7,481.7 547.0,481.7 552.4,481.7 557.8,481.7 563.2,481.7 568.5,481.7 573.9,481.7 579.3,481.7 584.7,481.7 590.1,501.5 595.4,501.5 600.8,501.5 606.2,501.5 611.6,501.5 616.9,501.5 622.3,504.2 627.7,521.3 633.1,521.3 638.4,521.3 643.8,521.3 649.2,521.3 654.6,521.3 659.9,521.3 665.3,521.3 670.7,521.3 676.1,521.3 681.5,521.3 686.8,521.3 692.2,521.3 697.6,521.3 703.0,521.3 708.3,529.3 713.7,529.3 719.1,529.3 724.5,529.3 729.8,529.3 735.2,529.3 740.6,529.3 746.0,529.3 751.4,529.3 756.7,543.8 762.1,543.8 767.5,543.8 772.9,543.8 778.2,543.8 783.6,543.8 789.0,543.8 794.4,543.8 799.7,543.8 805.1,543.8 810.5,543.8 815.9,543.8 821.3,543.8 826.6,543.8 832.0,543.8 837.4,543.8 842.8,543.8 848.1,543.8 853.5,543.8 858.9,543.8 864.3,543.8 869.6,543.8 875.0,543.8 880.4,543.8 885.8,543.8 891.2,543.8 896.5,543.8 901.9,543.8 907.3,543.8 912.7,543.8 918.0,543.8 923.4,543.8 928.8,543.8 934.2,543.8 939.5,543.8 944.9,551.7 950.3,567.6 955.7,567.6 961.1,567.6 966.4,567.6 971.8,567.6 977.2,567.6 982.6,567.6 987.9,567.6 993.3,567.6 998.7,567.6 1004.1,567.6 1009.4,567.6 1014.8,571.5 1020.2,571.5 1025.6,571.5 1031.0,571.5 1036.3,571.5 1041.7,571.5 1047.1,571.5 1052.5,571.5 1057.8,571.5 1063.2,571.5 1068.6,571.5 1074.0,571.5 1079.3,571.5 1084.7,571.5 1090.1,571.5 1095.5,571.5 1100.9,571.5 1106.2,571.5 1111.6,571.5 1117.0,571.5 1122.4,571.5 1127.7,571.5 1133.1,571.5 1138.5,575.5 1143.9,575.5 1149.2,575.5 1154.6,575.5 1160.0,575.5" />
  <text x="90.0" y="618.0" text-anchor="middle" font-family="Arial" font-size="11" fill="#555">0</text><text x="305.1" y="618.0" text-anchor="middle" font-family="Arial" font-size="11" fill="#555">2010</text><text x="520.2" y="618.0" text-anchor="middle" font-family="Arial" font-size="11" fill="#555">4020</text><text x="729.8" y="618.0" text-anchor="middle" font-family="Arial" font-size="11" fill="#555">5979</text><text x="944.9" y="618.0" text-anchor="middle" font-family="Arial" font-size="11" fill="#555">7989</text><text x="1160.0" y="618.0" text-anchor="middle" font-family="Arial" font-size="11" fill="#555">10000</text>
  <rect x="100" y="55" width="12" height="12" fill="#1f77b4" /><text x="118" y="65" font-family="Arial" font-size="12">adjacent</text><rect x="260" y="55" width="12" height="12" fill="#d62728" /><text x="278" y="65" font-family="Arial" font-size="12">n5</text><rect x="420" y="55" width="12" height="12" fill="#2ca02c" /><text x="438" y="65" font-family="Arial" font-size="12">n6</text>
  <text x="625.0" y="645.0" text-anchor="middle" font-family="Arial" font-size="14" font-weight="bold">Iteration</text>
  <text x="30.0" y="345.0" text-anchor="middle" font-family="Arial" font-size="14" font-weight="bold" transform="rotate(-90 30.0 345.0)">Makespan</text>
</svg>