<svg xmlns="http://www.w3.org/2000/svg" width="1200" height="700" viewBox="0 0 1200 700">
  <rect x="0" y="0" width="1200" height="700" fill="#ffffff" />
  <text x="600.0" y="32" text-anchor="middle" font-family="Arial" font-size="24" font-weight="bold">Neighborhood Comparison - Instance 4_2</text>
  <line x1="90.0" y1="600.0" x2="1160.0" y2="600.0" stroke="#e6e6e6" stroke-width="1" /><text x="82.0" y="604.0" text-anchor="end" font-family="Arial" font-size="11" fill="#555">880</text><line x1="90.0" y1="472.5" x2="1160.0" y2="472.5" stroke="#e6e6e6" stroke-width="1" /><text x="82.0" y="476.5" text-anchor="end" font-family="Arial" font-size="11" fill="#555">900</text><line x1="90.0" y1="345.0" x2="1160.0" y2="345.0" stroke="#e6e6e6" stroke-width="1" /><text x="82.0" y="349.0" text-anchor="end" font-family="Arial" font-size="11" fill="#555">920</text><line x1="90.0" y1="217.5" x2="1160.0" y2="217.5" stroke="#e6e6e6" stroke-width="1" /><text x="82.0" y="221.5" text-anchor="end" font-family="Arial" font-size="11" fill="#555">940</text><line x1="90.0" y1="90.0" x2="1160.0" y2="90.0" stroke="#e6e6e6" stroke-width="1" /><text x="82.0" y="94.0" text-anchor="end" font-family="Arial" font-size="11" fill="#555">960</text>
  <line x1="90" y1="600" x2="1160" y2="600" stroke="#333" stroke-width="1.5" />
  <line x1="90" y1="90" x2="90" y2="600" stroke="#333" stroke-width="1.5" />
  <polyline fill="none" stroke="#1f77b4" stroke-width="2.5" points="90.0,109.1 90.4,109.1 90.7,109.1 91.4,109.1 91.8,109.1 92.1,109.1 92.9,109.1 93.2,109.1 93.6,109.1 94.3,109.1 94.6,109.1 95.0,109.1 95.7,109.1 96.1,109.1 96.4,109.1 97.1,109.1 97.5,109.1 97.8,109.1 98.6,109.1 98.9,109.1 99.3,109.1 100.0,109.1 100.3,109.1 101.1,109.1 101.4,109.1 101.8,109.1 102.5,109.1 102.8,109.1 103.2,109.1 103.9,109.1 104.3,109.1 104.6,109.1 105.3,109.1 105.7,109.1 106.0,109.1 106.8,109.1 107.1,109.1 107.5,109.1 108.2,109.1 108.5,109.1 108.9,109.1 109.6,109.1 110.0,109.1 110.7,109.1 111.0,109.1 111.4,109.1 112.1,109.1 112.5,109.1 112.8,109.1 113.5,109.1 113.9,109.1 114.3,109.1 115.0,109.1 115.3,109.1 115.7,109.1 116.4,109.1 116.8,109.1 117.1,109.1 117.8,109.1 118.2,109.1 118.5,109.1 119.2,109.1 119.6,109.1 120.3,109.1 120.7,109.1 121.0,109.1 121.7,109.1 122.1,109.1 122.5,109.1 123.2,109.1 123.5,109.1 123.9,109.1 124.6,109.1 125.0,109.1 125.3,109.1 126.0,109.1 126.4,109.1 126.7,109.1 127.5,109.1 127.8,109.1 128.2,109.1 128.9,109.1 129.2,109.1 129.9,109.1 130.3,109.1 130.7,109.1 131.4,109.1 131.7,109.1 132.1,109.1 132.8,109.1 133.2,109.1 133.5,109.1 134.2,109.1 134.6,109.1 134.9,109.1 135.7,109.1 136.0,109.1 136.4,109.1 137.1,109.1 137.4,109.1 137.8,109.1 138.5,109.1 138.9,109.1 139.6,109.1 139.9,109.1 140.3,109.1 141.0,109.1 141.4,109.1 141.7,109.1 142.4,109.1 142.8,109.1 143.1,109.1 143.9,109.1 144.2,109.1 144.6,109.1 145.3,109.1 145.6,109.1 146.0,109.1 146.7,109.1 147.1,109.1 147.4,109.1 148.1,109.1 148.5,109.1 149.2,109.1 149.6,109.1 149.9,109.1 150.6,109.1 151.0,109.1 151.3,109.1 152.1,109.1 152.4,109.1 152.8,109.1 153.5,109.1 153.8,109.1 154.2,109.1 154.9,109.1 155.3,109.1 155.6,109.1 156.3,109.1 156.7,109.1 157.1,109.1 157.8,109.1 158.1,109.1 158.8,109.1 159.2,109.1 159.6,109.1 160.3,109.1 160.6,109.1 161.0,109.1 161.7,109.1 162.0,109.1 162.4,109.1 163.1,109.1 163.5,109.1 163.8,109.1 164.5,109.1 164.9,109.1 165.3,109.1 166.0,109.1 166.3,109.1 166.7,109.1 167.4,109.1 167.8,109.1 168.1,109.1 168.8,109.1 169.2,109.1 169.9,109.1 170.2,109.1 170.6,109.1 171.3,109.1 171.7,109.1 172.0,109.1 172.7,109.1 173.1,109.1 173.5,109.1 174.2,109.1 174.5,109.1 174.9,109.1 175.6,109.1 176.0,109.1 176.3,109.1 177.0,109.1 177.4,109.1 177.7,109.1 178.5,109.1 178.8,109.1 179.5,109.1 179.9,109.1 180.2,109.1 180.9,109.1 181.3,109.1 181.7,109.1 182.4,109.1 182.7,109.1 183.1,109.1 183.8,109.1 184.2,109.1 184.5,109.1 185.2,109.1 185.6,109.1 185.9,109.1 186.7,109.1 187.0,109.1 187.4,109.1 188.1,109.1 188.4,109.1 189.2,109.1 189.5,109.1 189.9,109.1 190.6,109.1 190.9,109.1 191.3,109.1 192.0,109.1 192.4,109.1 192.7,109.1 193.4,109.1 193.8,109.1 194.1,109.1 194.9,109.1 195.2,109.1 195.6,109.1 196.3,109.1 196.6,109.1 197.0,109.1 197.7,192.0 198.1,230.2 198.8,230.2 199.1,230.2 199.5,230.2 200.2,230.2 200.6,230.2 200.9,230.2 201.6,230.2 202.0,230.2 202.3,230.2 203.1,230.2 203.4,230.2 203.8,230.2 204.5,230.2 204.8,230.2 205.2,230.2 205.9,230.2 206.3,230.2 206.6,230.2 207.3,230.2 207.7,230.2 208.4,230.2 208.8,230.2 209.1,230.2 209.8,230.2 210.2,230.2 210.6,230.2 211.3,230.2 211.6,230.2 212.0,230.2 212.7,230.2 213.1,230.2 213.4,230.2 214.1,230.2 214.5,230.2 214.8,230.2 215.5,230.2 215.9,230.2 216.3,230.2 217.0,230.2 217.3,230.2 218.0,230.2 218.4,230.2 218.8,230.2 219.5,230.2 219.8,230.2 220.2,230.2 220.9,230.2 221.3,230.2 221.6,230.2 222.3,230.2 222.7,230.2 223.0,230.2 223.8,230.2 224.1,230.2 224.5,230.2 225.2,230.2 225.5,230.2 225.9,230.2 226.6,230.2 227.0,230.2 227.7,230.2 228.0,230.2 228.4,230.2 229.1,230.2 229.5,230.2 229.8,230.2 230.5,230.2 230.9,230.2 231.2,230.2 232.0,230.2 232.3,230.2 232.7,230.2 233.4,230.2 233.7,230.2 234.1,230.2 234.8,230.2 235.2,230.2 235.5,230.2 236.2,230.2 236.6,230.2 237.3,230.2 237.7,230.2 238.0,230.2 238.7,230.2 239.1,230.2 239.4,230.2 240.2,230.2 240.5,230.2 240.9,230.2 241.6,230.2 241.9,230.2 242.3,230.2 243.0,230.2 243.4,230.2 243.7,230.2 244.4,230.2 244.8,230.2 245.1,230.2 245.9,230.2 246.2,230.2 246.6,230.2 247.3,230.2 247.6,230.2 248.4,230.2 248.7,230.2 249.1,230.2 249.8,230.2 250.1,230.2 250.5,230.2 251.2,230.2 251.6,230.2 251.9,230.2 252.6,230.2 253.0,230.2 253.4,230.2 254.1,255.8 254.4,255.8 254.8,255.8 255.5,287.6 255.8,300.4 256.2,300.4 256.9,300.4 257.3,300.4 258.0,313.1 258.3,313.1 258.7,313.1 259.4,313.1 259.8,313.1 260.1,313.1 260.8,313.1 261.2,313.1 261.6,313.1 262.3,313.1 262.6,313.1 263.0,313.1 263.7,313.1 264.1,313.1 264.4,313.1 265.1,313.1 265.5,313.1 265.8,313.1 266.6,313.1 266.9,313.1 267.6,313.1 268.0,313.1 268.3,313.1 269.0,313.1 269.4,313.1 269.8,313.1 270.5,313.1 270.8,313.1 271.2,313.1 271.9,313.1 272.3,313.1 272.6,313.1 273.3,313.1 273.7,313.1 274.0,313.1 274.8,313.1 275.1,313.1 275.5,313.1 276.2,313.1 276.5,313.1 277.2,313.1 277.6,313.1 278.0,313.1 278.7,313.1 279.0,313.1 279.4,313.1 280.1,313.1 280.5,313.1 280.8,313.1 281.5,313.1 281.9,313.1 282.2,313.1 283.0,313.1 283.3,313.1 283.7,313.1 284.4,313.1 284.7,313.1 285.1,313.1 285.8,313.1 286.2,313.1 286.9,313.1 287.2,313.1 287.6,313.1 288.3,313.1 288.7,313.1 289.0,313.1 289.7,313.1 290.1,313.1 290.4,313.1 291.2,313.1 291.5,313.1 291.9,313.1 292.6,313.1 292.9,313.1 293.3,313.1 294.0,313.1 294.4,313.1 294.7,313.1 295.4,313.1 295.8,313.1 296.5,313.1 296.9,313.1 297.2,313.1 297.9,313.1 298.3,313.1 298.6,313.1 299.4,313.1 299.7,313.1 300.1,313.1 300.8,313.1 301.1,313.1 301.5,313.1 302.2,313.1 302.6,313.1 302.9,313.1 303.6,313.1 304.0,313.1 304.4,313.1 305.1,313.1 305.4,313.1 306.1,313.1 306.5,313.1 306.9,313.1 307.6,313.1 307.9,313.1 308.3,313.1 309.0,313.1 309.4,313.1 309.7,313.1 310.4,313.1 310.8,313.1 311.1,313.1 311.8,313.1 312.2,313.1 312.6,313.1 313.3,313.1 313.6,313.1 314.0,313.1 314.7,313.1 315.1,313.1 315.4,313.1 316.1,313.1 316.5,313.1 317.2,313.1 317.6,313.1 317.9,313.1 318.6,313.1 319.0,313.1 319.3,313.1 320.0,313.1 320.4,313.1 320.8,313.1 321.5,313.1 321.8,313.1 322.2,313.1 322.9,313.1 323.3,313.1 323.6,313.1 324.3,313.1 324.7,313.1 325.0,313.1 325.8,313.1 326.1,313.1 326.8,313.1 327.2,313.1 327.5,313.1 328.3,313.1 328.6,313.1 329.0,313.1 329.7,313.1 330.0,313.1 330.4,313.1 331.1,313.1 331.5,313.1 331.8,313.1 332.5,313.1 332.9,313.1 333.2,313.1 334.0,313.1 334.3,313.1 334.7,313.1 335.4,313.1 335.7,313.1 336.5,313.1 336.8,313.1 337.2,313.1 337.9,313.1 338.2,313.1 338.6,313.1 339.3,313.1 339.7,313.1 340.0,313.1 340.7,313.1 341.1,313.1 341.4,313.1 342.2,313.1 342.5,313.1 342.9,313.1 343.6,313.1 343.9,313.1 344.3,313.1 345.0,313.1 345.4,313.1 346.1,313.1 346.4,313.1 346.8,313.1 347.5,313.1 347.9,313.1 348.2,313.1 348.9,313.1 349.3,313.1 349.7,313.1 350.4,313.1 350.7,313.1 351.1,313.1 351.8,313.1 352.1,313.1 352.5,313.1 353.2,313.1 353.6,313.1 353.9,313.1 354.6,313.1 355.0,313.1 355.7,313.1 356.1,313.1 356.4,313.1 357.1,313.1 357.5,313.1 357.9,313.1 358.6,313.1 358.9,313.1 359.3,313.1 360.0,313.1 360.4,313.1 360.7,313.1 361.4,313.1 361.8,313.1 362.1,313.1 362.9,313.1 363.2,313.1 363.6,313.1 364.3,313.1 364.6,313.1 365.3,313.1 365.7,313.1 366.1,313.1 366.8,313.1 367.1,313.1 367.5,313.1 368.2,313.1 368.6,313.1 368.9,313.1 369.6,313.1 370.0,313.1 370.3,313.1 371.1,313.1 371.4,313.1 371.8,313.1 372.5,313.1 372.8,313.1 373.2,313.1 373.9,313.1 374.3,313.1 375.0,313.1 375.3,313.1 375.7,313.1 376.4,313.1 376.8,313.1 377.1,313.1 377.8,313.1 378.2,313.1 378.5,313.1 379.3,313.1 379.6,313.1 380.0,313.1 380.7,313.1 381.0,313.1 381.4,313.1 382.1,313.1 382.5,313.1 382.8,313.1 383.5,313.1 383.9,313.1 384.6,313.1 385.0,313.1 385.3,313.1 386.0,313.1 386.4,313.1 386.7,313.1 387.5,313.1 387.8,313.1 388.2,313.1 388.9,313.1 389.2,313.1 389.6,313.1 390.3,313.1 390.7,313.1 391.0,313.1 391.7,313.1 392.1,313.1 392.5,313.1 393.2,313.1 393.5,313.1 393.9,313.1 394.6,313.1 394.9,313.1 395.7,313.1 396.0,313.1 396.4,313.1 397.1,313.1 397.4,313.1 397.8,313.1 398.5,313.1 398.9,313.1 399.2,313.1 399.9,313.1 400.3,313.1 400.7,313.1 401.4,313.1 401.7,313.1 402.1,313.1 402.8,313.1 403.2,313.1 403.5,313.1 404.2,313.1 404.6,313.1 405.3,313.1 405.6,313.1 406.0,313.1 406.7,313.1 407.1,313.1 407.4,313.1 408.1,313.1 408.5,313.1 408.9,313.1 409.6,313.1 409.9,313.1 410.3,313.1 411.0,313.1 411.4,313.1 411.7,313.1 412.4,313.1 412.8,313.1 413.1,313.1 413.9,313.1 414.2,313.1 414.9,313.1 415.3,313.1 415.6,313.1 416.3,313.1 416.7,313.1 417.1,313.1 417.8,313.1 418.1,313.1 418.5,313.1 419.2,313.1 419.6,313.1 419.9,313.1 420.6,313.1 421.0,313.1 421.3,313.1 422.1,313.1 422.4,313.1 422.8,313.1 423.5,313.1 423.8,313.1 424.6,313.1 424.9,313.1 425.3,313.1 426.0,313.1 426.3,313.1 426.7,313.1 427.4,313.1 427.8,313.1 428.1,313.1 428.8,313.1 429.2,313.1 429.5,313.1 430.3,313.1 430.6,313.1 431.0,313.1 431.7,313.1 432.0,313.1 432.4,313.1 433.1,313.1 433.5,313.1 434.2,313.1 434.5,313.1 434.9,313.1 435.6,313.1 436.0,313.1 436.3,313.1 437.0,313.1 437.4,313.1 437.8,313.1 438.5,313.1 438.8,313.1 439.2,313.1 439.9,313.1 440.2,383.2 440.6,383.2 441.3,383.2 441.7,383.2 442.0,383.2 442.7,383.2 443.1,383.2 443.8,383.2 444.2,383.2 444.5,383.2 445.2,383.2 445.6,383.2 446.0,383.2 446.7,383.2 447.0,383.2 447.4,383.2 448.1,383.2 448.5,383.2 448.8,383.2 449.5,383.2 449.9,383.2 450.2,383.2 450.9,383.2 451.3,383.2 451.7,383.2 452.4,383.2 452.7,383.2 453.4,383.2 453.8,383.2 454.2,383.2 454.9,383.2 455.2,383.2 455.6,383.2 456.3,383.2 456.7,383.2 457.0,383.2 457.7,383.2 458.1,383.2 458.4,383.2 459.1,383.2 459.5,383.2 459.9,383.2 460.6,383.2 460.9,383.2 461.3,383.2 462.0,383.2 462.4,383.2 462.7,383.2 463.4,383.2 463.8,383.2 464.5,383.2 464.9,383.2 465.2,383.2 465.9,383.2 466.3,383.2 466.6,383.2 467.4,383.2 467.7,383.2 468.1,383.2 468.8,383.2 469.1,383.2 469.5,383.2 470.2,383.2 470.6,383.2 470.9,383.2 471.6,383.2 472.0,383.2 472.3,383.2 473.1,383.2 473.4,383.2 474.1,383.2 474.5,383.2 474.8,383.2 475.6,383.2 475.9,383.2 476.3,383.2 477.0,383.2 477.3,383.2 477.7,383.2 478.4,383.2 478.8,383.2 479.1,383.2 479.8,383.2 480.2,383.2 480.6,383.2 481.3,383.2 481.6,383.2 482.0,383.2 482.7,383.2 483.0,383.2 483.8,383.2 484.1,383.2 484.5,383.2 485.2,383.2 485.5,383.2 485.9,383.2 486.6,383.2 487.0,383.2 487.3,383.2 488.0,383.2 488.4,383.2 488.8,383.2 489.5,383.2 489.8,383.2 490.2,383.2 490.9,383.2 491.2,383.2 491.6,383.2 492.3,383.2 492.7,383.2 493.4,383.2 493.7,383.2 494.1,383.2 494.8,383.2 495.2,383.2 495.5,383.2 496.2,383.2 496.6,383.2 497.0,383.2 497.7,383.2 498.0,383.2 498.4,383.2 499.1,383.2 499.5,383.2 499.8,383.2 500.5,383.2 500.9,383.2 501.2,383.2 501.9,383.2 502.3,383.2 503.0,383.2 503.4,383.2 503.7,383.2 504.4,383.2 504.8,383.2 505.2,383.2 505.9,383.2 506.2,383.2 506.6,383.2 507.3,383.2 507.7,383.2 508.0,383.2 508.7,383.2 509.1,383.2 509.4,383.2 510.2,383.2 510.5,383.2 510.9,383.2 511.6,383.2 511.9,383.2 512.7,383.2 513.0,383.2 513.4,383.2 514.1,383.2 514.4,383.2 514.8,383.2 515.5,383.2 515.9,383.2 516.2,383.2 516.9,383.2 517.3,383.2 517.6,383.2 518.4,383.2 518.7,383.2 519.1,383.2 519.8,383.2 520.1,383.2 520.5,383.2 521.2,383.2 521.6,383.2 522.3,383.2 522.6,383.2 523.0,383.2 523.7,383.2 524.1,383.2 524.4,383.2 525.1,383.2 525.5,383.2 525.8,383.2 526.6,383.2 526.9,383.2 527.3,383.2 528.0,383.2 528.3,383.2 528.7,383.2 529.4,383.2 529.8,383.2 530.1,383.2 530.8,383.2 531.2,383.2 531.9,383.2 532.3,383.2 532.6,383.2 533.3,383.2 533.7,383.2 534.0,383.2 534.8,383.2 535.1,383.2 535.5,383.2 536.2,383.2 536.5,383.2 536.9,383.2 537.6,383.2 538.0,383.2 538.3,383.2 539.0,383.2 539.4,383.2 539.8,383.2 540.5,383.2 540.8,383.2 541.2,383.2 541.9,383.2 542.3,383.2 543.0,383.2 543.3,383.2 543.7,383.2 544.4,383.2 544.8,383.2 545.1,383.2 545.8,383.2 546.2,383.2 546.5,383.2 547.2,383.2 547.6,383.2 548.0,383.2 548.7,383.2 549.0,383.2 549.4,383.2 550.1,383.2 550.5,383.2 550.8,383.2 551.5,383.2 551.9,383.2 552.6,383.2 553.0,383.2 553.3,383.2 554.0,383.2 554.4,383.2 554.7,383.2 555.5,383.2 555.8,383.2 556.2,383.2 556.9,383.2 557.2,383.2 557.6,383.2 558.3,383.2 558.7,383.2 559.0,383.2 559.7,383.2 560.1,383.2 560.4,383.2 561.2,383.2 561.5,383.2 562.2,383.2 562.6,383.2 562.9,383.2 563.7,383.2 564.0,383.2 564.4,383.2 565.1,383.2 565.4,383.2 565.8,383.2 566.5,383.2 566.9,383.2 567.2,383.2 567.9,383.2 568.3,383.2 568.6,383.2 569.4,383.2 569.7,383.2 570.1,383.2 570.8,383.2 571.1,383.2 571.9,383.2 572.2,383.2 572.6,383.2 573.3,383.2 573.6,383.2 574.0,383.2 574.7,383.2 575.1,383.2 575.4,383.2 576.1,383.2 576.5,383.2 576.9,383.2 577.6,383.2 577.9,383.2 578.3,383.2 579.0,383.2 579.3,383.2 579.7,383.2 580.4,383.2 580.8,383.2 581.5,383.2 581.8,383.2 582.2,383.2 582.9,383.2 583.3,383.2 583.6,383.2 584.3,383.2 584.7,383.2 585.1,383.2 585.8,383.2 586.1,383.2 586.5,383.2 587.2,383.2 587.5,383.2 587.9,383.2 588.6,383.2 589.0,383.2 589.3,383.2 590.0,383.2 590.4,383.2 591.1,383.2 591.5,383.2 591.8,383.2 592.5,383.2 592.9,383.2 593.3,383.2 594.0,383.2 594.3,383.2 594.7,383.2 595.4,383.2 595.8,383.2 596.1,383.2 596.8,383.2 597.2,383.2 597.5,383.2 598.2,383.2 598.6,383.2 599.0,383.2 599.7,383.2 600.0,383.2 600.7,383.2 601.1,383.2 601.5,383.2 602.2,383.2 602.5,383.2 602.9,383.2 603.6,383.2 604.0,383.2 604.3,383.2 605.0,383.2 605.4,383.2 605.7,383.2 606.5,383.2 606.8,383.2 607.2,383.2 607.9,383.2 608.2,383.2 608.6,383.2 609.3,383.2 609.7,383.2 610.0,383.2 610.7,383.2 611.1,383.2 611.8,383.2 612.2,383.2 612.5,383.2 613.2,383.2 613.6,383.2 613.9,383.2 614.7,383.2 615.0,383.2 615.4,383.2 616.1,383.2 616.4,383.2 616.8,383.2 617.5,383.2 617.9,383.2 618.2,383.2 618.9,383.2 619.3,383.2 619.6,383.2 620.4,383.2 620.7,383.2 621.4,383.2 621.8,383.2 622.1,383.2 622.9,383.2 623.2,383.2 623.6,383.2 624.3,383.2 624.6,383.2 625.0,383.2 625.7,383.2 626.1,383.2 626.4,383.2 627.1,383.2 627.5,383.2 627.9,383.2 628.6,383.2 628.9,383.2 629.3,383.2 630.0,383.2 630.4,383.2 631.1,383.2 631.4,383.2 631.8,383.2 632.5,383.2 632.8,383.2 633.2,383.2 633.9,383.2 634.3,383.2 634.6,383.2 635.3,383.2 635.7,383.2 636.1,383.2 636.8,383.2 637.1,383.2 637.5,383.2 638.2,383.2 638.6,383.2 638.9,383.2 639.6,383.2 640.0,383.2 640.7,383.2 641.1,383.2 641.4,383.2 642.1,383.2 642.5,383.2 642.8,383.2 643.5,383.2 643.9,383.2 644.3,383.2 645.0,383.2 645.3,383.2 645.7,383.2 646.4,383.2 646.8,383.2 647.1,383.2 647.8,383.2 648.2,383.2 648.5,383.2 649.3,383.2 649.6,383.2 650.3,383.2 650.7,383.2 651.0,383.2 651.8,383.2 652.1,383.2 652.5,383.2 653.2,383.2 653.5,383.2 653.9,383.2 654.6,383.2 655.0,383.2 655.3,383.2 656.0,383.2 656.4,383.2 656.7,383.2 657.5,383.2 657.8,383.2 658.2,383.2 658.9,383.2 659.2,383.2 660.0,383.2 660.3,383.2 660.7,383.2 661.4,383.2 661.7,383.2 662.1,383.2 662.8,383.2 663.2,383.2 663.5,383.2 664.2,383.2 664.6,383.2 664.9,383.2 665.7,383.2 666.0,383.2 666.4,383.2 667.1,383.2 667.4,383.2 667.8,383.2 668.5,383.2 668.9,383.2 669.6,383.2 669.9,383.2 670.3,383.2 671.0,383.2 671.4,383.2 671.7,383.2 672.4,383.2 672.8,383.2 673.2,383.2 673.9,383.2 674.2,383.2 674.6,383.2 675.3,383.2 675.6,383.2 676.0,383.2 676.7,383.2 677.1,383.2 677.4,383.2 678.1,383.2 678.5,383.2 679.2,383.2 679.6,383.2 679.9,383.2 680.6,383.2 681.0,383.2 681.4,383.2 682.1,383.2 682.4,383.2 682.8,383.2 683.5,383.2 683.9,383.2 684.2,383.2 684.9,383.2 685.3,383.2 685.6,383.2 686.3,383.2 686.7,383.2 687.1,383.2 687.8,383.2 688.1,383.2 688.5,383.2 689.2,383.2 689.6,383.2 690.3,383.2 690.6,383.2 691.0,383.2 691.7,383.2 692.1,383.2 692.4,383.2 693.1,383.2 693.5,383.2 693.8,383.2 694.5,383.2 694.9,383.2 695.3,383.2 696.0,593.6 696.3,593.6 696.7,593.6 697.4,593.6 697.8,593.6 698.1,593.6 698.8,593.6 699.2,593.6 699.9,593.6 700.3,593.6 700.6,593.6 701.3,593.6 701.7,593.6 702.0,593.6 702.8,593.6 703.1,593.6 703.5,593.6 704.2,593.6 704.5,593.6 704.9,593.6 705.6,593.6 706.0,593.6 706.3,593.6 707.0,593.6 707.4,593.6 707.7,593.6 708.5,593.6 708.8,593.6 709.5,593.6 709.9,593.6 710.2,593.6 711.0,593.6 711.3,593.6 711.7,593.6 712.4,593.6 712.7,593.6 713.1,593.6 713.8,593.6 714.2,593.6 714.5,593.6 715.2,593.6 715.6,593.6 715.9,593.6 716.7,593.6 717.0,593.6 717.4,593.6 718.1,593.6 718.4,593.6 719.2,593.6 719.5,593.6 719.9,593.6 720.6,593.6 720.9,593.6 721.3,593.6 722.0,593.6 722.4,593.6 722.7,593.6 723.4,593.6 723.8,593.6 724.2,593.6 724.9,593.6 725.2,593.6 725.6,593.6 726.3,593.6 726.6,593.6 727.0,593.6 727.7,593.6 728.1,593.6 728.8,593.6 729.1,593.6 729.5,593.6 730.2,593.6 730.6,593.6 730.9,593.6 731.6,593.6 732.0,593.6 732.4,593.6 733.1,593.6 733.4,593.6 733.8,593.6 734.5,593.6 734.9,593.6 735.2,593.6 735.9,593.6 736.3,593.6 736.6,593.6 737.4,593.6 737.7,593.6 738.4,593.6 738.8,593.6 739.1,593.6 739.8,593.6 740.2,593.6 740.6,593.6 741.3,593.6 741.6,593.6 742.0,593.6 742.7,593.6 743.1,593.6 743.4,593.6 744.1,593.6 744.5,593.6 744.8,593.6 745.6,593.6 745.9,593.6 746.3,593.6 747.0,593.6 747.3,593.6 748.0,593.6 748.4,593.6 748.8,593.6 749.5,593.6 749.8,593.6 750.2,593.6 750.9,593.6 751.3,593.6 751.6,593.6 752.3,593.6 752.7,593.6 753.0,593.6 753.8,593.6 754.1,593.6 754.5,593.6 755.2,593.6 755.5,593.6 755.9,593.6 756.6,593.6 757.0,593.6 757.3,593.6 758.0,593.6 758.4,593.6 759.1,593.6 759.5,593.6 759.8,593.6 760.5,593.6 760.9,593.6 761.2,593.6 762.0,593.6 762.3,593.6 762.7,593.6 763.4,593.6 763.7,593.6 764.1,593.6 764.8,593.6 765.2,593.6 765.5,593.6 766.2,593.6 766.6,593.6 767.0,593.6 767.7,593.6 768.0,593.6 768.7,593.6 769.1,593.6 769.5,593.6 770.2,593.6 770.5,593.6 770.9,593.6 771.6,593.6 771.9,593.6 772.3,593.6 773.0,593.6 773.4,593.6 773.7,593.6 774.4,593.6 774.8,593.6 775.2,593.6 775.9,593.6 776.2,593.6 776.6,593.6 777.3,593.6 777.7,593.6 778.4,593.6 778.7,593.6 779.1,593.6 779.8,593.6 780.1,593.6 780.5,593.6 781.2,593.6 781.6,593.6 781.9,593.6 782.6,593.6 783.0,593.6 783.4,593.6 784.1,593.6 784.4,593.6 784.8,593.6 785.5,593.6 785.9,593.6 786.2,593.6 786.9,593.6 787.3,593.6 788.0,593.6 788.4,593.6 788.7,593.6 789.4,593.6 789.8,593.6 790.1,593.6 790.9,593.6 791.2,593.6 791.6,593.6 792.3,593.6 792.6,593.6 793.0,593.6 793.7,593.6 794.1,593.6 794.4,593.6 795.1,593.6 795.5,593.6 795.8,593.6 796.6,593.6 796.9,593.6 797.6,593.6 798.0,593.6 798.3,593.6 799.1,593.6 799.4,593.6 799.8,593.6 800.5,593.6 800.8,593.6 801.2,593.6 801.9,593.6 802.3,593.6 802.6,593.6 803.3,593.6 803.7,593.6 804.0,593.6 804.8,593.6 805.1,593.6 805.5,593.6 806.2,593.6 806.5,593.6 807.3,593.6 807.6,593.6 808.0,593.6 808.7,593.6 809.0,593.6 809.4,593.6 810.1,593.6 810.5,593.6 810.8,593.6 811.5,593.6 811.9,593.6 812.2,593.6 813.0,593.6 813.3,593.6 813.7,593.6 814.4,593.6 814.7,593.6 815.1,593.6 815.8,593.6 816.2,593.6 816.9,593.6 817.2,593.6 817.6,593.6 818.3,593.6 818.7,593.6 819.0,593.6 819.7,593.6 820.1,593.6 820.5,593.6 821.2,593.6 821.5,593.6 821.9,593.6 822.6,593.6 823.0,593.6 823.3,593.6 824.0,593.6 824.4,593.6 824.7,593.6 825.4,593.6 825.8,593.6 826.5,593.6 826.9,593.6 827.2,593.6 827.9,593.6 828.3,593.6 828.7,593.6 829.4,593.6 829.7,593.6 830.1,593.6 830.8,593.6 831.2,593.6 831.5,593.6 832.2,593.6 832.6,593.6 832.9,593.6 833.6,593.6 834.0,593.6 834.4,593.6 835.1,593.6 835.4,593.6 835.8,593.6 836.5,593.6 836.9,593.6 837.6,593.6 837.9,593.6 838.3,593.6 839.0,593.6 839.4,593.6 839.7,593.6 840.4,593.6 840.8,593.6 841.1,593.6 841.9,593.6 842.2,593.6 842.6,593.6 843.3,593.6 843.6,593.6 844.0,593.6 844.7,593.6 845.1,593.6 845.4,593.6 846.1,593.6 846.5,593.6 847.2,593.6 847.6,593.6 847.9,593.6 848.6,593.6 849.0,593.6 849.3,593.6 850.1,593.6 850.4,593.6 850.8,593.6 851.5,593.6 851.8,593.6 852.2,593.6 852.9,593.6 853.3,593.6 853.6,593.6 854.3,593.6 854.7,593.6 855.0,593.6 855.8,593.6 856.1,593.6 856.8,593.6 857.2,593.6 857.5,593.6 858.3,593.6 858.6,593.6 859.0,593.6 859.7,593.6 860.0,593.6 860.4,593.6 861.1,593.6 861.5,593.6 861.8,593.6 862.5,593.6 862.9,593.6 863.3,593.6 864.0,593.6 864.3,593.6 864.7,593.6 865.4,593.6 865.8,593.6 866.5,593.6 866.8,593.6 867.2,593.6 867.9,593.6 868.2,593.6 868.6,593.6 869.3,593.6 869.7,593.6 870.0,593.6 870.7,593.6 871.1,593.6 871.5,593.6 872.2,593.6 872.5,593.6 872.9,593.6 873.6,593.6 874.0,593.6 874.3,593.6 875.0,593.6 875.4,593.6 876.1,593.6 876.4,593.6 876.8,593.6 877.5,593.6 877.9,593.6 878.2,593.6 878.9,593.6 879.3,593.6 879.7,593.6 880.4,593.6 880.7,593.6 881.1,593.6 881.8,593.6 882.2,593.6 882.5,593.6 883.2,593.6 883.6,593.6 883.9,593.6 884.7,593.6 885.0,593.6 885.7,593.6 886.1,593.6 886.4,593.6 887.1,593.6 887.5,593.6 887.9,593.6 888.6,593.6 888.9,593.6 889.3,593.6 890.0,593.6 890.4,593.6 890.7,593.6 891.4,593.6 891.8,593.6 892.1,593.6 892.9,593.6 893.2,593.6 893.6,593.6 894.3,593.6 894.6,593.6 895.4,593.6 895.7,593.6 896.1,593.6 896.8,593.6 897.1,593.6 897.5,593.6 898.2,593.6 898.6,593.6 898.9,593.6 899.6,593.6 900.0,593.6 900.3,593.6 901.1,593.6 901.4,593.6 901.8,593.6 902.5,593.6 902.8,593.6 903.2,593.6 903.9,593.6 904.3,593.6 904.6,593.6 905.3,593.6 905.7,593.6 906.4,593.6 906.8,593.6 907.1,593.6 907.8,593.6 908.2,593.6 908.6,593.6 909.3,593.6 909.6,593.6 910.0,593.6 910.7,593.6 911.0,593.6 911.4,593.6 912.1,593.6 912.5,593.6 912.8,593.6 913.5,593.6 913.9,593.6 914.3,593.6 915.0,593.6 915.3,593.6 916.0,593.6 916.4,593.6 916.8,593.6 917.5,593.6 917.8,593.6 918.2,593.6 918.9,593.6 919.2,593.6 919.6,593.6 920.3,593.6 920.7,593.6 921.0,593.6 921.7,593.6 922.1,593.6 922.5,593.6 923.2,593.6 923.5,593.6 923.9,593.6 924.6,593.6 925.0,593.6 925.7,593.6 926.0,593.6 926.4,593.6 927.1,593.6 927.5,593.6 927.8,593.6 928.5,593.6 928.9,593.6 929.2,593.6 930.0,593.6 930.3,593.6 930.7,593.6 931.4,593.6 931.7,593.6 932.1,593.6 932.8,593.6 933.2,593.6 933.5,593.6 934.2,593.6 934.6,593.6 935.3,593.6 935.7,593.6 936.0,593.6 936.7,593.6 937.1,593.6 937.4,593.6 938.2,593.6 938.5,593.6 938.9,593.6 939.6,593.6 939.9,593.6 940.3,593.6 941.0,593.6 941.4,593.6 941.7,593.6 942.4,593.6 942.8,593.6 943.1,593.6 943.9,593.6 944.2,593.6 944.9,593.6 945.3,593.6 945.6,593.6 946.4,593.6 946.7,593.6 947.1,593.6 947.8,593.6 948.1,593.6 948.5,593.6 949.2,593.6 949.6,593.6 949.9,593.6 950.6,593.6 951.0,593.6 951.4,593.6 952.1,593.6 952.4,593.6 952.8,593.6 953.5,593.6 953.8,593.6 954.6,593.6 954.9,593.6 955.3,593.6 956.0,593.6 956.3,593.6 956.7,593.6 957.4,593.6 957.8,593.6 958.1,593.6 958.8,593.6 959.2,593.6 959.6,593.6 960.3,593.6 960.6,593.6 961.0,593.6 961.7,593.6 962.0,593.6 962.4,593.6 963.1,593.6 963.5,593.6 964.2,593.6 964.5,593.6 964.9,593.6 965.6,593.6 966.0,593.6 966.3,593.6 967.0,593.6 967.4,593.6 967.8,593.6 968.5,593.6 968.8,593.6 969.2,593.6 969.9,593.6 970.3,593.6 970.6,593.6 971.3,593.6 971.7,593.6 972.0,593.6 972.8,593.6 973.1,593.6 973.8,593.6 974.2,593.6 974.5,593.6 975.2,593.6 975.6,593.6 976.0,593.6 976.7,593.6 977.0,593.6 977.4,593.6 978.1,593.6 978.5,593.6 978.8,593.6 979.5,593.6 979.9,593.6 980.2,593.6 981.0,593.6 981.3,593.6 981.7,593.6 982.4,593.6 982.7,593.6 983.1,593.6 983.8,593.6 984.2,593.6 984.9,593.6 985.2,593.6 985.6,593.6 986.3,593.6 986.7,593.6 987.0,593.6 987.7,593.6 988.1,593.6 988.4,593.6 989.2,593.6 989.5,593.6 989.9,593.6 990.6,593.6 990.9,593.6 991.3,593.6 992.0,593.6 992.4,593.6 992.7,593.6 993.4,593.6 993.8,593.6 994.5,593.6 994.9,593.6 995.2,593.6 995.9,593.6 996.3,593.6 996.6,593.6 997.4,593.6 997.7,593.6 998.1,593.6 998.8,593.6 999.1,593.6 999.5,593.6 1000.2,593.6 1000.6,593.6 1000.9,593.6 1001.6,593.6 1002.0,593.6 1002.4,593.6 1003.1,593.6 1003.4,593.6 1004.1,593.6 1004.5,593.6 1004.9,593.6 1005.6,593.6 1005.9,593.6 1006.3,593.6 1007.0,593.6 1007.3,593.6 1007.7,593.6 1008.4,593.6 1008.8,593.6 1009.1,593.6 1009.8,593.6 1010.2,593.6 1010.6,593.6 1011.3,593.6 1011.6,593.6 1012.0,593.6 1012.7,593.6 1013.1,593.6 1013.8,593.6 1014.1,593.6 1014.5,593.6 1015.2,593.6 1015.5,593.6 1015.9,593.6 1016.6,593.6 1017.0,593.6 1017.3,593.6 1018.0,593.6 1018.4,593.6 1018.8,593.6 1019.5,593.6 1019.8,593.6 1020.2,593.6 1020.9,593.6 1021.3,593.6 1021.6,593.6 1022.3,593.6 1022.7,593.6 1023.4,593.6 1023.8,593.6 1024.1,593.6 1024.8,593.6 1025.2,593.6 1025.5,593.6 1026.2,593.6 1026.6,593.6 1027.0,593.6 1027.7,593.6 1028.0,593.6 1028.4,593.6 1029.1,593.6 1029.5,593.6 1029.8,593.6 1030.5,593.6 1030.9,593.6 1031.2,593.6 1032.0,593.6 1032.3,593.6 1033.0,593.6 1033.4,593.6 1033.7,593.6 1034.5,593.6 1034.8,593.6 1035.2,593.6 1035.9,593.6 1036.2,593.6 1036.6,593.6 1037.3,593.6 1037.7,593.6 1038.0,593.6 1038.7,593.6 1039.1,593.6 1039.4,593.6 1040.2,593.6 1040.5,593.6 1040.9,593.6 1041.6,593.6 1041.9,593.6 1042.7,593.6 1043.0,593.6 1043.4,593.6 1044.1,593.6 1044.4,593.6 1044.8,593.6 1045.5,593.6 1045.9,593.6 1046.2,593.6 1046.9,593.6 1047.3,593.6 1047.7,593.6 1048.4,593.6 1048.7,593.6 1049.1,593.6 1049.8,593.6 1050.1,593.6 1050.5,593.6 1051.2,593.6 1051.6,593.6 1052.3,593.6" /><polyline fill="none" stroke="#d62728" stroke-width="2.5" points="90.0,109.1 90.4,109.1 90.7,109.1 91.4,109.1 91.8,109.1 92.5,109.1 92.9,109.1 93.6,109.1 93.9,109.1 94.3,109.1 95.0,109.1 95.3,109.1 96.1,109.1 96.4,109.1 97.1,109.1 97.5,109.1 98.2,109.1 98.6,109.1 98.9,109.1 99.6,109.1 100.0,109.1 100.7,109.1 101.1,109.1 101.8,109.1 102.1,109.1 102.5,109.1 103.2,109.1 103.6,109.1 104.3,109.1 104.6,109.1 105.3,109.1 105.7,109.1 106.4,109.1 106.8,109.1 107.1,109.1 107.8,109.1 108.2,109.1 108.9,109.1 109.3,109.1 110.0,109.1 110.3,109.1 111.0,109.1 111.4,109.1 111.8,109.1 112.5,109.1 112.8,109.1 113.5,109.1 113.9,109.1 114.6,109.1 115.0,141.0 115.3,141.0 116.0,141.0 116.4,141.0 117.1,141.0 117.5,141.0 118.2,141.0 118.5,141.0 119.2,141.0 119.6,141.0 120.0,141.0 120.7,141.0 121.0,141.0 121.7,141.0 122.1,141.0 122.8,141.0 123.2,141.0 123.5,141.0 124.2,141.0 124.6,141.0 125.3,141.0 125.7,141.0 126.4,141.0 126.7,141.0 127.5,141.0 127.8,141.0 128.2,141.0 128.9,141.0 129.2,141.0 129.9,141.0 130.3,141.0 131.0,141.0 131.4,141.0 132.1,141.0 132.4,141.0 132.8,141.0 133.5,141.0 133.9,141.0 134.6,141.0 134.9,141.0 135.7,141.0 136.0,141.0 136.4,141.0 137.1,141.0 137.4,141.0 138.2,141.0 138.5,141.0 139.2,141.0 139.6,141.0 140.3,141.0 140.6,141.0 141.0,141.0 141.7,141.0 142.1,141.0 142.8,141.0 143.1,141.0 143.9,141.0 144.2,141.0 144.6,141.0 145.3,141.0 145.6,141.0 146.4,141.0 146.7,141.0 147.4,141.0 147.8,141.0 148.5,141.0 148.8,141.0 149.2,141.0 149.9,141.0 150.3,141.0 151.0,141.0 151.3,141.0 152.1,141.0 152.4,141.0 153.1,141.0 153.5,141.0 153.8,141.0 154.6,141.0 154.9,141.0 155.6,141.0 156.0,141.0 156.7,141.0 157.1,141.0 157.4,141.0 158.1,141.0 158.5,141.0 159.2,141.0 159.6,141.0 160.3,141.0 160.6,141.0 161.3,141.0 161.7,141.0 162.0,141.0 162.8,141.0 163.1,141.0 163.8,141.0 164.2,141.0 164.9,141.0 165.3,141.0 166.0,141.0 166.3,141.0 166.7,141.0 167.4,141.0 167.8,141.0 168.5,141.0 168.8,141.0 169.5,141.0 169.9,141.0 170.2,141.0 171.0,141.0 171.3,141.0 172.0,141.0 172.4,141.0 173.1,141.0 173.5,141.0 174.2,141.0 174.5,141.0 174.9,141.0 175.6,141.0 176.0,141.0 176.7,141.0 177.0,141.0 177.7,141.0 178.1,141.0 178.5,211.1 179.2,211.1 179.5,211.1 180.2,211.1 180.6,211.1 181.3,211.1 181.7,211.1 182.4,211.1 182.7,211.1 183.1,211.1 183.8,211.1 184.2,211.1 184.9,211.1 185.2,211.1 185.9,211.1 186.3,211.1 187.0,211.1 187.4,211.1 187.7,211.1 188.4,211.1 188.8,211.1 189.5,211.1 189.9,211.1 190.6,211.1 190.9,211.1 191.3,211.1 192.0,211.1 192.4,211.1 193.1,211.1 193.4,211.1 194.1,211.1 194.5,211.1 195.2,211.1 195.6,211.1 195.9,211.1 196.6,211.1 197.0,211.1 197.7,211.1 198.1,211.1 198.8,211.1 199.1,211.1 199.5,211.1 200.2,211.1 200.6,211.1 201.3,211.1 201.6,211.1 202.3,211.1 202.7,211.1 203.4,211.1 203.8,211.1 204.1,211.1 204.8,211.1 205.2,211.1 205.9,211.1 206.3,211.1 207.0,211.1 207.3,211.1 208.1,211.1 208.4,211.1 208.8,211.1 209.5,211.1 209.8,211.1 210.6,211.1 210.9,211.1 211.6,211.1 212.0,211.1 212.3,211.1 213.1,211.1 213.4,211.1 214.1,211.1 214.5,211.1 215.2,211.1 215.5,211.1 216.3,211.1 216.6,211.1 217.0,211.1 217.7,211.1 218.0,211.1 218.8,211.1 219.1,211.1 219.8,211.1 220.2,211.1 220.9,211.1 221.3,211.1 221.6,211.1 222.3,211.1 222.7,211.1 223.4,211.1 223.8,211.1 224.5,211.1 224.8,211.1 225.2,211.1 225.9,211.1 226.2,211.1 227.0,211.1 227.3,211.1 228.0,211.1 228.4,211.1 229.1,211.1 229.5,211.1 229.8,211.1 230.5,211.1 230.9,211.1 231.6,211.1 232.0,211.1 232.7,211.1 233.0,211.1 233.4,211.1 234.1,211.1 234.5,211.1 235.2,211.1 235.5,211.1 236.2,211.1 236.6,211.1 237.3,211.1 237.7,211.1 238.0,211.1 238.7,211.1 239.1,211.1 239.8,211.1 240.2,211.1 240.9,211.1 241.2,211.1 241.9,211.1 242.3,211.1 242.7,211.1 243.4,211.1 243.7,211.1 244.4,211.1 244.8,211.1 245.5,211.1 245.9,211.1 246.2,211.1 246.9,211.1 247.3,211.1 248.0,211.1 248.4,211.1 249.1,211.1 249.4,211.1 250.1,211.1 250.5,211.1 250.9,211.1 251.6,211.1 251.9,211.1 252.6,211.1 253.0,211.1 253.7,211.1 254.1,211.1 254.4,211.1 255.1,211.1 255.5,211.1 256.2,211.1 256.6,211.1 257.3,211.1 257.6,211.1 258.3,211.1 258.7,211.1 259.1,211.1 259.8,211.1 260.1,211.1 260.8,211.1 261.2,211.1 261.9,211.1 262.3,211.1 263.0,211.1 263.3,211.1 263.7,211.1 264.4,211.1 264.8,211.1 265.5,211.1 265.8,211.1 266.6,211.1 266.9,211.1 267.3,211.1 268.0,211.1 268.3,211.1 269.0,211.1 269.4,211.1 270.1,211.1 270.5,211.1 271.2,211.1 271.5,211.1 271.9,211.1 272.6,211.1 273.0,211.1 273.7,211.1 274.0,211.1 274.8,211.1 275.1,211.1 275.5,211.1 276.2,211.1 276.5,211.1 277.2,211.1 277.6,211.1 278.3,211.1 278.7,211.1 279.4,211.1 279.7,211.1 280.1,211.1 280.8,211.1 281.2,211.1 281.9,211.1 282.2,211.1 283.0,211.1 283.3,211.1 284.0,211.1 284.4,211.1 284.7,211.1 285.5,211.1 285.8,211.1 286.5,211.1 286.9,211.1 287.6,211.1 287.9,211.1 288.3,211.1 289.0,211.1 289.4,211.1 290.1,211.1 290.4,211.1 291.2,211.1 291.5,211.1 292.2,211.1 292.6,211.1 292.9,211.1 293.7,211.1 294.0,211.1 294.7,211.1 295.1,211.1 295.8,211.1 296.2,211.1 296.9,211.1 297.2,211.1 297.6,211.1 298.3,211.1 298.6,211.1 299.4,211.1 299.7,211.1 300.4,211.1 300.8,211.1 301.1,211.1 301.9,211.1 302.2,211.1 302.9,211.1 303.3,211.1 304.0,211.1 304.4,211.1 305.1,211.1 305.4,211.1 305.8,211.1 306.5,211.1 306.9,211.1 307.6,211.1 307.9,211.1 308.6,211.1 309.0,211.1 309.4,211.1 310.1,211.1 310.4,211.1 311.1,211.1 311.5,211.1 312.2,211.1 312.6,211.1 313.3,211.1 313.6,211.1 314.0,211.1 314.7,211.1 315.1,211.1 315.8,211.1 316.1,211.1 316.8,211.1 317.2,211.1 317.9,211.1 318.3,211.1 318.6,211.1 319.3,211.1 319.7,211.1 320.4,211.1 320.8,211.1 321.5,211.1 321.8,211.1 322.2,211.1 322.9,211.1 323.3,211.1 324.0,211.1 324.3,211.1 325.0,211.1 325.4,211.1 326.1,211.1 326.5,211.1 326.8,211.1 327.5,211.1 327.9,211.1 328.6,211.1 329.0,211.1 329.7,211.1 330.0,211.1 330.4,211.1 331.1,211.1 331.5,211.1 332.2,211.1 332.5,211.1 333.2,211.1 333.6,211.1 334.3,211.1 334.7,211.1 335.0,211.1 335.7,211.1 336.1,211.1 336.8,211.1 337.2,211.1 337.9,211.1 338.2,211.1 339.0,211.1 339.3,211.1 339.7,211.1 340.4,211.1 340.7,211.1 341.4,211.1 341.8,211.1 342.5,211.1 342.9,211.1 343.2,211.1 343.9,211.1 344.3,211.1 345.0,211.1 345.4,211.1 346.1,211.1 346.4,211.1 347.2,211.1 347.5,211.1 347.9,211.1 348.6,223.9 348.9,223.9 349.7,223.9 350.0,223.9 350.7,223.9 351.1,223.9 351.8,223.9 352.1,223.9 352.5,223.9 353.2,223.9 353.6,223.9 354.3,223.9 354.6,223.9 355.4,223.9 355.7,223.9 356.1,223.9 356.8,223.9 357.1,223.9 357.9,223.9 358.2,223.9 358.9,223.9 359.3,223.9 360.0,223.9 360.4,223.9 360.7,223.9 361.4,223.9 361.8,223.9 362.5,223.9 362.9,223.9 363.6,223.9 363.9,223.9 364.3,223.9 365.0,223.9 365.3,223.9 366.1,223.9 366.4,223.9 367.1,223.9 367.5,223.9 368.2,223.9 368.6,223.9 368.9,223.9 369.6,223.9 370.0,223.9 370.7,223.9 371.1,223.9 371.8,223.9 372.1,223.9 372.8,223.9 373.2,223.9 373.6,223.9 374.3,223.9 374.6,223.9 375.3,223.9 375.7,223.9 376.4,223.9 376.8,223.9 377.1,223.9 377.8,223.9 378.2,223.9 378.9,223.9 379.3,223.9 380.0,223.9 380.3,223.9 381.0,223.9 381.4,223.9 381.8,223.9 382.5,223.9 382.8,223.9 383.5,223.9 383.9,223.9 384.6,223.9 385.0,223.9 385.3,223.9 386.0,223.9 386.4,223.9 387.1,223.9 387.5,223.9 388.2,223.9 388.5,223.9 389.2,223.9 389.6,223.9 390.0,223.9 390.7,223.9 391.0,223.9 391.7,223.9 392.1,223.9 392.8,223.9 393.2,223.9 393.9,223.9 394.2,223.9 394.6,223.9 395.3,223.9 395.7,223.9 396.4,223.9 396.7,223.9 397.4,223.9 397.8,223.9 398.2,223.9 398.9,223.9 399.2,223.9 399.9,223.9 400.3,223.9 401.0,223.9 401.4,223.9 402.1,223.9 402.4,223.9 402.8,223.9 403.5,223.9 403.9,223.9 404.6,223.9 404.9,223.9 405.6,223.9 406.0,223.9 406.4,223.9 407.1,223.9 407.4,223.9 408.1,223.9 408.5,223.9 409.2,223.9 409.6,223.9 410.3,223.9 410.6,223.9 411.0,223.9 411.7,223.9 412.1,223.9 412.8,223.9 413.1,223.9 413.9,223.9 414.2,223.9 414.9,223.9 415.3,223.9 415.6,223.9 416.3,223.9 416.7,223.9 417.4,223.9 417.8,223.9 418.5,223.9 418.8,223.9 419.2,223.9 419.9,223.9 420.3,223.9 421.0,223.9 421.3,223.9 422.1,223.9 422.4,223.9 423.1,223.9 423.5,223.9 423.8,223.9 424.6,223.9 424.9,223.9 425.6,223.9 426.0,223.9 426.7,223.9 427.1,223.9 427.8,223.9 428.1,223.9 428.5,223.9 429.2,223.9 429.5,223.9 430.3,223.9 430.6,223.9 431.3,223.9 431.7,223.9 432.0,223.9 432.8,223.9 433.1,223.9 433.8,223.9 434.2,223.9 434.9,223.9 435.3,223.9 436.0,223.9 436.3,223.9 436.7,223.9 437.4,223.9 437.8,223.9 438.5,223.9 438.8,223.9 439.5,223.9 439.9,223.9 440.2,223.9 441.0,223.9 441.3,223.9 442.0,223.9 442.4,223.9 443.1,223.9 443.5,223.9 444.2,223.9 444.5,223.9 444.9,223.9 445.6,223.9 446.0,223.9 446.7,223.9 447.0,223.9 447.7,223.9 448.1,223.9 448.8,223.9 449.2,223.9 449.5,223.9 450.2,223.9 450.6,223.9 451.3,223.9 451.7,223.9 452.4,223.9 452.7,223.9 453.1,223.9 453.8,223.9 454.2,223.9 454.9,223.9 455.2,223.9 455.9,223.9 456.3,223.9 457.0,223.9 457.4,223.9 457.7,223.9 458.4,223.9 458.8,223.9 459.5,223.9 459.9,223.9 460.6,223.9 460.9,223.9 461.3,223.9 462.0,223.9 462.4,223.9 463.1,230.2 463.4,230.2 464.1,230.2 464.5,230.2 465.2,230.2 465.6,230.2 465.9,230.2 466.6,230.2 467.0,230.2 467.7,230.2 468.1,230.2 468.8,230.2 469.1,230.2 469.8,230.2 470.2,230.2 470.6,230.2 471.3,230.2 471.6,230.2 472.3,230.2 472.7,230.2 473.4,230.2 473.8,230.2 474.1,230.2 474.8,230.2 475.2,230.2 475.9,230.2 476.3,230.2 477.0,230.2 477.3,230.2 478.1,230.2 478.4,230.2 478.8,230.2 479.5,230.2 479.8,230.2 480.6,230.2 480.9,230.2 481.6,230.2 482.0,230.2 482.7,230.2 483.0,230.2 483.4,230.2 484.1,230.2 484.5,230.2 485.2,230.2 485.5,230.2 486.3,230.2 486.6,230.2 487.0,230.2 487.7,230.2 488.0,230.2 488.8,230.2 489.1,230.2 489.8,230.2 490.2,230.2 490.9,230.2 491.2,230.2 491.6,230.2 492.3,230.2 492.7,230.2 493.4,230.2 493.7,230.2 494.5,230.2 494.8,230.2 495.2,230.2 495.9,230.2 496.2,230.2 497.0,230.2 497.3,230.2 498.0,230.2 498.4,230.2 499.1,230.2 499.5,230.2 499.8,230.2 500.5,230.2 500.9,230.2 501.6,268.5 501.9,268.5 502.7,268.5 503.0,268.5 503.7,268.5 504.1,268.5 504.4,268.5 505.2,268.5 505.5,268.5 506.2,268.5 506.6,268.5 507.3,268.5 507.7,268.5 508.0,268.5 508.7,268.5 509.1,268.5 509.8,268.5 510.2,268.5 510.9,268.5 511.2,268.5 511.9,268.5 512.3,268.5 512.7,268.5 513.4,268.5 513.7,268.5 514.4,268.5 514.8,268.5 515.5,268.5 515.9,268.5 516.2,268.5 516.9,268.5 517.3,268.5 518.0,268.5 518.4,268.5 519.1,268.5 519.4,268.5 520.1,268.5 520.5,268.5 520.9,268.5 521.6,268.5 521.9,268.5 522.6,268.5 523.0,268.5 523.7,268.5 524.1,268.5 524.8,268.5 525.1,268.5 525.5,268.5 526.2,268.5 526.6,268.5 527.3,268.5 527.6,268.5 528.3,268.5 528.7,268.5 529.1,268.5 529.8,268.5 530.1,268.5 530.8,268.5 531.2,268.5 531.9,268.5 532.3,268.5 533.0,268.5 533.3,268.5 533.7,268.5 534.4,268.5 534.8,268.5 535.5,268.5 535.8,268.5 536.5,268.5 536.9,268.5 537.3,268.5 538.0,268.5 538.3,268.5 539.0,268.5 539.4,268.5 540.1,268.5 540.5,268.5 541.2,268.5 541.5,268.5 541.9,268.5 542.6,268.5 543.0,268.5 543.7,268.5 544.0,268.5 544.8,268.5 545.1,268.5 545.8,268.5 546.2,268.5 546.5,268.5 547.2,268.5 547.6,268.5 548.3,268.5 548.7,268.5 549.4,268.5 549.7,268.5 550.1,268.5 550.8,268.5 551.2,268.5 551.9,268.5 552.2,268.5 553.0,268.5 553.3,268.5 554.0,268.5 554.4,268.5 554.7,268.5 555.5,268.5 555.8,268.5 556.5,268.5 556.9,268.5 557.6,268.5 557.9,268.5 558.7,268.5 559.0,268.5 559.4,268.5 560.1,268.5 560.4,268.5 561.2,268.5 561.5,268.5 562.2,268.5 562.6,351.4 562.9,351.4 563.7,351.4 564.0,351.4 564.7,351.4 565.1,351.4 565.8,351.4 566.2,351.4 566.9,351.4 567.2,351.4 567.6,351.4 568.3,351.4 568.6,351.4 569.4,351.4 569.7,351.4 570.4,351.4 570.8,351.4 571.1,351.4 571.9,351.4 572.2,351.4 572.9,351.4 573.3,351.4 574.0,351.4 574.4,351.4 575.1,351.4 575.4,351.4 575.8,351.4 576.5,351.4 576.9,351.4 577.6,351.4 577.9,351.4 578.6,351.4 579.0,351.4 579.7,351.4 580.1,351.4 580.4,351.4 581.1,351.4 581.5,351.4 582.2,351.4 582.6,351.4 583.3,351.4 583.6,351.4 584.0,351.4 584.7,351.4 585.1,351.4 585.8,351.4 586.1,351.4 586.8,351.4 587.2,351.4 587.9,351.4 588.3,351.4 588.6,351.4 589.3,351.4 589.7,351.4 590.4,351.4 590.8,351.4 591.5,351.4 591.8,351.4 592.2,351.4 592.9,351.4 593.3,351.4 594.0,351.4 594.3,351.4 595.0,351.4 595.4,351.4 596.1,351.4 596.5,351.4 596.8,351.4 597.5,351.4 597.9,351.4 598.6,351.4 599.0,351.4 599.7,351.4 600.0,351.4 600.7,351.4 601.1,351.4 601.5,351.4 602.2,351.4 602.5,351.4 603.2,351.4 603.6,351.4 604.3,351.4 604.7,351.4 605.0,351.4 605.7,351.4 606.1,351.4 606.8,351.4 607.2,351.4 607.9,351.4 608.2,351.4 608.9,351.4 609.3,351.4 609.7,351.4 610.4,351.4 610.7,351.4 611.4,351.4 611.8,351.4 612.5,351.4 612.9,351.4 613.6,351.4 613.9,351.4 614.3,351.4 615.0,351.4 615.4,351.4 616.1,351.4 616.4,351.4 617.2,351.4 617.5,351.4 617.9,351.4 618.6,351.4 618.9,351.4 619.6,351.4 620.0,351.4 620.7,351.4 621.1,351.4 621.8,351.4 622.1,351.4 622.5,351.4 623.2,351.4 623.6,351.4 624.3,351.4 624.6,351.4 625.4,351.4 625.7,351.4 626.1,351.4 626.8,351.4 627.1,351.4 627.9,351.4 628.2,351.4 628.9,351.4 629.3,351.4 630.0,351.4 630.4,351.4 630.7,351.4 631.4,351.4 631.8,351.4 632.5,351.4 632.8,351.4 633.6,351.4 633.9,351.4 634.6,351.4 635.0,351.4 635.3,351.4 636.1,351.4 636.4,351.4 637.1,351.4 637.5,351.4 638.2,351.4 638.6,351.4 638.9,351.4 639.6,351.4 640.0,351.4 640.7,351.4 641.1,351.4 641.8,351.4 642.1,351.4 642.8,351.4 643.2,351.4 643.5,351.4 644.3,351.4 644.6,351.4 645.3,351.4 645.7,351.4 646.4,351.4 646.8,351.4 647.1,351.4 647.8,351.4 648.2,351.4 648.9,351.4 649.3,351.4 650.0,351.4 650.3,351.4 651.0,351.4 651.4,351.4 651.8,351.4 652.5,351.4 652.8,351.4 653.5,351.4 653.9,351.4 654.6,351.4 655.0,351.4 655.7,351.4 656.0,351.4 656.4,351.4 657.1,351.4 657.5,351.4 658.2,351.4 658.5,351.4 659.2,351.4 659.6,351.4 660.0,351.4 660.7,351.4 661.0,351.4 661.7,351.4 662.1,351.4 662.8,351.4 663.2,351.4 663.9,351.4 664.2,351.4 664.6,351.4 665.3,351.4 665.7,351.4 666.4,351.4 666.7,351.4 667.4,351.4 667.8,351.4 668.5,351.4 668.9,351.4 669.2,351.4 669.9,351.4 670.3,351.4 671.0,351.4 671.4,351.4 672.1,351.4 672.4,351.4 672.8,351.4 673.5,351.4 673.9,351.4 674.6,351.4 674.9,351.4 675.6,351.4 676.0,351.4 676.7,351.4 677.1,351.4 677.4,351.4 678.1,351.4 678.5,351.4 679.2,351.4 679.6,351.4 680.3,351.4 680.6,351.4 681.0,351.4 681.7,351.4 682.1,351.4 682.8,351.4 683.1,351.4 683.9,351.4 684.2,351.4 684.9,351.4 685.3,351.4 685.6,351.4 686.3,351.4 686.7,351.4 687.4,351.4 687.8,351.4 688.5,351.4 688.8,351.4 689.6,351.4 689.9,351.4 690.3,351.4 691.0,351.4 691.3,351.4 692.1,351.4 692.4,351.4 693.1,351.4 693.5,351.4 693.8,351.4 694.5,351.4 694.9,351.4 695.6,351.4 696.0,351.4 696.7,351.4 697.0,351.4 697.8,351.4 698.1,351.4 698.5,351.4 699.2,351.4 699.5,351.4 700.3,351.4 700.6,351.4 701.3,351.4 701.7,351.4 702.0,351.4 702.8,351.4 703.1,351.4 703.8,351.4 704.2,351.4 704.9,351.4 705.2,351.4 706.0,351.4 706.3,351.4 706.7,351.4 707.4,351.4 707.7,351.4 708.5,351.4 708.8,351.4 709.5,351.4 709.9,351.4 710.6,351.4 711.0,351.4 711.3,351.4 712.0,351.4 712.4,351.4 713.1,351.4 713.5,351.4 714.2,351.4 714.5,351.4 714.9,351.4 715.6,351.4 715.9,351.4 716.7,351.4 717.0,351.4 717.7,351.4 718.1,351.4 718.8,351.4 719.2,351.4 719.5,351.4 720.2,351.4 720.6,351.4 721.3,351.4 721.7,351.4 722.4,351.4 722.7,351.4 723.1,351.4 723.8,351.4 724.2,351.4 724.9,351.4 725.2,351.4 725.9,351.4 726.3,351.4 727.0,351.4 727.4,351.4 727.7,351.4 728.4,351.4 728.8,351.4 729.5,351.4 729.9,351.4 730.6,351.4 730.9,351.4 731.6,351.4 732.0,351.4 732.4,351.4 733.1,351.4 733.4,351.4 734.1,351.4 734.5,351.4 735.2,351.4 735.6,351.4 735.9,351.4 736.6,351.4 737.0,351.4 737.7,351.4 738.1,351.4 738.8,351.4 739.1,351.4 739.8,351.4 740.2,351.4 740.6,351.4 741.3,351.4 741.6,351.4 742.3,351.4 742.7,351.4 743.4,351.4 743.8,351.4 744.5,351.4 744.8,351.4 745.2,351.4 745.9,351.4 746.3,351.4 747.0,351.4 747.3,351.4 748.0,351.4 748.4,351.4 748.8,351.4 749.5,351.4 749.8,351.4 750.5,351.4 750.9,351.4 751.6,351.4 752.0,351.4 752.7,351.4 753.0,351.4 753.4,351.4 754.1,351.4 754.5,351.4 755.2,351.4 755.5,351.4 756.3,351.4 756.6,351.4 757.0,351.4 757.7,351.4 758.0,351.4 758.8,364.1 759.1,389.6 759.8,466.1 760.2,466.1 760.9,466.1 761.2,466.1 761.6,466.1 762.3,466.1 762.7,466.1 763.4,466.1 763.7,466.1 764.5,466.1 764.8,466.1 765.5,466.1 765.9,466.1 766.2,466.1 767.0,466.1 767.3,466.1 768.0,466.1 768.4,466.1 769.1,466.1 769.5,466.1 769.8,466.1 770.5,466.1 770.9,466.1 771.6,466.1 771.9,466.1 772.7,466.1 773.0,466.1 773.7,466.1 774.1,466.1 774.4,466.1 775.2,466.1 775.5,466.1 776.2,466.1 776.6,466.1 777.3,466.1 777.7,466.1 778.0,466.1 778.7,466.1 779.1,466.1 779.8,466.1 780.1,466.1 780.9,466.1 781.2,466.1 781.9,466.1 782.3,466.1 782.6,466.1 783.4,466.1 783.7,466.1 784.4,466.1 784.8,466.1 785.5,466.1 785.9,466.1 786.6,466.1 786.9,466.1 787.3,466.1 788.0,466.1 788.4,466.1 789.1,466.1 789.4,466.1 790.1,466.1 790.5,466.1 790.9,466.1 791.6,466.1 791.9,466.1 792.6,466.1 793.0,466.1 793.7,466.1 794.1,466.1 794.8,466.1 795.1,466.1 795.5,466.1 796.2,466.1 796.6,466.1 797.3,466.1 797.6,466.1 798.3,466.1 798.7,466.1 799.4,466.1 799.8,466.1 800.1,466.1 800.8,466.1 801.2,466.1 801.9,466.1 802.3,466.1 803.0,466.1 803.3,466.1 803.7,466.1 804.4,466.1 804.8,466.1 805.5,466.1 805.8,466.1 806.5,466.1 806.9,466.1 807.6,466.1 808.0,466.1 808.3,466.1 809.0,466.1 809.4,466.1 810.1,466.1 810.5,466.1 811.2,466.1 811.5,466.1 811.9,466.1 812.6,466.1 813.0,466.1 813.7,466.1 814.0,466.1 814.7,466.1 815.1,466.1 815.8,466.1 816.2,466.1 816.5,466.1 817.2,466.1 817.6,466.1 818.3,466.1 818.7,466.1 819.4,466.1 819.7,466.1 820.5,466.1 820.8,466.1 821.2,466.1 821.9,466.1 822.2,466.1 823.0,466.1 823.3,466.1 824.0,466.1 824.4,466.1 824.7,466.1 825.4,466.1 825.8,466.1 826.5,466.1 826.9,466.1 827.6,466.1 827.9,466.1 828.7,466.1 829.0,466.1 829.4,466.1 830.1,466.1 830.4,466.1 831.2,466.1 831.5,466.1 832.2,466.1 832.6,466.1 832.9,466.1 833.6,466.1 834.0,466.1 834.7,466.1 835.1,466.1 835.8,466.1 836.1,466.1 836.9,466.1 837.2,466.1 837.6,466.1 838.3,466.1 838.6,466.1 839.4,466.1 839.7,466.1 840.4,466.1 840.8,466.1 841.5,466.1 841.9,466.1 842.2,466.1 842.9,466.1 843.3,466.1 844.0,466.1 844.3,466.1 845.1,466.1 845.4,466.1 845.8,466.1 846.5,466.1 846.8,466.1 847.6,466.1 847.9,466.1 848.6,466.1 849.0,466.1 849.7,466.1 850.1,466.1 850.4,466.1 851.1,466.1 851.5,466.1 852.2,466.1 852.6,466.1 853.3,466.1 853.6,466.1 854.0,466.1 854.7,466.1 855.0,466.1 855.8,466.1 856.1,466.1 856.8,466.1 857.2,466.1 857.9,466.1 858.3,466.1 858.6,466.1 859.3,466.1 859.7,466.1 860.4,466.1 860.8,466.1 861.5,466.1 861.8,466.1 862.5,466.1 862.9,466.1 863.3,466.1 864.0,466.1 864.3,466.1 865.0,466.1 865.4,466.1 866.1,466.1 866.5,466.1 866.8,466.1 867.5,466.1 867.9,466.1 868.6,466.1 869.0,466.1 869.7,466.1 870.0,466.1 870.7,466.1 871.1,466.1 871.5,466.1 872.2,466.1 872.5,466.1 873.2,466.1 873.6,466.1 874.3,466.1 874.7,466.1 875.4,466.1 875.7,466.1 876.1,466.1 876.8,466.1 877.2,466.1 877.9,466.1 878.2,466.1 878.9,466.1 879.3,466.1 879.7,466.1 880.4,466.1 880.7,466.1 881.4,466.1 881.8,466.1 882.5,466.1 882.9,466.1 883.6,466.1 883.9,466.1 884.3,466.1 885.0,466.1 885.4,466.1 886.1,466.1 886.4,466.1 887.1,466.1 887.5,466.1 887.9,466.1 888.6,466.1 888.9,466.1 889.6,466.1 890.0,466.1 890.7,466.1 891.1,466.1 891.8,466.1 892.1,466.1 892.5,466.1 893.2,466.1 893.6,466.1 894.3,466.1 894.6,466.1 895.4,466.1 895.7,466.1 896.4,466.1 896.8,466.1 897.1,466.1 897.9,466.1 898.2,466.1 898.9,466.1 899.3,466.1 900.0,466.1 900.3,466.1 900.7,466.1 901.4,466.1 901.8,466.1 902.5,466.1 902.8,466.1 903.6,466.1 903.9,466.1 904.6,466.1 905.0,466.1 905.3,466.1 906.1,466.1 906.4,466.1 907.1,466.1 907.5,466.1 908.2,466.1 908.6,466.1 908.9,466.1 909.6,466.1 910.0,466.1 910.7,466.1 911.0,466.1 911.8,466.1 912.1,466.1 912.8,466.1 913.2,466.1 913.5,466.1 914.3,466.1 914.6,466.1 915.3,466.1 915.7,466.1 916.4,466.1 916.8,466.1 917.5,466.1 917.8,466.1 918.2,466.1 918.9,466.1 919.2,466.1 920.0,466.1 920.3,466.1 921.0,466.1 921.4,466.1 921.7,466.1 922.5,466.1 922.8,466.1 923.5,466.1 923.9,466.1 924.6,466.1 925.0,466.1 925.7,466.1 926.0,466.1 926.4,466.1 927.1,466.1 927.5,466.1 928.2,466.1 928.5,466.1 929.2,466.1 929.6,466.1 930.3,466.1 930.7,466.1 931.0,466.1 931.7,466.1 932.1,466.1 932.8,466.1 933.2,466.1 933.9,466.1 934.2,466.1 934.6,466.1 935.3,466.1 935.7,466.1 936.4,466.1 936.7,466.1 937.4,466.1 937.8,466.1 938.5,466.1 938.9,466.1 939.2,466.1 939.9,466.1 940.3,466.1 941.0,466.1 941.4,466.1 942.1,466.1 942.4,466.1 942.8,466.1 943.5,466.1 943.9,466.1 944.6,466.1 944.9,466.1 945.6,466.1 946.0,466.1 946.7,466.1 947.1,466.1 947.4,466.1 948.1,466.1 948.5,466.1 949.2,466.1 949.6,466.1 950.3,466.1 950.6,466.1 951.4,466.1 951.7,466.1 952.1,466.1 952.8,466.1 953.1,466.1 953.8,466.1 954.2,466.1 954.9,466.1 955.3,466.1 955.6,466.1 956.3,466.1 956.7,466.1 957.4,466.1 957.8,466.1 958.5,466.1 958.8,466.1 959.6,466.1 959.9,466.1 960.3,466.1 961.0,466.1 961.3,466.1 962.0,466.1 962.4,466.1 963.1,466.1 963.5,466.1 963.8,466.1 964.5,466.1 964.9,466.1 965.6,466.1 966.0,466.1 966.7,466.1 967.0,466.1 967.8,466.1 968.1,466.1 968.5,466.1 969.2,466.1 969.5,466.1 970.3,466.1 970.6,466.1 971.3,466.1 971.7,466.1 972.4,466.1 972.8,466.1 973.1,466.1 973.8,466.1 974.2,466.1 974.9,466.1 975.2,466.1 976.0,466.1 976.3,466.1 976.7,466.1 977.4,466.1 977.7,466.1 978.5,466.1 978.8,466.1 979.5,466.1 979.9,466.1 980.6,466.1 981.0,466.1 981.3,466.1 982.0,466.1 982.4,466.1 983.1,466.1 983.4,466.1 984.2,466.1 984.5,466.1 984.9,466.1 985.6,466.1 985.9,466.1 986.7,466.1 987.0,466.1 987.7,466.1 988.1,466.1 988.8,466.1 989.2,466.1 989.5,466.1 990.2,466.1 990.6,466.1 991.3,466.1 991.7,466.1 992.4,466.1 992.7,466.1 993.4,466.1 993.8,466.1 994.1,466.1 994.9,466.1 995.2,466.1 995.9,466.1 996.3,466.1 997.0,466.1 997.4,466.1 997.7,466.1 998.4,466.1 998.8,466.1 999.5,466.1 999.9,466.1 1000.6,466.1 1000.9,466.1 1001.6,466.1 1002.0,466.1 1002.4,466.1 1003.1,466.1 1003.4,466.1 1004.1,466.1 1004.5,466.1 1005.2,466.1 1005.6,466.1 1006.3,466.1 1006.6,466.1 1007.0,466.1 1007.7,466.1 1008.1,466.1 1008.8,466.1 1009.1,466.1 1009.8,466.1 1010.2,466.1 1010.6,466.1 1011.3,466.1 1011.6,466.1 1012.3,466.1 1012.7,466.1 1013.4,466.1 1013.8,466.1 1014.5,466.1 1014.8,466.1 1015.2,466.1 1015.9,466.1 1016.3,466.1 1017.0,466.1 1017.3,466.1 1018.0,466.1 1018.4,466.1 1018.8,466.1 1019.5,466.1 1019.8,466.1 1020.5,466.1 1020.9,466.1 1021.6,466.1 1022.0,466.1 1022.7,466.1 1023.0,466.1 1023.4,466.1 1024.1,466.1 1024.5,466.1 1025.2,466.1 1025.5,466.1 1026.2,466.1 1026.6,466.1 1027.3,466.1 1027.7,466.1 1028.0,466.1 1028.7,466.1 1029.1,466.1 1029.8,466.1 1030.2,466.1 1030.9,466.1 1031.2,466.1 1031.6,466.1 1032.3,466.1 1032.7,466.1 1033.4,466.1 1033.7,466.1 1034.5,466.1 1034.8,466.1 1035.5,466.1 1035.9,466.1 1036.2,466.1 1037.0,466.1 1037.3,466.1 1038.0,466.1 1038.4,466.1 1039.1,466.1 1039.4,466.1 1039.8,466.1 1040.5,466.1 1040.9,466.1 1041.6,466.1 1041.9,466.1 1042.7,466.1 1043.0,466.1 1043.7,466.1 1044.1,466.1 1044.4,466.1 1045.2,466.1 1045.5,466.1 1046.2,466.1 1046.6,466.1 1047.3,466.1 1047.7,466.1 1048.4,466.1 1048.7,466.1 1049.1,466.1 1049.8,466.1 1050.1,466.1 1050.9,466.1 1051.2,466.1 1051.9,466.1 1052.3,466.1 1052.6,466.1 1053.4,466.1 1053.7,466.1 1054.4,466.1 1054.8,466.1 1055.5,466.1 1055.9,466.1 1056.6,466.1 1056.9,466.1 1057.3,466.1 1058.0,466.1 1058.3,466.1 1059.1,466.1 1059.4,466.1 1060.1,466.1 1060.5,466.1 1061.2,466.1 1061.6,466.1 1061.9,466.1 1062.6,466.1 1063.0,466.1 1063.7,466.1 1064.1,466.1 1064.8,466.1 1065.1,466.1 1065.5,466.1 1066.2,466.1 1066.6,466.1 1067.3,466.1 1067.6,466.1 1068.3,466.1 1068.7,466.1 1069.4,466.1 1069.8,466.1 1070.1,466.1 1070.8,466.1 1071.2,466.1 1071.9,466.1 1072.3,466.1 1073.0,466.1 1073.3,466.1 1073.7,466.1 1074.4,466.1 1074.8,466.1 1075.5,466.1 1075.8,466.1 1076.5,466.1 1076.9,466.1 1077.6,466.1 1078.0,466.1 1078.3,466.1 1079.0,466.1 1079.4,466.1 1080.1,466.1 1080.5,466.1 1081.2,466.1 1081.5,466.1 1082.2,466.1 1082.6,466.1 1083.0,466.1 1083.7,466.1 1084.0,466.1 1084.7,466.1 1085.1,466.1 1085.8,466.1 1086.2,466.1 1086.5,466.1 1087.2,466.1 1087.6,466.1 1088.3,466.1 1088.7,466.1 1089.4,466.1 1089.7,466.1 1090.5,466.1 1090.8,466.1 1091.2,466.1 1091.9,466.1 1092.2,466.1 1092.9,466.1 1093.3,466.1 1094.0,466.1 1094.4,466.1 1094.7,466.1 1095.4,466.1 1095.8,466.1 1096.5,466.1 1096.9,466.1 1097.6,466.1 1097.9,466.1 1098.7,466.1 1099.0,466.1 1099.4,466.1 1100.1,466.1 1100.4,466.1 1101.2,466.1 1101.5,466.1 1102.2,466.1 1102.6,466.1 1103.3,466.1 1103.6,466.1 1104.0,466.1 1104.7,466.1 1105.1,466.1 1105.8,466.1 1106.1,466.1 1106.9,466.1 1107.2,466.1 1107.6,466.1 1108.3,466.1 1108.6,466.1 1109.4,466.1 1109.7,466.1 1110.4,466.1 1110.8,466.1 1111.5,466.1 1111.8,466.1 1112.2,466.1 1112.9,466.1 1113.3,466.1 1114.0,466.1 1114.3,466.1 1115.1,466.1 1115.4,466.1 1116.1,466.1" /><polyline fill="none" stroke="#2ca02c" stroke-width="2.5" points="90.0,109.1 90.4,109.1 90.7,109.1 91.1,109.1 91.4,109.1 91.8,109.1 92.1,109.1 92.5,109.1 92.9,109.1 93.2,109.1 93.6,109.1 93.9,109.1 94.3,109.1 94.6,109.1 95.0,109.1 95.3,109.1 95.7,109.1 96.1,109.1 96.4,109.1 96.8,109.1 97.1,109.1 97.5,109.1 97.8,109.1 98.2,109.1 98.6,109.1 98.9,109.1 99.3,109.1 99.6,109.1 100.0,109.1 100.3,109.1 100.7,109.1 101.1,109.1 101.4,109.1 101.8,109.1 102.1,109.1 102.5,109.1 102.8,109.1 103.2,109.1 103.6,109.1 103.9,109.1 104.3,109.1 104.6,109.1 105.0,109.1 105.3,109.1 105.7,109.1 106.0,109.1 106.4,109.1 106.8,109.1 107.1,109.1 107.5,109.1 107.8,109.1 108.2,109.1 108.5,109.1 108.9,109.1 109.3,109.1 109.6,109.1 110.0,109.1 110.3,109.1 110.7,109.1 111.0,109.1 111.4,109.1 111.8,109.1 112.1,109.1 112.5,109.1 112.8,109.1 113.2,109.1 113.5,109.1 113.9,109.1 114.3,109.1 114.6,109.1 115.0,109.1 115.3,109.1 115.7,109.1 116.0,109.1 116.4,109.1 116.8,109.1 117.1,109.1 117.5,109.1 117.8,109.1 118.2,109.1 118.5,109.1 118.9,109.1 119.2,109.1 119.6,109.1 120.0,109.1 120.3,109.1 120.7,109.1 121.0,109.1 121.4,109.1 121.7,109.1 122.1,109.1 122.5,109.1 122.8,109.1 123.2,109.1 123.5,109.1 123.9,109.1 124.2,109.1 124.6,109.1 125.0,109.1 125.3,109.1 125.7,109.1 126.0,109.1 126.4,109.1 126.7,109.1 127.1,109.1 127.5,109.1 127.8,109.1 128.2,109.1 128.5,109.1 128.9,109.1 129.2,109.1 129.6,109.1 129.9,109.1 130.3,109.1 130.7,109.1 131.0,109.1 131.4,109.1 131.7,109.1 132.1,109.1 132.4,109.1 132.8,109.1 133.2,109.1 133.5,109.1 133.9,109.1 134.2,109.1 134.6,109.1 134.9,109.1 135.3,109.1 135.7,109.1 136.0,109.1 136.4,109.1 136.7,109.1 137.1,109.1 137.4,109.1 137.8,109.1 138.2,109.1 138.5,109.1 138.9,109.1 139.2,109.1 139.6,109.1 139.9,109.1 140.3,109.1 140.6,109.1 141.0,109.1 141.4,109.1 141.7,109.1 142.1,109.1 142.4,109.1 142.8,109.1 143.1,109.1 143.5,109.1 143.9,109.1 144.2,109.1 144.6,109.1 144.9,109.1 145.3,109.1 145.6,109.1 146.0,109.1 146.4,109.1 146.7,109.1 147.1,109.1 147.4,109.1 147.8,109.1 148.1,109.1 148.5,109.1 148.8,109.1 149.2,109.1 149.6,109.1 149.9,109.1 150.3,109.1 150.6,109.1 151.0,109.1 151.3,109.1 151.7,109.1 152.1,109.1 152.4,109.1 152.8,109.1 153.1,109.1 153.5,109.1 153.8,109.1 154.2,109.1 154.6,109.1 154.9,109.1 155.3,109.1 155.6,109.1 156.0,109.1 156.3,109.1 156.7,109.1 157.1,109.1 157.4,109.1 157.8,109.1 158.1,109.1 158.5,109.1 158.8,109.1 159.2,109.1 159.6,109.1 159.9,109.1 160.3,109.1 160.6,109.1 161.0,109.1 161.3,109.1 161.7,109.1 162.0,109.1 162.4,109.1 162.8,109.1 163.1,109.1 163.5,109.1 163.8,109.1 164.2,109.1 164.5,109.1 164.9,109.1 165.3,109.1 165.6,109.1 166.0,109.1 166.3,109.1 166.7,109.1 167.0,109.1 167.4,109.1 167.8,109.1 168.1,109.1 168.5,109.1 168.8,109.1 169.2,109.1 169.5,109.1 169.9,109.1 170.2,109.1 170.6,109.1 171.0,109.1 171.3,109.1 171.7,109.1 172.0,109.1 172.4,109.1 172.7,109.1 173.1,109.1 173.5,109.1 173.8,109.1 174.2,109.1 174.5,109.1 174.9,109.1 175.2,109.1 175.6,109.1 176.0,109.1 176.3,109.1 176.7,109.1 177.0,109.1 177.4,109.1 177.7,109.1 178.1,109.1 178.5,109.1 178.8,109.1 179.2,109.1 179.5,109.1 179.9,109.1 180.2,109.1 180.6,109.1 180.9,109.1 181.3,109.1 181.7,109.1 182.0,109.1 182.4,109.1 182.7,109.1 183.1,109.1 183.4,109.1 183.8,109.1 184.2,109.1 184.5,109.1 184.9,109.1 185.2,109.1 185.6,109.1 185.9,109.1 186.3,109.1 186.7,109.1 187.0,109.1 187.4,109.1 187.7,109.1 188.1,109.1 188.4,109.1 188.8,109.1 189.2,109.1 189.5,109.1 189.9,109.1 190.2,109.1 190.6,109.1 190.9,109.1 191.3,109.1 191.7,109.1 192.0,109.1 192.4,109.1 192.7,109.1 193.1,109.1 193.4,109.1 193.8,109.1 194.1,109.1 194.5,109.1 194.9,109.1 195.2,109.1 195.6,109.1 195.9,109.1 196.3,109.1 196.6,109.1 197.0,109.1 197.4,109.1 197.7,109.1 198.1,109.1 198.4,109.1 198.8,109.1 199.1,109.1 199.5,109.1 199.9,109.1 200.2,109.1 200.6,109.1 200.9,109.1 201.3,109.1 201.6,109.1 202.0,109.1 202.3,109.1 202.7,109.1 203.1,109.1 203.4,109.1 203.8,109.1 204.1,109.1 204.5,109.1 204.8,109.1 205.2,109.1 205.6,109.1 205.9,109.1 206.3,109.1 206.6,109.1 207.0,172.9 207.3,243.0 207.7,274.9 208.1,364.1 208.4,364.1 208.8,364.1 209.1,364.1 209.5,364.1 209.8,364.1 210.2,364.1 210.6,364.1 210.9,364.1 211.3,364.1 211.6,364.1 212.0,364.1 212.3,364.1 212.7,364.1 213.1,364.1 213.4,364.1 213.8,364.1 214.1,364.1 214.5,364.1 214.8,364.1 215.2,364.1 215.5,364.1 215.9,364.1 216.3,364.1 216.6,364.1 217.0,364.1 217.3,364.1 217.7,364.1 218.0,364.1 218.4,364.1 218.8,364.1 219.1,364.1 219.5,364.1 219.8,364.1 220.2,364.1 220.5,364.1 220.9,364.1 221.3,364.1 221.6,364.1 222.0,364.1 222.3,364.1 222.7,364.1 223.0,364.1 223.4,364.1 223.8,364.1 224.1,364.1 224.5,364.1 224.8,364.1 225.2,364.1 225.5,364.1 225.9,364.1 226.2,364.1 226.6,364.1 227.0,364.1 227.3,364.1 227.7,364.1 228.0,364.1 228.4,364.1 228.7,364.1 229.1,364.1 229.5,364.1 229.8,364.1 230.2,364.1 230.5,364.1 230.9,364.1 231.2,364.1 231.6,364.1 232.0,364.1 232.3,364.1 232.7,364.1 233.0,364.1 233.4,364.1 233.7,364.1 234.1,364.1 234.5,364.1 234.8,364.1 235.2,364.1 235.5,364.1 235.9,364.1 236.2,364.1 236.6,364.1 236.9,364.1 237.3,364.1 237.7,364.1 238.0,364.1 238.4,364.1 238.7,364.1 239.1,364.1 239.4,364.1 239.8,364.1 240.2,364.1 240.5,364.1 240.9,364.1 241.2,364.1 241.6,364.1 241.9,364.1 242.3,364.1 242.7,364.1 243.0,364.1 243.4,364.1 243.7,364.1 244.1,364.1 244.4,364.1 244.8,364.1 245.1,364.1 245.5,364.1 245.9,364.1 246.2,364.1 246.6,364.1 246.9,364.1 247.3,364.1 247.6,364.1 248.0,364.1 248.4,364.1 248.7,364.1 249.1,364.1 249.4,364.1 249.8,364.1 250.1,364.1 250.5,364.1 250.9,364.1 251.2,364.1 251.6,364.1 251.9,364.1 252.3,364.1 252.6,364.1 253.0,364.1 253.4,364.1 253.7,364.1 254.1,364.1 254.4,364.1 254.8,364.1 255.1,364.1 255.5,364.1 255.8,364.1 256.2,364.1 256.6,364.1 256.9,364.1 257.3,364.1 257.6,364.1 258.0,364.1 258.3,364.1 258.7,364.1 259.1,364.1 259.4,364.1 259.8,364.1 260.1,364.1 260.5,364.1 260.8,364.1 261.2,364.1 261.6,364.1 261.9,364.1 262.3,364.1 262.6,364.1 263.0,364.1 263.3,364.1 263.7,364.1 264.1,364.1 264.4,364.1 264.8,364.1 265.1,364.1 265.5,364.1 265.8,364.1 266.2,364.1 266.6,364.1 266.9,364.1 267.3,364.1 267.6,364.1 268.0,364.1 268.3,364.1 268.7,364.1 269.0,364.1 269.4,364.1 269.8,364.1 270.1,364.1 270.5,364.1 270.8,364.1 271.2,364.1 271.5,364.1 271.9,364.1 272.3,364.1 272.6,364.1 273.0,364.1 273.3,364.1 273.7,364.1 274.0,364.1 274.4,364.1 274.8,364.1 275.1,364.1 275.5,364.1 275.8,364.1 276.2,364.1 276.5,364.1 276.9,364.1 277.2,364.1 277.6,364.1 278.0,364.1 278.3,364.1 278.7,364.1 279.0,364.1 279.4,364.1 279.7,364.1 280.1,364.1 280.5,364.1 280.8,364.1 281.2,364.1 281.5,364.1 281.9,364.1 282.2,364.1 282.6,364.1 283.0,364.1 283.3,364.1 283.7,364.1 284.0,364.1 284.4,364.1 284.7,364.1 285.1,364.1 285.5,364.1 285.8,364.1 286.2,364.1 286.5,364.1 286.9,364.1 287.2,364.1 287.6,364.1 287.9,364.1 288.3,364.1 288.7,364.1 289.0,364.1 289.4,364.1 289.7,364.1 290.1,364.1 290.4,364.1 290.8,364.1 291.2,364.1 291.5,364.1 291.9,364.1 292.2,364.1 292.6,364.1 292.9,364.1 293.3,364.1 293.7,364.1 294.0,364.1 294.4,364.1 294.7,364.1 295.1,364.1 295.4,364.1 295.8,364.1 296.2,364.1 296.5,364.1 296.9,364.1 297.2,364.1 297.6,364.1 297.9,364.1 298.3,364.1 298.6,364.1 299.0,364.1 299.4,364.1 299.7,364.1 300.1,364.1 300.4,364.1 300.8,364.1 301.1,364.1 301.5,364.1 301.9,364.1 302.2,364.1 302.6,364.1 302.9,364.1 303.3,364.1 303.6,364.1 304.0,364.1 304.4,364.1 304.7,364.1 305.1,364.1 305.4,364.1 305.8,364.1 306.1,364.1 306.5,364.1 306.9,364.1 307.2,364.1 307.6,364.1 307.9,364.1 308.3,364.1 308.6,364.1 309.0,364.1 309.4,364.1 309.7,364.1 310.1,364.1 310.4,364.1 310.8,364.1 311.1,364.1 311.5,364.1 311.8,364.1 312.2,364.1 312.6,364.1 312.9,364.1 313.3,364.1 313.6,364.1 314.0,364.1 314.3,364.1 314.7,364.1 315.1,364.1 315.4,364.1 315.8,364.1 316.1,364.1 316.5,364.1 316.8,364.1 317.2,364.1 317.6,364.1 317.9,364.1 318.3,364.1 318.6,364.1 319.0,364.1 319.3,364.1 319.7,364.1 320.0,364.1 320.4,364.1 320.8,364.1 321.1,364.1 321.5,364.1 321.8,364.1 322.2,364.1 322.5,364.1 322.9,364.1 323.3,364.1 323.6,364.1 324.0,364.1 324.3,364.1 324.7,364.1 325.0,364.1 325.4,364.1 325.8,364.1 326.1,364.1 326.5,364.1 326.8,364.1 327.2,364.1 327.5,364.1 327.9,364.1 328.3,364.1 328.6,364.1 329.0,364.1 329.3,364.1 329.7,364.1 330.0,364.1 330.4,364.1 330.8,364.1 331.1,364.1 331.5,364.1 331.8,364.1 332.2,364.1 332.5,364.1 332.9,364.1 333.2,364.1 333.6,364.1 334.0,364.1 334.3,364.1 334.7,364.1 335.0,364.1 335.4,364.1 335.7,364.1 336.1,364.1 336.5,364.1 336.8,364.1 337.2,364.1 337.5,364.1 337.9,364.1 338.2,364.1 338.6,364.1 339.0,364.1 339.3,364.1 339.7,364.1 340.0,364.1 340.4,364.1 340.7,364.1 341.1,364.1 341.4,376.9 341.8,396.0 342.2,396.0 342.5,447.0 342.9,453.4 343.2,453.4 343.6,466.1 343.9,466.1 344.3,466.1 344.7,466.1 345.0,466.1 345.4,466.1 345.7,466.1 346.1,466.1 346.4,466.1 346.8,466.1 347.2,466.1 347.5,466.1 347.9,466.1 348.2,466.1 348.6,466.1 348.9,466.1 349.3,466.1 349.7,466.1 350.0,466.1 350.4,466.1 350.7,466.1 351.1,466.1 351.4,466.1 351.8,466.1 352.1,466.1 352.5,466.1 352.9,466.1 353.2,466.1 353.6,466.1 353.9,466.1 354.3,466.1 354.6,466.1 355.0,466.1 355.4,466.1 355.7,466.1 356.1,466.1 356.4,466.1 356.8,466.1 357.1,466.1 357.5,466.1 357.9,466.1 358.2,466.1 358.6,466.1 358.9,466.1 359.3,466.1 359.6,466.1 360.0,466.1 360.4,466.1 360.7,466.1 361.1,466.1 361.4,466.1 361.8,466.1 362.1,466.1 362.5,466.1 362.9,466.1 363.2,466.1 363.6,466.1 363.9,466.1 364.3,466.1 364.6,466.1 365.0,466.1 365.3,466.1 365.7,466.1 366.1,466.1 366.4,466.1 366.8,466.1 367.1,466.1 367.5,466.1 367.8,466.1 368.2,466.1 368.6,466.1 368.9,466.1 369.3,466.1 369.6,466.1 370.0,466.1 370.3,466.1 370.7,466.1 371.1,466.1 371.4,466.1 371.8,466.1 372.1,466.1 372.5,466.1 372.8,466.1 373.2,466.1 373.6,466.1 373.9,466.1 374.3,466.1 374.6,466.1 375.0,466.1 375.3,466.1 375.7,466.1 376.0,466.1 376.4,466.1 376.8,466.1 377.1,466.1 377.5,466.1 377.8,466.1 378.2,466.1 378.5,466.1 378.9,466.1 379.3,466.1 379.6,466.1 380.0,466.1 380.3,466.1 380.7,466.1 381.0,466.1 381.4,466.1 381.8,466.1 382.1,466.1 382.5,466.1 382.8,466.1 383.2,466.1 383.5,466.1 383.9,466.1 384.2,466.1 384.6,466.1 385.0,466.1 385.3,466.1 385.7,466.1 386.0,466.1 386.4,466.1 386.7,466.1 387.1,466.1 387.5,466.1 387.8,466.1 388.2,466.1 388.5,466.1 388.9,466.1 389.2,466.1 389.6,466.1 390.0,466.1 390.3,466.1 390.7,466.1 391.0,466.1 391.4,466.1 391.7,466.1 392.1,466.1 392.5,466.1 392.8,466.1 393.2,466.1 393.5,466.1 393.9,466.1 394.2,466.1 394.6,466.1 394.9,466.1 395.3,466.1 395.7,466.1 396.0,466.1 396.4,466.1 396.7,466.1 397.1,466.1 397.4,466.1 397.8,466.1 398.2,466.1 398.5,466.1 398.9,466.1 399.2,466.1 399.6,466.1 399.9,466.1 400.3,466.1 400.7,466.1 401.0,466.1 401.4,466.1 401.7,466.1 402.1,466.1 402.4,466.1 402.8,466.1 403.2,466.1 403.5,466.1 403.9,466.1 404.2,466.1 404.6,466.1 404.9,466.1 405.3,466.1 405.6,466.1 406.0,466.1 406.4,466.1 406.7,466.1 407.1,466.1 407.4,466.1 407.8,466.1 408.1,466.1 408.5,466.1 408.9,466.1 409.2,466.1 409.6,466.1 409.9,466.1 410.3,466.1 410.6,466.1 411.0,466.1 411.4,466.1 411.7,466.1 412.1,466.1 412.4,466.1 412.8,466.1 413.1,466.1 413.5,466.1 413.9,466.1 414.2,466.1 414.6,466.1 414.9,466.1 415.3,466.1 415.6,466.1 416.0,466.1 416.3,466.1 416.7,466.1 417.1,466.1 417.4,466.1 417.8,466.1 418.1,466.1 418.5,466.1 418.8,466.1 419.2,466.1 419.6,466.1 419.9,466.1 420.3,466.1 420.6,466.1 421.0,466.1 421.3,466.1 421.7,466.1 422.1,466.1 422.4,466.1 422.8,466.1 423.1,466.1 423.5,466.1 423.8,466.1 424.2,466.1 424.6,466.1 424.9,466.1 425.3,466.1 425.6,466.1 426.0,466.1 426.3,466.1 426.7,466.1 427.1,466.1 427.4,466.1 427.8,466.1 428.1,466.1 428.5,466.1 428.8,466.1 429.2,466.1 429.5,466.1 429.9,466.1 430.3,466.1 430.6,466.1 431.0,466.1 431.3,466.1 431.7,466.1 432.0,466.1 432.4,466.1 432.8,466.1 433.1,466.1 433.5,466.1 433.8,466.1 434.2,466.1 434.5,466.1 434.9,466.1 435.3,466.1 435.6,466.1 436.0,466.1 436.3,466.1 436.7,466.1 437.0,466.1 437.4,466.1 437.8,466.1 438.1,466.1 438.5,466.1 438.8,466.1 439.2,466.1 439.5,466.1 439.9,466.1 440.2,466.1 440.6,466.1 441.0,466.1 441.3,466.1 441.7,466.1 442.0,466.1 442.4,466.1 442.7,466.1 443.1,466.1 443.5,466.1 443.8,466.1 444.2,466.1 444.5,466.1 444.9,466.1 445.2,466.1 445.6,466.1 446.0,466.1 446.3,466.1 446.7,466.1 447.0,466.1 447.4,466.1 447.7,466.1 448.1,466.1 448.5,466.1 448.8,466.1 449.2,466.1 449.5,466.1 449.9,466.1 450.2,466.1 450.6,466.1 450.9,466.1 451.3,466.1 451.7,466.1 452.0,466.1 452.4,466.1 452.7,466.1 453.1,466.1 453.4,466.1 453.8,466.1 454.2,466.1 454.5,466.1 454.9,466.1 455.2,466.1 455.6,466.1 455.9,466.1 456.3,466.1 456.7,466.1 457.0,466.1 457.4,466.1 457.7,466.1 458.1,466.1 458.4,466.1 458.8,466.1 459.1,466.1 459.5,466.1 459.9,466.1 460.2,466.1 460.6,466.1 460.9,466.1 461.3,466.1 461.6,466.1 462.0,466.1 462.4,466.1 462.7,466.1 463.1,466.1 463.4,466.1 463.8,466.1 464.1,466.1 464.5,466.1 464.9,466.1 465.2,466.1 465.6,466.1 465.9,466.1 466.3,466.1 466.6,466.1 467.0,466.1 467.4,466.1 467.7,466.1 468.1,466.1 468.4,466.1 468.8,466.1 469.1,466.1 469.5,466.1 469.8,466.1 470.2,466.1 470.6,466.1 470.9,466.1 471.3,466.1 471.6,466.1 472.0,466.1 472.3,466.1 472.7,466.1 473.1,466.1 473.4,466.1 473.8,466.1 474.1,466.1 474.5,466.1 474.8,466.1 475.2,466.1 475.6,466.1 475.9,466.1 476.3,466.1 476.6,466.1 477.0,466.1 477.3,466.1 477.7,466.1 478.1,466.1 478.4,466.1 478.8,466.1 479.1,466.1 479.5,466.1 479.8,466.1 480.2,466.1 480.6,466.1 480.9,466.1 481.3,466.1 481.6,466.1 482.0,466.1 482.3,466.1 482.7,466.1 483.0,466.1 483.4,466.1 483.8,466.1 484.1,466.1 484.5,466.1 484.8,466.1 485.2,466.1 485.5,466.1 485.9,466.1 486.3,466.1 486.6,466.1 487.0,466.1 487.3,466.1 487.7,466.1 488.0,466.1 488.4,466.1 488.8,466.1 489.1,466.1 489.5,466.1 489.8,466.1 490.2,466.1 490.5,466.1 490.9,466.1 491.2,466.1 491.6,466.1 492.0,466.1 492.3,466.1 492.7,466.1 493.0,466.1 493.4,466.1 493.7,466.1 494.1,466.1 494.5,466.1 494.8,466.1 495.2,466.1 495.5,466.1 495.9,466.1 496.2,466.1 496.6,466.1 497.0,466.1 497.3,466.1 497.7,466.1 498.0,466.1 498.4,466.1 498.7,466.1 499.1,466.1 499.5,466.1 499.8,466.1 500.2,466.1 500.5,466.1 500.9,466.1 501.2,466.1 501.6,466.1 501.9,466.1 502.3,466.1 502.7,466.1 503.0,466.1 503.4,466.1 503.7,466.1 504.1,466.1 504.4,466.1 504.8,466.1 505.2,466.1 505.5,466.1 505.9,466.1 506.2,466.1 506.6,466.1 506.9,466.1 507.3,466.1 507.7,466.1 508.0,466.1 508.4,466.1 508.7,466.1 509.1,466.1 509.4,466.1 509.8,466.1 510.2,466.1 510.5,466.1 510.9,466.1 511.2,466.1 511.6,466.1 511.9,466.1 512.3,466.1 512.7,466.1 513.0,466.1 513.4,466.1 513.7,466.1 514.1,466.1 514.4,466.1 514.8,466.1 515.1,466.1 515.5,466.1 515.9,466.1 516.2,466.1 516.6,466.1 516.9,466.1 517.3,466.1 517.6,466.1 518.0,466.1 518.4,466.1 518.7,466.1 519.1,466.1 519.4,466.1 519.8,466.1 520.1,466.1 520.5,466.1 520.9,466.1 521.2,466.1 521.6,466.1 521.9,466.1 522.3,466.1 522.6,466.1 523.0,466.1 523.4,466.1 523.7,466.1 524.1,466.1 524.4,466.1 524.8,466.1 525.1,466.1 525.5,466.1 525.8,466.1 526.2,466.1 526.6,466.1 526.9,466.1 527.3,466.1 527.6,466.1 528.0,466.1 528.3,466.1 528.7,466.1 529.1,466.1 529.4,466.1 529.8,466.1 530.1,466.1 530.5,466.1 530.8,466.1 531.2,466.1 531.6,466.1 531.9,466.1 532.3,466.1 532.6,466.1 533.0,466.1 533.3,466.1 533.7,466.1 534.0,466.1 534.4,466.1 534.8,466.1 535.1,466.1 535.5,466.1 535.8,466.1 536.2,466.1 536.5,466.1 536.9,466.1 537.3,466.1 537.6,466.1 538.0,466.1 538.3,466.1 538.7,466.1 539.0,466.1 539.4,466.1 539.8,466.1 540.1,466.1 540.5,466.1 540.8,466.1 541.2,466.1 541.5,466.1 541.9,466.1 542.3,466.1 542.6,466.1 543.0,466.1 543.3,466.1 543.7,466.1 544.0,466.1 544.4,466.1 544.8,466.1 545.1,466.1 545.5,466.1 545.8,466.1 546.2,466.1 546.5,466.1 546.9,466.1 547.2,466.1 547.6,466.1 548.0,466.1 548.3,466.1 548.7,466.1 549.0,466.1 549.4,466.1 549.7,466.1 550.1,466.1 550.5,466.1 550.8,466.1 551.2,466.1 551.5,466.1 551.9,466.1 552.2,466.1 552.6,466.1 553.0,466.1 553.3,466.1 553.7,466.1 554.0,466.1 554.4,466.1 554.7,466.1 555.1,466.1 555.5,466.1 555.8,466.1 556.2,466.1 556.5,466.1 556.9,466.1 557.2,466.1 557.6,466.1 557.9,466.1 558.3,466.1 558.7,466.1 559.0,466.1 559.4,466.1 559.7,466.1 560.1,466.1 560.4,466.1 560.8,466.1 561.2,466.1 561.5,466.1 561.9,466.1 562.2,466.1 562.6,466.1 562.9,466.1 563.3,466.1 563.7,466.1 564.0,466.1 564.4,466.1 564.7,466.1 565.1,466.1 565.4,466.1 565.8,466.1 566.2,466.1 566.5,466.1 566.9,466.1 567.2,466.1 567.6,466.1 567.9,466.1 568.3,466.1 568.6,466.1 569.0,466.1 569.4,466.1 569.7,466.1 570.1,466.1 570.4,466.1 570.8,466.1 571.1,466.1 571.5,466.1 571.9,466.1 572.2,466.1 572.6,466.1 572.9,466.1 573.3,466.1 573.6,466.1 574.0,466.1 574.4,466.1 574.7,466.1 575.1,466.1 575.4,466.1 575.8,466.1 576.1,466.1 576.5,466.1 576.9,466.1 577.2,466.1 577.6,466.1 577.9,466.1 578.3,466.1 578.6,466.1 579.0,466.1 579.3,466.1 579.7,466.1 580.1,466.1 580.4,466.1 580.8,466.1 581.1,466.1 581.5,466.1 581.8,466.1 582.2,466.1 582.6,466.1 582.9,466.1 583.3,466.1 583.6,466.1 584.0,466.1 584.3,466.1 584.7,466.1 585.1,466.1 585.4,466.1 585.8,466.1 586.1,466.1 586.5,466.1 586.8,466.1 587.2,466.1 587.5,466.1 587.9,466.1 588.3,466.1 588.6,466.1 589.0,466.1 589.3,466.1 589.7,466.1 590.0,466.1 590.4,466.1 590.8,466.1 591.1,466.1 591.5,466.1 591.8,466.1 592.2,466.1 592.5,466.1 592.9,466.1 593.3,466.1 593.6,466.1 594.0,466.1 594.3,466.1 594.7,466.1 595.0,466.1 595.4,466.1 595.8,466.1 596.1,466.1 596.5,466.1 596.8,466.1 597.2,466.1 597.5,466.1 597.9,466.1 598.2,466.1 598.6,466.1 599.0,466.1 599.3,466.1 599.7,466.1 600.0,466.1 600.4,466.1 600.7,466.1 601.1,466.1 601.5,466.1 601.8,466.1 602.2,466.1 602.5,466.1 602.9,466.1 603.2,466.1 603.6,466.1 604.0,466.1 604.3,466.1 604.7,466.1 605.0,466.1 605.4,466.1 605.7,466.1 606.1,466.1 606.5,466.1 606.8,466.1 607.2,466.1 607.5,466.1 607.9,466.1 608.2,466.1 608.6,466.1 608.9,466.1 609.3,466.1 609.7,466.1 610.0,466.1 610.4,466.1 610.7,466.1 611.1,466.1 611.4,466.1 611.8,466.1 612.2,466.1 612.5,466.1 612.9,466.1 613.2,466.1 613.6,466.1 613.9,466.1 614.3,466.1 614.7,466.1 615.0,466.1 615.4,466.1 615.7,466.1 616.1,466.1 616.4,466.1 616.8,466.1 617.2,466.1 617.5,466.1 617.9,466.1 618.2,466.1 618.6,466.1 618.9,466.1 619.3,466.1 619.6,466.1 620.0,466.1 620.4,466.1 620.7,466.1 621.1,466.1 621.4,466.1 621.8,466.1 622.1,466.1 622.5,466.1 622.9,466.1 623.2,466.1 623.6,466.1 623.9,466.1 624.3,466.1 624.6,466.1 625.0,466.1 625.4,466.1 625.7,466.1 626.1,466.1 626.4,466.1 626.8,466.1 627.1,466.1 627.5,466.1 627.9,466.1 628.2,466.1 628.6,466.1 628.9,466.1 629.3,466.1 629.6,466.1 630.0,466.1 630.4,466.1 630.7,466.1 631.1,466.1 631.4,466.1 631.8,466.1 632.1,466.1 632.5,466.1 632.8,466.1 633.2,466.1 633.6,466.1 633.9,466.1 634.3,466.1 634.6,466.1 635.0,466.1 635.3,466.1 635.7,466.1 636.1,466.1 636.4,466.1 636.8,466.1 637.1,466.1 637.5,466.1 637.8,466.1 638.2,466.1 638.6,466.1 638.9,466.1 639.3,466.1 639.6,466.1 640.0,466.1 640.3,466.1 640.7,466.1 641.1,466.1 641.4,466.1 641.8,466.1 642.1,466.1 642.5,466.1 642.8,466.1 643.2,466.1 643.5,466.1 643.9,466.1 644.3,466.1 644.6,466.1 645.0,466.1 645.3,466.1 645.7,466.1 646.0,466.1 646.4,466.1 646.8,466.1 647.1,466.1 647.5,466.1 647.8,466.1 648.2,466.1 648.5,466.1 648.9,466.1 649.3,466.1 649.6,466.1 650.0,466.1 650.3,466.1 650.7,466.1 651.0,466.1 651.4,466.1 651.8,466.1 652.1,466.1 652.5,466.1 652.8,466.1 653.2,466.1 653.5,466.1 653.9,466.1 654.2,466.1 654.6,466.1 655.0,466.1 655.3,466.1 655.7,466.1 656.0,466.1 656.4,466.1 656.7,466.1 657.1,466.1 657.5,466.1 657.8,466.1 658.2,466.1 658.5,466.1 658.9,466.1 659.2,466.1 659.6,466.1 660.0,466.1 660.3,466.1 660.7,466.1 661.0,466.1 661.4,466.1 661.7,466.1 662.1,466.1 662.5,466.1 662.8,466.1 663.2,466.1 663.5,466.1 663.9,466.1 664.2,466.1 664.6,466.1 664.9,466.1 665.3,466.1 665.7,466.1 666.0,466.1 666.4,466.1 666.7,466.1 667.1,466.1 667.4,466.1 667.8,466.1 668.2,466.1 668.5,466.1 668.9,466.1 669.2,466.1 669.6,466.1 669.9,466.1 670.3,466.1 670.7,466.1 671.0,466.1 671.4,466.1 671.7,466.1 672.1,466.1 672.4,466.1 672.8,466.1 673.2,466.1 673.5,466.1 673.9,466.1 674.2,466.1 674.6,466.1 674.9,466.1 675.3,466.1 675.6,466.1 676.0,466.1 676.4,466.1 676.7,466.1 677.1,466.1 677.4,466.1 677.8,466.1 678.1,466.1 678.5,466.1 678.9,466.1 679.2,466.1 679.6,466.1 679.9,466.1 680.3,466.1 680.6,466.1 681.0,466.1 681.4,466.1 681.7,466.1 682.1,466.1 682.4,466.1 682.8,466.1 683.1,466.1 683.5,466.1 683.9,466.1 684.2,466.1 684.6,466.1 684.9,466.1 685.3,466.1 685.6,466.1 686.0,466.1 686.3,466.1 686.7,466.1 687.1,466.1 687.4,466.1 687.8,466.1 688.1,466.1 688.5,466.1 688.8,466.1 689.2,466.1 689.6,466.1 689.9,466.1 690.3,466.1 690.6,466.1 691.0,466.1 691.3,466.1 691.7,466.1 692.1,466.1 692.4,466.1 692.8,466.1 693.1,466.1 693.5,466.1 693.8,466.1 694.2,466.1 694.5,466.1 694.9,466.1 695.3,466.1 695.6,466.1 696.0,466.1 696.3,466.1 696.7,466.1 697.0,466.1 697.4,466.1 697.8,466.1 698.1,466.1 698.5,466.1 698.8,466.1 699.2,466.1 699.5,466.1 699.9,466.1 700.3,466.1" />
  <text x="90.0" y="618.0" text-anchor="middle" font-family="Arial" font-size="11" fill="#555">0</text><text x="268.3" y="618.0" text-anchor="middle" font-family="Arial" font-size="11" fill="#555">500</text><text x="446.7" y="618.0" text-anchor="middle" font-family="Arial" font-size="11" fill="#555">1000</text><text x="625.0" y="618.0" text-anchor="middle" font-family="Arial" font-size="11" fill="#555">1500</text><text x="803.3" y="618.0" text-anchor="middle" font-family="Arial" font-size="11" fill="#555">2000</text><text x="981.7" y="618.0" text-anchor="middle" font-family="Arial" font-size="11" fill="#555">2500</text><text x="1160.0" y="618.0" text-anchor="middle" font-family="Arial" font-size="11" fill="#555">3000</text>
  <rect x="100" y="55" width="12" height="12" fill="#1f77b4" /><text x="118" y="65" font-family="Arial" font-size="12">Adjacent-Swap</text><rect x="260" y="55" width="12" height="12" fill="#d62728" /><text x="278" y="65" font-family="Arial" font-size="12">N5</text><rect x="420" y="55" width="12" height="12" fill="#2ca02c" /><text x="438" y="65" font-family="Arial" font-size="12">N6</text>
  <text x="625.0" y="645.0" text-anchor="middle" font-family="Arial" font-size="14" font-weight="bold">Iteration</text>
  <text x="30.0" y="345.0" text-anchor="middle" font-family="Arial" font-size="14" font-weight="bold" transform="rotate(-90 30.0 345.0)">Makespan</text>
</svg>