<svg xmlns="http://www.w3.org/2000/svg" width="1200" height="700" viewBox="0 0 1200 700">
  <rect x="0" y="0" width="1200" height="700" fill="#ffffff" />
  <text x="600.0" y="32" text-anchor="middle" font-family="Arial" font-size="24" font-weight="bold">Neighborhood Comparison - Instance 4_3</text>
  <line x1="90.0" y1="600.0" x2="1160.0" y2="600.0" stroke="#e6e6e6" stroke-width="1" /><text x="82.0" y="604.0" text-anchor="end" font-family="Arial" font-size="11" fill="#555">780</text><line x1="90.0" y1="515.0" x2="1160.0" y2="515.0" stroke="#e6e6e6" stroke-width="1" /><text x="82.0" y="519.0" text-anchor="end" font-family="Arial" font-size="11" fill="#555">790</text><line x1="90.0" y1="430.0" x2="1160.0" y2="430.0" stroke="#e6e6e6" stroke-width="1" /><text x="82.0" y="434.0" text-anchor="end" font-family="Arial" font-size="11" fill="#555">800</text><line x1="90.0" y1="345.0" x2="1160.0" y2="345.0" stroke="#e6e6e6" stroke-width="1" /><text x="82.0" y="349.0" text-anchor="end" font-family="Arial" font-size="11" fill="#555">810</text><line x1="90.0" y1="260.0" x2="1160.0" y2="260.0" stroke="#e6e6e6" stroke-width="1" /><text x="82.0" y="264.0" text-anchor="end" font-family="Arial" font-size="11" fill="#555">820</text><line x1="90.0" y1="175.0" x2="1160.0" y2="175.0" stroke="#e6e6e6" stroke-width="1" /><text x="82.0" y="179.0" text-anchor="end" font-family="Arial" font-size="11" fill="#555">830</text><line x1="90.0" y1="90.0" x2="1160.0" y2="90.0" stroke="#e6e6e6" stroke-width="1" /><text x="82.0" y="94.0" text-anchor="end" font-family="Arial" font-size="11" fill="#555">840</text>
  <line x1="90" y1="600" x2="1160" y2="600" stroke="#333" stroke-width="1.5" />
  <line x1="90" y1="90" x2="90" y2="600" stroke="#333" stroke-width="1.5" />
  <polyline fill="none" stroke="#1f77b4" stroke-width="2.5" points="90.0,90.0 95.4,166.5 100.8,166.5 106.1,166.5 111.5,166.5 116.9,166.5 122.3,166.5 127.6,345.0 133.0,345.0 138.4,345.0 143.8,345.0 149.1,345.0 154.5,345.0 159.9,345.0 165.3,345.0 170.7,345.0 176.0,345.0 181.4,345.0 186.8,345.0 192.2,345.0 197.5,345.0 202.9,345.0 208.3,345.0 213.7,532.0 219.0,532.0 224.4,532.0 229.8,532.0 235.2,532.0 240.6,532.0 245.9,532.0 251.3,532.0 256.7,532.0 262.1,532.0 267.4,532.0 272.8,532.0 278.2,532.0 283.6,532.0 288.9,532.0 294.3,532.0 299.7,532.0 305.1,532.0 310.5,532.0 315.8,532.0 321.2,532.0 326.6,532.0 332.0,532.0 337.3,532.0 342.7,532.0 348.1,532.0 353.5,532.0 358.8,532.0 364.2,532.0 369.6,532.0 375.0,532.0 380.4,532.0 385.7,532.0 391.1,532.0 396.5,532.0 401.9,532.0 407.2,532.0 412.6,532.0 418.0,532.0 423.4,532.0 428.7,532.0 434.1,532.0 439.5,532.0 444.9,532.0 450.3,532.0 455.6,532.0 461.0,532.0 466.4,532.0 471.8,532.0 477.1,532.0 482.5,532.0 487.9,532.0 493.3,532.0 498.6,532.0 504.0,532.0 509.4,532.0 514.8,532.0 520.2,532.0 525.5,532.0 530.9,532.0 536.3,532.0 541.7,532.0 547.0,532.0 552.4,532.0 557.8,532.0 563.2,532.0 568.5,532.0 573.9,532.0 579.3,532.0 584.7,532.0 590.1,532.0 595.4,532.0 600.8,532.0 606.2,532.0 611.6,532.0 616.9,532.0 622.3,532.0 627.7,532.0 633.1,532.0 638.4,532.0 643.8,532.0 649.2,532.0 654.6,532.0 659.9,532.0 665.3,532.0 670.7,532.0 676.1,532.0 681.5,532.0 686.8,532.0 692.2,532.0 697.6,532.0 703.0,532.0 708.3,532.0 713.7,532.0 719.1,532.0 724.5,532.0 729.8,532.0 735.2,532.0 740.6,532.0 746.0,532.0 751.4,532.0 756.7,532.0 762.1,532.0 767.5,532.0 772.9,532.0 778.2,532.0 783.6,532.0 789.0,532.0 794.4,532.0 799.7,532.0 805.1,532.0 810.5,532.0 815.9,532.0 821.3,532.0 826.6,532.0 832.0,532.0 837.4,532.0 842.8,532.0 848.1,532.0 853.5,532.0 858.9,532.0 864.3,532.0 869.6,532.0 875.0,532.0 880.4,532.0 885.8,532.0 891.2,532.0 896.5,532.0 901.9,532.0 907.3,532.0 912.7,532.0 918.0,532.0 923.4,532.0 928.8,532.0 934.2,532.0 939.5,532.0 944.9,532.0 950.3,532.0 955.7,532.0 961.1,532.0 966.4,532.0 971.8,532.0 977.2,532.0 982.6,532.0 987.9,532.0 993.3,532.0 998.7,532.0 1004.1,532.0 1009.4,532.0 1014.8,532.0 1020.2,532.0 1025.6,532.0 1031.0,532.0 1036.3,532.0 1041.7,532.0 1047.1,532.0 1052.5,532.0 1057.8,532.0 1063.2,532.0 1068.6,532.0 1074.0,532.0 1079.3,532.0 1084.7,532.0 1090.1,532.0 1095.5,532.0 1100.9,532.0 1106.2,532.0 1111.6,532.0 1117.0,532.0 1122.4,532.0 1127.7,532.0 1133.1,532.0 1138.5,532.0 1143.9,532.0 1149.2,532.0 1154.6,532.0 1160.0,532.0" /><polyline fill="none" stroke="#d62728" stroke-width="2.5" points="90.0,90.0 95.4,90.0 100.8,90.0 106.1,90.0 111.5,90.0 116.9,90.0 122.3,90.0 127.6,90.0 133.0,90.0 138.4,90.0 143.8,90.0 149.1,90.0 154.5,90.0 159.9,90.0 165.3,90.0 170.7,90.0 176.0,90.0 181.4,90.0 186.8,90.0 192.2,90.0 197.5,90.0 202.9,90.0 208.3,90.0 213.7,90.0 219.0,90.0 224.4,90.0 229.8,90.0 235.2,90.0 240.6,90.0 245.9,90.0 251.3,90.0 256.7,90.0 262.1,90.0 267.4,90.0 272.8,90.0 278.2,90.0 283.6,90.0 288.9,90.0 294.3,90.0 299.7,90.0 305.1,90.0 310.5,90.0 315.8,90.0 321.2,90.0 326.6,90.0 332.0,90.0 337.3,90.0 342.7,90.0 348.1,90.0 353.5,90.0 358.8,90.0 364.2,158.0 369.6,158.0 375.0,158.0 380.4,158.0 385.7,158.0 391.1,158.0 396.5,158.0 401.9,158.0 407.2,158.0 412.6,158.0 418.0,158.0 423.4,158.0 428.7,158.0 434.1,319.5 439.5,319.5 444.9,319.5 450.3,319.5 455.6,319.5 461.0,319.5 466.4,319.5 471.8,319.5 477.1,319.5 482.5,319.5 487.9,319.5 493.3,319.5 498.6,319.5 504.0,319.5 509.4,319.5 514.8,319.5 520.2,319.5 525.5,319.5 530.9,319.5 536.3,319.5 541.7,319.5 547.0,319.5 552.4,319.5 557.8,404.5 563.2,404.5 568.5,404.5 573.9,404.5 579.3,404.5 584.7,404.5 590.1,404.5 595.4,404.5 600.8,404.5 606.2,404.5 611.6,404.5 616.9,404.5 622.3,404.5 627.7,404.5 633.1,404.5 638.4,404.5 643.8,404.5 649.2,404.5 654.6,404.5 659.9,404.5 665.3,404.5 670.7,404.5 676.1,404.5 681.5,404.5 686.8,404.5 692.2,404.5 697.6,404.5 703.0,404.5 708.3,404.5 713.7,404.5 719.1,404.5 724.5,404.5 729.8,404.5 735.2,404.5 740.6,404.5 746.0,404.5 751.4,404.5 756.7,404.5 762.1,404.5 767.5,404.5 772.9,404.5 778.2,404.5 783.6,404.5 789.0,404.5 794.4,404.5 799.7,404.5 805.1,404.5 810.5,404.5 815.9,404.5 821.3,404.5 826.6,404.5 832.0,404.5 837.4,404.5 842.8,404.5 848.1,404.5 853.5,404.5 858.9,404.5 864.3,404.5 869.6,404.5 875.0,404.5 880.4,404.5 885.8,404.5 891.2,404.5 896.5,404.5 901.9,404.5 907.3,404.5 912.7,404.5 918.0,404.5 923.4,404.5 928.8,404.5 934.2,404.5 939.5,404.5 944.9,404.5 950.3,404.5 955.7,404.5 961.1,404.5 966.4,404.5 971.8,404.5 977.2,404.5 982.6,404.5 987.9,404.5 993.3,404.5 998.7,404.5 1004.1,404.5 1009.4,404.5 1014.8,404.5 1020.2,404.5 1025.6,404.5 1031.0,404.5 1036.3,404.5 1041.7,404.5 1047.1,404.5 1052.5,404.5 1057.8,404.5 1063.2,404.5 1068.6,404.5 1074.0,404.5 1079.3,404.5 1084.7,404.5 1090.1,404.5 1095.5,404.5 1100.9,404.5 1106.2,404.5 1111.6,404.5 1117.0,404.5 1122.4,404.5 1127.7,404.5 1133.1,404.5 1138.5,404.5 1143.9,404.5 1149.2,404.5 1154.6,404.5 1160.0,404.5" /><polyline fill="none" stroke="#2ca02c" stroke-width="2.5" points="90.0,90.0 95.4,90.0 100.8,90.0 106.1,90.0 111.5,90.0 116.9,90.0 122.3,90.0 127.6,90.0 133.0,90.0 138.4,90.0 143.8,90.0 149.1,90.0 154.5,90.0 159.9,90.0 165.3,90.0 170.7,90.0 176.0,90.0 181.4,90.0 186.8,90.0 192.2,90.0 197.5,90.0 202.9,90.0 208.3,90.0 213.7,90.0 219.0,90.0 224.4,90.0 229.8,90.0 235.2,90.0 240.6,90.0 245.9,90.0 251.3,90.0 256.7,132.5 262.1,311.0 267.4,311.0 272.8,311.0 278.2,311.0 283.6,311.0 288.9,311.0 294.3,311.0 299.7,311.0 305.1,311.0 310.5,311.0 315.8,311.0 321.2,311.0 326.6,311.0 332.0,311.0 337.3,311.0 342.7,311.0 348.1,311.0 353.5,311.0 358.8,311.0 364.2,311.0 369.6,311.0 375.0,311.0 380.4,353.5 385.7,353.5 391.1,353.5 396.5,353.5 401.9,353.5 407.2,353.5 412.6,353.5 418.0,353.5 423.4,353.5 428.7,353.5 434.1,353.5 439.5,353.5 444.9,353.5 450.3,353.5 455.6,353.5 461.0,353.5 466.4,353.5 471.8,353.5 477.1,353.5 482.5,353.5 487.9,353.5 493.3,353.5 498.6,353.5 504.0,353.5 509.4,353.5 514.8,353.5 520.2,353.5 525.5,353.5 530.9,353.5 536.3,353.5 541.7,353.5 547.0,353.5 552.4,353.5 557.8,447.0 563.2,447.0 568.5,447.0 573.9,447.0 579.3,447.0 584.7,447.0 590.1,447.0 595.4,447.0 600.8,447.0 606.2,447.0 611.6,447.0 616.9,447.0 622.3,447.0 627.7,447.0 633.1,447.0 638.4,447.0 643.8,447.0 649.2,447.0 654.6,447.0 659.9,447.0 665.3,447.0 670.7,447.0 676.1,532.0 681.5,532.0 686.8,532.0 692.2,532.0 697.6,532.0 703.0,532.0 708.3,532.0 713.7,532.0 719.1,532.0 724.5,532.0 729.8,532.0 735.2,532.0 740.6,532.0 746.0,532.0 751.4,532.0 756.7,532.0 762.1,532.0 767.5,532.0 772.9,532.0 778.2,532.0 783.6,532.0 789.0,532.0 794.4,532.0 799.7,532.0 805.1,532.0 810.5,532.0 815.9,532.0 821.3,532.0 826.6,532.0 832.0,532.0 837.4,532.0 842.8,532.0 848.1,532.0 853.5,532.0 858.9,532.0 864.3,532.0 869.6,532.0 875.0,532.0 880.4,532.0 885.8,532.0 891.2,532.0 896.5,532.0 901.9,532.0 907.3,532.0 912.7,532.0 918.0,532.0 923.4,532.0 928.8,532.0 934.2,532.0 939.5,532.0 944.9,532.0 950.3,532.0 955.7,532.0 961.1,532.0 966.4,532.0 971.8,532.0 977.2,532.0 982.6,532.0 987.9,532.0 993.3,532.0 998.7,532.0 1004.1,532.0 1009.4,532.0 1014.8,532.0 1020.2,532.0 1025.6,532.0 1031.0,532.0 1036.3,532.0 1041.7,532.0 1047.1,532.0 1052.5,532.0 1057.8,532.0 1063.2,532.0 1068.6,532.0 1074.0,532.0 1079.3,532.0 1084.7,532.0 1090.1,532.0 1095.5,532.0 1100.9,532.0 1106.2,532.0 1111.6,532.0 1117.0,532.0 1122.4,532.0 1127.7,532.0 1133.1,532.0 1138.5,532.0 1143.9,532.0 1149.2,532.0 1154.6,532.0 1160.0,532.0" />
  <text x="90.0" y="618.0" text-anchor="middle" font-family="Arial" font-size="11" fill="#555">0</text><text x="268.3" y="618.0" text-anchor="middle" font-family="Arial" font-size="11" fill="#555">500</text><text x="446.7" y="618.0" text-anchor="middle" font-family="Arial" font-size="11" fill="#555">1000</text><text x="625.0" y="618.0" text-anchor="middle" font-family="Arial" font-size="11" fill="#555">1500</text><text x="803.3" y="618.0" text-anchor="middle" font-family="Arial" font-size="11" fill="#555">2000</text><text x="981.7" y="618.0" text-anchor="middle" font-family="Arial" font-size="11" fill="#555">2500</text><text x="1160.0" y="618.0" text-anchor="middle" font-family="Arial" font-size="11" fill="#555">3000</text>
  <rect x="100" y="55" width="12" height="12" fill="#1f77b4" /><text x="118" y="65" font-family="Arial" font-size="12">adjacent</text><rect x="260" y="55" width="12" height="12" fill="#d62728" /><text x="278" y="65" font-family="Arial" font-size="12">n5</text><rect x="420" y="55" width="12" height="12" fill="#2ca02c" /><text x="438" y="65" font-family="Arial" font-size="12">n6</text>
  <text x="625.0" y="645.0" text-anchor="middle" font-family="Arial" font-size="14" font-weight="bold">Iteration</text>
  <text x="30.0" y="345.0" text-anchor="middle" font-family="Arial" font-size="14" font-weight="bold" transform="rotate(-90 30.0 345.0)">Makespan</text>
</svg>