<svg xmlns="http://www.w3.org/2000/svg" width="1200" height="700" viewBox="0 0 1200 700">
  <rect x="0" y="0" width="1200" height="700" fill="#ffffff" />
  <text x="600.0" y="32" text-anchor="middle" font-family="Arial" font-size="24" font-weight="bold">Neighborhood Makespan Comparison</text>
  <line x1="90.0" y1="600.0" x2="1160.0" y2="600.0" stroke="#e6e6e6" stroke-width="1" /><text x="82.0" y="604.0" text-anchor="end" font-family="Arial" font-size="11" fill="#555">785</text><line x1="90.0" y1="472.5" x2="1160.0" y2="472.5" stroke="#e6e6e6" stroke-width="1" /><text x="82.0" y="476.5" text-anchor="end" font-family="Arial" font-size="11" fill="#555">800</text><line x1="90.0" y1="345.0" x2="1160.0" y2="345.0" stroke="#e6e6e6" stroke-width="1" /><text x="82.0" y="349.0" text-anchor="end" font-family="Arial" font-size="11" fill="#555">814</text><line x1="90.0" y1="217.5" x2="1160.0" y2="217.5" stroke="#e6e6e6" stroke-width="1" /><text x="82.0" y="221.5" text-anchor="end" font-family="Arial" font-size="11" fill="#555">828</text><line x1="90.0" y1="90.0" x2="1160.0" y2="90.0" stroke="#e6e6e6" stroke-width="1" /><text x="82.0" y="94.0" text-anchor="end" font-family="Arial" font-size="11" fill="#555">843</text>
  <line x1="90" y1="600" x2="1160" y2="600" stroke="#333" stroke-width="1.5" />
  <line x1="90" y1="90" x2="90" y2="600" stroke="#333" stroke-width="1.5" />
  <polyline fill="none" stroke="#1f77b4" stroke-width="2.5" points="90.0,113.2 95.4,193.4 100.8,193.4 106.1,193.4 111.5,193.4 116.9,193.4 122.3,193.4 127.6,193.4 133.0,380.7 138.4,380.7 143.8,380.7 149.1,380.7 154.5,380.7 159.9,380.7 165.3,380.7 170.7,380.7 176.0,380.7 181.4,380.7 186.8,380.7 192.2,380.7 197.5,380.7 202.9,380.7 208.3,380.7 213.7,380.7 219.0,380.7 224.4,380.7 229.8,576.8 235.2,576.8 240.6,576.8 245.9,576.8 251.3,576.8 256.7,576.8 262.1,576.8 267.4,576.8 272.8,576.8 278.2,576.8 283.6,576.8 288.9,576.8 294.3,576.8 299.7,576.8 305.1,576.8 310.5,576.8 315.8,576.8 321.2,576.8 326.6,576.8 332.0,576.8 337.3,576.8 342.7,576.8 348.1,576.8 353.5,576.8 358.8,576.8 364.2,576.8 369.6,576.8 375.0,576.8 380.4,576.8 385.7,576.8 391.1,576.8 396.5,576.8 401.9,576.8 407.2,576.8 412.6,576.8 418.0,576.8 423.4,576.8 428.7,576.8 434.1,576.8 439.5,576.8 444.9,576.8 450.3,576.8 455.6,576.8 461.0,576.8 466.4,576.8 471.8,576.8 477.1,576.8 482.5,576.8 487.9,576.8 493.3,576.8 498.6,576.8 504.0,576.8 509.4,576.8 514.8,576.8 520.2,576.8 525.5,576.8 530.9,576.8 536.3,576.8 541.7,576.8 547.0,576.8 552.4,576.8 557.8,576.8 563.2,576.8 568.5,576.8 573.9,576.8 579.3,576.8 584.7,576.8 590.1,576.8 595.4,576.8 600.8,576.8 606.2,576.8 611.6,576.8 616.9,576.8 622.3,576.8 627.7,576.8 633.1,576.8 638.4,576.8 643.8,576.8 649.2,576.8 654.6,576.8 659.9,576.8 665.3,576.8 670.7,576.8 676.1,576.8 681.5,576.8 686.8,576.8 692.2,576.8 697.6,576.8 703.0,576.8 708.3,576.8 713.7,576.8 719.1,576.8 724.5,576.8 729.8,576.8 735.2,576.8 740.6,576.8 746.0,576.8 751.4,576.8 756.7,576.8 762.1,576.8 767.5,576.8 772.9,576.8 778.2,576.8 783.6,576.8 789.0,576.8 794.4,576.8 799.7,576.8 805.1,576.8 810.5,576.8 815.9,576.8 821.3,576.8 826.6,576.8 832.0,576.8 837.4,576.8 842.8,576.8 848.1,576.8 853.5,576.8 858.9,576.8 864.3,576.8 869.6,576.8 875.0,576.8 880.4,576.8 885.8,576.8 891.2,576.8 896.5,576.8 901.9,576.8 907.3,576.8 912.7,576.8 918.0,576.8 923.4,576.8 928.8,576.8 934.2,576.8 939.5,576.8 944.9,576.8 950.3,576.8 955.7,576.8 961.1,576.8 966.4,576.8 971.8,576.8 977.2,576.8 982.6,576.8 987.9,576.8 993.3,576.8 998.7,576.8 1004.1,576.8 1009.4,576.8 1014.8,576.8 1020.2,576.8 1025.6,576.8 1031.0,576.8 1036.3,576.8 1041.7,576.8 1047.1,576.8 1052.5,576.8 1057.8,576.8 1063.2,576.8 1068.6,576.8 1074.0,576.8 1079.3,576.8 1084.7,576.8 1090.1,576.8 1095.5,576.8 1100.9,576.8 1106.2,576.8 1111.6,576.8 1117.0,576.8 1122.4,576.8 1127.7,576.8 1133.1,576.8 1138.5,576.8 1143.9,576.8 1149.2,576.8 1154.6,576.8 1160.0,576.8" /><polyline fill="none" stroke="#d62728" stroke-width="2.5" points="90.0,113.2 95.4,113.2 100.8,113.2 106.1,113.2 111.5,113.2 116.9,113.2 122.3,113.2 127.6,113.2 133.0,113.2 138.4,113.2 143.8,113.2 149.1,113.2 154.5,113.2 159.9,113.2 165.3,113.2 170.7,113.2 176.0,113.2 181.4,113.2 186.8,113.2 192.2,113.2 197.5,113.2 202.9,113.2 208.3,113.2 213.7,113.2 219.0,113.2 224.4,113.2 229.8,113.2 235.2,113.2 240.6,113.2 245.9,113.2 251.3,113.2 256.7,113.2 262.1,113.2 267.4,113.2 272.8,113.2 278.2,113.2 283.6,113.2 288.9,113.2 294.3,113.2 299.7,113.2 305.1,113.2 310.5,113.2 315.8,113.2 321.2,113.2 326.6,113.2 332.0,113.2 337.3,113.2 342.7,113.2 348.1,113.2 353.5,113.2 358.8,113.2 364.2,113.2 369.6,113.2 375.0,113.2 380.4,113.2 385.7,113.2 391.1,113.2 396.5,113.2 401.9,184.5 407.2,184.5 412.6,184.5 418.0,184.5 423.4,184.5 428.7,184.5 434.1,184.5 439.5,184.5 444.9,184.5 450.3,184.5 455.6,184.5 461.0,184.5 466.4,184.5 471.8,184.5 477.1,184.5 482.5,353.9 487.9,353.9 493.3,353.9 498.6,353.9 504.0,353.9 509.4,353.9 514.8,353.9 520.2,353.9 525.5,353.9 530.9,353.9 536.3,353.9 541.7,353.9 547.0,353.9 552.4,353.9 557.8,353.9 563.2,353.9 568.5,353.9 573.9,353.9 579.3,353.9 584.7,353.9 590.1,353.9 595.4,353.9 600.8,353.9 606.2,353.9 611.6,353.9 616.9,353.9 622.3,443.1 627.7,443.1 633.1,443.1 638.4,443.1 643.8,443.1 649.2,443.1 654.6,443.1 659.9,443.1 665.3,443.1 670.7,443.1 676.1,443.1 681.5,443.1 686.8,443.1 692.2,443.1 697.6,443.1 703.0,443.1 708.3,443.1 713.7,443.1 719.1,443.1 724.5,443.1 729.8,443.1 735.2,443.1 740.6,443.1 746.0,443.1 751.4,443.1 756.7,443.1 762.1,443.1 767.5,443.1 772.9,443.1 778.2,443.1 783.6,443.1 789.0,443.1 794.4,443.1 799.7,443.1 805.1,443.1 810.5,443.1 815.9,443.1 821.3,443.1 826.6,443.1 832.0,443.1 837.4,443.1 842.8,443.1 848.1,443.1 853.5,443.1 858.9,443.1 864.3,443.1 869.6,443.1 875.0,443.1 880.4,443.1 885.8,443.1 891.2,443.1 896.5,443.1 901.9,443.1 907.3,443.1 912.7,443.1 918.0,443.1 923.4,443.1 928.8,443.1 934.2,443.1 939.5,443.1 944.9,443.1 950.3,443.1 955.7,443.1 961.1,443.1 966.4,443.1 971.8,443.1 977.2,443.1 982.6,443.1 987.9,443.1 993.3,443.1 998.7,443.1 1004.1,443.1 1009.4,443.1 1014.8,443.1 1020.2,443.1 1025.6,443.1 1031.0,443.1 1036.3,443.1 1041.7,443.1 1047.1,443.1 1052.5,443.1 1057.8,443.1 1063.2,443.1 1068.6,443.1 1074.0,443.1 1079.3,443.1 1084.7,443.1 1090.1,443.1 1095.5,443.1 1100.9,443.1 1106.2,443.1 1111.6,443.1 1117.0,443.1 1122.4,443.1 1127.7,443.1 1133.1,443.1 1138.5,443.1 1143.9,443.1 1149.2,443.1 1154.6,443.1 1160.0,443.1" /><polyline fill="none" stroke="#2ca02c" stroke-width="2.5" points="90.0,113.2 95.4,113.2 100.8,113.2 106.1,113.2 111.5,113.2 116.9,113.2 122.3,113.2 127.6,113.2 133.0,113.2 138.4,113.2 143.8,113.2 149.1,113.2 154.5,113.2 159.9,113.2 165.3,113.2 170.7,113.2 176.0,113.2 181.4,113.2 186.8,113.2 192.2,113.2 197.5,113.2 202.9,113.2 208.3,113.2 213.7,113.2 219.0,113.2 224.4,113.2 229.8,113.2 235.2,113.2 240.6,113.2 245.9,113.2 251.3,113.2 256.7,113.2 262.1,113.2 267.4,113.2 272.8,113.2 278.2,157.8 283.6,157.8 288.9,345.0 294.3,345.0 299.7,345.0 305.1,345.0 310.5,345.0 315.8,345.0 321.2,345.0 326.6,345.0 332.0,345.0 337.3,345.0 342.7,345.0 348.1,345.0 353.5,345.0 358.8,345.0 364.2,345.0 369.6,345.0 375.0,345.0 380.4,345.0 385.7,345.0 391.1,345.0 396.5,345.0 401.9,345.0 407.2,345.0 412.6,345.0 418.0,389.6 423.4,389.6 428.7,389.6 434.1,389.6 439.5,389.6 444.9,389.6 450.3,389.6 455.6,389.6 461.0,389.6 466.4,389.6 471.8,389.6 477.1,389.6 482.5,389.6 487.9,389.6 493.3,389.6 498.6,389.6 504.0,389.6 509.4,389.6 514.8,389.6 520.2,389.6 525.5,389.6 530.9,389.6 536.3,389.6 541.7,389.6 547.0,389.6 552.4,389.6 557.8,389.6 563.2,389.6 568.5,389.6 573.9,389.6 579.3,389.6 584.7,389.6 590.1,389.6 595.4,389.6 600.8,389.6 606.2,389.6 611.6,389.6 616.9,389.6 622.3,487.7 627.7,487.7 633.1,487.7 638.4,487.7 643.8,487.7 649.2,487.7 654.6,487.7 659.9,487.7 665.3,487.7 670.7,487.7 676.1,487.7 681.5,487.7 686.8,487.7 692.2,487.7 697.6,487.7 703.0,487.7 708.3,487.7 713.7,487.7 719.1,487.7 724.5,487.7 729.8,487.7 735.2,487.7 740.6,487.7 746.0,487.7 751.4,487.7 756.7,576.8 762.1,576.8 767.5,576.8 772.9,576.8 778.2,576.8 783.6,576.8 789.0,576.8 794.4,576.8 799.7,576.8 805.1,576.8 810.5,576.8 815.9,576.8 821.3,576.8 826.6,576.8 832.0,576.8 837.4,576.8 842.8,576.8 848.1,576.8 853.5,576.8 858.9,576.8 864.3,576.8 869.6,576.8 875.0,576.8 880.4,576.8 885.8,576.8 891.2,576.8 896.5,576.8 901.9,576.8 907.3,576.8 912.7,576.8 918.0,576.8 923.4,576.8 928.8,576.8 934.2,576.8 939.5,576.8 944.9,576.8 950.3,576.8 955.7,576.8 961.1,576.8 966.4,576.8 971.8,576.8 977.2,576.8 982.6,576.8 987.9,576.8 993.3,576.8 998.7,576.8 1004.1,576.8 1009.4,576.8 1014.8,576.8 1020.2,576.8 1025.6,576.8 1031.0,576.8 1036.3,576.8 1041.7,576.8 1047.1,576.8 1052.5,576.8 1057.8,576.8 1063.2,576.8 1068.6,576.8 1074.0,576.8 1079.3,576.8 1084.7,576.8 1090.1,576.8 1095.5,576.8 1100.9,576.8 1106.2,576.8 1111.6,576.8 1117.0,576.8 1122.4,576.8 1127.7,576.8 1133.1,576.8 1138.5,576.8 1143.9,576.8 1149.2,576.8 1154.6,576.8 1160.0,576.8" />
  <text x="90.0" y="618.0" text-anchor="middle" font-family="Arial" font-size="11" fill="#555">0</text><text x="305.1" y="618.0" text-anchor="middle" font-family="Arial" font-size="11" fill="#555">530</text><text x="520.2" y="618.0" text-anchor="middle" font-family="Arial" font-size="11" fill="#555">1061</text><text x="729.8" y="618.0" text-anchor="middle" font-family="Arial" font-size="11" fill="#555">1578</text><text x="944.9" y="618.0" text-anchor="middle" font-family="Arial" font-size="11" fill="#555">2109</text><text x="1160.0" y="618.0" text-anchor="middle" font-family="Arial" font-size="11" fill="#555">2640</text>
  <rect x="100" y="55" width="12" height="12" fill="#1f77b4" /><text x="118" y="65" font-family="Arial" font-size="12">adjacent</text><rect x="260" y="55" width="12" height="12" fill="#d62728" /><text x="278" y="65" font-family="Arial" font-size="12">n5</text><rect x="420" y="55" width="12" height="12" fill="#2ca02c" /><text x="438" y="65" font-family="Arial" font-size="12">n6</text>
  <text x="625.0" y="645.0" text-anchor="middle" font-family="Arial" font-size="14" font-weight="bold">Iteration</text>
  <text x="30.0" y="345.0" text-anchor="middle" font-family="Arial" font-size="14" font-weight="bold" transform="rotate(-90 30.0 345.0)">Makespan</text>
</svg>