<svg xmlns="http://www.w3.org/2000/svg" width="1200" height="700" viewBox="0 0 1200 700">
  <rect x="0" y="0" width="1200" height="700" fill="#ffffff" />
  <text x="600.0" y="32" text-anchor="middle" font-family="Arial" font-size="24" font-weight="bold">Neighborhood Makespan Comparison</text>
  <line x1="90.0" y1="600.0" x2="1160.0" y2="600.0" stroke="#e6e6e6" stroke-width="1" /><text x="82.0" y="604.0" text-anchor="end" font-family="Arial" font-size="11" fill="#555">865</text><line x1="90.0" y1="472.5" x2="1160.0" y2="472.5" stroke="#e6e6e6" stroke-width="1" /><text x="82.0" y="476.5" text-anchor="end" font-family="Arial" font-size="11" fill="#555">883</text><line x1="90.0" y1="345.0" x2="1160.0" y2="345.0" stroke="#e6e6e6" stroke-width="1" /><text x="82.0" y="349.0" text-anchor="end" font-family="Arial" font-size="11" fill="#555">902</text><line x1="90.0" y1="217.5" x2="1160.0" y2="217.5" stroke="#e6e6e6" stroke-width="1" /><text x="82.0" y="221.5" text-anchor="end" font-family="Arial" font-size="11" fill="#555">920</text><line x1="90.0" y1="90.0" x2="1160.0" y2="90.0" stroke="#e6e6e6" stroke-width="1" /><text x="82.0" y="94.0" text-anchor="end" font-family="Arial" font-size="11" fill="#555">938</text>
  <line x1="90" y1="600" x2="1160" y2="600" stroke="#333" stroke-width="1.5" />
  <line x1="90" y1="90" x2="90" y2="600" stroke="#333" stroke-width="1.5" />
  <polyline fill="none" stroke="#1f77b4" stroke-width="2.5" points="90.0,113.2 95.4,376.1 100.8,403.8 106.1,403.8 111.5,403.8 116.9,403.8 122.3,403.8 127.6,403.8 133.0,403.8 138.4,403.8 143.8,403.8 149.1,403.8 154.5,403.8 159.9,403.8 165.3,403.8 170.7,403.8 176.0,493.8 181.4,493.8 186.8,493.8 192.2,493.8 197.5,493.8 202.9,493.8 208.3,493.8 213.7,493.8 219.0,493.8 224.4,493.8 229.8,493.8 235.2,493.8 240.6,493.8 245.9,493.8 251.3,493.8 256.7,493.8 262.1,493.8 267.4,493.8 272.8,493.8 278.2,493.8 283.6,493.8 288.9,493.8 294.3,493.8 299.7,493.8 305.1,493.8 310.5,493.8 315.8,493.8 321.2,493.8 326.6,493.8 332.0,493.8 337.3,493.8 342.7,493.8 348.1,493.8 353.5,493.8 358.8,493.8 364.2,493.8 369.6,493.8 375.0,493.8 380.4,493.8 385.7,493.8 391.1,493.8 396.5,493.8 401.9,493.8 407.2,493.8 412.6,493.8 418.0,493.8 423.4,493.8 428.7,493.8 434.1,493.8 439.5,493.8 444.9,493.8 450.3,493.8 455.6,493.8 461.0,493.8 466.4,493.8 471.8,493.8 477.1,493.8 482.5,493.8 487.9,493.8 493.3,493.8 498.6,493.8 504.0,493.8 509.4,493.8 514.8,493.8 520.2,493.8 525.5,493.8 530.9,493.8 536.3,493.8 541.7,493.8 547.0,493.8 552.4,493.8 557.8,493.8 563.2,493.8 568.5,493.8 573.9,493.8 579.3,493.8 584.7,493.8 590.1,493.8 595.4,493.8 600.8,493.8 606.2,493.8 611.6,493.8 616.9,493.8 622.3,493.8 627.7,493.8 633.1,493.8 638.4,493.8 643.8,493.8 649.2,493.8 654.6,493.8 659.9,493.8 665.3,493.8 670.7,493.8 676.1,493.8 681.5,493.8 686.8,493.8 692.2,493.8 697.6,493.8 703.0,493.8 708.3,493.8 713.7,493.8 719.1,493.8 724.5,493.8 729.8,493.8 735.2,493.8 740.6,493.8 746.0,493.8 751.4,493.8 756.7,493.8 762.1,493.8 767.5,493.8 772.9,493.8 778.2,493.8 783.6,493.8 789.0,493.8 794.4,493.8 799.7,493.8 805.1,493.8 810.5,493.8 815.9,493.8 821.3,493.8 826.6,493.8 832.0,493.8 837.4,493.8 842.8,493.8 848.1,493.8 853.5,493.8 858.9,493.8 864.3,493.8 869.6,493.8 875.0,493.8 880.4,493.8 885.8,493.8 891.2,493.8 896.5,493.8 901.9,493.8 907.3,493.8 912.7,493.8 918.0,493.8 923.4,493.8 928.8,493.8 934.2,493.8 939.5,493.8 944.9,493.8 950.3,493.8 955.7,493.8 961.1,493.8 966.4,493.8 971.8,493.8 977.2,493.8 982.6,493.8 987.9,493.8 993.3,493.8 998.7,493.8 1004.1,493.8 1009.4,493.8 1014.8,493.8 1020.2,493.8 1025.6,493.8 1031.0,493.8 1036.3,493.8 1041.7,493.8 1047.1,493.8 1052.5,493.8 1057.8,493.8 1063.2,493.8 1068.6,493.8 1074.0,493.8 1079.3,493.8 1084.7,493.8 1090.1,493.8 1095.5,493.8 1100.9,493.8 1106.2,493.8 1111.6,493.8 1117.0,493.8 1122.4,493.8 1127.7,493.8 1133.1,493.8 1138.5,493.8 1143.9,493.8 1149.2,493.8 1154.6,493.8 1160.0,493.8" /><polyline fill="none" stroke="#d62728" stroke-width="2.5" points="90.0,113.2 95.4,376.1 100.8,376.1 106.1,376.1 111.5,376.1 116.9,376.1 122.3,376.1 127.6,376.1 133.0,376.1 138.4,376.1 143.8,376.1 149.1,376.1 154.5,376.1 159.9,376.1 165.3,376.1 170.7,376.1 176.0,376.1 181.4,376.1 186.8,376.1 192.2,376.1 197.5,376.1 202.9,376.1 208.3,376.1 213.7,376.1 219.0,376.1 224.4,376.1 229.8,376.1 235.2,376.1 240.6,376.1 245.9,376.1 251.3,376.1 256.7,376.1 262.1,376.1 267.4,376.1 272.8,376.1 278.2,376.1 283.6,376.1 288.9,376.1 294.3,376.1 299.7,376.1 305.1,376.1 310.5,376.1 315.8,376.1 321.2,376.1 326.6,376.1 332.0,376.1 337.3,376.1 342.7,376.1 348.1,376.1 353.5,376.1 358.8,376.1 364.2,376.1 369.6,390.0 375.0,390.0 380.4,390.0 385.7,390.0 391.1,390.0 396.5,390.0 401.9,390.0 407.2,390.0 412.6,390.0 418.0,390.0 423.4,390.0 428.7,390.0 434.1,390.0 439.5,390.0 444.9,390.0 450.3,390.0 455.6,390.0 461.0,390.0 466.4,390.0 471.8,390.0 477.1,390.0 482.5,390.0 487.9,390.0 493.3,390.0 498.6,390.0 504.0,390.0 509.4,390.0 514.8,390.0 520.2,390.0 525.5,390.0 530.9,390.0 536.3,390.0 541.7,390.0 547.0,390.0 552.4,390.0 557.8,390.0 563.2,390.0 568.5,390.0 573.9,390.0 579.3,390.0 584.7,390.0 590.1,390.0 595.4,390.0 600.8,390.0 606.2,390.0 611.6,390.0 616.9,390.0 622.3,390.0 627.7,390.0 633.1,390.0 638.4,390.0 643.8,390.0 649.2,390.0 654.6,390.0 659.9,390.0 665.3,390.0 670.7,390.0 676.1,390.0 681.5,390.0 686.8,390.0 692.2,390.0 697.6,390.0 703.0,390.0 708.3,390.0 713.7,390.0 719.1,390.0 724.5,390.0 729.8,390.0 735.2,390.0 740.6,390.0 746.0,390.0 751.4,390.0 756.7,390.0 762.1,390.0 767.5,390.0 772.9,390.0 778.2,390.0 783.6,390.0 789.0,390.0 794.4,390.0 799.7,390.0 805.1,390.0 810.5,390.0 815.9,390.0 821.3,390.0 826.6,390.0 832.0,390.0 837.4,390.0 842.8,390.0 848.1,390.0 853.5,390.0 858.9,390.0 864.3,390.0 869.6,390.0 875.0,390.0 880.4,390.0 885.8,390.0 891.2,390.0 896.5,390.0 901.9,390.0 907.3,390.0 912.7,390.0 918.0,390.0 923.4,390.0 928.8,390.0 934.2,390.0 939.5,390.0 944.9,390.0 950.3,390.0 955.7,390.0 961.1,390.0 966.4,390.0 971.8,390.0 977.2,390.0 982.6,390.0 987.9,390.0 993.3,390.0 998.7,390.0 1004.1,390.0 1009.4,390.0 1014.8,390.0 1020.2,390.0 1025.6,390.0 1031.0,390.0 1036.3,390.0 1041.7,390.0 1047.1,390.0 1052.5,390.0 1057.8,390.0 1063.2,390.0 1068.6,390.0 1074.0,390.0 1079.3,390.0 1084.7,390.0 1090.1,390.0 1095.5,390.0 1100.9,390.0 1106.2,390.0 1111.6,390.0 1117.0,390.0 1122.4,390.0 1127.7,390.0 1133.1,390.0 1138.5,390.0 1143.9,390.0 1149.2,390.0 1154.6,390.0 1160.0,390.0" /><polyline fill="none" stroke="#2ca02c" stroke-width="2.5" points="90.0,113.2 95.4,376.1 100.8,376.1 106.1,376.1 111.5,376.1 116.9,376.1 122.3,376.1 127.6,376.1 133.0,376.1 138.4,376.1 143.8,376.1 149.1,376.1 154.5,376.1 159.9,376.1 165.3,376.1 170.7,376.1 176.0,376.1 181.4,376.1 186.8,376.1 192.2,376.1 197.5,376.1 202.9,376.1 208.3,376.1 213.7,376.1 219.0,376.1 224.4,376.1 229.8,376.1 235.2,376.1 240.6,376.1 245.9,376.1 251.3,376.1 256.7,376.1 262.1,376.1 267.4,376.1 272.8,376.1 278.2,376.1 283.6,376.1 288.9,376.1 294.3,376.1 299.7,390.0 305.1,390.0 310.5,390.0 315.8,390.0 321.2,390.0 326.6,390.0 332.0,390.0 337.3,390.0 342.7,390.0 348.1,390.0 353.5,390.0 358.8,390.0 364.2,390.0 369.6,390.0 375.0,390.0 380.4,390.0 385.7,390.0 391.1,390.0 396.5,390.0 401.9,390.0 407.2,390.0 412.6,390.0 418.0,390.0 423.4,390.0 428.7,390.0 434.1,390.0 439.5,390.0 444.9,390.0 450.3,390.0 455.6,390.0 461.0,417.7 466.4,438.4 471.8,438.4 477.1,438.4 482.5,438.4 487.9,438.4 493.3,438.4 498.6,438.4 504.0,438.4 509.4,438.4 514.8,438.4 520.2,438.4 525.5,438.4 530.9,438.4 536.3,438.4 541.7,438.4 547.0,438.4 552.4,438.4 557.8,438.4 563.2,438.4 568.5,438.4 573.9,438.4 579.3,438.4 584.7,438.4 590.1,438.4 595.4,438.4 600.8,438.4 606.2,438.4 611.6,438.4 616.9,438.4 622.3,438.4 627.7,438.4 633.1,493.8 638.4,500.7 643.8,528.4 649.2,528.4 654.6,528.4 659.9,576.8 665.3,576.8 670.7,576.8 676.1,576.8 681.5,576.8 686.8,576.8 692.2,576.8 697.6,576.8 703.0,576.8 708.3,576.8 713.7,576.8 719.1,576.8 724.5,576.8 729.8,576.8 735.2,576.8 740.6,576.8 746.0,576.8 751.4,576.8 756.7,576.8 762.1,576.8 767.5,576.8 772.9,576.8 778.2,576.8 783.6,576.8 789.0,576.8 794.4,576.8 799.7,576.8 805.1,576.8 810.5,576.8 815.9,576.8 821.3,576.8 826.6,576.8 832.0,576.8 837.4,576.8 842.8,576.8 848.1,576.8 853.5,576.8 858.9,576.8 864.3,576.8 869.6,576.8 875.0,576.8 880.4,576.8 885.8,576.8 891.2,576.8 896.5,576.8 901.9,576.8 907.3,576.8 912.7,576.8 918.0,576.8 923.4,576.8 928.8,576.8 934.2,576.8 939.5,576.8 944.9,576.8 950.3,576.8 955.7,576.8 961.1,576.8 966.4,576.8 971.8,576.8 977.2,576.8 982.6,576.8 987.9,576.8 993.3,576.8 998.7,576.8 1004.1,576.8 1009.4,576.8 1014.8,576.8 1020.2,576.8 1025.6,576.8 1031.0,576.8 1036.3,576.8 1041.7,576.8 1047.1,576.8 1052.5,576.8 1057.8,576.8 1063.2,576.8 1068.6,576.8 1074.0,576.8 1079.3,576.8 1084.7,576.8 1090.1,576.8 1095.5,576.8 1100.9,576.8 1106.2,576.8 1111.6,576.8 1117.0,576.8 1122.4,576.8 1127.7,576.8 1133.1,576.8 1138.5,576.8 1143.9,576.8 1149.2,576.8 1154.6,576.8 1160.0,576.8" />
  <text x="90.0" y="618.0" text-anchor="middle" font-family="Arial" font-size="11" fill="#555">0</text><text x="305.1" y="618.0" text-anchor="middle" font-family="Arial" font-size="11" fill="#555">428</text><text x="520.2" y="618.0" text-anchor="middle" font-family="Arial" font-size="11" fill="#555">857</text><text x="729.8" y="618.0" text-anchor="middle" font-family="Arial" font-size="11" fill="#555">1274</text><text x="944.9" y="618.0" text-anchor="middle" font-family="Arial" font-size="11" fill="#555">1703</text><text x="1160.0" y="618.0" text-anchor="middle" font-family="Arial" font-size="11" fill="#555">2132</text>
  <rect x="100" y="55" width="12" height="12" fill="#1f77b4" /><text x="118" y="65" font-family="Arial" font-size="12">adjacent</text><rect x="260" y="55" width="12" height="12" fill="#d62728" /><text x="278" y="65" font-family="Arial" font-size="12">n5</text><rect x="420" y="55" width="12" height="12" fill="#2ca02c" /><text x="438" y="65" font-family="Arial" font-size="12">n6</text>
  <text x="625.0" y="645.0" text-anchor="middle" font-family="Arial" font-size="14" font-weight="bold">Iteration</text>
  <text x="30.0" y="345.0" text-anchor="middle" font-family="Arial" font-size="14" font-weight="bold" transform="rotate(-90 30.0 345.0)">Makespan</text>
</svg>