<svg xmlns="http://www.w3.org/2000/svg" width="1200" height="700" viewBox="0 0 1200 700">
  <rect x="0" y="0" width="1200" height="700" fill="#ffffff" />
  <text x="600.0" y="32" text-anchor="middle" font-family="Arial" font-size="24" font-weight="bold">Neighborhood Makespan Comparison</text>
  <line x1="90.0" y1="600.0" x2="1160.0" y2="600.0" stroke="#e6e6e6" stroke-width="1" /><text x="82.0" y="604.0" text-anchor="end" font-family="Arial" font-size="11" fill="#555">2898</text><line x1="90.0" y1="472.5" x2="1160.0" y2="472.5" stroke="#e6e6e6" stroke-width="1" /><text x="82.0" y="476.5" text-anchor="end" font-family="Arial" font-size="11" fill="#555">3017</text><line x1="90.0" y1="345.0" x2="1160.0" y2="345.0" stroke="#e6e6e6" stroke-width="1" /><text x="82.0" y="349.0" text-anchor="end" font-family="Arial" font-size="11" fill="#555">3136</text><line x1="90.0" y1="217.5" x2="1160.0" y2="217.5" stroke="#e6e6e6" stroke-width="1" /><text x="82.0" y="221.5" text-anchor="end" font-family="Arial" font-size="11" fill="#555">3254</text><line x1="90.0" y1="90.0" x2="1160.0" y2="90.0" stroke="#e6e6e6" stroke-width="1" /><text x="82.0" y="94.0" text-anchor="end" font-family="Arial" font-size="11" fill="#555">3373</text>
  <line x1="90" y1="600" x2="1160" y2="600" stroke="#333" stroke-width="1.5" />
  <line x1="90" y1="90" x2="90" y2="600" stroke="#333" stroke-width="1.5" />
  <polyline fill="none" stroke="#1f77b4" stroke-width="2.5" points="90.0,113.2 95.4,211.1 100.8,281.0 106.1,293.9 111.5,293.9 116.9,293.9 122.3,293.9 127.6,293.9 133.0,301.4 138.4,301.4 143.8,301.4 149.1,301.4 154.5,315.4 159.9,324.0 165.3,324.0 170.7,324.0 176.0,334.8 181.4,338.0 186.8,353.1 192.2,366.0 197.5,366.0 202.9,366.0 208.3,366.0 213.7,366.0 219.0,366.0 224.4,375.7 229.8,375.7 235.2,376.7 240.6,386.4 245.9,386.4 251.3,401.5 256.7,412.2 262.1,412.2 267.4,412.2 272.8,412.2 278.2,412.2 283.6,412.2 288.9,412.2 294.3,420.8 299.7,420.8 305.1,420.8 310.5,420.8 315.8,420.8 321.2,420.8 326.6,420.8 332.0,420.8 337.3,420.8 342.7,420.8 348.1,420.8 353.5,420.8 358.8,420.8 364.2,440.2 369.6,440.2 375.0,440.2 380.4,440.2 385.7,453.1 391.1,453.1 396.5,453.1 401.9,474.6 407.2,474.6 412.6,485.4 418.0,501.5 423.4,526.3 428.7,526.3 434.1,526.3 439.5,526.3 444.9,532.7 450.3,537.0 455.6,538.1 461.0,552.1 466.4,552.1 471.8,552.1 477.1,552.1 482.5,554.2 487.9,554.2 493.3,554.2 498.6,554.2 504.0,554.2 509.4,554.2 514.8,554.2 520.2,554.2 525.5,554.2 530.9,554.2 536.3,554.2 541.7,554.2 547.0,554.2 552.4,554.2 557.8,554.2 563.2,554.2 568.5,554.2 573.9,554.2 579.3,554.2 584.7,554.2 590.1,554.2 595.4,554.2 600.8,574.7 606.2,574.7 611.6,574.7 616.9,574.7 622.3,574.7 627.7,574.7 633.1,574.7 638.4,574.7 643.8,574.7 649.2,574.7 654.6,574.7 659.9,576.8 665.3,576.8 670.7,576.8 676.1,576.8 681.5,576.8 686.8,576.8 692.2,576.8 697.6,576.8 703.0,576.8 708.3,576.8 713.7,576.8 719.1,576.8 724.5,576.8 729.8,576.8 735.2,576.8 740.6,576.8 746.0,576.8 751.4,576.8 756.7,576.8 762.1,576.8 767.5,576.8 772.9,576.8 778.2,576.8 783.6,576.8 789.0,576.8 794.4,576.8 799.7,576.8 805.1,576.8 810.5,576.8 815.9,576.8 821.3,576.8 826.6,576.8 832.0,576.8 837.4,576.8 842.8,576.8 848.1,576.8 853.5,576.8 858.9,576.8 864.3,576.8 869.6,576.8 875.0,576.8 880.4,576.8 885.8,576.8 891.2,576.8 896.5,576.8 901.9,576.8 907.3,576.8 912.7,576.8 918.0,576.8 923.4,576.8 928.8,576.8 934.2,576.8 939.5,576.8 944.9,576.8 950.3,576.8 955.7,576.8 961.1,576.8 966.4,576.8 971.8,576.8 977.2,576.8 982.6,576.8 987.9,576.8 993.3,576.8 998.7,576.8 1004.1,576.8 1009.4,576.8 1014.8,576.8 1020.2,576.8 1025.6,576.8 1031.0,576.8 1036.3,576.8 1041.7,576.8 1047.1,576.8 1052.5,576.8 1057.8,576.8 1063.2,576.8 1068.6,576.8 1074.0,576.8 1079.3,576.8 1084.7,576.8 1090.1,576.8 1095.5,576.8 1100.9,576.8 1106.2,576.8 1111.6,576.8 1117.0,576.8 1122.4,576.8 1127.7,576.8 1133.1,576.8 1138.5,576.8 1143.9,576.8 1149.2,576.8 1154.6,576.8 1160.0,576.8" /><polyline fill="none" stroke="#d62728" stroke-width="2.5" points="90.0,113.2 95.4,224.0 100.8,269.2 106.1,269.2 111.5,269.2 116.9,269.2 122.3,269.2 127.6,269.2 133.0,269.2 138.4,269.2 143.8,269.2 149.1,269.2 154.5,300.4 159.9,318.6 165.3,318.6 170.7,318.6 176.0,318.6 181.4,318.6 186.8,318.6 192.2,318.6 197.5,318.6 202.9,318.6 208.3,318.6 213.7,318.6 219.0,338.0 224.4,338.0 229.8,338.0 235.2,338.0 240.6,338.0 245.9,338.0 251.3,338.0 256.7,338.0 262.1,338.0 267.4,338.0 272.8,343.4 278.2,343.4 283.6,362.7 288.9,362.7 294.3,362.7 299.7,362.7 305.1,362.7 310.5,362.7 315.8,362.7 321.2,362.7 326.6,362.7 332.0,385.3 337.3,385.3 342.7,385.3 348.1,393.9 353.5,393.9 358.8,393.9 364.2,402.6 369.6,402.6 375.0,402.6 380.4,402.6 385.7,402.6 391.1,402.6 396.5,402.6 401.9,402.6 407.2,402.6 412.6,402.6 418.0,402.6 423.4,411.2 428.7,441.3 434.1,441.3 439.5,441.3 444.9,441.3 450.3,441.3 455.6,441.3 461.0,441.3 466.4,441.3 471.8,441.3 477.1,441.3 482.5,441.3 487.9,441.3 493.3,441.3 498.6,441.3 504.0,441.3 509.4,441.3 514.8,441.3 520.2,441.3 525.5,441.3 530.9,441.3 536.3,441.3 541.7,441.3 547.0,441.3 552.4,441.3 557.8,441.3 563.2,441.3 568.5,441.3 573.9,441.3 579.3,441.3 584.7,444.5 590.1,458.5 595.4,458.5 600.8,458.5 606.2,458.5 611.6,458.5 616.9,458.5 622.3,458.5 627.7,458.5 633.1,458.5 638.4,458.5 643.8,458.5 649.2,458.5 654.6,458.5 659.9,469.2 665.3,469.2 670.7,469.2 676.1,469.2 681.5,469.2 686.8,469.2 692.2,475.7 697.6,489.7 703.0,489.7 708.3,489.7 713.7,499.4 719.1,499.4 724.5,499.4 729.8,499.4 735.2,499.4 740.6,517.7 746.0,520.9 751.4,533.8 756.7,533.8 762.1,533.8 767.5,533.8 772.9,533.8 778.2,533.8 783.6,533.8 789.0,533.8 794.4,533.8 799.7,533.8 805.1,533.8 810.5,533.8 815.9,533.8 821.3,533.8 826.6,533.8 832.0,533.8 837.4,533.8 842.8,533.8 848.1,533.8 853.5,533.8 858.9,533.8 864.3,533.8 869.6,533.8 875.0,533.8 880.4,533.8 885.8,533.8 891.2,533.8 896.5,533.8 901.9,533.8 907.3,533.8 912.7,533.8 918.0,538.1 923.4,538.1 928.8,538.1 934.2,538.1 939.5,538.1 944.9,538.1 950.3,538.1 955.7,538.1 961.1,538.1 966.4,538.1 971.8,538.1 977.2,538.1 982.6,538.1 987.9,538.1 993.3,538.1 998.7,538.1 1004.1,538.1 1009.4,538.1 1014.8,538.1 1020.2,538.1 1025.6,538.1 1031.0,538.1 1036.3,538.1 1041.7,538.1 1047.1,538.1 1052.5,538.1 1057.8,538.1 1063.2,538.1 1068.6,538.1 1074.0,538.1 1079.3,538.1 1084.7,538.1 1090.1,538.1 1095.5,538.1 1100.9,538.1 1106.2,538.1 1111.6,540.2 1117.0,560.7 1122.4,560.7 1127.7,574.7 1133.1,574.7 1138.5,574.7 1143.9,574.7 1149.2,574.7 1154.6,574.7 1160.0,574.7" /><polyline fill="none" stroke="#2ca02c" stroke-width="2.5" points="90.0,113.2 95.4,272.4 100.8,293.9 106.1,329.4 111.5,334.8 116.9,334.8 122.3,334.8 127.6,334.8 133.0,334.8 138.4,334.8 143.8,334.8 149.1,334.8 154.5,334.8 159.9,334.8 165.3,334.8 170.7,334.8 176.0,334.8 181.4,334.8 186.8,334.8 192.2,334.8 197.5,334.8 202.9,334.8 208.3,334.8 213.7,334.8 219.0,334.8 224.4,334.8 229.8,334.8 235.2,334.8 240.6,334.8 245.9,334.8 251.3,334.8 256.7,334.8 262.1,334.8 267.4,334.8 272.8,334.8 278.2,334.8 283.6,334.8 288.9,334.8 294.3,359.5 299.7,359.5 305.1,359.5 310.5,359.5 315.8,373.5 321.2,373.5 326.6,386.4 332.0,386.4 337.3,386.4 342.7,386.4 348.1,386.4 353.5,386.4 358.8,386.4 364.2,386.4 369.6,386.4 375.0,386.4 380.4,386.4 385.7,386.4 391.1,386.4 396.5,386.4 401.9,386.4 407.2,386.4 412.6,386.4 418.0,386.4 423.4,386.4 428.7,386.4 434.1,386.4 439.5,399.3 444.9,402.6 450.3,402.6 455.6,402.6 461.0,402.6 466.4,402.6 471.8,402.6 477.1,402.6 482.5,402.6 487.9,402.6 493.3,402.6 498.6,402.6 504.0,402.6 509.4,402.6 514.8,405.8 520.2,406.9 525.5,406.9 530.9,406.9 536.3,406.9 541.7,406.9 547.0,406.9 552.4,406.9 557.8,406.9 563.2,406.9 568.5,406.9 573.9,406.9 579.3,406.9 584.7,406.9 590.1,413.3 595.4,418.7 600.8,418.7 606.2,418.7 611.6,421.9 616.9,421.9 622.3,421.9 627.7,428.4 633.1,428.4 638.4,428.4 643.8,428.4 649.2,428.4 654.6,428.4 659.9,435.9 665.3,435.9 670.7,435.9 676.1,435.9 681.5,435.9 686.8,435.9 692.2,435.9 697.6,441.3 703.0,441.3 708.3,441.3 713.7,451.0 719.1,459.6 724.5,459.6 729.8,459.6 735.2,459.6 740.6,468.2 746.0,468.2 751.4,468.2 756.7,468.2 762.1,468.2 767.5,468.2 772.9,468.2 778.2,468.2 783.6,468.2 789.0,468.2 794.4,468.2 799.7,468.2 805.1,468.2 810.5,468.2 815.9,468.2 821.3,468.2 826.6,468.2 832.0,468.2 837.4,468.2 842.8,468.2 848.1,468.2 853.5,468.2 858.9,468.2 864.3,468.2 869.6,468.2 875.0,468.2 880.4,468.2 885.8,468.2 891.2,468.2 896.5,468.2 901.9,468.2 907.3,468.2 912.7,468.2 918.0,468.2 923.4,468.2 928.8,468.2 934.2,468.2 939.5,468.2 944.9,468.2 950.3,468.2 955.7,468.2 961.1,468.2 966.4,468.2 971.8,468.2 977.2,468.2 982.6,468.2 987.9,468.2 993.3,468.2 998.7,468.2 1004.1,468.2 1009.4,468.2 1014.8,468.2 1020.2,468.2 1025.6,468.2 1031.0,468.2 1036.3,468.2 1041.7,468.2 1047.1,468.2 1052.5,468.2 1057.8,468.2 1063.2,468.2 1068.6,468.2 1074.0,468.2 1079.3,468.2 1084.7,468.2 1090.1,468.2 1095.5,468.2 1100.9,468.2 1106.2,468.2 1111.6,468.2 1117.0,468.2 1122.4,468.2 1127.7,468.2 1133.1,468.2 1138.5,468.2 1143.9,468.2 1149.2,468.2 1154.6,468.2 1160.0,468.2" />
  <text x="90.0" y="618.0" text-anchor="middle" font-family="Arial" font-size="11" fill="#555">0</text><text x="305.1" y="618.0" text-anchor="middle" font-family="Arial" font-size="11" fill="#555">1005</text><text x="520.2" y="618.0" text-anchor="middle" font-family="Arial" font-size="11" fill="#555">2010</text><text x="729.8" y="618.0" text-anchor="middle" font-family="Arial" font-size="11" fill="#555">2989</text><text x="944.9" y="618.0" text-anchor="middle" font-family="Arial" font-size="11" fill="#555">3994</text><text x="1160.0" y="618.0" text-anchor="middle" font-family="Arial" font-size="11" fill="#555">5000</text>
  <rect x="100" y="55" width="12" height="12" fill="#1f77b4" /><text x="118" y="65" font-family="Arial" font-size="12">adjacent</text><rect x="260" y="55" width="12" height="12" fill="#d62728" /><text x="278" y="65" font-family="Arial" font-size="12">n5</text><rect x="420" y="55" width="12" height="12" fill="#2ca02c" /><text x="438" y="65" font-family="Arial" font-size="12">n6</text>
  <text x="625.0" y="645.0" text-anchor="middle" font-family="Arial" font-size="14" font-weight="bold">Iteration</text>
  <text x="30.0" y="345.0" text-anchor="middle" font-family="Arial" font-size="14" font-weight="bold" transform="rotate(-90 30.0 345.0)">Makespan</text>
</svg>