<svg xmlns="http://www.w3.org/2000/svg" width="1200" height="700" viewBox="0 0 1200 700">
  <rect x="0" y="0" width="1200" height="700" fill="#ffffff" />
  <text x="600.0" y="32" text-anchor="middle" font-family="Arial" font-size="24" font-weight="bold">Neighborhood Makespan Comparison</text>
  <line x1="90.0" y1="600.0" x2="1160.0" y2="600.0" stroke="#e6e6e6" stroke-width="1" /><text x="82.0" y="604.0" text-anchor="end" font-family="Arial" font-size="11" fill="#555">2900</text><line x1="90.0" y1="472.5" x2="1160.0" y2="472.5" stroke="#e6e6e6" stroke-width="1" /><text x="82.0" y="476.5" text-anchor="end" font-family="Arial" font-size="11" fill="#555">3085</text><line x1="90.0" y1="345.0" x2="1160.0" y2="345.0" stroke="#e6e6e6" stroke-width="1" /><text x="82.0" y="349.0" text-anchor="end" font-family="Arial" font-size="11" fill="#555">3269</text><line x1="90.0" y1="217.5" x2="1160.0" y2="217.5" stroke="#e6e6e6" stroke-width="1" /><text x="82.0" y="221.5" text-anchor="end" font-family="Arial" font-size="11" fill="#555">3453</text><line x1="90.0" y1="90.0" x2="1160.0" y2="90.0" stroke="#e6e6e6" stroke-width="1" /><text x="82.0" y="94.0" text-anchor="end" font-family="Arial" font-size="11" fill="#555">3638</text>
  <line x1="90" y1="600" x2="1160" y2="600" stroke="#333" stroke-width="1.5" />
  <line x1="90" y1="90" x2="90" y2="600" stroke="#333" stroke-width="1.5" />
  <polyline fill="none" stroke="#1f77b4" stroke-width="2.5" points="90.0,113.2 95.4,238.4 100.8,300.0 106.1,340.2 111.5,372.0 116.9,378.2 122.3,378.2 127.6,384.4 133.0,400.4 138.4,417.7 143.8,423.9 149.1,423.9 154.5,423.9 159.9,423.9 165.3,423.9 170.7,423.9 176.0,424.6 181.4,426.0 186.8,449.5 192.2,449.5 197.5,449.5 202.9,458.5 208.3,468.2 213.7,476.5 219.0,486.9 224.4,486.9 229.8,486.9 235.2,486.9 240.6,486.9 245.9,486.9 251.3,486.9 256.7,486.9 262.1,486.9 267.4,486.9 272.8,486.9 278.2,493.8 283.6,493.8 288.9,493.8 294.3,493.8 299.7,494.5 305.1,498.6 310.5,498.6 315.8,498.6 321.2,498.6 326.6,498.6 332.0,498.6 337.3,498.6 342.7,498.6 348.1,498.6 353.5,498.6 358.8,498.6 364.2,498.6 369.6,498.6 375.0,498.6 380.4,504.9 385.7,504.9 391.1,504.9 396.5,504.9 401.9,514.5 407.2,520.1 412.6,539.5 418.0,539.5 423.4,539.5 428.7,539.5 434.1,539.5 439.5,539.5 444.9,539.5 450.3,539.5 455.6,539.5 461.0,539.5 466.4,539.5 471.8,539.5 477.1,539.5 482.5,549.8 487.9,551.9 493.3,551.9 498.6,551.9 504.0,551.9 509.4,551.9 514.8,551.9 520.2,560.2 525.5,561.6 530.9,561.6 536.3,561.6 541.7,561.6 547.0,561.6 552.4,561.6 557.8,561.6 563.2,561.6 568.5,561.6 573.9,561.6 579.3,561.6 584.7,561.6 590.1,561.6 595.4,561.6 600.8,561.6 606.2,567.8 611.6,567.8 616.9,567.8 622.3,567.8 627.7,567.8 633.1,567.8 638.4,567.8 643.8,567.8 649.2,567.8 654.6,567.8 659.9,567.8 665.3,567.8 670.7,567.8 676.1,567.8 681.5,567.8 686.8,567.8 692.2,567.8 697.6,567.8 703.0,567.8 708.3,567.8 713.7,567.8 719.1,567.8 724.5,567.8 729.8,567.8 735.2,567.8 740.6,567.8 746.0,567.8 751.4,567.8 756.7,567.8 762.1,567.8 767.5,567.8 772.9,567.8 778.2,567.8 783.6,567.8 789.0,567.8 794.4,567.8 799.7,567.8 805.1,567.8 810.5,567.8 815.9,567.8 821.3,567.8 826.6,567.8 832.0,567.8 837.4,567.8 842.8,567.8 848.1,567.8 853.5,567.8 858.9,567.8 864.3,567.8 869.6,567.8 875.0,567.8 880.4,567.8 885.8,567.8 891.2,567.8 896.5,567.8 901.9,567.8 907.3,567.8 912.7,567.8 918.0,567.8 923.4,567.8 928.8,567.8 934.2,567.8 939.5,567.8 944.9,567.8 950.3,567.8 955.7,567.8 961.1,571.3 966.4,571.3 971.8,571.3 977.2,571.3 982.6,571.3 987.9,571.3 993.3,572.7 998.7,572.7 1004.1,576.8 1009.4,576.8 1014.8,576.8 1020.2,576.8 1025.6,576.8 1031.0,576.8 1036.3,576.8 1041.7,576.8 1047.1,576.8 1052.5,576.8 1057.8,576.8 1063.2,576.8 1068.6,576.8 1074.0,576.8 1079.3,576.8 1084.7,576.8 1090.1,576.8 1095.5,576.8 1100.9,576.8 1106.2,576.8 1111.6,576.8 1117.0,576.8 1122.4,576.8 1127.7,576.8 1133.1,576.8 1138.5,576.8 1143.9,576.8 1149.2,576.8 1154.6,576.8 1160.0,576.8" /><polyline fill="none" stroke="#d62728" stroke-width="2.5" points="90.0,113.2 95.4,237.0 100.8,248.8 106.1,309.7 111.5,365.1 116.9,381.0 122.3,381.0 127.6,395.5 133.0,423.9 138.4,423.9 143.8,423.9 149.1,424.6 154.5,424.6 159.9,432.2 165.3,432.2 170.7,432.2 176.0,432.2 181.4,438.4 186.8,438.4 192.2,443.3 197.5,449.5 202.9,449.5 208.3,449.5 213.7,449.5 219.0,449.5 224.4,449.5 229.8,451.6 235.2,459.2 240.6,461.3 245.9,461.3 251.3,461.3 256.7,461.3 262.1,461.3 267.4,461.3 272.8,461.3 278.2,461.3 283.6,461.3 288.9,461.3 294.3,461.3 299.7,477.9 305.1,483.4 310.5,483.4 315.8,492.4 321.2,492.4 326.6,492.4 332.0,492.4 337.3,492.4 342.7,492.4 348.1,492.4 353.5,492.4 358.8,492.4 364.2,492.4 369.6,492.4 375.0,492.4 380.4,492.4 385.7,492.4 391.1,492.4 396.5,492.4 401.9,492.4 407.2,492.4 412.6,492.4 418.0,492.4 423.4,492.4 428.7,492.4 434.1,492.4 439.5,492.4 444.9,492.4 450.3,492.4 455.6,492.4 461.0,492.4 466.4,492.4 471.8,492.4 477.1,492.4 482.5,492.4 487.9,492.4 493.3,492.4 498.6,492.4 504.0,492.4 509.4,492.4 514.8,492.4 520.2,492.4 525.5,492.4 530.9,492.4 536.3,492.4 541.7,492.4 547.0,492.4 552.4,492.4 557.8,492.4 563.2,492.4 568.5,492.4 573.9,511.8 579.3,511.8 584.7,511.8 590.1,511.8 595.4,511.8 600.8,511.8 606.2,511.8 611.6,511.8 616.9,511.8 622.3,511.8 627.7,511.8 633.1,511.8 638.4,511.8 643.8,511.8 649.2,511.8 654.6,511.8 659.9,511.8 665.3,511.8 670.7,511.8 676.1,511.8 681.5,511.8 686.8,511.8 692.2,511.8 697.6,511.8 703.0,511.8 708.3,511.8 713.7,511.8 719.1,511.8 724.5,511.8 729.8,511.8 735.2,511.8 740.6,511.8 746.0,511.8 751.4,511.8 756.7,511.8 762.1,511.8 767.5,511.8 772.9,511.8 778.2,511.8 783.6,511.8 789.0,511.8 794.4,511.8 799.7,511.8 805.1,511.8 810.5,511.8 815.9,517.3 821.3,517.3 826.6,517.3 832.0,517.3 837.4,517.3 842.8,517.3 848.1,517.3 853.5,517.3 858.9,517.3 864.3,517.3 869.6,517.3 875.0,517.3 880.4,517.3 885.8,517.3 891.2,517.3 896.5,517.3 901.9,517.3 907.3,517.3 912.7,517.3 918.0,517.3 923.4,517.3 928.8,517.3 934.2,517.3 939.5,517.3 944.9,517.3 950.3,517.3 955.7,517.3 961.1,517.3 966.4,517.3 971.8,517.3 977.2,517.3 982.6,517.3 987.9,517.3 993.3,517.3 998.7,517.3 1004.1,517.3 1009.4,517.3 1014.8,517.3 1020.2,517.3 1025.6,517.3 1031.0,517.3 1036.3,517.3 1041.7,517.3 1047.1,517.3 1052.5,517.3 1057.8,517.3 1063.2,517.3 1068.6,517.3 1074.0,517.3 1079.3,517.3 1084.7,517.3 1090.1,517.3 1095.5,517.3 1100.9,517.3 1106.2,517.3 1111.6,517.3 1117.0,517.3 1122.4,517.3 1127.7,517.3 1133.1,517.3 1138.5,517.3 1143.9,517.3 1149.2,517.3 1154.6,517.3 1160.0,517.3" /><polyline fill="none" stroke="#2ca02c" stroke-width="2.5" points="90.0,113.2 95.4,261.3 100.8,316.6 106.1,351.2 111.5,397.6 116.9,421.1 122.3,421.1 127.6,421.1 133.0,421.1 138.4,421.1 143.8,421.1 149.1,422.5 154.5,435.0 159.9,436.3 165.3,436.3 170.7,445.3 176.0,445.3 181.4,445.3 186.8,445.3 192.2,445.3 197.5,445.3 202.9,445.3 208.3,445.3 213.7,445.3 219.0,445.3 224.4,448.8 229.8,448.8 235.2,448.8 240.6,448.8 245.9,448.8 251.3,448.8 256.7,468.2 262.1,475.8 267.4,475.8 272.8,475.8 278.2,475.8 283.6,475.8 288.9,475.8 294.3,477.9 299.7,477.9 305.1,477.9 310.5,477.9 315.8,477.9 321.2,477.9 326.6,477.9 332.0,477.9 337.3,477.9 342.7,478.6 348.1,478.6 353.5,478.6 358.8,478.6 364.2,478.6 369.6,478.6 375.0,478.6 380.4,483.4 385.7,483.4 391.1,483.4 396.5,483.4 401.9,483.4 407.2,483.4 412.6,483.4 418.0,483.4 423.4,483.4 428.7,483.4 434.1,483.4 439.5,490.3 444.9,490.3 450.3,490.3 455.6,490.3 461.0,490.3 466.4,490.3 471.8,490.3 477.1,490.3 482.5,490.3 487.9,490.3 493.3,490.3 498.6,490.3 504.0,490.3 509.4,490.3 514.8,490.3 520.2,490.3 525.5,490.3 530.9,490.3 536.3,490.3 541.7,490.3 547.0,490.3 552.4,490.3 557.8,490.3 563.2,494.5 568.5,494.5 573.9,494.5 579.3,494.5 584.7,494.5 590.1,494.5 595.4,494.5 600.8,496.5 606.2,496.5 611.6,496.5 616.9,496.5 622.3,496.5 627.7,496.5 633.1,496.5 638.4,496.5 643.8,508.3 649.2,508.3 654.6,508.3 659.9,508.3 665.3,508.3 670.7,508.3 676.1,508.3 681.5,508.3 686.8,515.2 692.2,515.2 697.6,515.2 703.0,515.2 708.3,515.2 713.7,515.2 719.1,515.2 724.5,515.2 729.8,520.8 735.2,520.8 740.6,520.8 746.0,520.8 751.4,520.8 756.7,520.8 762.1,527.7 767.5,533.9 772.9,533.9 778.2,533.9 783.6,533.9 789.0,533.9 794.4,533.9 799.7,533.9 805.1,533.9 810.5,533.9 815.9,533.9 821.3,533.9 826.6,533.9 832.0,533.9 837.4,533.9 842.8,533.9 848.1,533.9 853.5,533.9 858.9,533.9 864.3,533.9 869.6,533.9 875.0,533.9 880.4,533.9 885.8,533.9 891.2,533.9 896.5,533.9 901.9,533.9 907.3,533.9 912.7,533.9 918.0,533.9 923.4,533.9 928.8,533.9 934.2,533.9 939.5,533.9 944.9,533.9 950.3,533.9 955.7,533.9 961.1,533.9 966.4,533.9 971.8,533.9 977.2,533.9 982.6,533.9 987.9,533.9 993.3,533.9 998.7,533.9 1004.1,533.9 1009.4,533.9 1014.8,533.9 1020.2,533.9 1025.6,533.9 1031.0,533.9 1036.3,533.9 1041.7,533.9 1047.1,533.9 1052.5,533.9 1057.8,533.9 1063.2,538.1 1068.6,545.7 1074.0,547.8 1079.3,547.8 1084.7,547.8 1090.1,547.8 1095.5,547.8 1100.9,547.8 1106.2,547.8 1111.6,547.8 1117.0,547.8 1122.4,547.8 1127.7,547.8 1133.1,547.8 1138.5,547.8 1143.9,547.8 1149.2,547.8 1154.6,547.8 1160.0,547.8" />
  <text x="90.0" y="618.0" text-anchor="middle" font-family="Arial" font-size="11" fill="#555">0</text><text x="305.1" y="618.0" text-anchor="middle" font-family="Arial" font-size="11" fill="#555">2010</text><text x="520.2" y="618.0" text-anchor="middle" font-family="Arial" font-size="11" fill="#555">4020</text><text x="729.8" y="618.0" text-anchor="middle" font-family="Arial" font-size="11" fill="#555">5979</text><text x="944.9" y="618.0" text-anchor="middle" font-family="Arial" font-size="11" fill="#555">7989</text><text x="1160.0" y="618.0" text-anchor="middle" font-family="Arial" font-size="11" fill="#555">10000</text>
  <rect x="100" y="55" width="12" height="12" fill="#1f77b4" /><text x="118" y="65" font-family="Arial" font-size="12">adjacent</text><rect x="260" y="55" width="12" height="12" fill="#d62728" /><text x="278" y="65" font-family="Arial" font-size="12">n5</text><rect x="420" y="55" width="12" height="12" fill="#2ca02c" /><text x="438" y="65" font-family="Arial" font-size="12">n6</text>
  <text x="625.0" y="645.0" text-anchor="middle" font-family="Arial" font-size="14" font-weight="bold">Iteration</text>
  <text x="30.0" y="345.0" text-anchor="middle" font-family="Arial" font-size="14" font-weight="bold" transform="rotate(-90 30.0 345.0)">Makespan</text>
</svg>