<svg xmlns="http://www.w3.org/2000/svg" width="1200" height="700" viewBox="0 0 1200 700">
  <rect x="0" y="0" width="1200" height="700" fill="#ffffff" />
  <text x="600.0" y="32" text-anchor="middle" font-family="Arial" font-size="24" font-weight="bold">Neighborhood Comparison - Instance 4_2</text>
  <line x1="90.0" y1="600.0" x2="1160.0" y2="600.0" stroke="#e6e6e6" stroke-width="1" /><text x="82.0" y="604.0" text-anchor="end" font-family="Arial" font-size="11" fill="#555">880</text><line x1="90.0" y1="472.5" x2="1160.0" y2="472.5" stroke="#e6e6e6" stroke-width="1" /><text x="82.0" y="476.5" text-anchor="end" font-family="Arial" font-size="11" fill="#555">900</text><line x1="90.0" y1="345.0" x2="1160.0" y2="345.0" stroke="#e6e6e6" stroke-width="1" /><text x="82.0" y="349.0" text-anchor="end" font-family="Arial" font-size="11" fill="#555">920</text><line x1="90.0" y1="217.5" x2="1160.0" y2="217.5" stroke="#e6e6e6" stroke-width="1" /><text x="82.0" y="221.5" text-anchor="end" font-family="Arial" font-size="11" fill="#555">940</text><line x1="90.0" y1="90.0" x2="1160.0" y2="90.0" stroke="#e6e6e6" stroke-width="1" /><text x="82.0" y="94.0" text-anchor="end" font-family="Arial" font-size="11" fill="#555">960</text>
  <line x1="90" y1="600" x2="1160" y2="600" stroke="#333" stroke-width="1.5" />
  <line x1="90" y1="90" x2="90" y2="600" stroke="#333" stroke-width="1.5" />
  <polyline fill="none" stroke="#1f77b4" stroke-width="2.5" points="90.0,109.1 95.4,109.1 100.8,109.1 106.1,109.1 111.5,109.1 116.9,109.1 122.3,109.1 127.6,109.1 133.0,109.1 138.4,109.1 143.8,109.1 149.1,109.1 154.5,109.1 159.9,109.1 165.3,109.1 170.7,109.1 176.0,109.1 181.4,109.1 186.8,109.1 192.2,109.1 197.5,153.8 202.9,230.2 208.3,230.2 213.7,230.2 219.0,230.2 224.4,230.2 229.8,230.2 235.2,230.2 240.6,230.2 245.9,230.2 251.3,230.2 256.7,300.4 262.1,313.1 267.4,313.1 272.8,313.1 278.2,313.1 283.6,313.1 288.9,313.1 294.3,313.1 299.7,313.1 305.1,313.1 310.5,313.1 315.8,313.1 321.2,313.1 326.6,313.1 332.0,313.1 337.3,313.1 342.7,313.1 348.1,313.1 353.5,313.1 358.8,313.1 364.2,313.1 369.6,313.1 375.0,313.1 380.4,313.1 385.7,313.1 391.1,313.1 396.5,313.1 401.9,313.1 407.2,313.1 412.6,313.1 418.0,313.1 423.4,313.1 428.7,313.1 434.1,313.1 439.5,313.1 444.9,383.2 450.3,383.2 455.6,383.2 461.0,383.2 466.4,383.2 471.8,383.2 477.1,383.2 482.5,383.2 487.9,383.2 493.3,383.2 498.6,383.2 504.0,383.2 509.4,383.2 514.8,383.2 520.2,383.2 525.5,383.2 530.9,383.2 536.3,383.2 541.7,383.2 547.0,383.2 552.4,383.2 557.8,383.2 563.2,383.2 568.5,383.2 573.9,383.2 579.3,383.2 584.7,383.2 590.1,383.2 595.4,383.2 600.8,383.2 606.2,383.2 611.6,383.2 616.9,383.2 622.3,383.2 627.7,383.2 633.1,383.2 638.4,383.2 643.8,383.2 649.2,383.2 654.6,383.2 659.9,383.2 665.3,383.2 670.7,383.2 676.1,383.2 681.5,383.2 686.8,383.2 692.2,383.2 697.6,593.6 703.0,593.6 708.3,593.6 713.7,593.6 719.1,593.6 724.5,593.6 729.8,593.6 735.2,593.6 740.6,593.6 746.0,593.6 751.4,593.6 756.7,593.6 762.1,593.6 767.5,593.6 772.9,593.6 778.2,593.6 783.6,593.6 789.0,593.6 794.4,593.6 799.7,593.6 805.1,593.6 810.5,593.6 815.9,593.6 821.3,593.6 826.6,593.6 832.0,593.6 837.4,593.6 842.8,593.6 848.1,593.6 853.5,593.6 858.9,593.6 864.3,593.6 869.6,593.6 875.0,593.6 880.4,593.6 885.8,593.6 891.2,593.6 896.5,593.6 901.9,593.6 907.3,593.6 912.7,593.6 918.0,593.6 923.4,593.6 928.8,593.6 934.2,593.6 939.5,593.6 944.9,593.6 950.3,593.6 955.7,593.6 961.1,593.6 966.4,593.6 971.8,593.6 977.2,593.6 982.6,593.6 987.9,593.6 993.3,593.6 998.7,593.6 1004.1,593.6 1009.4,593.6 1014.8,593.6 1020.2,593.6 1025.6,593.6 1031.0,593.6 1036.3,593.6 1041.7,593.6 1047.1,593.6 1052.5,593.6 1057.8,593.6 1063.2,593.6 1068.6,593.6 1074.0,593.6 1079.3,593.6 1084.7,593.6 1090.1,593.6 1095.5,593.6 1100.9,593.6 1106.2,593.6 1111.6,593.6 1117.0,593.6 1122.4,593.6 1127.7,593.6 1133.1,593.6 1138.5,593.6 1143.9,593.6 1149.2,593.6 1154.6,593.6 1160.0,593.6" /><polyline fill="none" stroke="#d62728" stroke-width="2.5" points="90.0,109.1 95.4,109.1 100.8,109.1 106.1,109.1 111.5,109.1 116.9,141.0 122.3,141.0 127.6,141.0 133.0,141.0 138.4,141.0 143.8,141.0 149.1,141.0 154.5,141.0 159.9,141.0 165.3,141.0 170.7,141.0 176.0,141.0 181.4,211.1 186.8,211.1 192.2,211.1 197.5,211.1 202.9,211.1 208.3,211.1 213.7,211.1 219.0,211.1 224.4,211.1 229.8,211.1 235.2,211.1 240.6,211.1 245.9,211.1 251.3,211.1 256.7,211.1 262.1,211.1 267.4,211.1 272.8,211.1 278.2,211.1 283.6,211.1 288.9,211.1 294.3,211.1 299.7,211.1 305.1,211.1 310.5,211.1 315.8,211.1 321.2,211.1 326.6,211.1 332.0,211.1 337.3,211.1 342.7,211.1 348.1,211.1 353.5,223.9 358.8,223.9 364.2,223.9 369.6,223.9 375.0,223.9 380.4,223.9 385.7,223.9 391.1,223.9 396.5,223.9 401.9,223.9 407.2,223.9 412.6,223.9 418.0,223.9 423.4,223.9 428.7,223.9 434.1,223.9 439.5,223.9 444.9,223.9 450.3,223.9 455.6,223.9 461.0,223.9 466.4,230.2 471.8,230.2 477.1,230.2 482.5,230.2 487.9,230.2 493.3,230.2 498.6,230.2 504.0,268.5 509.4,268.5 514.8,268.5 520.2,268.5 525.5,268.5 530.9,268.5 536.3,268.5 541.7,268.5 547.0,268.5 552.4,268.5 557.8,268.5 563.2,351.4 568.5,351.4 573.9,351.4 579.3,351.4 584.7,351.4 590.1,351.4 595.4,351.4 600.8,351.4 606.2,351.4 611.6,351.4 616.9,351.4 622.3,351.4 627.7,351.4 633.1,351.4 638.4,351.4 643.8,351.4 649.2,351.4 654.6,351.4 659.9,351.4 665.3,351.4 670.7,351.4 676.1,351.4 681.5,351.4 686.8,351.4 692.2,351.4 697.6,351.4 703.0,351.4 708.3,351.4 713.7,351.4 719.1,351.4 724.5,351.4 729.8,351.4 735.2,351.4 740.6,351.4 746.0,351.4 751.4,351.4 756.7,351.4 762.1,466.1 767.5,466.1 772.9,466.1 778.2,466.1 783.6,466.1 789.0,466.1 794.4,466.1 799.7,466.1 805.1,466.1 810.5,466.1 815.9,466.1 821.3,466.1 826.6,466.1 832.0,466.1 837.4,466.1 842.8,466.1 848.1,466.1 853.5,466.1 858.9,466.1 864.3,466.1 869.6,466.1 875.0,466.1 880.4,466.1 885.8,466.1 891.2,466.1 896.5,466.1 901.9,466.1 907.3,466.1 912.7,466.1 918.0,466.1 923.4,466.1 928.8,466.1 934.2,466.1 939.5,466.1 944.9,466.1 950.3,466.1 955.7,466.1 961.1,466.1 966.4,466.1 971.8,466.1 977.2,466.1 982.6,466.1 987.9,466.1 993.3,466.1 998.7,466.1 1004.1,466.1 1009.4,466.1 1014.8,466.1 1020.2,466.1 1025.6,466.1 1031.0,466.1 1036.3,466.1 1041.7,466.1 1047.1,466.1 1052.5,466.1 1057.8,466.1 1063.2,466.1 1068.6,466.1 1074.0,466.1 1079.3,466.1 1084.7,466.1 1090.1,466.1 1095.5,466.1 1100.9,466.1 1106.2,466.1 1111.6,466.1 1117.0,466.1 1122.4,466.1 1127.7,466.1 1133.1,466.1 1138.5,466.1 1143.9,466.1 1149.2,466.1 1154.6,466.1 1160.0,466.1" /><polyline fill="none" stroke="#2ca02c" stroke-width="2.5" points="90.0,109.1 95.4,109.1 100.8,109.1 106.1,109.1 111.5,109.1 116.9,109.1 122.3,109.1 127.6,109.1 133.0,109.1 138.4,109.1 143.8,109.1 149.1,109.1 154.5,109.1 159.9,109.1 165.3,109.1 170.7,109.1 176.0,109.1 181.4,109.1 186.8,109.1 192.2,109.1 197.5,109.1 202.9,109.1 208.3,364.1 213.7,364.1 219.0,364.1 224.4,364.1 229.8,364.1 235.2,364.1 240.6,364.1 245.9,364.1 251.3,364.1 256.7,364.1 262.1,364.1 267.4,364.1 272.8,364.1 278.2,364.1 283.6,364.1 288.9,364.1 294.3,364.1 299.7,364.1 305.1,364.1 310.5,364.1 315.8,364.1 321.2,364.1 326.6,364.1 332.0,364.1 337.3,364.1 342.7,447.0 348.1,466.1 353.5,466.1 358.8,466.1 364.2,466.1 369.6,466.1 375.0,466.1 380.4,466.1 385.7,466.1 391.1,466.1 396.5,466.1 401.9,466.1 407.2,466.1 412.6,466.1 418.0,466.1 423.4,466.1 428.7,466.1 434.1,466.1 439.5,466.1 444.9,466.1 450.3,466.1 455.6,466.1 461.0,466.1 466.4,466.1 471.8,466.1 477.1,466.1 482.5,466.1 487.9,466.1 493.3,466.1 498.6,466.1 504.0,466.1 509.4,466.1 514.8,466.1 520.2,466.1 525.5,466.1 530.9,466.1 536.3,466.1 541.7,466.1 547.0,466.1 552.4,466.1 557.8,466.1 563.2,466.1 568.5,466.1 573.9,466.1 579.3,466.1 584.7,466.1 590.1,466.1 595.4,466.1 600.8,466.1 606.2,466.1 611.6,466.1 616.9,466.1 622.3,466.1 627.7,466.1 633.1,466.1 638.4,466.1 643.8,466.1 649.2,466.1 654.6,466.1 659.9,466.1 665.3,466.1 670.7,466.1 676.1,466.1 681.5,466.1 686.8,466.1 692.2,466.1 697.6,466.1 703.0,466.1 708.3,466.1 713.7,466.1 719.1,466.1 724.5,466.1 729.8,466.1 735.2,466.1 740.6,466.1 746.0,466.1 751.4,466.1 756.7,466.1 762.1,466.1 767.5,466.1 772.9,466.1 778.2,466.1 783.6,466.1 789.0,466.1 794.4,466.1 799.7,466.1 805.1,466.1 810.5,466.1 815.9,466.1 821.3,466.1 826.6,466.1 832.0,466.1 837.4,466.1 842.8,466.1 848.1,466.1 853.5,466.1 858.9,466.1 864.3,466.1 869.6,466.1 875.0,466.1 880.4,466.1 885.8,466.1 891.2,466.1 896.5,466.1 901.9,466.1 907.3,466.1 912.7,466.1 918.0,466.1 923.4,466.1 928.8,466.1 934.2,466.1 939.5,466.1 944.9,466.1 950.3,466.1 955.7,466.1 961.1,466.1 966.4,466.1 971.8,466.1 977.2,466.1 982.6,466.1 987.9,466.1 993.3,466.1 998.7,466.1 1004.1,466.1 1009.4,466.1 1014.8,466.1 1020.2,466.1 1025.6,466.1 1031.0,466.1 1036.3,466.1 1041.7,466.1 1047.1,466.1 1052.5,466.1 1057.8,466.1 1063.2,466.1 1068.6,466.1 1074.0,466.1 1079.3,466.1 1084.7,466.1 1090.1,466.1 1095.5,466.1 1100.9,466.1 1106.2,466.1 1111.6,466.1 1117.0,466.1 1122.4,466.1 1127.7,466.1 1133.1,466.1 1138.5,466.1 1143.9,466.1 1149.2,466.1 1154.6,466.1 1160.0,466.1" />
  <text x="90.0" y="618.0" text-anchor="middle" font-family="Arial" font-size="11" fill="#555">0</text><text x="268.3" y="618.0" text-anchor="middle" font-family="Arial" font-size="11" fill="#555">500</text><text x="446.7" y="618.0" text-anchor="middle" font-family="Arial" font-size="11" fill="#555">1000</text><text x="625.0" y="618.0" text-anchor="middle" font-family="Arial" font-size="11" fill="#555">1500</text><text x="803.3" y="618.0" text-anchor="middle" font-family="Arial" font-size="11" fill="#555">2000</text><text x="981.7" y="618.0" text-anchor="middle" font-family="Arial" font-size="11" fill="#555">2500</text><text x="1160.0" y="618.0" text-anchor="middle" font-family="Arial" font-size="11" fill="#555">3000</text>
  <rect x="100" y="55" width="12" height="12" fill="#1f77b4" /><text x="118" y="65" font-family="Arial" font-size="12">adjacent</text><rect x="260" y="55" width="12" height="12" fill="#d62728" /><text x="278" y="65" font-family="Arial" font-size="12">n5</text><rect x="420" y="55" width="12" height="12" fill="#2ca02c" /><text x="438" y="65" font-family="Arial" font-size="12">n6</text>
  <text x="625.0" y="645.0" text-anchor="middle" font-family="Arial" font-size="14" font-weight="bold">Iteration</text>
  <text x="30.0" y="345.0" text-anchor="middle" font-family="Arial" font-size="14" font-weight="bold" transform="rotate(-90 30.0 345.0)">Makespan</text>
</svg>