<svg xmlns="http://www.w3.org/2000/svg" width="1200" height="700" viewBox="0 0 1200 700">
  <rect x="0" y="0" width="1200" height="700" fill="#ffffff" />
  <text x="600.0" y="32" text-anchor="middle" font-family="Arial" font-size="24" font-weight="bold">Neighborhood Makespan Comparison</text>
  <line x1="90.0" y1="600.0" x2="1160.0" y2="600.0" stroke="#e6e6e6" stroke-width="1" /><text x="82.0" y="604.0" text-anchor="end" font-family="Arial" font-size="11" fill="#555">3239</text><line x1="90.0" y1="472.5" x2="1160.0" y2="472.5" stroke="#e6e6e6" stroke-width="1" /><text x="82.0" y="476.5" text-anchor="end" font-family="Arial" font-size="11" fill="#555">3315</text><line x1="90.0" y1="345.0" x2="1160.0" y2="345.0" stroke="#e6e6e6" stroke-width="1" /><text x="82.0" y="349.0" text-anchor="end" font-family="Arial" font-size="11" fill="#555">3392</text><line x1="90.0" y1="217.5" x2="1160.0" y2="217.5" stroke="#e6e6e6" stroke-width="1" /><text x="82.0" y="221.5" text-anchor="end" font-family="Arial" font-size="11" fill="#555">3468</text><line x1="90.0" y1="90.0" x2="1160.0" y2="90.0" stroke="#e6e6e6" stroke-width="1" /><text x="82.0" y="94.0" text-anchor="end" font-family="Arial" font-size="11" fill="#555">3544</text>
  <line x1="90" y1="600" x2="1160" y2="600" stroke="#333" stroke-width="1.5" />
  <line x1="90" y1="90" x2="90" y2="600" stroke="#333" stroke-width="1.5" />
  <polyline fill="none" stroke="#1f77b4" stroke-width="2.5" points="90.0,113.2 95.4,141.6 100.8,141.6 106.1,160.0 111.5,208.6 116.9,208.6 122.3,245.4 127.6,247.1 133.0,247.1 138.4,247.1 143.8,247.1 149.1,255.5 154.5,255.5 159.9,255.5 165.3,283.9 170.7,283.9 176.0,283.9 181.4,283.9 186.8,283.9 192.2,283.9 197.5,283.9 202.9,283.9 208.3,283.9 213.7,283.9 219.0,283.9 224.4,283.9 229.8,283.9 235.2,309.0 240.6,309.0 245.9,355.9 251.3,374.3 256.7,381.0 262.1,381.0 267.4,411.1 272.8,411.1 278.2,411.1 283.6,411.1 288.9,411.1 294.3,411.1 299.7,411.1 305.1,411.1 310.5,411.1 315.8,411.1 321.2,411.1 326.6,411.1 332.0,411.1 337.3,411.1 342.7,411.1 348.1,414.5 353.5,422.8 358.8,422.8 364.2,422.8 369.6,422.8 375.0,422.8 380.4,427.9 385.7,427.9 391.1,432.9 396.5,432.9 401.9,432.9 407.2,436.2 412.6,436.2 418.0,436.2 423.4,436.2 428.7,436.2 434.1,436.2 439.5,436.2 444.9,436.2 450.3,436.2 455.6,456.3 461.0,466.3 466.4,466.3 471.8,466.3 477.1,466.3 482.5,466.3 487.9,466.3 493.3,466.3 498.6,473.0 504.0,479.7 509.4,479.7 514.8,493.1 520.2,513.2 525.5,513.2 530.9,513.2 536.3,513.2 541.7,513.2 547.0,513.2 552.4,513.2 557.8,513.2 563.2,513.2 568.5,513.2 573.9,513.2 579.3,513.2 584.7,513.2 590.1,513.2 595.4,513.2 600.8,526.6 606.2,526.6 611.6,531.6 616.9,546.7 622.3,546.7 627.7,546.7 633.1,546.7 638.4,546.7 643.8,546.7 649.2,546.7 654.6,546.7 659.9,546.7 665.3,546.7 670.7,546.7 676.1,546.7 681.5,546.7 686.8,546.7 692.2,546.7 697.6,546.7 703.0,546.7 708.3,546.7 713.7,546.7 719.1,546.7 724.5,546.7 729.8,546.7 735.2,546.7 740.6,546.7 746.0,546.7 751.4,546.7 756.7,546.7 762.1,546.7 767.5,546.7 772.9,546.7 778.2,546.7 783.6,546.7 789.0,546.7 794.4,546.7 799.7,546.7 805.1,546.7 810.5,546.7 815.9,546.7 821.3,546.7 826.6,546.7 832.0,546.7 837.4,546.7 842.8,546.7 848.1,551.7 853.5,553.4 858.9,553.4 864.3,553.4 869.6,553.4 875.0,553.4 880.4,553.4 885.8,553.4 891.2,553.4 896.5,553.4 901.9,553.4 907.3,553.4 912.7,560.1 918.0,560.1 923.4,560.1 928.8,560.1 934.2,560.1 939.5,560.1 944.9,560.1 950.3,560.1 955.7,571.8 961.1,576.8 966.4,576.8 971.8,576.8 977.2,576.8 982.6,576.8 987.9,576.8 993.3,576.8 998.7,576.8 1004.1,576.8 1009.4,576.8 1014.8,576.8 1020.2,576.8 1025.6,576.8 1031.0,576.8 1036.3,576.8 1041.7,576.8 1047.1,576.8 1052.5,576.8 1057.8,576.8 1063.2,576.8 1068.6,576.8 1074.0,576.8 1079.3,576.8 1084.7,576.8 1090.1,576.8 1095.5,576.8 1100.9,576.8 1106.2,576.8 1111.6,576.8 1117.0,576.8 1122.4,576.8 1127.7,576.8 1133.1,576.8 1138.5,576.8 1143.9,576.8 1149.2,576.8 1154.6,576.8 1160.0,576.8" /><polyline fill="none" stroke="#d62728" stroke-width="2.5" points="90.0,113.2 95.4,129.9 100.8,158.4 106.1,158.4 111.5,196.9 116.9,218.6 122.3,218.6 127.6,218.6 133.0,218.6 138.4,218.6 143.8,218.6 149.1,218.6 154.5,218.6 159.9,218.6 165.3,218.6 170.7,218.6 176.0,218.6 181.4,218.6 186.8,218.6 192.2,218.6 197.5,218.6 202.9,218.6 208.3,218.6 213.7,218.6 219.0,218.6 224.4,218.6 229.8,218.6 235.2,218.6 240.6,223.7 245.9,223.7 251.3,223.7 256.7,223.7 262.1,223.7 267.4,223.7 272.8,223.7 278.2,223.7 283.6,223.7 288.9,223.7 294.3,223.7 299.7,223.7 305.1,223.7 310.5,223.7 315.8,242.1 321.2,262.1 326.6,285.6 332.0,285.6 337.3,285.6 342.7,285.6 348.1,285.6 353.5,304.0 358.8,304.0 364.2,304.0 369.6,304.0 375.0,304.0 380.4,304.0 385.7,304.0 391.1,350.9 396.5,350.9 401.9,350.9 407.2,350.9 412.6,350.9 418.0,350.9 423.4,350.9 428.7,350.9 434.1,350.9 439.5,350.9 444.9,350.9 450.3,350.9 455.6,350.9 461.0,350.9 466.4,350.9 471.8,350.9 477.1,350.9 482.5,350.9 487.9,350.9 493.3,350.9 498.6,350.9 504.0,350.9 509.4,350.9 514.8,350.9 520.2,350.9 525.5,350.9 530.9,350.9 536.3,350.9 541.7,350.9 547.0,350.9 552.4,350.9 557.8,350.9 563.2,350.9 568.5,350.9 573.9,350.9 579.3,350.9 584.7,350.9 590.1,350.9 595.4,350.9 600.8,350.9 606.2,350.9 611.6,350.9 616.9,350.9 622.3,350.9 627.7,350.9 633.1,350.9 638.4,350.9 643.8,350.9 649.2,350.9 654.6,350.9 659.9,350.9 665.3,350.9 670.7,350.9 676.1,350.9 681.5,350.9 686.8,350.9 692.2,350.9 697.6,350.9 703.0,350.9 708.3,350.9 713.7,350.9 719.1,350.9 724.5,350.9 729.8,350.9 735.2,350.9 740.6,350.9 746.0,350.9 751.4,350.9 756.7,350.9 762.1,350.9 767.5,350.9 772.9,350.9 778.2,350.9 783.6,350.9 789.0,350.9 794.4,350.9 799.7,350.9 805.1,350.9 810.5,350.9 815.9,350.9 821.3,350.9 826.6,350.9 832.0,350.9 837.4,350.9 842.8,350.9 848.1,350.9 853.5,350.9 858.9,350.9 864.3,350.9 869.6,350.9 875.0,350.9 880.4,350.9 885.8,350.9 891.2,350.9 896.5,350.9 901.9,350.9 907.3,350.9 912.7,350.9 918.0,350.9 923.4,350.9 928.8,350.9 934.2,350.9 939.5,350.9 944.9,350.9 950.3,350.9 955.7,350.9 961.1,350.9 966.4,350.9 971.8,350.9 977.2,350.9 982.6,350.9 987.9,350.9 993.3,350.9 998.7,350.9 1004.1,350.9 1009.4,350.9 1014.8,350.9 1020.2,350.9 1025.6,350.9 1031.0,350.9 1036.3,350.9 1041.7,350.9 1047.1,350.9 1052.5,350.9 1057.8,350.9 1063.2,350.9 1068.6,350.9 1074.0,350.9 1079.3,350.9 1084.7,350.9 1090.1,350.9 1095.5,350.9 1100.9,350.9 1106.2,350.9 1111.6,350.9 1117.0,350.9 1122.4,350.9 1127.7,350.9 1133.1,350.9 1138.5,350.9 1143.9,350.9 1149.2,350.9 1154.6,350.9 1160.0,350.9" /><polyline fill="none" stroke="#2ca02c" stroke-width="2.5" points="90.0,113.2 95.4,158.4 100.8,191.8 106.1,218.6 111.5,238.7 116.9,238.7 122.3,299.0 127.6,302.3 133.0,344.2 138.4,344.2 143.8,344.2 149.1,344.2 154.5,344.2 159.9,344.2 165.3,344.2 170.7,344.2 176.0,344.2 181.4,344.2 186.8,344.2 192.2,344.2 197.5,344.2 202.9,344.2 208.3,344.2 213.7,344.2 219.0,344.2 224.4,344.2 229.8,365.9 235.2,370.9 240.6,370.9 245.9,370.9 251.3,377.6 256.7,377.6 262.1,377.6 267.4,377.6 272.8,377.6 278.2,377.6 283.6,377.6 288.9,377.6 294.3,377.6 299.7,377.6 305.1,377.6 310.5,377.6 315.8,377.6 321.2,377.6 326.6,377.6 332.0,377.6 337.3,377.6 342.7,377.6 348.1,377.6 353.5,377.6 358.8,377.6 364.2,377.6 369.6,377.6 375.0,377.6 380.4,377.6 385.7,377.6 391.1,377.6 396.5,377.6 401.9,377.6 407.2,377.6 412.6,377.6 418.0,377.6 423.4,391.0 428.7,396.1 434.1,396.1 439.5,396.1 444.9,396.1 450.3,396.1 455.6,396.1 461.0,396.1 466.4,396.1 471.8,396.1 477.1,396.1 482.5,396.1 487.9,396.1 493.3,396.1 498.6,399.4 504.0,399.4 509.4,399.4 514.8,399.4 520.2,399.4 525.5,399.4 530.9,399.4 536.3,399.4 541.7,399.4 547.0,399.4 552.4,399.4 557.8,399.4 563.2,399.4 568.5,399.4 573.9,399.4 579.3,399.4 584.7,406.1 590.1,406.1 595.4,406.1 600.8,406.1 606.2,406.1 611.6,406.1 616.9,406.1 622.3,406.1 627.7,406.1 633.1,406.1 638.4,406.1 643.8,406.1 649.2,406.1 654.6,406.1 659.9,406.1 665.3,406.1 670.7,406.1 676.1,406.1 681.5,406.1 686.8,406.1 692.2,406.1 697.6,406.1 703.0,406.1 708.3,406.1 713.7,406.1 719.1,406.1 724.5,406.1 729.8,406.1 735.2,406.1 740.6,406.1 746.0,406.1 751.4,406.1 756.7,406.1 762.1,446.3 767.5,451.3 772.9,456.3 778.2,478.1 783.6,478.1 789.0,478.1 794.4,478.1 799.7,478.1 805.1,478.1 810.5,478.1 815.9,478.1 821.3,478.1 826.6,478.1 832.0,478.1 837.4,478.1 842.8,478.1 848.1,478.1 853.5,478.1 858.9,478.1 864.3,478.1 869.6,479.7 875.0,479.7 880.4,479.7 885.8,479.7 891.2,479.7 896.5,479.7 901.9,479.7 907.3,479.7 912.7,479.7 918.0,479.7 923.4,479.7 928.8,479.7 934.2,479.7 939.5,479.7 944.9,479.7 950.3,479.7 955.7,479.7 961.1,479.7 966.4,479.7 971.8,479.7 977.2,479.7 982.6,479.7 987.9,481.4 993.3,540.0 998.7,555.1 1004.1,565.1 1009.4,565.1 1014.8,565.1 1020.2,565.1 1025.6,565.1 1031.0,565.1 1036.3,565.1 1041.7,565.1 1047.1,565.1 1052.5,565.1 1057.8,565.1 1063.2,565.1 1068.6,565.1 1074.0,565.1 1079.3,565.1 1084.7,565.1 1090.1,565.1 1095.5,565.1 1100.9,565.1 1106.2,565.1 1111.6,565.1 1117.0,565.1 1122.4,565.1 1127.7,565.1 1133.1,565.1 1138.5,565.1 1143.9,565.1 1149.2,565.1 1154.6,565.1 1160.0,565.1" />
  <text x="90.0" y="618.0" text-anchor="middle" font-family="Arial" font-size="11" fill="#555">0</text><text x="305.1" y="618.0" text-anchor="middle" font-family="Arial" font-size="11" fill="#555">905</text><text x="520.2" y="618.0" text-anchor="middle" font-family="Arial" font-size="11" fill="#555">1810</text><text x="729.8" y="618.0" text-anchor="middle" font-family="Arial" font-size="11" fill="#555">2692</text><text x="944.9" y="618.0" text-anchor="middle" font-family="Arial" font-size="11" fill="#555">3597</text><text x="1160.0" y="618.0" text-anchor="middle" font-family="Arial" font-size="11" fill="#555">4503</text>
  <rect x="100" y="55" width="12" height="12" fill="#1f77b4" /><text x="118" y="65" font-family="Arial" font-size="12">adjacent</text><rect x="260" y="55" width="12" height="12" fill="#d62728" /><text x="278" y="65" font-family="Arial" font-size="12">n5</text><rect x="420" y="55" width="12" height="12" fill="#2ca02c" /><text x="438" y="65" font-family="Arial" font-size="12">n6</text>
  <text x="625.0" y="645.0" text-anchor="middle" font-family="Arial" font-size="14" font-weight="bold">Iteration</text>
  <text x="30.0" y="345.0" text-anchor="middle" font-family="Arial" font-size="14" font-weight="bold" transform="rotate(-90 30.0 345.0)">Makespan</text>
</svg>