<svg xmlns="http://www.w3.org/2000/svg" width="1200" height="700" viewBox="0 0 1200 700">
  <rect x="0" y="0" width="1200" height="700" fill="#ffffff" />
  <text x="600.0" y="32" text-anchor="middle" font-family="Arial" font-size="24" font-weight="bold">Neighborhood Makespan Comparison - Time limit 90s</text>
  <line x1="90.0" y1="600.0" x2="1160.0" y2="600.0" stroke="#e6e6e6" stroke-width="1" /><text x="82.0" y="604.0" text-anchor="end" font-family="Arial" font-size="11" fill="#555">3000</text><line x1="90.0" y1="527.1" x2="1160.0" y2="527.1" stroke="#e6e6e6" stroke-width="1" /><text x="82.0" y="531.1" text-anchor="end" font-family="Arial" font-size="11" fill="#555">3100</text><line x1="90.0" y1="454.3" x2="1160.0" y2="454.3" stroke="#e6e6e6" stroke-width="1" /><text x="82.0" y="458.3" text-anchor="end" font-family="Arial" font-size="11" fill="#555">3200</text><line x1="90.0" y1="381.4" x2="1160.0" y2="381.4" stroke="#e6e6e6" stroke-width="1" /><text x="82.0" y="385.4" text-anchor="end" font-family="Arial" font-size="11" fill="#555">3300</text><line x1="90.0" y1="308.6" x2="1160.0" y2="308.6" stroke="#e6e6e6" stroke-width="1" /><text x="82.0" y="312.6" text-anchor="end" font-family="Arial" font-size="11" fill="#555">3400</text><line x1="90.0" y1="235.7" x2="1160.0" y2="235.7" stroke="#e6e6e6" stroke-width="1" /><text x="82.0" y="239.7" text-anchor="end" font-family="Arial" font-size="11" fill="#555">3500</text><line x1="90.0" y1="162.9" x2="1160.0" y2="162.9" stroke="#e6e6e6" stroke-width="1" /><text x="82.0" y="166.9" text-anchor="end" font-family="Arial" font-size="11" fill="#555">3600</text><line x1="90.0" y1="90.0" x2="1160.0" y2="90.0" stroke="#e6e6e6" stroke-width="1" /><text x="82.0" y="94.0" text-anchor="end" font-family="Arial" font-size="11" fill="#555">3700</text>
  <line x1="90" y1="600" x2="1160" y2="600" stroke="#333" stroke-width="1.5" />
  <line x1="90" y1="90" x2="90" y2="600" stroke="#333" stroke-width="1.5" />
  <polyline fill="none" stroke="#1f77b4" stroke-width="2.5" points="90.0,159.9 90.3,180.3 90.6,186.9 90.9,189.1 91.5,195.6 91.8,196.4 92.1,197.1 92.8,214.6 93.1,221.9 93.4,227.0 93.7,227.0 94.3,231.3 94.6,232.1 94.9,232.1 95.5,232.1 95.8,237.2 96.1,239.4 96.4,241.5 97.0,244.5 97.3,244.5 97.6,244.5 98.3,244.5 98.6,244.5 98.9,250.3 99.2,254.7 99.8,261.2 100.1,266.3 100.4,267.0 101.0,271.4 101.3,272.1 101.6,272.9 101.9,272.9 102.5,273.6 102.8,277.2 103.1,278.0 103.8,280.2 104.1,285.3 104.4,288.2 104.7,290.4 105.3,291.8 105.6,293.3 105.9,298.4 106.5,302.0 106.8,304.2 107.1,307.1 107.4,313.7 108.0,316.6 108.3,318.0 108.6,323.1 109.3,324.6 109.6,324.6 109.9,324.6 110.2,324.6 110.8,324.6 111.1,324.6 111.4,324.6 112.0,324.6 112.3,324.6 112.6,329.7 112.9,331.9 113.5,332.6 113.8,332.6 114.2,333.3 114.8,338.4 115.1,342.8 115.4,346.5 115.7,350.1 116.3,350.1 116.6,350.1 116.9,350.1 117.5,350.1 117.8,350.1 118.1,350.1 118.4,350.1 119.0,350.1 119.3,350.1 119.7,350.1 120.3,352.3 120.6,356.7 120.9,358.1 121.5,358.8 121.8,361.0 122.1,363.9 122.4,364.7 123.0,366.9 123.3,369.8 123.6,372.0 124.2,376.3 124.5,382.9 124.9,383.6 125.2,385.8 125.8,387.3 126.1,387.3 126.4,387.3 127.0,387.3 127.3,387.3 127.6,387.3 127.9,387.3 128.5,387.3 128.8,387.3 129.1,387.3 129.7,392.4 130.0,393.8 130.4,396.0 130.7,396.7 131.3,398.9 131.6,398.9 131.9,398.9 132.5,398.9 132.8,398.9 133.1,398.9 133.4,398.9 134.0,398.9 134.3,398.9 134.6,398.9 135.2,398.9 135.6,398.9 135.9,398.9 136.2,398.9 136.8,398.9 137.1,398.9 137.4,398.9 138.0,398.9 138.3,398.9 138.6,398.9 138.9,401.8 139.5,407.7 139.8,409.8 140.1,410.6 140.7,413.5 141.1,415.7 141.4,416.4 141.7,416.4 142.3,417.9 142.6,417.9 142.9,417.9 143.5,417.9 143.8,417.9 144.1,417.9 144.4,417.9 145.0,417.9 145.3,417.9 145.6,417.9 146.3,417.9 146.6,417.9 146.9,417.9 147.2,417.9 147.8,417.9 148.1,417.9 148.4,419.3 149.0,419.3 149.3,423.0 149.6,428.8 150.2,430.2 150.5,430.2 150.8,430.2 151.1,432.4 151.8,433.2 152.1,433.2 152.4,433.9 153.0,439.0 153.3,439.0 153.6,439.0 153.9,439.0 154.5,439.0 154.8,439.0 155.1,439.0 155.7,439.0 156.0,439.0 156.3,439.0 156.6,439.0 157.3,439.0 157.6,439.0 157.9,439.0 158.5,439.0 158.8,439.0 159.1,439.0 159.4,439.0 160.0,439.0 160.3,439.0 160.6,439.0 161.2,439.0 161.5,439.0 161.8,439.0 162.1,439.0 162.8,439.0 163.1,439.0 163.4,439.0 164.0,439.0 164.3,439.0 164.6,439.0 164.9,439.0 165.5,439.0 165.8,439.0 166.1,439.0 166.7,439.0 167.0,439.0 167.3,439.0 167.7,439.0 168.3,439.0 168.6,439.0 168.9,439.0 169.5,439.0 169.8,439.0 170.1,439.0 170.4,439.0 171.0,439.0 171.3,439.0 171.6,439.0 172.2,439.0 172.5,439.0 172.8,439.0 173.2,439.0 173.8,439.0 174.1,439.0 174.4,439.0 175.0,439.0 175.3,439.0 175.6,439.0 175.9,439.0 176.5,439.0 176.8,439.0 177.1,439.0 177.7,439.0 178.0,439.0 178.4,439.0 179.0,439.0 179.3,439.0 179.6,439.0 179.9,439.0 180.5,439.0 180.8,439.0 181.1,439.0 181.7,439.0 182.0,439.0 182.3,439.0 182.6,439.0 183.2,439.0 183.5,439.0 183.9,439.0 184.5,439.0 184.8,439.0 185.1,439.0 185.4,439.0 186.0,439.0 186.3,439.0 186.6,439.0 187.2,439.0 187.5,439.0 187.8,439.0 188.1,439.0 188.7,439.0 189.1,439.0 189.4,439.0 190.0,441.2 190.3,441.2 190.6,441.2 190.9,444.8 191.5,445.5 191.8,445.5 192.1,445.5 192.7,445.5 193.0,445.5 193.3,445.5 193.6,445.5 194.2,445.5 194.6,445.5 194.9,445.5 195.5,445.5 195.8,445.5 196.1,445.5 196.4,445.5 197.0,445.5 197.3,445.5 197.6,445.5 198.2,445.5 198.5,445.5 198.8,445.5 199.1,445.5 199.8,445.5 200.1,445.5 200.4,445.5 201.0,456.5 201.3,457.9 201.6,457.9 201.9,457.9 202.5,457.9 202.8,457.9 203.1,457.9 203.7,457.9 204.0,457.9 204.3,457.9 204.6,457.9 205.3,457.9 205.6,457.9 205.9,457.9 206.5,457.9 206.8,458.7 207.1,460.1 207.7,460.1 208.0,462.3 208.3,462.3 208.6,462.3 209.2,462.3 209.5,462.3 209.8,462.3 210.5,462.3 210.8,462.3 211.1,462.3 211.4,462.3 212.0,462.3 212.3,462.3 212.6,462.3 213.2,462.3 213.5,462.3 213.8,462.3 214.1,462.3 214.7,462.3 215.0,462.3 215.3,462.3 216.0,462.3 216.3,462.3 216.6,462.3 216.9,462.3 217.5,462.3 217.8,462.3 218.1,462.3 218.7,462.3 219.0,462.3 219.3,462.3 219.6,462.3 220.2,462.3 220.5,462.3 220.8,462.3 221.5,467.4 221.8,467.4 222.1,467.4 222.4,467.4 223.0,467.4 223.3,468.9 223.6,468.9 224.2,468.9 224.5,468.9 224.8,468.9 225.1,468.9 225.7,474.0 226.0,476.9 226.3,476.9 227.0,476.9 227.3,479.1 227.6,479.1 227.9,480.5 228.5,480.5 228.8,480.5 229.1,480.5 229.7,480.5 230.0,480.5 230.3,480.5 230.6,480.5 231.2,480.5 231.5,480.5 231.9,480.5 232.5,480.5 232.8,480.5 233.1,480.5 233.4,480.5 234.0,480.5 234.3,480.5 234.6,480.5 235.2,480.5 235.5,480.5 235.8,480.5 236.4,480.5 236.7,480.5 237.0,481.2 237.4,481.2 238.0,482.7 238.3,482.7 238.6,487.1 239.2,487.1 239.5,487.1 239.8,487.1 240.1,487.1 240.7,487.1 241.0,487.1 241.3,487.1 241.9,487.1 242.2,487.1 242.6,487.1 242.9,487.1 243.5,487.1 243.8,487.1 244.1,487.1 244.7,487.1 245.0,487.1 245.3,487.1 245.6,487.1 246.2,487.1 246.5,487.1 246.8,487.1 247.4,487.1 247.7,487.1 248.1,487.1 248.4,487.1 249.0,487.1 249.3,487.1 249.6,487.1 250.2,487.1 250.5,487.1 250.8,487.1 251.1,487.1 251.7,487.1 252.0,487.1 252.3,487.1 252.9,487.1 253.3,487.1 253.6,487.1 253.9,487.1 254.5,487.1 254.8,487.1 255.1,487.1 255.7,487.1 256.0,487.1 256.3,487.1 256.6,487.1 257.2,487.1 257.5,487.1 257.8,487.1 258.4,487.1 258.8,487.1 259.1,487.1 259.4,487.1 260.0,487.1 260.3,487.1 260.6,487.1 261.2,487.1 261.5,487.1 261.8,487.1 262.1,487.1 262.7,487.1 263.0,487.1 263.3,487.1 264.0,487.1 264.3,487.1 264.6,487.1 265.2,487.1 265.5,487.1 265.8,487.1 266.1,487.1 266.7,487.1 267.0,487.1 267.3,487.1 267.9,487.1 268.2,487.1 268.5,487.1 268.8,487.1 269.5,487.1 269.8,487.1 270.1,487.1 270.7,487.1 271.0,487.1 271.3,487.1 271.6,487.1 272.2,487.1 272.5,487.1 272.8,487.1 273.4,487.1 273.7,487.1 274.0,487.1 274.3,487.1 275.0,487.1 275.3,487.1 275.6,487.1 276.2,487.1 276.5,487.1 276.8,487.1 277.1,487.1 277.7,487.1 278.0,487.1 278.3,487.1 278.9,487.1 279.2,487.1 279.5,487.1 279.8,487.1 280.5,487.1 280.8,487.1 281.1,487.1 281.7,487.1 282.0,487.1 282.3,487.1 282.6,487.1 283.2,487.1 283.5,487.1 283.8,487.1 284.4,487.1 284.7,487.1 285.0,487.1 285.4,487.1 286.0,487.1 286.3,487.1 286.6,487.1 287.2,487.1 287.5,487.1 287.8,487.1 288.1,487.1 288.7,487.1 289.0,487.1 289.3,487.1 289.9,487.1 290.2,487.1 290.5,487.1 290.9,487.1 291.5,487.1 291.8,487.1 292.1,487.1 292.7,487.1 293.0,487.1 293.3,487.1 293.6,487.1 294.2,487.1 294.5,487.1 294.8,487.1 295.4,487.1 295.7,487.1 296.1,487.1 296.7,487.1 297.0,487.1 297.3,487.1 297.6,487.1 298.2,487.1 298.5,487.1 298.8,487.1 299.4,487.1 299.7,487.1 300.0,487.1 300.3,487.1 300.9,487.1 301.2,487.1 301.6,487.1 302.2,487.1 302.5,487.1 302.8,487.1 303.1,487.1 303.7,487.1 304.0,487.1 304.3,487.1 304.9,487.1 305.2,487.1 305.5,487.1 305.8,487.1 306.4,487.1 306.8,487.1 307.1,487.1 307.7,487.1 308.0,487.1 308.3,487.1 308.6,487.1 309.2,487.1 309.5,487.1 309.8,487.1 310.4,487.1 310.7,487.1 311.0,487.1 311.3,487.1 311.9,487.1 312.3,487.1 312.6,487.1 313.2,487.1 313.5,487.1 313.8,487.1 314.1,487.1 314.7,487.1 315.0,487.1 315.3,487.1 315.9,487.1 316.2,487.1 316.5,487.1 316.8,487.1 317.5,487.1 317.8,487.1 318.1,487.1 318.7,487.1 319.0,487.1 319.3,487.1 319.6,487.1 320.2,487.1 320.5,487.1 320.8,487.1 321.4,487.1 321.7,487.1 322.0,487.1 322.3,487.1 323.0,487.1 323.3,487.1 323.6,487.1 324.2,487.1 324.5,487.1 324.8,487.1 325.4,487.1 325.7,487.1 326.0,487.1 326.3,487.1 326.9,487.1 327.2,487.1 327.5,487.1 328.2,487.1 328.5,487.1 328.8,487.1 329.1,487.1 329.7,487.1 330.0,487.1 330.3,487.1 330.9,487.1 331.2,487.1 331.5,487.1 331.8,487.1 332.4,487.1 332.7,487.1 333.0,487.1 333.7,487.1 334.0,487.1 334.3,487.1 334.6,487.1 335.2,487.1 335.5,487.1 335.8,487.8 336.4,489.3 336.7,489.3 337.0,489.3 337.3,489.3 337.9,489.3 338.2,489.3 338.5,489.3 339.2,489.3 339.5,489.3 339.8,489.3 340.1,489.3 340.7,489.3 341.0,489.3 341.3,489.3 341.9,489.3 342.2,489.3 342.5,489.3 342.8,489.3 343.4,489.3 343.7,489.3 344.0,489.3 344.7,489.3 345.0,489.3 345.3,489.3 345.6,489.3 346.2,489.3 346.5,489.3 346.8,489.3 347.4,489.3 347.7,489.3 348.0,489.3 348.3,489.3 348.9,489.3 349.2,489.3 349.6,489.3 350.2,489.3 350.5,489.3 350.8,489.3 351.1,489.3 351.7,489.3 352.0,489.3 352.3,489.3 352.9,489.3 353.2,489.3 353.5,489.3 354.1,489.3 354.4,489.3 354.7,489.3 355.1,489.3 355.7,489.3 356.0,489.3 356.3,489.3 356.9,489.3 357.2,489.3 357.5,489.3 357.8,489.3 358.4,489.3 358.7,489.3 359.0,489.3 359.6,489.3 359.9,489.3 360.3,489.3 360.6,489.3 361.2,492.2 361.5,493.6 361.8,498.7 362.4,501.6 362.7,503.1 363.0,504.6 363.3,504.6 363.9,508.9 364.2,508.9 364.5,509.7 365.1,510.4 365.4,511.8 365.8,511.8 366.1,514.0 366.7,514.0 367.0,514.0 367.3,514.0 367.9,514.0 368.2,514.0 368.5,514.0 368.8,514.0 369.4,514.0 369.7,514.0 370.0,514.0 370.6,514.0 371.0,514.0 371.3,514.0 371.6,514.0 372.2,514.0 372.5,514.0 372.8,514.0 373.4,514.0 373.7,514.0 374.0,514.0 374.3,514.0 374.9,514.0 375.2,514.0 375.5,514.0 376.1,514.0 376.5,514.0 376.8,514.0 377.1,514.0 377.7,514.0 378.0,514.0 378.3,514.0 378.9,514.0 379.2,514.0 379.5,514.0 379.8,514.0 380.4,514.0 380.7,514.0 381.0,514.0 381.7,514.0 382.0,514.0 382.3,514.0 382.9,514.0 383.2,514.0 383.5,514.0 383.8,514.0 384.4,514.0 384.7,514.0 385.0,514.0 385.6,514.0 385.9,514.0 386.2,514.0 386.5,514.0 387.2,514.0 387.5,514.0 387.8,514.0 388.4,514.0 388.7,514.0 389.0,514.0 389.3,514.0 389.9,514.0 390.2,514.0 390.5,514.0 391.1,514.0 391.4,514.0 391.7,514.0 392.0,514.0 392.7,514.0 393.0,514.0 393.3,514.0 393.9,514.0 394.2,514.0 394.5,514.0 394.8,514.0 395.4,514.0 395.7,514.0 396.0,514.0 396.6,514.0 396.9,514.0 397.2,514.0 397.5,514.0 398.2,514.0 398.5,514.0 398.8,514.0 399.4,514.0 399.7,514.0 400.0,514.0 400.3,514.0 400.9,514.0 401.2,514.0 401.5,514.0 402.1,514.0 402.4,514.0 402.7,514.0 403.1,514.0 403.7,514.0 404.0,514.0 404.3,514.0 404.9,521.3 405.2,522.8 405.5,523.5 405.8,523.5 406.4,523.5 406.7,523.5 407.0,523.5 407.6,523.5 407.9,523.5 408.2,523.5 408.6,523.5 409.2,523.5 409.5,523.5 409.8,523.5 410.4,523.5 410.7,523.5 411.0,523.5 411.6,523.5 411.9,523.5 412.2,523.5 412.5,523.5 413.1,523.5 413.4,523.5 413.8,523.5 414.4,523.5 414.7,523.5 415.0,523.5 415.3,523.5 415.9,523.5 416.2,523.5 416.5,523.5 417.1,523.5 417.4,523.5 417.7,523.5 418.0,523.5 418.6,523.5 418.9,523.5 419.3,523.5 419.9,523.5 420.2,523.5 420.5,526.4 420.8,526.4 421.4,526.4 421.7,526.4 422.0,526.4 422.6,526.4 422.9,526.4 423.2,526.4 423.5,526.4 424.1,532.2 424.5,533.0 424.8,533.0 425.4,533.0 425.7,533.0 426.0,533.0 426.3,533.7 426.9,533.7 427.2,533.7 427.5,533.7 428.1,535.9 428.4,535.9 428.7,535.9 429.0,535.9 429.6,535.9 430.0,535.9 430.3,535.9 430.9,535.9 431.2,535.9 431.5,535.9 431.8,535.9 432.4,535.9 432.7,535.9 433.0,535.9 433.6,535.9 433.9,536.6 434.2,538.8 434.5,538.8 435.2,539.5 435.5,539.5 435.8,541.0 436.4,542.4 436.7,542.4 437.0,542.4 437.3,542.4 437.9,542.4 438.2,542.4 438.5,542.4 439.1,542.4 439.4,542.4 439.7,542.4 440.3,542.4 440.7,542.4 441.0,542.4 441.3,542.4 441.9,542.4 442.2,542.4 442.5,542.4 443.1,542.4 443.4,546.8 443.7,550.5 444.0,551.2 444.6,553.4 444.9,553.4 445.2,553.4 445.9,553.4 446.2,553.4 446.5,553.4 446.8,553.4 447.4,553.4 447.7,553.4 448.0,553.4 448.6,553.4 448.9,553.4 449.2,553.4 449.5,553.4 450.1,553.4 450.4,553.4 450.7,553.4 451.4,553.4 451.7,553.4 452.0,553.4 452.3,553.4 452.9,553.4 453.2,553.4 453.5,553.4 454.1,553.4 454.4,553.4 454.7,553.4 455.0,553.4 455.6,553.4 455.9,553.4 456.2,553.4 456.9,553.4 457.2,553.4 457.5,553.4 457.8,553.4 458.4,553.4 458.7,553.4 459.0,553.4 459.6,553.4 459.9,553.4 460.2,553.4 460.5,553.4 461.1,553.4 461.4,553.4 461.7,553.4 462.4,553.4 462.7,553.4 463.0,553.4 463.3,553.4 463.9,553.4 464.2,553.4 464.5,553.4 465.1,553.4 465.4,553.4 465.7,553.4 466.0,553.4 466.6,553.4 466.9,553.4 467.3,553.4 467.9,553.4 468.2,553.4 468.5,553.4 469.1,553.4 469.4,553.4 469.7,553.4 470.0,553.4 470.6,553.4 470.9,553.4 471.2,553.4 471.8,553.4 472.1,553.4 472.4,553.4 472.8,553.4 473.4,553.4 473.7,553.4 474.0,553.4 474.6,553.4 474.9,553.4 475.2,553.4 475.5,553.4 476.1,553.4 476.4,553.4 476.7,553.4 477.3,553.4 477.6,553.4 478.0,553.4 478.3,553.4 478.9,553.4 479.2,553.4 479.5,553.4 480.1,553.4 480.4,553.4 480.7,553.4 481.0,553.4 481.6,553.4 481.9,553.4 482.2,553.4 482.8,553.4 483.1,553.4 483.5,553.4 483.8,553.4 484.4,553.4 484.7,553.4 485.0,553.4 485.6,553.4 485.9,553.4 486.2,553.4 486.5,553.4 487.1,553.4 487.4,553.4 487.7,553.4 488.3,553.4 488.7,553.4 489.0,553.4 489.3,553.4 489.9,553.4 490.2,553.4 490.5,553.4 491.1,553.4 491.4,553.4 491.7,553.4 492.0,553.4 492.6,553.4 492.9,553.4 493.2,553.4 493.8,553.4 494.2,553.4 494.5,553.4 494.8,553.4 495.4,553.4 495.7,553.4 496.0,553.4 496.6,553.4 496.9,553.4 497.2,553.4 497.5,553.4 498.1,553.4 498.4,553.4 498.7,553.4 499.4,553.4 499.7,553.4 500.0,553.4 500.6,553.4 500.9,553.4 501.2,553.4 501.5,553.4 502.1,553.4 502.4,553.4 502.7,553.4 503.3,553.4 503.6,553.4 503.9,553.4 504.2,553.4 504.9,553.4 505.2,553.4 505.5,553.4 506.1,553.4 506.4,553.4 506.7,553.4 507.0,553.4 507.6,553.4 507.9,553.4 508.2,553.4 508.8,553.4 509.1,553.4 509.4,553.4 509.7,553.4 510.4,553.4 510.7,553.4 511.0,553.4 511.6,553.4 511.9,553.4 512.2,553.4 512.5,553.4 513.1,553.4 513.4,553.4 513.7,553.4 514.3,553.4 514.6,553.4 514.9,553.4 515.2,553.4 515.9,553.4 516.2,553.4 516.5,553.4 517.1,553.4 517.4,553.4 517.7,553.4 518.0,553.4 518.6,553.4 518.9,553.4 519.2,553.4 519.8,553.4 520.1,553.4 520.4,553.4 520.8,553.4 521.4,553.4 521.7,553.4 522.0,553.4 522.6,553.4 522.9,553.4 523.2,553.4 523.5,553.4 524.1,553.4 524.4,553.4 524.7,553.4 525.3,553.4 525.6,553.4 525.9,553.4 526.3,553.4 526.9,553.4 527.2,553.4 527.5,553.4 528.1,553.4 528.4,553.4 528.7,553.4 529.3,553.4 529.6,553.4 529.9,553.4 530.2,553.4 530.8,553.4 531.1,553.4 531.5,553.4 532.1,553.4 532.4,553.4 532.7,553.4 533.0,553.4 533.6,553.4 533.9,553.4 534.2,553.4 534.8,553.4 535.1,553.4 535.4,553.4 535.7,553.4 536.3,553.4 536.6,553.4 537.0,553.4 537.6,553.4 537.9,553.4 538.2,553.4 538.5,553.4 539.1,553.4 539.4,553.4 539.7,553.4 540.3,553.4 540.6,553.4 540.9,553.4 541.2,553.4 541.8,553.4 542.2,553.4 542.5,553.4 543.1,553.4 543.4,553.4 543.7,553.4 544.0,553.4 544.6,553.4 544.9,553.4 545.2,553.4 545.8,553.4 546.1,553.4 546.4,553.4 546.7,553.4 547.3,553.4 547.7,553.4 548.0,553.4 548.6,553.4 548.9,553.4 549.2,553.4 549.5,553.4 550.1,553.4 550.4,553.4 550.7,553.4 551.3,553.4 551.6,553.4 551.9,553.4 552.2,553.4 552.9,553.4 553.2,553.4 553.5,553.4 554.1,553.4 554.4,553.4 554.7,553.4 555.0,553.4 555.6,553.4 555.9,553.4 556.2,553.4 556.8,553.4 557.1,553.4 557.4,553.4 558.0,553.4 558.4,553.4 558.7,553.4 559.0,553.4 559.6,553.4 559.9,553.4 560.2,553.4 560.8,553.4 561.1,553.4 561.4,553.4 561.7,553.4 562.3,553.4 562.6,553.4 562.9,553.4 563.6,553.4 563.9,553.4 564.2,553.4 564.5,553.4 565.1,553.4 565.4,553.4 565.7,553.4 566.3,553.4 566.6,553.4 566.9,553.4 567.2,553.4 567.8,553.4 568.1,553.4 568.4,553.4 569.1,553.4 569.4,553.4 569.7,553.4 570.0,553.4 570.6,553.4 570.9,553.4 571.2,553.4 571.8,553.4 572.1,553.4 572.4,553.4 572.7,553.4 573.3,553.4 573.6,553.4 573.9,553.4 574.6,553.4 574.9,553.4 575.2,553.4 575.5,553.4 576.1,553.4 576.4,553.4 576.7,553.4 577.3,553.4 577.6,553.4 577.9,553.4 578.2,553.4 578.8,553.4 579.1,553.4 579.4,553.4 580.1,553.4 580.4,553.4 580.7,553.4 581.0,553.4 581.6,553.4 581.9,553.4 582.2,553.4 582.8,553.4 583.1,553.4 583.4,553.4 583.7,553.4 584.3,553.4 584.6,553.4 585.0,553.4 585.6,553.4 585.9,553.4 586.2,553.4 586.8,553.4 587.1,553.4 587.4,553.4 587.7,553.4 588.3,553.4 588.6,553.4 588.9,553.4 589.5,553.4 589.8,553.4 590.1,553.4 590.5,553.4 591.1,553.4 591.4,553.4 591.7,553.4 592.3,553.4 592.6,553.4 592.9,553.4 593.2,553.4 593.8,553.4 594.1,553.4 594.4,553.4 595.0,553.4 595.3,553.4 595.7,553.4 596.0,553.4 596.6,553.4 596.9,553.4 597.2,553.4 597.8,553.4 598.1,553.4 598.4,553.4 598.7,553.4 599.3,553.4 599.6,553.4 599.9,553.4 600.5,553.4 600.8,553.4 601.2,553.4 601.5,553.4 602.1,553.4 602.4,553.4 602.7,553.4 603.3,553.4 603.6,553.4 603.9,553.4 604.2,553.4 604.8,553.4 605.1,553.4 605.4,553.4 606.0,553.4 606.4,553.4 606.7,553.4 607.0,553.4 607.6,553.4 607.9,553.4 608.2,553.4 608.8,553.4 609.1,553.4 609.4,553.4 609.7,553.4 610.3,553.4 610.6,553.4 610.9,553.4 611.5,553.4 611.9,553.4 612.2,553.4 612.5,553.4 613.1,553.4 613.4,553.4 613.7,553.4 614.3,553.4 614.6,553.4 614.9,553.4 615.5,553.4 615.8,553.4 616.1,553.4 616.4,553.4 617.1,553.4 617.4,553.4 617.7,553.4 618.3,556.3 618.6,556.3 618.9,558.5 619.2,559.9 619.8,560.7 620.1,560.7 620.4,560.7 621.0,560.7 621.3,560.7 621.6,560.7 621.9,560.7 622.6,560.7 622.9,560.7 623.2,560.7 623.8,560.7 624.1,560.7 624.4,560.7 624.7,560.7 625.3,560.7 625.6,560.7 625.9,560.7 626.5,560.7 626.8,560.7 627.1,560.7 627.4,560.7 628.1,560.7 628.4,560.7 628.7,560.7 629.3,560.7 629.6,560.7 629.9,560.7 630.2,560.7 630.8,560.7 631.1,560.7 631.4,560.7 632.0,560.7 632.3,560.7 632.6,560.7 632.9,560.7 633.6,560.7 633.9,560.7 634.2,560.7 634.8,560.7 635.1,560.7 635.4,560.7 635.7,560.7 636.3,560.7 636.6,560.7 636.9,560.7 637.5,560.7 637.8,560.7 638.1,560.7 638.5,560.7 639.1,560.7 639.4,560.7 639.7,560.7 640.3,560.7 640.6,560.7 640.9,560.7 641.2,560.7 641.8,560.7 642.1,560.7 642.4,560.7 643.0,560.7 643.3,560.7 643.6,560.7 644.3,560.7 644.6,560.7 644.9,560.7 645.2,560.7 645.8,560.7 646.1,560.7 646.4,560.7 647.0,560.7 647.3,560.7 647.6,560.7 647.9,560.7 648.5,560.7 648.8,560.7 649.2,560.7 649.8,560.7 650.1,560.7 650.4,560.7 650.7,560.7 651.3,560.7 651.6,560.7 651.9,560.7 652.5,560.7 652.8,560.7 653.1,560.7 653.4,560.7 654.0,560.7 654.3,560.7 654.7,560.7 655.3,560.7 655.6,560.7 655.9,560.7 656.2,560.7 656.8,560.7 657.1,560.7 657.4,560.7 658.0,560.7 658.3,560.7 658.6,560.7 658.9,560.7 659.5,560.7 659.9,560.7 660.2,560.7 660.8,560.7 661.1,560.7 661.4,560.7 661.7,560.7 662.3,560.7 662.6,560.7 662.9,560.7 663.5,560.7 663.8,560.7 664.1,560.7 664.4,560.7 665.0,560.7 665.4,560.7 665.7,560.7 666.3,560.7 666.6,560.7 666.9,560.7 667.2,560.7 667.8,560.7 668.1,560.7 668.4,560.7 669.0,560.7 669.3,560.7 669.6,560.7 669.9,560.7 670.6,560.7 670.9,560.7 671.2,560.7 671.8,560.7 672.1,560.7 672.4,560.7 673.0,560.7 673.3,560.7 673.6,560.7 673.9,560.7 674.5,560.7 674.8,560.7 675.1,560.7 675.7,560.7 676.1,560.7 676.4,560.7 676.7,560.7 677.3,560.7 677.6,560.7 677.9,560.7 678.5,560.7 678.8,560.7 679.1,560.7 679.4,560.7 680.0,560.7 680.3,560.7 680.6,560.7 681.3,560.7 681.6,560.7 681.9,560.7 682.2,560.7 682.8,560.7 683.1,560.7 683.4,560.7 684.0,560.7 684.3,560.7 684.6,560.7 684.9,560.7 685.5,560.7 685.8,560.7 686.1,560.7 686.8,561.4 687.1,561.4 687.4,561.4 687.7,561.4 688.3,561.4 688.6,561.4 688.9,561.4 689.5,564.3 689.8,564.3 690.1,565.0 690.4,565.8 691.0,565.8 691.3,565.8 691.6,565.8 692.3,565.8 692.6,565.8 692.9,565.8 693.2,565.8 693.8,565.8 694.1,565.8 694.4,565.8 695.0,565.8 695.3,565.8 695.6,565.8 695.9,565.8 696.5,565.8 696.8,565.8 697.1,565.8 697.8,565.8 698.1,565.8 698.4,565.8 698.7,565.8 699.3,565.8 699.6,565.8 699.9,565.8 700.5,565.8 700.8,565.8 701.1,565.8 701.4,565.8 702.0,565.8 702.3,565.8 702.7,565.8 703.3,565.8 703.6,565.8 703.9,565.8 704.5,565.8 704.8,565.8 705.1,565.8 705.4,565.8 706.0,565.8 706.3,565.8 706.6,565.8 707.2,565.8 707.5,565.8 707.8,565.8 708.2,565.8 708.8,565.8 709.1,565.8 709.4,565.8 710.0,565.8 710.3,565.8 710.6,565.8 710.9,565.8 711.5,565.8 711.8,565.8 712.1,565.8 712.7,565.8 713.0,565.8 713.4,565.8 713.7,565.8 714.3,565.8 714.6,565.8 714.9,565.8 715.5,565.8 715.8,565.8 716.1,565.8 716.4,565.8 717.0,565.8 717.3,565.8 717.6,565.8 718.2,565.8 718.5,565.8 718.9,565.8 719.2,565.8 719.8,565.8 720.1,565.8 720.4,565.8 721.0,565.8 721.3,565.8 721.6,565.8 721.9,565.8 722.5,565.8 722.8,565.8 723.1,565.8 723.7,565.8 724.1,565.8 724.4,565.8 724.7,565.8 725.3,565.8 725.6,565.8 725.9,565.8 726.5,565.8 726.8,565.8 727.1,565.8 727.4,565.8 728.0,565.8 728.3,565.8 728.6,565.8 729.2,565.8 729.6,565.8 729.9,565.8 730.2,565.8 730.8,565.8 731.1,565.8 731.4,565.8 732.0,565.8 732.3,565.8 732.6,565.8 733.2,565.8 733.5,565.8 733.8,565.8 734.1,565.8 734.8,565.8 735.1,565.8 735.4,565.8 736.0,565.8 736.3,565.8 736.6,565.8 736.9,565.8 737.5,565.8 737.8,565.8 738.1,565.8 738.7,565.8 739.0,565.8 739.3,565.8 739.6,565.8 740.3,565.8 740.6,565.8 740.9,565.8 741.5,565.8 741.8,565.8 742.1,565.8 742.4,565.8 743.0,565.8 743.3,565.8 743.6,565.8 744.2,565.8 744.5,565.8 744.8,565.8 745.1,565.8 745.8,565.8 746.1,565.8 746.4,565.8 747.0,565.8 747.3,565.8 747.6,565.8 747.9,565.8 748.5,565.8 748.8,565.8 749.1,565.8 749.7,565.8 750.0,565.8 750.3,565.8 750.6,565.8 751.3,565.8 751.6,565.8 751.9,565.8 752.5,565.8 752.8,565.8 753.1,565.8 753.4,565.8 754.0,565.8 754.3,565.8 754.6,565.8 755.2,565.8 755.5,565.8 755.8,565.8 756.2,565.8 756.8,565.8 757.1,565.8 757.4,565.8 758.0,565.8 758.3,565.8 758.6,565.8 758.9,565.8 759.5,565.8 759.8,565.8 760.1,565.8 760.7,565.8 761.0,565.8 761.3,565.8 762.0,565.8 762.3,565.8 762.6,565.8 762.9,565.8 763.5,565.8 763.8,565.8 764.1,565.8 764.7,565.8 765.0,565.8 765.3,565.8 765.6,565.8 766.2,565.8 766.5,565.8 766.9,565.8 767.5,565.8 767.8,565.8 768.1,565.8 768.4,565.8 769.0,565.8 769.3,565.8 769.6,565.8 770.2,565.8 770.5,565.8 770.8,565.8 771.1,565.8 771.7,565.8 772.0,565.8 772.4,565.8 773.0,565.8 773.3,565.8 773.6,565.8 773.9,565.8 774.5,565.8 774.8,565.8 775.1,565.8 775.7,565.8 776.0,565.8 776.3,565.8 776.6,565.8 777.2,565.8 777.6,565.8 777.9,565.8 778.5,565.8 778.8,565.8 779.1,565.8 779.4,565.8 780.0,565.8 780.3,565.8 780.6,565.8 781.2,565.8 781.5,565.8 781.8,565.8 782.1,565.8 782.7,565.8 783.1,565.8 783.4,565.8 784.0,565.8 784.3,565.8 784.6,565.8 784.9,565.8 785.5,565.8 785.8,565.8 786.1,565.8 786.7,565.8 787.0,565.8 787.3,565.8 787.6,565.8 788.3,565.8 788.6,565.8 788.9,565.8 789.5,565.8 789.8,565.8 790.1,565.8 790.7,565.8 791.0,565.8 791.3,565.8 791.6,565.8 792.2,565.8 792.5,565.8 792.8,565.8 793.4,565.8 793.8,565.8 794.1,565.8 794.4,565.8 795.0,565.8 795.3,565.8 795.6,565.8 796.2,565.8 796.5,565.8 796.8,565.8 797.1,565.8 797.7,565.8 798.0,565.8 798.3,565.8 799.0,565.8 799.3,565.8 799.6,565.8 799.9,565.8 800.5,565.8 800.8,565.8 801.1,565.8 801.7,565.8 802.0,565.8 802.3,565.8 802.6,565.8 803.2,565.8 803.5,565.8 803.8,565.8 804.5,565.8 804.8,565.8 805.1,565.8 805.4,565.8 806.0,565.8 806.3,565.8 806.6,565.8 807.2,565.8 807.5,565.8 807.8,565.8 808.1,565.8 808.7,565.8 809.0,565.8 809.3,565.8 810.0,565.8 810.3,565.8 810.6,565.8 810.9,565.8 811.5,565.8 811.8,565.8 812.1,565.8 812.7,565.8 813.0,565.8 813.3,565.8 813.6,565.8 814.2,565.8 814.5,565.8 814.8,565.8 815.5,565.8 815.8,565.8 816.1,565.8 816.4,565.8 817.0,565.8 817.3,565.8 817.6,565.8 818.2,565.8 818.5,565.8 818.8,565.8 819.4,565.8 819.7,565.8 820.0,565.8 820.4,565.8 821.0,565.8 821.3,565.8 821.6,565.8 822.2,565.8 822.5,565.8 822.8,565.8 823.1,565.8 823.7,565.8 824.0,565.8 824.3,565.8 824.9,565.8 825.2,565.8 825.5,565.8 825.9,565.8 826.5,565.8 826.8,565.8 827.1,565.8 827.7,565.8 828.0,565.8 828.3,565.8 828.6,565.8 829.2,565.8 829.5,565.8 829.8,565.8 830.4,565.8 830.7,565.8 831.1,565.8 831.4,565.8 832.0,565.8 832.3,565.8 832.6,565.8 833.2,565.8 833.5,565.8 833.8,565.8 834.1,565.8 834.7,565.8 835.0,565.8 835.3,565.8 835.9,565.8 836.2,565.8 836.6,565.8 836.9,565.8 837.5,565.8 837.8,565.8 838.1,565.8 838.7,565.8 839.0,565.8 839.3,565.8 839.6,565.8 840.2,565.8 840.5,565.8 840.8,565.8 841.4,565.8 841.8,565.8 842.1,565.8 842.4,565.8 843.0,565.8 843.3,565.8 843.6,565.8 844.2,565.8 844.5,565.8 844.8,565.8 845.1,565.8 845.7,565.8 846.0,565.8 846.3,565.8 846.9,565.8 847.3,565.8 847.6,565.8 848.2,565.8 848.5,565.8 848.8,565.8 849.1,565.8 849.7,565.8 850.0,565.8 850.3,565.8 850.9,565.8 851.2,565.8 851.5,565.8 851.8,565.8 852.5,565.8 852.8,565.8 853.1,565.8 853.7,565.8 854.0,565.8 854.3,565.8 854.6,565.8 855.2,565.8 855.5,565.8 855.8,565.8 856.4,565.8 856.7,565.8 857.0,565.8 857.3,565.8 858.0,565.8 858.3,565.8 858.6,565.8 859.2,565.8 859.5,565.8 859.8,565.8 860.1,565.8 860.7,565.8 861.0,565.8 861.3,565.8 861.9,565.8 862.2,565.8 862.5,565.8 862.8,565.8 863.5,565.8 863.8,565.8 864.1,565.8 864.7,565.8 865.0,565.8 865.3,565.8 865.6,565.8 866.2,565.8 866.5,565.8 866.8,565.8 867.4,565.8 867.7,565.8 868.0,565.8 868.3,565.8 869.0,565.8 869.3,565.8 869.6,565.8 870.2,565.8 870.5,565.8 870.8,565.8 871.1,565.8 871.7,565.8 872.0,565.8 872.3,565.8 872.9,565.8 873.2,565.8 873.5,565.8 873.9,565.8 874.5,565.8 874.8,565.8 875.1,565.8 875.7,565.8 876.0,565.8 876.3,565.8 876.9,565.8" /><polyline fill="none" stroke="#d62728" stroke-width="2.5" points="90.0,159.9 90.3,180.3 90.9,189.1 91.2,192.0 91.8,196.4 92.1,197.8 92.8,203.7 93.1,205.8 93.7,217.5 94.0,222.6 94.6,225.5 95.2,227.7 95.5,229.9 96.1,232.1 96.4,235.0 97.0,237.9 97.3,239.4 97.9,241.5 98.3,241.5 98.9,245.9 99.5,249.6 99.8,249.6 100.4,253.9 100.7,254.7 101.3,268.5 101.6,270.7 102.2,271.4 102.5,275.1 103.1,278.7 103.5,278.7 104.1,280.9 104.7,290.4 105.0,290.4 105.6,291.8 105.9,291.8 106.5,294.7 106.8,294.7 107.4,294.7 107.7,294.7 108.3,294.7 109.0,294.7 109.3,294.7 109.9,294.7 110.2,294.7 110.8,294.7 111.1,294.7 111.7,294.7 112.0,294.7 112.6,294.7 112.9,294.7 113.5,294.7 114.2,294.7 114.5,294.7 115.1,294.7 115.4,294.7 116.0,294.7 116.3,294.7 116.9,294.7 117.2,294.7 117.8,294.7 118.4,294.7 118.7,294.7 119.3,294.7 119.7,296.9 120.3,299.8 120.6,302.7 121.2,306.4 121.5,311.5 122.1,317.3 122.7,323.9 123.0,323.9 123.6,323.9 123.9,323.9 124.5,323.9 124.9,323.9 125.5,323.9 125.8,323.9 126.4,324.6 126.7,325.3 127.3,325.3 127.9,325.3 128.2,325.3 128.8,329.0 129.1,334.1 129.7,343.5 130.0,343.5 130.7,345.7 131.0,347.2 131.6,350.8 132.2,350.8 132.5,350.8 133.1,355.2 133.4,356.7 134.0,357.4 134.3,357.4 134.9,365.4 135.2,365.4 135.9,366.9 136.2,366.9 136.8,369.8 137.4,369.8 137.7,369.8 138.3,369.8 138.6,369.8 139.2,373.4 139.5,374.1 140.1,374.1 140.4,374.1 141.1,380.7 141.7,380.7 142.0,380.7 142.6,388.0 142.9,388.0 143.5,390.9 143.8,390.9 144.4,390.9 144.7,390.9 145.3,390.9 145.6,391.6 146.3,391.6 146.9,391.6 147.2,392.4 147.8,404.0 148.1,404.7 148.7,407.7 149.0,407.7 149.6,407.7 149.9,407.7 150.5,411.3 151.1,411.3 151.4,425.1 152.1,429.5 152.4,431.7 153.0,431.7 153.3,431.7 153.9,431.7 154.2,431.7 154.8,431.7 155.4,431.7 155.7,431.7 156.3,431.7 156.6,431.7 157.3,431.7 157.6,431.7 158.2,431.7 158.5,431.7 159.1,431.7 159.4,431.7 160.0,431.7 160.6,431.7 160.9,431.7 161.5,431.7 161.8,438.3 162.5,439.7 162.8,439.7 163.4,439.7 163.7,441.2 164.3,441.9 164.9,441.9 165.2,441.9 165.8,441.9 166.1,441.9 166.7,441.9 167.0,441.9 167.7,441.9 168.0,441.9 168.6,441.9 168.9,441.9 169.5,441.9 170.1,441.9 170.4,441.9 171.0,441.9 171.3,441.9 171.9,441.9 172.2,441.9 172.8,441.9 173.2,441.9 173.8,441.9 174.4,441.9 174.7,441.9 175.3,441.9 175.6,441.9 176.2,441.9 176.5,441.9 177.1,441.9 177.4,441.9 178.0,441.9 178.4,441.9 179.0,441.9 179.6,441.9 179.9,441.9 180.5,441.9 180.8,441.9 181.4,441.9 181.7,441.9 182.3,441.9 182.6,441.9 183.2,441.9 183.9,441.9 184.2,441.9 184.8,441.9 185.1,441.9 185.7,446.3 186.0,447.7 186.6,448.5 186.9,448.5 187.5,448.5 188.1,448.5 188.4,448.5 189.1,448.5 189.4,448.5 190.0,448.5 190.3,448.5 190.9,448.5 191.2,448.5 191.8,448.5 192.1,448.5 192.7,448.5 193.3,448.5 193.6,448.5 194.2,448.5 194.6,448.5 195.2,448.5 195.5,448.5 196.1,452.1 196.4,452.8 197.0,457.2 197.6,457.2 197.9,457.2 198.5,457.9 198.8,458.7 199.4,458.7 199.8,458.7 200.4,463.8 200.7,463.8 201.3,463.8 201.6,463.8 202.2,463.8 202.8,463.8 203.1,465.2 203.7,465.9 204.0,467.4 204.6,468.9 204.9,471.0 205.6,474.7 205.9,475.4 206.5,476.9 207.1,476.9 207.4,476.9 208.0,476.9 208.3,476.9 208.9,476.9 209.2,480.5 209.8,486.3 210.1,487.1 210.8,487.1 211.1,487.1 211.7,487.1 212.3,487.1 212.6,487.1 213.2,487.1 213.5,487.1 214.1,487.1 214.4,487.1 215.0,487.1 215.3,487.1 216.0,487.1 216.6,487.1 216.9,487.1 217.5,487.1 217.8,487.1 218.4,487.1 218.7,487.1 219.3,487.1 219.6,487.1 220.2,487.1 220.8,487.1 221.2,487.1 221.8,487.1 222.1,487.1 222.7,487.1 223.0,487.1 223.6,487.1 223.9,487.1 224.5,487.1 224.8,487.1 225.4,487.1 226.0,487.1 226.3,487.1 227.0,487.1 227.3,487.1 227.9,487.1 228.2,487.1 228.8,487.1 229.1,487.1 229.7,487.1 230.3,487.1 230.6,487.1 231.2,487.1 231.5,487.1 232.2,487.1 232.5,487.1 233.1,487.1 233.4,487.1 234.0,487.1 234.3,487.1 234.9,487.1 235.5,487.1 235.8,487.1 236.4,487.1 236.7,487.1 237.4,487.1 237.7,487.1 238.3,487.1 238.6,487.1 239.2,487.1 239.8,487.1 240.1,487.1 240.7,487.1 241.0,487.1 241.6,487.1 241.9,487.1 242.6,487.1 242.9,487.1 243.5,487.1 244.1,487.1 244.4,487.1 245.0,487.1 245.3,487.1 245.9,487.1 246.2,487.1 246.8,487.1 247.1,487.1 247.7,487.1 248.1,487.1 248.7,487.1 249.3,487.1 249.6,487.1 250.2,487.1 250.5,487.1 251.1,487.1 251.4,487.1 252.0,487.1 252.3,487.1 252.9,487.1 253.6,487.1 253.9,487.1 254.5,487.1 254.8,487.1 255.4,487.8 255.7,487.8 256.3,487.8 256.6,487.8 257.2,487.8 257.5,487.8 258.1,487.8 258.8,487.8 259.1,487.8 259.7,487.8 260.0,487.8 260.6,487.8 260.9,487.8 261.5,487.8 261.8,487.8 262.4,487.8 263.0,487.8 263.3,487.8 264.0,487.8 264.3,487.8 264.9,487.8 265.2,487.8 265.8,487.8 266.1,487.8 266.7,487.8 267.0,487.8 267.6,487.8 268.2,487.8 268.5,487.8 269.1,487.8 269.5,487.8 270.1,487.8 270.4,487.8 271.0,487.8 271.3,487.8 271.9,487.8 272.5,487.8 272.8,487.8 273.4,487.8 273.7,487.8 274.3,487.8 274.7,487.8 275.3,487.8 275.6,487.8 276.2,487.8 276.8,487.8 277.1,487.8 277.7,487.8 278.0,487.8 278.6,487.8 278.9,487.8 279.5,487.8 279.8,487.8 280.5,487.8 280.8,491.4 281.4,492.9 282.0,494.4 282.3,495.8 282.9,495.8 283.2,495.8 283.8,495.8 284.1,495.8 284.7,495.8 285.0,495.8 285.7,495.8 286.3,495.8 286.6,495.8 287.2,495.8 287.5,495.8 288.1,495.8 288.4,495.8 289.0,495.8 289.3,495.8 289.9,495.8 290.2,495.8 290.9,495.8 291.5,495.8 291.8,495.8 292.4,495.8 292.7,495.8 293.3,495.8 293.6,495.8 294.2,495.8 294.5,495.8 295.1,495.8 295.7,495.8 296.1,495.8 296.7,495.8 297.0,495.8 297.6,495.8 297.9,495.8 298.5,495.8 298.8,495.8 299.4,495.8 299.7,495.8 300.3,495.8 300.9,495.8 301.2,495.8 301.9,495.8 302.2,495.8 302.8,495.8 303.1,495.8 303.7,495.8 304.0,495.8 304.6,495.8 305.2,495.8 305.5,495.8 306.1,495.8 306.4,495.8 307.1,495.8 307.4,495.8 308.0,495.8 308.3,495.8 308.9,495.8 309.5,495.8 309.8,495.8 310.4,495.8 310.7,495.8 311.3,495.8 311.6,495.8 312.3,495.8 312.6,495.8 313.2,495.8 313.5,495.8 314.1,495.8 314.7,495.8 315.0,495.8 315.6,495.8 315.9,495.8 316.5,495.8 316.8,495.8 317.5,495.8 317.8,495.8 318.4,495.8 319.0,495.8 319.3,495.8 319.9,495.8 320.2,495.8 320.8,495.8 321.1,495.8 321.7,495.8 322.0,495.8 322.6,495.8 323.0,495.8 323.6,495.8 324.2,495.8 324.5,495.8 325.1,495.8 325.4,495.8 326.0,495.8 326.3,495.8 326.9,495.8 327.2,495.8 327.8,495.8 328.5,495.8 328.8,495.8 329.4,495.8 329.7,495.8 330.3,495.8 330.6,495.8 331.2,495.8 331.5,495.8 332.1,495.8 332.4,495.8 333.0,495.8 333.7,495.8 334.0,495.8 334.6,495.8 334.9,495.8 335.5,495.8 335.8,495.8 336.4,495.8 336.7,495.8 337.3,495.8 337.9,495.8 338.2,495.8 338.9,495.8 339.2,495.8 339.8,495.8 340.1,495.8 340.7,495.8 341.0,495.8 341.6,495.8 342.2,495.8 342.5,495.8 343.1,495.8 343.4,495.8 344.0,495.8 344.4,495.8 345.0,495.8 345.3,495.8 345.9,495.8 346.2,495.8 346.8,495.8 347.4,499.5 347.7,500.2 348.3,500.9 348.6,502.4 349.2,502.4 349.6,502.4 350.2,502.4 350.5,502.4 351.1,502.4 351.7,502.4 352.0,502.4 352.6,502.4 352.9,502.4 353.5,502.4 353.8,502.4 354.4,502.4 354.7,502.4 355.4,502.4 355.7,502.4 356.3,502.4 356.9,502.4 357.2,502.4 357.8,502.4 358.1,502.4 358.7,502.4 359.0,502.4 359.6,502.4 359.9,502.4 360.6,502.4 361.2,502.4 361.5,502.4 362.1,502.4 362.4,502.4 363.0,502.4 363.3,502.4 363.9,502.4 364.2,502.4 364.8,502.4 365.4,502.4 365.8,502.4 366.4,502.4 366.7,502.4 367.3,502.4 367.6,502.4 368.2,502.4 368.5,502.4 369.1,502.4 369.4,502.4 370.0,502.4 370.6,502.4 371.0,502.4 371.6,502.4 371.9,502.4 372.5,502.4 372.8,502.4 373.4,502.4 373.7,502.4 374.3,502.4 374.9,502.4 375.2,502.4 375.8,502.4 376.1,502.4 376.8,502.4 377.1,502.4 377.7,502.4 378.0,502.4 378.6,502.4 378.9,502.4 379.5,502.4 380.1,502.4 380.4,502.4 381.0,506.0 381.3,507.5 382.0,507.5 382.3,507.5 382.9,507.5 383.2,507.5 383.8,508.2 384.4,514.0 384.7,514.0 385.3,514.0 385.6,514.0 386.2,514.0 386.5,514.0 387.2,514.0 387.5,514.0 388.1,514.0 388.4,514.0 389.0,514.0 389.6,514.0 389.9,514.0 390.5,514.0 390.8,514.0 391.4,514.0 391.7,514.0 392.4,514.0 392.7,514.0 393.3,514.0 393.9,514.0 394.2,514.0 394.8,514.0 395.1,514.0 395.7,514.0 396.0,514.0 396.6,514.0 396.9,514.0 397.5,514.0 398.2,514.0 398.5,514.0 399.1,514.0 399.4,514.0 400.0,514.0 400.3,514.0 400.9,514.0 401.2,514.0 401.8,514.0 402.1,514.0 402.7,514.0 403.4,514.0 403.7,514.0 404.3,514.0 404.6,514.0 405.2,514.0 405.5,514.0 406.1,514.0 406.4,514.0 407.0,514.0 407.6,514.0 407.9,514.0 408.6,514.0 408.9,514.0 409.5,514.0 409.8,514.0 410.4,514.0 410.7,514.0 411.3,514.0 411.6,514.0 412.2,514.0 412.8,514.0 413.1,514.0 413.8,514.0 414.1,514.0 414.7,514.0 415.0,514.0 415.6,514.0 415.9,514.0 416.5,514.0 417.1,514.0 417.4,514.0 418.0,514.0 418.3,514.0 418.9,514.0 419.3,514.0 419.9,514.0 420.2,514.0 420.8,514.0 421.1,514.0 421.7,514.0 422.3,514.0 422.6,514.0 423.2,514.0 423.5,514.0 424.1,514.0 424.5,514.0 425.1,514.0 425.4,514.0 426.0,514.0 426.6,514.0 426.9,514.0 427.5,514.0 427.8,514.0 428.4,514.0 428.7,514.0 429.3,514.0 429.6,514.0 430.3,514.0 430.9,514.0 431.2,514.0 431.8,514.0 432.1,514.0 432.7,514.0 433.0,514.0 433.6,514.0 433.9,514.0 434.5,514.0 434.8,514.0 435.5,514.0 436.1,514.0 436.4,514.0 437.0,514.0 437.3,514.0 437.9,514.0 438.2,514.0 438.8,514.0 439.1,514.0 439.7,514.0 440.3,514.0 440.7,514.0 441.3,514.0 441.6,514.0 442.2,514.0 442.5,514.0 443.1,514.0 443.4,514.0 444.0,514.0 444.3,514.0 444.9,514.0 445.5,514.0 445.9,514.0 446.5,514.0 446.8,514.0 447.4,514.0 447.7,514.0 448.3,514.0 448.6,514.0 449.2,514.0 449.8,514.0 450.1,514.0 450.7,514.0 451.0,514.0 451.7,514.0 452.0,514.0 452.6,514.0 452.9,514.0 453.5,514.0 453.8,514.0 454.4,514.0 455.0,514.0 455.3,514.0 455.9,514.0 456.2,514.0 456.9,514.0 457.2,514.0 457.8,514.0 458.1,514.0 458.7,514.0 459.3,514.0 459.6,514.0 460.2,514.0 460.5,514.0 461.1,514.0 461.4,514.0 462.1,514.0 462.4,514.0 463.0,514.0 463.6,514.0 463.9,514.0 464.5,514.0 464.8,514.0 465.4,514.0 465.7,514.0 466.3,514.0 466.6,514.0 467.3,514.0 467.6,514.0 468.2,514.0 468.8,514.0 469.1,514.0 469.7,514.0 470.0,514.0 470.6,514.0 470.9,514.0 471.5,514.0 471.8,514.0 472.4,514.0 473.1,514.0 473.4,514.0 474.0,514.0 474.3,514.0 474.9,514.0 475.2,514.0 475.8,514.0 476.1,514.0 476.7,514.0 477.0,514.0 477.6,514.0 478.3,514.0 478.6,514.0 479.2,514.0 479.5,514.0 480.1,514.0 480.4,514.0 481.0,514.0 481.3,514.0 481.9,514.0 482.5,514.0 482.8,514.8 483.5,516.2 483.8,516.2 484.4,516.2 484.7,516.2 485.3,516.2 485.6,516.2 486.2,516.2 486.5,516.2 487.1,516.2 487.7,516.2 488.0,516.2 488.7,516.2 489.0,516.2 489.6,516.2 489.9,516.2 490.5,516.2 490.8,516.2 491.4,516.2 492.0,516.2 492.3,516.2 492.9,516.2 493.2,516.2 493.8,516.2 494.2,516.2 494.8,516.2 495.1,516.2 495.7,524.2 496.3,524.2 496.6,524.2 497.2,524.2 497.5,524.2 498.1,524.2 498.4,524.2 499.0,524.2 499.4,524.2 500.0,524.2 500.3,524.2 500.9,524.2 501.5,524.2 501.8,524.2 502.4,524.2 502.7,524.2 503.3,524.2 503.6,524.2 504.2,524.2 504.5,524.2 505.2,524.2 505.8,524.2 506.1,524.2 506.7,524.2 507.0,524.2 507.6,524.2 507.9,524.2 508.5,524.2 508.8,524.2 509.4,524.2 509.7,524.2 510.4,524.2 511.0,524.2 511.3,524.2 511.9,524.2 512.2,524.2 512.8,524.2 513.1,524.2 513.7,524.2 514.0,524.2 514.6,524.2 515.2,524.2 515.6,524.2 516.2,524.2 516.5,524.2 517.1,524.2 517.4,524.2 518.0,524.2 518.3,524.2 518.9,524.2 519.5,524.2 519.8,526.4 520.4,526.4 520.8,526.4 521.4,526.4 521.7,526.4 522.3,526.4 522.6,526.4 523.2,526.4 523.5,526.4 524.1,526.4 524.7,526.4 525.0,526.4 525.6,526.4 525.9,526.4 526.6,526.4 526.9,526.4 527.5,526.4 527.8,526.4 528.4,526.4 529.0,526.4 529.3,526.4 529.9,526.4 530.2,526.4 530.8,526.4 531.1,526.4 531.8,526.4 532.1,526.4 532.7,526.4 533.0,526.4 533.6,526.4 534.2,526.4 534.5,526.4 535.1,526.4 535.4,526.4 536.0,526.4 536.3,526.4 537.0,526.4 537.3,526.4 537.9,526.4 538.5,526.4 538.8,526.4 539.4,526.4 539.7,526.4 540.3,526.4 540.6,526.4 541.2,526.4 541.5,526.4 542.2,526.4 542.5,526.4 543.1,526.4 543.7,526.4 544.0,526.4 544.6,526.4 544.9,526.4 545.5,526.4 545.8,526.4 546.4,526.4 546.7,526.4 547.3,526.4 548.0,526.4 548.3,526.4 548.9,526.4 549.2,526.4 549.8,526.4 550.1,526.4 550.7,526.4 551.0,526.4 551.6,526.4 552.2,526.4 552.5,526.4 553.2,526.4 553.5,526.4 554.1,526.4 554.4,526.4 555.0,526.4 555.3,526.4 555.9,526.4 556.2,526.4 556.8,526.4 557.4,526.4 557.7,526.4 558.4,526.4 558.7,526.4 559.3,526.4 559.6,526.4 560.2,526.4 560.5,526.4 561.1,526.4 561.7,526.4 562.0,526.4 562.6,526.4 562.9,526.4 563.6,526.4 563.9,526.4 564.5,526.4 564.8,526.4 565.4,526.4 565.7,526.4 566.3,526.4 566.9,526.4 567.2,526.4 567.8,526.4 568.1,526.4 568.7,526.4 569.1,526.4 569.7,526.4 570.0,526.4 570.6,526.4 571.2,526.4 571.5,526.4 572.1,526.4 572.4,526.4 573.0,526.4 573.3,526.4 573.9,526.4 574.3,526.4 574.9,526.4 575.2,526.4 575.8,526.4 576.4,526.4 576.7,526.4 577.3,526.4 577.6,526.4 578.2,526.4 578.5,526.4 579.1,526.4 579.4,526.4 580.1,526.4 580.7,526.4 581.0,526.4 581.6,526.4 581.9,526.4 582.5,526.4 582.8,526.4 583.4,526.4 583.7,526.4 584.3,526.4 585.0,526.4 585.3,526.4 585.9,526.4 586.2,526.4 586.8,526.4 587.1,526.4 587.7,526.4 588.0,526.4 588.6,526.4 588.9,526.4 589.5,526.4 590.1,526.4 590.5,526.4 591.1,526.4 591.4,526.4 592.0,526.4 592.3,526.4 592.9,526.4 593.2,526.4 593.8,526.4 594.4,526.4 594.7,526.4 595.3,526.4 595.7,526.4 596.3,526.4 596.6,526.4 597.2,526.4 597.5,526.4 598.1,526.4 598.4,526.4 599.0,526.4 599.6,526.4 599.9,526.4 600.5,526.4 600.8,526.4 601.5,526.4 601.8,526.4 602.4,526.4 602.7,526.4 603.3,526.4 603.9,526.4 604.2,526.4 604.8,526.4 605.1,526.4 605.7,526.4 606.0,526.4 606.7,526.4 607.0,526.4 607.6,526.4 607.9,526.4 608.5,526.4 609.1,526.4 609.4,526.4 610.0,526.4 610.3,526.4 610.9,526.4 611.2,526.4 611.9,526.4 612.2,526.4 612.8,526.4 613.4,526.4 613.7,526.4 614.3,526.4 614.6,526.4 615.2,526.4 615.5,526.4 616.1,526.4 616.4,526.4 617.1,526.4 617.7,526.4 618.0,526.4 618.6,526.4 618.9,526.4 619.5,526.4 619.8,526.4 620.4,526.4 620.7,526.4 621.3,526.4 621.6,526.4 622.2,526.4 622.9,526.4 623.2,526.4 623.8,526.4 624.1,526.4 624.7,526.4 625.0,526.4 625.6,526.4 625.9,526.4 626.5,526.4 627.1,526.4 627.4,526.4 628.1,526.4 628.4,526.4 629.0,526.4 629.3,526.4 629.9,526.4 630.2,526.4 630.8,526.4 631.1,526.4 631.7,526.4 632.3,526.4 632.6,526.4 633.3,526.4 633.6,526.4 634.2,526.4 634.5,526.4 635.1,526.4 635.4,526.4 636.0,526.4 636.6,526.4 636.9,526.4 637.5,526.4 637.8,526.4 638.5,526.4 638.8,526.4 639.4,526.4 639.7,526.4 640.3,526.4 640.9,526.4 641.2,526.4 641.8,526.4 642.1,526.4 642.7,526.4 643.0,526.4 643.6,526.4 644.0,526.4 644.6,526.4 644.9,526.4 645.5,526.4 646.1,526.4 646.4,526.4 647.0,526.4 647.3,526.4 647.9,526.4 648.2,526.4 648.8,526.4 649.2,526.4 649.8,526.4 650.4,526.4 650.7,526.4 651.3,526.4 651.6,526.4 652.2,526.4 652.5,526.4 653.1,526.4 653.4,526.4 654.0,526.4 654.3,526.4 655.0,526.4 655.6,526.4 655.9,526.4 656.5,526.4 656.8,526.4 657.4,526.4 657.7,526.4 658.3,526.4 658.6,526.4 659.2,526.4 659.9,526.4 660.2,526.4 660.8,526.4 661.1,526.4 661.7,526.4 662.0,526.4 662.6,526.4 662.9,526.4 663.5,526.4 663.8,526.4 664.4,526.4 665.0,526.4 665.4,526.4 666.0,526.4 666.3,526.4 666.9,526.4 667.2,526.4 667.8,526.4 668.1,526.4 668.7,526.4 669.3,526.4 669.6,526.4 670.2,526.4 670.6,526.4 671.2,526.4 671.5,526.4 672.1,526.4 672.4,526.4 673.0,526.4 673.6,526.4 673.9,533.0 674.5,533.0 674.8,534.4 675.4,535.9 675.7,540.3 676.4,543.9 676.7,543.9 677.3,543.9 677.6,543.9 678.2,543.9 678.8,543.9 679.1,543.9 679.7,543.9 680.0,543.9 680.6,543.9 680.9,543.9 681.6,543.9 681.9,543.9 682.5,543.9 683.1,543.9 683.4,543.9 684.0,543.9 684.3,543.9 684.9,543.9 685.2,543.9 685.8,543.9 686.1,543.9 686.8,543.9 687.1,543.9 687.7,543.9 688.3,543.9 688.6,543.9 689.2,543.9 689.5,548.3 690.1,549.7 690.4,549.7 691.0,549.7 691.3,549.7 692.0,549.7 692.6,549.7 692.9,549.7 693.5,549.7 693.8,549.7 694.4,549.7 694.7,549.7 695.3,549.7 695.6,549.7 696.2,549.7 696.5,549.7 697.1,549.7 697.8,549.7 698.1,549.7 698.7,549.7 699.0,549.7 699.6,549.7 699.9,549.7 700.5,549.7 700.8,549.7 701.4,549.7 702.0,549.7 702.3,549.7 703.0,549.7 703.3,549.7 703.9,549.7 704.2,549.7 704.8,549.7 705.1,549.7 705.7,549.7 706.3,549.7 706.6,549.7 707.2,549.7 707.5,549.7 708.2,549.7 708.5,549.7 709.1,549.7 709.4,549.7 710.0,549.7 710.3,549.7 710.9,549.7 711.5,549.7 711.8,549.7 712.4,549.7 712.7,549.7 713.4,549.7 713.7,549.7 714.3,549.7 714.6,549.7 715.2,549.7 715.8,549.7 716.1,549.7 716.7,549.7 717.0,549.7 717.6,549.7 717.9,549.7 718.5,549.7 718.9,549.7 719.5,549.7 719.8,549.7 720.4,549.7 721.0,549.7 721.3,549.7 721.9,549.7 722.2,549.7 722.8,549.7 723.1,549.7 723.7,549.7 724.1,549.7 724.7,549.7 725.3,549.7 725.6,549.7 726.2,550.5 726.5,551.2 727.1,551.9 727.4,552.6 728.0,552.6 728.3,552.6 728.9,552.6 729.2,552.6 729.9,552.6 730.5,553.4 730.8,553.4 731.4,557.0 731.7,558.5 732.3,559.2 732.6,559.2 733.2,559.2 733.5,559.2 734.1,559.2 734.8,559.2 735.1,559.2 735.7,559.2 736.0,559.2 736.6,559.2 736.9,559.2 737.5,559.2 737.8,559.2 738.4,559.2 739.0,559.2 739.3,559.2 739.9,559.2 740.3,559.2 740.9,559.2 741.2,559.2 741.8,559.2 742.1,559.2 742.7,559.2 743.0,559.2 743.6,559.2 744.2,559.2 744.5,559.2 745.1,559.2 745.5,559.2 746.1,559.2 746.4,559.2 747.0,559.2 747.3,559.2 747.9,559.2 748.5,559.2 748.8,559.2 749.4,559.2 749.7,559.2 750.3,559.2 750.6,559.2 751.3,559.2 751.6,559.2 752.2,559.2 752.5,559.2 753.1,559.2 753.7,559.2 754.0,559.2 754.6,559.2 754.9,559.2 755.5,559.2 755.8,559.2 756.5,559.2 756.8,559.2 757.4,559.2 758.0,559.2 758.3,559.2 758.9,559.2 759.2,559.2 759.8,559.2 760.1,559.2 760.7,559.2 761.0,559.2 761.7,559.2 762.0,559.2 762.6,559.2 763.2,559.2 763.5,559.2 764.1,559.2 764.4,559.2 765.0,559.2 765.3,559.2 765.9,559.2 766.2,559.2 766.9,559.2 767.5,559.2 767.8,559.2 768.4,559.2 768.7,559.2 769.3,559.2 769.6,559.2 770.2,559.2 770.5,559.2 771.1,559.2 771.7,559.2 772.0,559.2 772.7,559.2 773.0,559.2 773.6,559.2 773.9,559.2 774.5,559.2 774.8,559.2 775.4,559.2 775.7,559.2 776.3,559.2 776.9,559.2 777.2,559.2 777.9,559.2 778.2,559.2 778.8,559.2 779.1,559.2 779.7,559.2 780.0,559.2 780.6,559.2 781.2,559.2 781.5,559.2 782.1,559.2 782.4,559.2 783.1,559.2 783.4,559.2 784.0,559.2 784.3,559.2 784.9,559.2 785.2,559.2 785.8,559.2 786.4,559.2 786.7,559.2 787.3,559.2 787.6,559.2 788.3,559.2 788.6,559.2 789.2,559.2 789.5,559.2 790.1,559.2 790.7,559.2 791.0,559.2 791.6,559.2 791.9,559.2 792.5,559.2 792.8,559.2 793.4,559.2 793.8,559.2 794.4,559.2 795.0,559.2 795.3,559.2 795.9,559.2 796.2,559.2 796.8,559.2 797.1,559.2 797.7,559.2 798.0,559.2 798.6,559.2 799.0,559.2 799.6,559.2 800.2,559.2 800.5,559.2 801.1,559.2 801.4,559.2 802.0,559.2 802.3,559.2 802.9,559.2 803.2,559.2 803.8,559.2 804.5,559.2 804.8,559.2 805.4,559.2 805.7,559.2 806.3,559.2 806.6,559.2 807.2,559.2 807.5,559.2 808.1,559.2 808.4,559.2 809.0,559.2 809.7,559.2 810.0,559.2 810.6,559.2 810.9,559.2 811.5,559.2 811.8,559.2 812.4,559.2 812.7,559.2 813.3,559.2 813.9,559.2 814.2,559.2 814.8,559.2 815.2,559.2 815.8,559.2 816.1,559.2 816.7,559.2 817.0,559.2 817.6,559.2 817.9,559.2 818.5,559.2 819.1,559.2 819.4,559.2 820.0,559.2 820.4,559.2 821.0,559.2 821.3,559.2 821.9,559.2 822.2,559.2 822.8,559.2 823.4,559.2 823.7,559.2 824.3,559.2 824.6,559.2 825.2,559.2 825.5,559.2 826.2,559.2 826.5,559.2 827.1,559.2 827.7,559.2 828.0,559.2 828.6,559.2 828.9,559.2 829.5,559.2 829.8,559.2 830.4,559.2 830.7,559.2 831.4,559.2 831.7,559.2 832.3,559.2 832.9,559.2 833.2,559.2 833.8,559.2 834.1,559.2 834.7,559.2 835.0,559.2 835.6,559.2 835.9,559.2 836.6,559.2 837.2,559.2 837.5,559.2 838.1,559.2 838.4,559.2 839.0,559.2 839.3,559.2 839.9,559.2 840.2,559.2 840.8,559.2 841.1,559.2 841.8,559.2 842.4,559.2 842.7,559.2 843.3,559.2 843.6,559.2 844.2,559.2 844.5,559.2 845.1,559.2 845.4,559.2 846.0,559.2 846.6,559.2 846.9,559.2 847.6,559.2 847.9,559.2 848.5,559.2 848.8,559.2 849.4,559.2 849.7,559.2 850.3,559.2 850.6,559.2 851.2,559.2 851.8,559.2 852.1,559.2 852.8,559.2 853.1,559.2 853.7,559.2 854.0,559.2 854.6,559.2 854.9,559.2 855.5,559.2 856.1,559.2 856.4,559.2 857.0,559.2 857.3,559.2 858.0,559.2 858.3,559.2 858.9,559.2 859.2,559.2 859.8,559.2 860.4,559.2 860.7,559.2 861.3,559.2 861.6,559.2 862.2,559.2 862.5,559.2 863.2,559.2 863.5,559.2 864.1,559.2 864.4,559.2 865.0,559.2 865.6,559.2 865.9,559.2 866.5,559.2 866.8,559.2 867.4,559.2 867.7,559.2 868.3,559.2 868.7,559.2 869.3,559.2 869.9,559.2 870.2,559.2 870.8,559.2 871.1,559.2 871.7,559.2 872.0,559.2 872.6,559.2 872.9,559.2 873.5,559.2 873.9,559.2 874.5,559.2 875.1,559.2 875.4,559.2 876.0,559.2 876.3,559.2 876.9,559.2 877.2,559.2 877.8,559.2 878.1,559.2 878.7,559.2 879.4,559.2 879.7,559.2 880.3,559.2 880.6,559.2 881.2,559.2 881.5,559.2 882.1,559.2 882.4,559.2 883.0,559.2 883.3,559.2 883.9,559.2 884.6,559.2 884.9,559.2 885.5,559.2 885.8,559.2 886.4,559.2 886.7,559.2 887.3,559.2 887.6,559.2 888.2,559.2 888.8,559.2 889.1,559.2 889.7,559.2 890.1,559.2 890.7,559.2 891.0,559.2 891.6,559.2 891.9,559.2 892.5,559.2 893.1,559.2 893.4,559.2 894.0,559.2 894.3,559.2 894.9,559.2 895.3,559.2 895.9,559.2 896.2,559.2 896.8,559.2 897.1,559.2 897.7,559.2 898.3,559.2 898.6,559.2 899.2,559.2 899.5,559.2 900.1,559.2 900.4,559.2 901.1,559.2 901.4,559.2 902.0,559.2 902.6,559.2 902.9,559.2 903.5,559.2 903.8,559.2 904.4,559.2 904.7,559.2 905.3,559.2 905.6,559.2 906.3,559.2 906.6,559.2 907.2,559.2 907.8,559.2 908.1,559.2 908.7,559.2 909.0,559.2 909.6,559.2 909.9,559.2 910.5,559.2 910.8,559.2 911.5,559.2 912.1,559.2 912.4,559.2 913.0,559.2 913.3,559.2 913.9,559.2 914.2,559.2 914.8,559.2 915.1,559.2 915.7,559.2 916.3,559.2 916.7,559.2 917.3,559.2 917.6,559.2 918.2,559.2 918.5,559.2 919.1,559.2 919.4,559.2 920.0,559.2 920.3,559.2 920.9,559.2 921.5,559.2 921.8,559.2 922.5,559.2 922.8,559.2 923.4,559.2 923.7,559.2 924.3,559.2 924.6,559.2 925.2,559.2 925.8,559.2 926.1,559.2 926.7,559.2 927.0,559.2 927.7,559.2 928.0,559.2 928.6,559.2 928.9,559.2 929.5,559.2 929.8,559.2 930.4,559.2 931.0,559.2 931.3,559.2 931.9,559.2 932.2,559.2 932.9,559.2 933.2,559.2 933.8,559.2 934.1,559.2 934.7,559.2 935.3,559.2 935.6,559.2 936.2,559.2 936.5,559.2 937.1,559.2 937.4,559.2 938.1,559.2 938.4,559.2 939.0,559.2 939.3,559.2 939.9,559.2 940.5,559.2 940.8,559.2 941.4,559.2 941.7,559.2 942.3,559.2 942.6,559.2 943.2,559.2 943.6,559.2 944.2,559.2 944.8,559.2 945.1,559.2 945.7,559.2 946.0,559.2 946.6,559.2 946.9,559.2 947.5,559.2 947.8,559.2 948.4,559.2 949.1,559.2 949.4,559.2 950.0,559.2 950.3,559.2 950.9,559.2 951.2,559.2 951.8,559.2 952.1,559.2 952.7,559.2 953.0,559.2 953.6,559.2 954.3,559.2 954.6,559.2 955.2,559.2 955.5,559.2 956.1,559.2 956.4,559.2 957.0,559.2 957.3,559.2 957.9,559.2 958.5,559.2 958.8,559.2 959.5,559.2 959.8,559.2 960.4,559.2 960.7,559.2 961.3,559.2 961.6,559.2 962.2,559.2 962.5,559.2 963.1,559.2 963.7,559.2 964.0,559.2 964.6,559.2 965.0,559.2 965.6,559.2 965.9,559.2 966.5,559.2 966.8,559.2 967.4,559.2 968.0,559.2 968.3,559.2 968.9,559.2 969.2,559.2 969.8,559.2 970.2,559.2 970.8,559.2 971.1,559.2 971.7,559.2 972.0,559.2 972.6,559.2 973.2,559.2 973.5,559.2 974.1,559.2 974.4,559.2 975.0,559.2 975.3,559.2 976.0,559.2 976.3,559.2 976.9,559.2 977.5,559.2 977.8,559.2 978.4,559.2 978.7,559.2 979.3,559.2 979.6,559.2 980.2,559.2 980.5,559.2 981.2,559.2 981.8,559.2 982.1,559.2 982.7,559.2 983.0,559.2 983.6,559.2 983.9,559.2 984.5,559.2 984.8,559.2 985.4,559.2 985.7,559.2 986.4,559.2 987.0,559.2 987.3,559.2 987.9,559.2 988.2,559.2 988.8,559.2 989.1,559.2 989.7,559.2 990.0,559.2 990.6,559.2 991.2,559.2 991.6,559.2 992.2,559.2 992.5,559.2 993.1,559.2 993.4,559.2 994.0,559.2 994.3,559.2 994.9,559.2 995.2,559.2 995.8,559.2 996.4,559.2 996.7,559.2 997.4,559.2 997.7,559.2 998.3,559.2 998.6,559.2 999.2,559.2 999.5,559.2 1000.1,559.2 1000.7,559.2 1001.0,559.2 1001.6,559.2 1001.9,559.2 1002.6,559.2 1002.9,559.2 1003.5,559.2 1003.8,559.2 1004.4,559.2 1004.7,559.2 1005.3,559.2 1005.9,559.2 1006.2,559.2 1006.8,559.2 1007.1,559.2 1007.8,559.2 1008.1,559.2 1008.7,559.2 1009.0,559.2 1009.6,559.2 1010.2,559.2 1010.5,559.2 1011.1,559.2 1011.4,559.2 1012.0,559.2 1012.3,559.2 1013.0,559.2 1013.3,559.2 1013.9,559.2 1014.5,559.2 1014.8,559.2 1015.4,559.2 1015.7,559.2 1016.3,559.2 1016.6,559.2 1017.2,559.2 1017.5,559.2 1018.1,559.2 1018.5,559.2 1019.1,559.2 1019.7,559.2 1020.0,559.2 1020.6,559.2 1020.9,559.2 1021.5,559.2 1021.8,559.2 1022.4,559.2 1022.7,559.2 1023.3,559.2 1024.0,559.2 1024.3,559.2 1024.9,559.2 1025.2,559.2 1025.8,559.2 1026.1,559.2 1026.7,559.2 1027.0,559.2 1027.6,559.2 1027.9,559.2 1028.5,559.2 1029.2,559.2 1029.5,559.2 1030.1,559.2 1030.4,559.2 1031.0,559.2 1031.3,559.2 1031.9,559.2 1032.2,559.2 1032.8,559.2 1033.4,559.2 1033.7,559.2 1034.4,559.2 1034.7,559.2 1035.3,559.2 1035.6,559.2 1036.2,559.2 1036.5,559.2 1037.1,559.2 1037.7,559.2" /><polyline fill="none" stroke="#2ca02c" stroke-width="2.5" points="90.0,159.9 90.3,182.5 90.6,204.4 90.9,209.5 91.2,213.1 91.5,217.5 91.8,222.6 92.1,224.8 92.4,231.3 92.8,236.4 93.1,236.4 93.4,238.6 93.7,243.7 94.0,248.1 94.3,248.8 94.6,258.3 94.9,259.8 95.2,259.8 95.5,259.8 95.8,261.2 96.1,261.9 96.4,262.7 96.7,264.9 97.0,266.3 97.3,268.5 97.6,270.7 97.9,276.5 98.3,280.2 98.6,280.2 98.9,282.3 99.2,282.3 99.5,283.1 99.8,283.1 100.1,284.5 100.4,284.5 100.7,287.4 101.0,288.2 101.3,288.9 101.6,292.5 101.9,292.5 102.2,299.8 102.5,301.3 102.8,303.5 103.1,306.4 103.5,307.1 103.8,307.1 104.1,307.1 104.4,310.8 104.7,313.7 105.0,313.7 105.3,315.9 105.6,316.6 105.9,316.6 106.2,318.8 106.5,320.2 106.8,320.2 107.1,323.9 107.4,325.3 107.7,326.1 108.0,327.5 108.3,329.0 108.6,329.7 109.0,333.3 109.3,335.5 109.6,335.5 109.9,337.0 110.2,337.0 110.5,337.0 110.8,338.4 111.1,340.6 111.4,342.8 111.7,344.3 112.0,344.3 112.3,346.5 112.6,346.5 112.9,347.2 113.2,347.9 113.5,347.9 113.8,353.7 114.2,353.7 114.5,353.7 114.8,353.7 115.1,353.7 115.4,353.7 115.7,355.2 116.0,357.4 116.3,358.8 116.6,361.0 116.9,365.4 117.2,365.4 117.5,365.4 117.8,365.4 118.1,366.9 118.4,366.9 118.7,370.5 119.0,374.1 119.3,374.1 119.7,374.1 120.0,374.1 120.3,374.1 120.6,374.1 120.9,374.1 121.2,374.1 121.5,374.1 121.8,374.1 122.1,374.1 122.4,374.1 122.7,374.1 123.0,374.1 123.3,374.1 123.6,374.1 123.9,374.1 124.2,374.1 124.5,374.9 124.9,380.7 125.2,380.7 125.5,380.7 125.8,380.7 126.1,380.7 126.4,380.7 126.7,380.7 127.0,380.7 127.3,380.7 127.6,380.7 127.9,380.7 128.2,385.8 128.5,386.5 128.8,391.6 129.1,394.5 129.4,395.3 129.7,395.3 130.0,396.0 130.4,398.9 130.7,401.1 131.0,402.6 131.3,403.3 131.6,404.7 131.9,404.7 132.2,405.5 132.5,406.2 132.8,406.2 133.1,407.7 133.4,407.7 133.7,407.7 134.0,407.7 134.3,407.7 134.6,407.7 134.9,407.7 135.2,407.7 135.6,407.7 135.9,410.6 136.2,410.6 136.5,410.6 136.8,412.0 137.1,412.0 137.4,412.8 137.7,414.2 138.0,423.0 138.3,424.4 138.6,425.1 138.9,431.7 139.2,438.3 139.5,438.3 139.8,438.3 140.1,438.3 140.4,438.3 140.7,439.7 141.1,446.3 141.4,447.0 141.7,447.0 142.0,447.0 142.3,447.0 142.6,447.0 142.9,447.0 143.2,453.6 143.5,453.6 143.8,453.6 144.1,453.6 144.4,453.6 144.7,453.6 145.0,453.6 145.3,453.6 145.6,453.6 145.9,457.9 146.3,459.4 146.6,459.4 146.9,459.4 147.2,459.4 147.5,459.4 147.8,459.4 148.1,459.4 148.4,459.4 148.7,459.4 149.0,459.4 149.3,459.4 149.6,459.4 149.9,459.4 150.2,459.4 150.5,459.4 150.8,459.4 151.1,459.4 151.4,459.4 151.8,459.4 152.1,459.4 152.4,459.4 152.7,459.4 153.0,459.4 153.3,459.4 153.6,459.4 153.9,461.6 154.2,461.6 154.5,461.6 154.8,463.0 155.1,463.0 155.4,463.8 155.7,466.7 156.0,474.7 156.3,474.7 156.6,474.7 157.0,474.7 157.3,474.7 157.6,474.7 157.9,474.7 158.2,474.7 158.5,474.7 158.8,474.7 159.1,474.7 159.4,474.7 159.7,474.7 160.0,474.7 160.3,474.7 160.6,474.7 160.9,474.7 161.2,474.7 161.5,474.7 161.8,474.7 162.1,474.7 162.5,474.7 162.8,474.7 163.1,474.7 163.4,476.9 163.7,480.5 164.0,481.2 164.3,481.2 164.6,484.2 164.9,484.2 165.2,484.2 165.5,484.2 165.8,484.2 166.1,484.2 166.4,484.2 166.7,484.2 167.0,484.2 167.3,484.2 167.7,484.2 168.0,484.2 168.3,484.2 168.6,484.2 168.9,484.2 169.2,484.2 169.5,484.2 169.8,484.2 170.1,484.2 170.4,484.2 170.7,484.2 171.0,484.2 171.3,484.2 171.6,484.2 171.9,484.2 172.2,484.2 172.5,484.2 172.8,484.2 173.2,484.2 173.5,484.2 173.8,484.2 174.1,484.2 174.4,484.2 174.7,484.2 175.0,484.2 175.3,484.2 175.6,484.2 175.9,484.2 176.2,484.2 176.5,484.2 176.8,484.2 177.1,484.2 177.4,484.2 177.7,484.2 178.0,484.2 178.4,484.2 178.7,484.2 179.0,484.2 179.3,484.2 179.6,484.2 179.9,484.2 180.2,484.2 180.5,484.2 180.8,484.2 181.1,484.2 181.4,484.2 181.7,484.2 182.0,484.2 182.3,484.2 182.6,484.2 182.9,484.2 183.2,484.2 183.5,484.2 183.9,484.2 184.2,484.2 184.5,484.2 184.8,484.2 185.1,484.2 185.4,484.2 185.7,484.2 186.0,484.2 186.3,484.2 186.6,484.2 186.9,484.2 187.2,484.2 187.5,484.2 187.8,484.2 188.1,484.2 188.4,484.2 188.7,484.2 189.1,484.2 189.4,484.2 189.7,484.2 190.0,484.2 190.3,484.2 190.6,484.2 190.9,484.2 191.2,484.2 191.5,484.2 191.8,484.2 192.1,484.2 192.4,484.2 192.7,484.2 193.0,484.2 193.3,484.2 193.6,484.2 193.9,484.2 194.2,484.2 194.6,484.2 194.9,484.2 195.2,484.2 195.5,484.2 195.8,484.2 196.1,484.2 196.4,484.2 196.7,484.2 197.0,484.2 197.3,484.2 197.6,484.2 197.9,484.2 198.2,484.2 198.5,484.2 198.8,484.2 199.1,484.2 199.4,484.2 199.8,484.2 200.1,484.2 200.4,484.2 200.7,484.2 201.0,484.2 201.3,484.2 201.6,484.2 201.9,484.2 202.2,484.2 202.5,484.2 202.8,484.2 203.1,484.2 203.4,484.2 203.7,484.2 204.0,484.2 204.3,484.2 204.6,484.2 204.9,484.2 205.3,484.2 205.6,484.2 205.9,484.2 206.2,484.2 206.5,484.2 206.8,484.2 207.1,484.2 207.4,484.2 207.7,484.2 208.0,484.2 208.3,484.2 208.6,484.2 208.9,484.2 209.2,484.2 209.5,484.2 209.8,484.2 210.1,484.2 210.5,484.2 210.8,484.2 211.1,484.2 211.4,484.2 211.7,484.2 212.0,484.2 212.3,484.2 212.6,484.2 212.9,484.2 213.2,484.2 213.5,484.2 213.8,484.2 214.1,484.2 214.4,484.2 214.7,484.2 215.0,484.2 215.3,484.2 215.6,484.2 216.0,484.2 216.3,484.2 216.6,484.2 216.9,484.2 217.2,484.2 217.5,484.2 217.8,484.2 218.1,484.2 218.4,484.2 218.7,484.2 219.0,484.2 219.3,484.2 219.6,484.2 219.9,484.2 220.2,484.2 220.5,484.2 220.8,484.2 221.2,484.2 221.5,484.2 221.8,484.2 222.1,484.2 222.4,484.2 222.7,484.2 223.0,484.2 223.3,484.2 223.6,484.2 223.9,484.2 224.2,484.2 224.5,484.2 224.8,484.2 225.1,484.2 225.4,484.2 225.7,484.2 226.0,484.2 226.3,484.2 226.7,484.2 227.0,484.2 227.3,484.2 227.6,484.2 227.9,484.2 228.2,484.2 228.5,484.2 228.8,484.2 229.1,484.2 229.4,484.2 229.7,484.2 230.0,484.2 230.3,484.2 230.6,484.2 230.9,484.2 231.2,484.2 231.5,484.2 231.9,484.2 232.2,484.2 232.5,484.2 232.8,484.2 233.1,484.2 233.4,484.2 233.7,484.2 234.0,484.2 234.3,484.2 234.6,484.2 234.9,484.2 235.2,484.2 235.5,484.2 235.8,484.2 236.1,484.2 236.4,484.2 236.7,484.2 237.0,484.2 237.4,484.2 237.7,484.2 238.0,484.2 238.3,484.2 238.6,484.2 238.9,484.2 239.2,484.2 239.5,484.2 239.8,484.2 240.1,484.2 240.4,484.2 240.7,484.2 241.0,484.2 241.3,484.2 241.6,484.2 241.9,484.2 242.2,484.2 242.6,484.2 242.9,484.2 243.2,484.2 243.5,484.2 243.8,484.2 244.1,484.2 244.4,484.2 244.7,484.2 245.0,484.2 245.3,484.2 245.6,484.2 245.9,484.2 246.2,484.2 246.5,484.2 246.8,484.2 247.1,484.2 247.4,484.2 247.7,484.2 248.1,484.2 248.4,484.2 248.7,484.2 249.0,484.2 249.3,484.2 249.6,484.2 249.9,484.2 250.2,484.2 250.5,484.2 250.8,484.2 251.1,484.2 251.4,484.2 251.7,484.2 252.0,484.2 252.3,484.2 252.6,484.2 252.9,484.2 253.3,484.2 253.6,484.2 253.9,484.2 254.2,484.2 254.5,484.2 254.8,484.2 255.1,484.2 255.4,484.2 255.7,484.2 256.0,484.2 256.3,484.2 256.6,484.2 256.9,484.2 257.2,484.2 257.5,484.2 257.8,484.2 258.1,484.2 258.4,484.2 258.8,485.6 259.1,485.6 259.4,486.3 259.7,487.1 260.0,487.1 260.3,487.1 260.6,487.1 260.9,487.8 261.2,487.8 261.5,487.8 261.8,487.8 262.1,487.8 262.4,487.8 262.7,492.2 263.0,492.2 263.3,492.2 263.6,492.2 264.0,495.1 264.3,496.5 264.6,496.5 264.9,496.5 265.2,497.3 265.5,498.7 265.8,498.7 266.1,498.7 266.4,498.7 266.7,498.7 267.0,498.7 267.3,498.7 267.6,498.7 267.9,498.7 268.2,498.7 268.5,498.7 268.8,498.7 269.1,498.7 269.5,498.7 269.8,498.7 270.1,498.7 270.4,498.7 270.7,498.7 271.0,498.7 271.3,498.7 271.6,498.7 271.9,498.7 272.2,498.7 272.5,498.7 272.8,498.7 273.1,498.7 273.4,498.7 273.7,498.7 274.0,498.7 274.3,498.7 274.7,498.7 275.0,498.7 275.3,498.7 275.6,498.7 275.9,500.2 276.2,500.2 276.5,500.2 276.8,500.2 277.1,500.2 277.4,500.2 277.7,500.2 278.0,500.2 278.3,500.2 278.6,500.2 278.9,500.2 279.2,500.2 279.5,500.2 279.8,500.2 280.2,500.2 280.5,500.2 280.8,500.2 281.1,500.2 281.4,500.2 281.7,500.2 282.0,500.2 282.3,500.2 282.6,500.2 282.9,500.2 283.2,500.2 283.5,500.2 283.8,500.2 284.1,500.2 284.4,500.2 284.7,500.2 285.0,500.2 285.4,500.2 285.7,500.2 286.0,500.2 286.3,500.2 286.6,500.2 286.9,500.2 287.2,500.2 287.5,500.2 287.8,500.2 288.1,500.2 288.4,500.2 288.7,500.2 289.0,500.2 289.3,500.2 289.6,500.2 289.9,500.2 290.2,500.2 290.5,500.2 290.9,500.2 291.2,500.2 291.5,500.2 291.8,500.2 292.1,500.2 292.4,500.2 292.7,500.2 293.0,500.2 293.3,500.2 293.6,500.2 293.9,500.2 294.2,500.2 294.5,500.2 294.8,500.2 295.1,500.2 295.4,500.2 295.7,500.2 296.1,500.2 296.4,500.2 296.7,500.2 297.0,500.2 297.3,500.2 297.6,500.2 297.9,500.2 298.2,500.2 298.5,500.2 298.8,500.2 299.1,500.2 299.4,500.2 299.7,500.2 300.0,500.2 300.3,500.2 300.6,500.2 300.9,500.2 301.2,500.2 301.6,500.2 301.9,500.2 302.2,500.2 302.5,500.2 302.8,500.2 303.1,500.2 303.4,500.2 303.7,500.2 304.0,500.2 304.3,500.2 304.6,500.2 304.9,500.2 305.2,500.2 305.5,500.2 305.8,500.2 306.1,500.2 306.4,500.2 306.8,500.2 307.1,500.2 307.4,500.2 307.7,500.2 308.0,500.2 308.3,500.2 308.6,500.2 308.9,500.2 309.2,500.2 309.5,500.2 309.8,500.2 310.1,500.2 310.4,500.2 310.7,500.2 311.0,500.2 311.3,500.2 311.6,500.2 311.9,500.2 312.3,500.2 312.6,500.2 312.9,500.2 313.2,500.2 313.5,500.2 313.8,500.2 314.1,500.2 314.4,500.2 314.7,500.2 315.0,500.2 315.3,500.2 315.6,500.2 315.9,500.2 316.2,500.2 316.5,500.2 316.8,500.2 317.1,500.2 317.5,500.2 317.8,500.2 318.1,500.2 318.4,500.2 318.7,501.6 319.0,503.1 319.3,503.1 319.6,506.0 319.9,508.2 320.2,509.7 320.5,509.7 320.8,509.7 321.1,509.7 321.4,509.7 321.7,509.7 322.0,509.7 322.3,509.7 322.6,509.7 323.0,509.7 323.3,509.7 323.6,509.7 323.9,509.7 324.2,509.7 324.5,509.7 324.8,509.7 325.1,509.7 325.4,509.7 325.7,509.7 326.0,509.7 326.3,509.7 326.6,509.7 326.9,509.7 327.2,509.7 327.5,509.7 327.8,509.7 328.2,509.7 328.5,509.7 328.8,509.7 329.1,509.7 329.4,509.7 329.7,509.7 330.0,509.7 330.3,509.7 330.6,509.7 330.9,509.7 331.2,509.7 331.5,509.7 331.8,509.7 332.1,509.7 332.4,509.7 332.7,509.7 333.0,509.7 333.3,509.7 333.7,509.7 334.0,509.7 334.3,509.7 334.6,509.7 334.9,509.7 335.2,509.7 335.5,509.7 335.8,509.7 336.1,509.7 336.4,509.7 336.7,509.7 337.0,509.7 337.3,509.7 337.6,509.7 337.9,509.7 338.2,509.7 338.5,509.7 338.9,509.7 339.2,509.7 339.5,509.7 339.8,509.7 340.1,509.7 340.4,509.7 340.7,509.7 341.0,509.7 341.3,509.7 341.6,509.7 341.9,509.7 342.2,509.7 342.5,509.7 342.8,509.7 343.1,509.7 343.4,509.7 343.7,509.7 344.0,509.7 344.4,509.7 344.7,509.7 345.0,509.7 345.3,509.7 345.6,509.7 345.9,509.7 346.2,509.7 346.5,509.7 346.8,509.7 347.1,509.7 347.4,509.7 347.7,509.7 348.0,509.7 348.3,509.7 348.6,509.7 348.9,509.7 349.2,509.7 349.6,509.7 349.9,509.7 350.2,509.7 350.5,509.7 350.8,509.7 351.1,509.7 351.4,509.7 351.7,509.7 352.0,509.7 352.3,509.7 352.6,509.7 352.9,509.7 353.2,509.7 353.5,509.7 353.8,509.7 354.1,509.7 354.4,509.7 354.7,509.7 355.1,509.7 355.4,509.7 355.7,509.7 356.0,509.7 356.3,509.7 356.6,509.7 356.9,509.7 357.2,509.7 357.5,509.7 357.8,509.7 358.1,509.7 358.4,509.7 358.7,509.7 359.0,509.7 359.3,509.7 359.6,509.7 359.9,509.7 360.3,509.7 360.6,509.7 360.9,509.7 361.2,509.7 361.5,509.7 361.8,509.7 362.1,509.7 362.4,509.7 362.7,509.7 363.0,509.7 363.3,509.7 363.6,509.7 363.9,509.7 364.2,509.7 364.5,509.7 364.8,509.7 365.1,509.7 365.4,509.7 365.8,509.7 366.1,509.7 366.4,509.7 366.7,509.7 367.0,509.7 367.3,509.7 367.6,509.7 367.9,509.7 368.2,509.7 368.5,509.7 368.8,509.7 369.1,509.7 369.4,509.7 369.7,509.7 370.0,509.7 370.3,509.7 370.6,509.7 371.0,509.7 371.3,509.7 371.6,509.7 371.9,509.7 372.2,509.7 372.5,509.7 372.8,509.7 373.1,509.7 373.4,509.7 373.7,509.7 374.0,509.7 374.3,509.7 374.6,509.7 374.9,509.7 375.2,509.7 375.5,509.7 375.8,509.7 376.1,509.7 376.5,509.7 376.8,509.7 377.1,509.7 377.4,509.7 377.7,509.7 378.0,509.7 378.3,509.7 378.6,509.7 378.9,509.7 379.2,509.7 379.5,509.7 379.8,509.7 380.1,509.7 380.4,509.7 380.7,509.7 381.0,509.7 381.3,509.7 381.7,509.7 382.0,509.7 382.3,509.7 382.6,509.7 382.9,509.7 383.2,509.7 383.5,509.7 383.8,509.7 384.1,509.7 384.4,509.7 384.7,509.7 385.0,509.7 385.3,509.7 385.6,509.7 385.9,509.7 386.2,509.7 386.5,509.7 386.8,509.7 387.2,509.7 387.5,509.7 387.8,509.7 388.1,509.7 388.4,509.7 388.7,509.7 389.0,509.7 389.3,509.7 389.6,509.7 389.9,509.7 390.2,509.7 390.5,509.7 390.8,509.7 391.1,509.7 391.4,509.7 391.7,509.7 392.0,509.7 392.4,509.7 392.7,509.7 393.0,509.7 393.3,509.7 393.6,509.7 393.9,509.7 394.2,509.7 394.5,509.7 394.8,509.7 395.1,509.7 395.4,509.7 395.7,509.7 396.0,509.7 396.3,509.7 396.6,509.7 396.9,509.7 397.2,509.7 397.5,509.7 397.9,509.7 398.2,509.7 398.5,509.7 398.8,509.7 399.1,509.7 399.4,509.7 399.7,509.7 400.0,509.7 400.3,509.7 400.6,509.7 400.9,509.7 401.2,509.7 401.5,509.7 401.8,509.7 402.1,509.7 402.4,509.7 402.7,509.7 403.1,509.7 403.4,509.7 403.7,509.7 404.0,509.7 404.3,509.7 404.6,509.7 404.9,509.7 405.2,509.7 405.5,509.7 405.8,509.7 406.1,509.7 406.4,509.7 406.7,509.7 407.0,509.7 407.3,509.7 407.6,509.7 407.9,509.7 408.2,509.7 408.6,509.7 408.9,509.7 409.2,509.7 409.5,509.7 409.8,509.7 410.1,509.7 410.4,509.7 410.7,509.7 411.0,509.7 411.3,509.7 411.6,509.7 411.9,509.7 412.2,509.7 412.5,509.7 412.8,509.7 413.1,509.7 413.4,509.7 413.8,509.7 414.1,509.7 414.4,509.7 414.7,509.7 415.0,509.7 415.3,509.7 415.6,509.7 415.9,509.7 416.2,509.7 416.5,509.7 416.8,509.7 417.1,509.7 417.4,509.7 417.7,509.7 418.0,509.7 418.3,509.7 418.6,509.7 418.9,509.7 419.3,509.7 419.6,509.7 419.9,509.7 420.2,509.7 420.5,509.7 420.8,509.7 421.1,509.7 421.4,509.7 421.7,509.7 422.0,509.7 422.3,509.7 422.6,509.7 422.9,509.7 423.2,509.7 423.5,509.7 423.8,509.7 424.1,509.7 424.5,509.7 424.8,509.7 425.1,509.7 425.4,509.7 425.7,509.7 426.0,509.7 426.3,509.7 426.6,509.7 426.9,509.7 427.2,509.7 427.5,509.7 427.8,509.7 428.1,509.7 428.4,509.7 428.7,509.7 429.0,509.7 429.3,509.7 429.6,509.7 430.0,509.7 430.3,509.7 430.6,509.7 430.9,509.7 431.2,509.7 431.5,509.7 431.8,509.7 432.1,509.7 432.4,509.7 432.7,509.7 433.0,509.7 433.3,509.7 433.6,509.7 433.9,509.7 434.2,509.7 434.5,509.7 434.8,509.7 435.2,509.7 435.5,509.7 435.8,509.7 436.1,509.7 436.4,509.7 436.7,509.7 437.0,509.7 437.3,509.7 437.6,509.7 437.9,509.7 438.2,509.7 438.5,509.7 438.8,509.7 439.1,509.7 439.4,509.7 439.7,509.7 440.0,509.7 440.3,509.7 440.7,509.7 441.0,509.7 441.3,509.7 441.6,509.7 441.9,509.7 442.2,509.7 442.5,509.7 442.8,509.7 443.1,509.7 443.4,509.7 443.7,509.7 444.0,509.7 444.3,509.7 444.6,509.7 444.9,509.7 445.2,509.7 445.5,509.7 445.9,509.7 446.2,509.7 446.5,509.7 446.8,509.7 447.1,509.7 447.4,509.7 447.7,509.7 448.0,509.7 448.3,509.7 448.6,509.7 448.9,509.7 449.2,509.7 449.5,509.7 449.8,509.7 450.1,509.7 450.4,509.7 450.7,509.7 451.0,509.7 451.4,509.7 451.7,509.7 452.0,509.7 452.3,509.7 452.6,509.7 452.9,509.7 453.2,509.7 453.5,509.7 453.8,509.7 454.1,509.7 454.4,509.7 454.7,509.7 455.0,509.7 455.3,509.7 455.6,509.7 455.9,509.7 456.2,509.7 456.6,509.7 456.9,509.7 457.2,509.7 457.5,509.7 457.8,509.7 458.1,509.7 458.4,509.7 458.7,509.7 459.0,509.7 459.3,509.7 459.6,509.7 459.9,513.3 460.2,513.3 460.5,513.3 460.8,513.3 461.1,513.3 461.4,513.3 461.7,513.3 462.1,513.3 462.4,513.3 462.7,513.3 463.0,513.3 463.3,513.3 463.6,513.3 463.9,513.3 464.2,513.3 464.5,513.3 464.8,513.3 465.1,513.3 465.4,513.3 465.7,513.3 466.0,513.3 466.3,513.3 466.6,513.3 466.9,513.3 467.3,513.3 467.6,513.3 467.9,513.3 468.2,513.3 468.5,513.3 468.8,513.3 469.1,513.3 469.4,513.3 469.7,513.3 470.0,513.3 470.3,513.3 470.6,513.3 470.9,513.3 471.2,513.3 471.5,513.3 471.8,513.3 472.1,513.3 472.4,513.3 472.8,513.3 473.1,513.3 473.4,513.3 473.7,513.3 474.0,513.3 474.3,513.3 474.6,513.3 474.9,513.3 475.2,513.3 475.5,513.3 475.8,513.3 476.1,513.3 476.4,513.3 476.7,513.3 477.0,513.3 477.3,513.3 477.6,513.3 478.0,513.3 478.3,513.3 478.6,513.3 478.9,513.3 479.2,513.3 479.5,513.3 479.8,513.3 480.1,513.3 480.4,513.3 480.7,513.3 481.0,513.3 481.3,513.3 481.6,513.3 481.9,513.3 482.2,513.3 482.5,513.3 482.8,513.3 483.1,513.3 483.5,513.3 483.8,513.3 484.1,513.3 484.4,513.3 484.7,513.3 485.0,513.3 485.3,513.3 485.6,513.3 485.9,513.3 486.2,513.3 486.5,513.3 486.8,513.3 487.1,513.3 487.4,513.3 487.7,513.3 488.0,513.3 488.3,513.3 488.7,513.3 489.0,513.3 489.3,513.3 489.6,513.3 489.9,513.3 490.2,513.3 490.5,513.3 490.8,513.3 491.1,513.3 491.4,513.3 491.7,513.3 492.0,513.3 492.3,513.3 492.6,513.3 492.9,513.3 493.2,513.3 493.5,513.3 493.8,513.3 494.2,513.3 494.5,513.3 494.8,513.3 495.1,513.3 495.4,513.3 495.7,513.3 496.0,513.3 496.3,513.3 496.6,513.3 496.9,513.3 497.2,513.3 497.5,513.3 497.8,513.3 498.1,513.3 498.4,513.3 498.7,513.3 499.0,513.3 499.4,513.3 499.7,513.3 500.0,513.3 500.3,513.3 500.6,513.3 500.9,513.3 501.2,513.3 501.5,513.3 501.8,513.3 502.1,513.3 502.4,513.3 502.7,513.3 503.0,513.3 503.3,513.3 503.6,513.3 503.9,513.3 504.2,513.3 504.5,513.3 504.9,513.3 505.2,513.3 505.5,513.3 505.8,513.3 506.1,513.3 506.4,513.3 506.7,513.3 507.0,513.3 507.3,513.3 507.6,513.3 507.9,513.3 508.2,513.3 508.5,513.3 508.8,513.3 509.1,513.3 509.4,513.3 509.7,513.3 510.1,513.3 510.4,513.3 510.7,513.3 511.0,513.3 511.3,513.3 511.6,513.3 511.9,513.3 512.2,513.3 512.5,513.3 512.8,513.3 513.1,513.3 513.4,513.3 513.7,513.3 514.0,513.3 514.3,513.3 514.6,513.3 514.9,513.3 515.2,513.3 515.6,513.3 515.9,513.3 516.2,513.3 516.5,513.3 516.8,513.3 517.1,513.3 517.4,513.3 517.7,513.3 518.0,513.3 518.3,513.3 518.6,513.3 518.9,513.3 519.2,513.3 519.5,513.3 519.8,513.3 520.1,513.3 520.4,513.3 520.8,513.3 521.1,513.3 521.4,513.3 521.7,513.3 522.0,513.3 522.3,513.3 522.6,513.3 522.9,513.3 523.2,513.3 523.5,513.3 523.8,513.3 524.1,513.3 524.4,513.3 524.7,513.3 525.0,513.3 525.3,513.3 525.6,513.3 525.9,513.3 526.3,513.3 526.6,513.3 526.9,513.3 527.2,513.3 527.5,513.3 527.8,513.3 528.1,513.3 528.4,513.3 528.7,513.3 529.0,513.3 529.3,513.3 529.6,513.3 529.9,513.3 530.2,513.3 530.5,513.3 530.8,513.3 531.1,513.3 531.5,513.3 531.8,513.3 532.1,513.3 532.4,513.3 532.7,513.3 533.0,513.3 533.3,513.3 533.6,513.3 533.9,513.3 534.2,513.3 534.5,513.3 534.8,513.3 535.1,513.3 535.4,513.3 535.7,513.3 536.0,513.3 536.3,513.3 536.6,513.3 537.0,513.3 537.3,513.3 537.6,513.3 537.9,513.3 538.2,513.3 538.5,513.3 538.8,513.3 539.1,513.3 539.4,513.3 539.7,513.3 540.0,513.3 540.3,513.3 540.6,513.3 540.9,513.3 541.2,513.3 541.5,513.3 541.8,513.3 542.2,513.3 542.5,513.3 542.8,513.3 543.1,513.3 543.4,513.3 543.7,513.3 544.0,513.3 544.3,513.3 544.6,513.3 544.9,513.3 545.2,513.3 545.5,513.3 545.8,513.3 546.1,513.3 546.4,513.3 546.7,513.3 547.0,513.3 547.3,513.3 547.7,513.3 548.0,513.3 548.3,513.3 548.6,513.3 548.9,513.3 549.2,513.3 549.5,513.3 549.8,513.3 550.1,513.3 550.4,513.3 550.7,513.3 551.0,513.3 551.3,513.3 551.6,513.3 551.9,513.3 552.2,513.3 552.5,513.3 552.9,513.3 553.2,513.3 553.5,513.3 553.8,513.3 554.1,513.3 554.4,513.3 554.7,513.3 555.0,516.2 555.3,519.1 555.6,519.9 555.9,523.5 556.2,525.0 556.5,525.0 556.8,525.0 557.1,525.0 557.4,525.0 557.7,525.0 558.0,525.0 558.4,525.0 558.7,525.0 559.0,525.0 559.3,525.0 559.6,525.0 559.9,525.0 560.2,525.0 560.5,525.0 560.8,525.0 561.1,525.0 561.4,525.0 561.7,525.0 562.0,525.0 562.3,525.0 562.6,525.0 562.9,525.0 563.2,525.0 563.6,525.0 563.9,525.0 564.2,528.6 564.5,530.1 564.8,530.8 565.1,530.8 565.4,533.0 565.7,533.0 566.0,533.7 566.3,535.2 566.6,539.5 566.9,539.5 567.2,540.3 567.5,541.7 567.8,541.7 568.1,541.7 568.4,541.7 568.7,541.7 569.1,541.7 569.4,541.7 569.7,541.7 570.0,541.7 570.3,541.7 570.6,541.7 570.9,541.7 571.2,541.7 571.5,541.7 571.8,541.7 572.1,541.7 572.4,541.7 572.7,541.7 573.0,541.7 573.3,541.7 573.6,541.7 573.9,541.7 574.3,541.7 574.6,541.7 574.9,541.7 575.2,541.7 575.5,541.7 575.8,541.7 576.1,541.7 576.4,541.7 576.7,541.7 577.0,541.7 577.3,541.7 577.6,541.7 577.9,541.7 578.2,541.7 578.5,541.7 578.8,541.7 579.1,541.7 579.4,541.7 579.8,541.7 580.1,541.7 580.4,541.7 580.7,541.7 581.0,541.7 581.3,541.7 581.6,541.7 581.9,541.7 582.2,541.7 582.5,541.7 582.8,541.7 583.1,541.7 583.4,541.7 583.7,541.7 584.0,541.7 584.3,541.7 584.6,541.7 585.0,541.7 585.3,541.7 585.6,541.7 585.9,541.7 586.2,541.7 586.5,541.7 586.8,541.7 587.1,541.7 587.4,541.7 587.7,541.7 588.0,541.7 588.3,541.7 588.6,541.7 588.9,541.7" />
  <text x="90.0" y="618.0" text-anchor="middle" font-family="Arial" font-size="11" fill="#555">0</text><text x="242.9" y="618.0" text-anchor="middle" font-family="Arial" font-size="11" fill="#555">500</text><text x="395.7" y="618.0" text-anchor="middle" font-family="Arial" font-size="11" fill="#555">1000</text><text x="548.6" y="618.0" text-anchor="middle" font-family="Arial" font-size="11" fill="#555">1500</text><text x="701.4" y="618.0" text-anchor="middle" font-family="Arial" font-size="11" fill="#555">2000</text><text x="854.3" y="618.0" text-anchor="middle" font-family="Arial" font-size="11" fill="#555">2500</text><text x="1007.1" y="618.0" text-anchor="middle" font-family="Arial" font-size="11" fill="#555">3000</text><text x="1160.0" y="618.0" text-anchor="middle" font-family="Arial" font-size="11" fill="#555">3500</text>
  <rect x="100" y="55" width="12" height="12" fill="#1f77b4" /><text x="118" y="65" font-family="Arial" font-size="12">adjacent</text><rect x="260" y="55" width="12" height="12" fill="#d62728" /><text x="278" y="65" font-family="Arial" font-size="12">n5</text><rect x="420" y="55" width="12" height="12" fill="#2ca02c" /><text x="438" y="65" font-family="Arial" font-size="12">n6</text>
  <text x="625.0" y="645.0" text-anchor="middle" font-family="Arial" font-size="14" font-weight="bold">Iteration</text>
  <text x="30.0" y="345.0" text-anchor="middle" font-family="Arial" font-size="14" font-weight="bold" transform="rotate(-90 30.0 345.0)">Makespan</text>
</svg>