<svg xmlns="http://www.w3.org/2000/svg" width="1200" height="700" viewBox="0 0 1200 700">
  <rect x="0" y="0" width="1200" height="700" fill="#ffffff" />
  <text x="600.0" y="32" text-anchor="middle" font-family="Arial" font-size="24" font-weight="bold">Neighborhood Makespan Comparison</text>
  <line x1="90.0" y1="600.0" x2="1160.0" y2="600.0" stroke="#e6e6e6" stroke-width="1" /><text x="82.0" y="604.0" text-anchor="end" font-family="Arial" font-size="11" fill="#555">877</text><line x1="90.0" y1="472.5" x2="1160.0" y2="472.5" stroke="#e6e6e6" stroke-width="1" /><text x="82.0" y="476.5" text-anchor="end" font-family="Arial" font-size="11" fill="#555">898</text><line x1="90.0" y1="345.0" x2="1160.0" y2="345.0" stroke="#e6e6e6" stroke-width="1" /><text x="82.0" y="349.0" text-anchor="end" font-family="Arial" font-size="11" fill="#555">919</text><line x1="90.0" y1="217.5" x2="1160.0" y2="217.5" stroke="#e6e6e6" stroke-width="1" /><text x="82.0" y="221.5" text-anchor="end" font-family="Arial" font-size="11" fill="#555">940</text><line x1="90.0" y1="90.0" x2="1160.0" y2="90.0" stroke="#e6e6e6" stroke-width="1" /><text x="82.0" y="94.0" text-anchor="end" font-family="Arial" font-size="11" fill="#555">961</text>
  <line x1="90" y1="600" x2="1160" y2="600" stroke="#333" stroke-width="1.5" />
  <line x1="90" y1="90" x2="90" y2="600" stroke="#333" stroke-width="1.5" />
  <polyline fill="none" stroke="#1f77b4" stroke-width="2.5" points="90.0,113.2 95.4,113.2 100.8,113.2 106.1,113.2 111.5,113.2 116.9,113.2 122.3,113.2 127.6,113.2 133.0,113.2 138.4,113.2 143.8,113.2 149.1,113.2 154.5,113.2 159.9,113.2 165.3,113.2 170.7,113.2 176.0,113.2 181.4,113.2 186.8,113.2 192.2,113.2 197.5,113.2 202.9,229.1 208.3,229.1 213.7,229.1 219.0,229.1 224.4,229.1 229.8,229.1 235.2,229.1 240.6,229.1 245.9,229.1 251.3,229.1 256.7,229.1 262.1,253.5 267.4,308.4 272.8,308.4 278.2,308.4 283.6,308.4 288.9,308.4 294.3,308.4 299.7,308.4 305.1,308.4 310.5,308.4 315.8,308.4 321.2,308.4 326.6,308.4 332.0,308.4 337.3,308.4 342.7,308.4 348.1,308.4 353.5,308.4 358.8,308.4 364.2,308.4 369.6,308.4 375.0,308.4 380.4,308.4 385.7,308.4 391.1,308.4 396.5,308.4 401.9,308.4 407.2,308.4 412.6,308.4 418.0,308.4 423.4,308.4 428.7,308.4 434.1,308.4 439.5,308.4 444.9,308.4 450.3,308.4 455.6,375.5 461.0,375.5 466.4,375.5 471.8,375.5 477.1,375.5 482.5,375.5 487.9,375.5 493.3,375.5 498.6,375.5 504.0,375.5 509.4,375.5 514.8,375.5 520.2,375.5 525.5,375.5 530.9,375.5 536.3,375.5 541.7,375.5 547.0,375.5 552.4,375.5 557.8,375.5 563.2,375.5 568.5,375.5 573.9,375.5 579.3,375.5 584.7,375.5 590.1,375.5 595.4,375.5 600.8,375.5 606.2,375.5 611.6,375.5 616.9,375.5 622.3,375.5 627.7,375.5 633.1,375.5 638.4,375.5 643.8,375.5 649.2,375.5 654.6,375.5 659.9,375.5 665.3,375.5 670.7,375.5 676.1,375.5 681.5,375.5 686.8,375.5 692.2,375.5 697.6,375.5 703.0,375.5 708.3,375.5 713.7,375.5 719.1,375.5 724.5,576.8 729.8,576.8 735.2,576.8 740.6,576.8 746.0,576.8 751.4,576.8 756.7,576.8 762.1,576.8 767.5,576.8 772.9,576.8 778.2,576.8 783.6,576.8 789.0,576.8 794.4,576.8 799.7,576.8 805.1,576.8 810.5,576.8 815.9,576.8 821.3,576.8 826.6,576.8 832.0,576.8 837.4,576.8 842.8,576.8 848.1,576.8 853.5,576.8 858.9,576.8 864.3,576.8 869.6,576.8 875.0,576.8 880.4,576.8 885.8,576.8 891.2,576.8 896.5,576.8 901.9,576.8 907.3,576.8 912.7,576.8 918.0,576.8 923.4,576.8 928.8,576.8 934.2,576.8 939.5,576.8 944.9,576.8 950.3,576.8 955.7,576.8 961.1,576.8 966.4,576.8 971.8,576.8 977.2,576.8 982.6,576.8 987.9,576.8 993.3,576.8 998.7,576.8 1004.1,576.8 1009.4,576.8 1014.8,576.8 1020.2,576.8 1025.6,576.8 1031.0,576.8 1036.3,576.8 1041.7,576.8 1047.1,576.8 1052.5,576.8 1057.8,576.8 1063.2,576.8 1068.6,576.8 1074.0,576.8 1079.3,576.8 1084.7,576.8 1090.1,576.8 1095.5,576.8 1100.9,576.8 1106.2,576.8 1111.6,576.8 1117.0,576.8 1122.4,576.8 1127.7,576.8 1133.1,576.8 1138.5,576.8 1143.9,576.8 1149.2,576.8 1154.6,576.8 1160.0,576.8" /><polyline fill="none" stroke="#d62728" stroke-width="2.5" points="90.0,113.2 95.4,113.2 100.8,113.2 106.1,113.2 111.5,113.2 116.9,143.7 122.3,143.7 127.6,143.7 133.0,143.7 138.4,143.7 143.8,143.7 149.1,143.7 154.5,143.7 159.9,143.7 165.3,143.7 170.7,143.7 176.0,143.7 181.4,143.7 186.8,210.8 192.2,210.8 197.5,210.8 202.9,210.8 208.3,210.8 213.7,210.8 219.0,210.8 224.4,210.8 229.8,210.8 235.2,210.8 240.6,210.8 245.9,210.8 251.3,210.8 256.7,210.8 262.1,210.8 267.4,210.8 272.8,210.8 278.2,210.8 283.6,210.8 288.9,210.8 294.3,210.8 299.7,210.8 305.1,210.8 310.5,210.8 315.8,210.8 321.2,210.8 326.6,210.8 332.0,210.8 337.3,210.8 342.7,210.8 348.1,210.8 353.5,210.8 358.8,210.8 364.2,223.0 369.6,223.0 375.0,223.0 380.4,223.0 385.7,223.0 391.1,223.0 396.5,223.0 401.9,223.0 407.2,223.0 412.6,223.0 418.0,223.0 423.4,223.0 428.7,223.0 434.1,223.0 439.5,223.0 444.9,223.0 450.3,223.0 455.6,223.0 461.0,223.0 466.4,223.0 471.8,223.0 477.1,223.0 482.5,229.1 487.9,229.1 493.3,229.1 498.6,229.1 504.0,229.1 509.4,229.1 514.8,229.1 520.2,265.7 525.5,265.7 530.9,265.7 536.3,265.7 541.7,265.7 547.0,265.7 552.4,265.7 557.8,265.7 563.2,265.7 568.5,265.7 573.9,265.7 579.3,265.7 584.7,345.0 590.1,345.0 595.4,345.0 600.8,345.0 606.2,345.0 611.6,345.0 616.9,345.0 622.3,345.0 627.7,345.0 633.1,345.0 638.4,345.0 643.8,345.0 649.2,345.0 654.6,345.0 659.9,345.0 665.3,345.0 670.7,345.0 676.1,345.0 681.5,345.0 686.8,345.0 692.2,345.0 697.6,345.0 703.0,345.0 708.3,345.0 713.7,345.0 719.1,345.0 724.5,345.0 729.8,345.0 735.2,345.0 740.6,345.0 746.0,345.0 751.4,345.0 756.7,345.0 762.1,345.0 767.5,345.0 772.9,345.0 778.2,345.0 783.6,345.0 789.0,454.8 794.4,454.8 799.7,454.8 805.1,454.8 810.5,454.8 815.9,454.8 821.3,454.8 826.6,454.8 832.0,454.8 837.4,454.8 842.8,454.8 848.1,454.8 853.5,454.8 858.9,454.8 864.3,454.8 869.6,454.8 875.0,454.8 880.4,454.8 885.8,454.8 891.2,454.8 896.5,454.8 901.9,454.8 907.3,454.8 912.7,454.8 918.0,454.8 923.4,454.8 928.8,454.8 934.2,454.8 939.5,454.8 944.9,454.8 950.3,454.8 955.7,454.8 961.1,454.8 966.4,454.8 971.8,454.8 977.2,454.8 982.6,454.8 987.9,454.8 993.3,454.8 998.7,454.8 1004.1,454.8 1009.4,454.8 1014.8,454.8 1020.2,454.8 1025.6,454.8 1031.0,454.8 1036.3,454.8 1041.7,454.8 1047.1,454.8 1052.5,454.8 1057.8,454.8 1063.2,454.8 1068.6,454.8 1074.0,454.8 1079.3,454.8 1084.7,454.8 1090.1,454.8 1095.5,454.8 1100.9,454.8 1106.2,454.8 1111.6,454.8 1117.0,454.8 1122.4,454.8 1127.7,454.8 1133.1,454.8 1138.5,454.8 1143.9,454.8 1149.2,454.8 1154.6,454.8 1160.0,454.8" /><polyline fill="none" stroke="#2ca02c" stroke-width="2.5" points="90.0,113.2 95.4,113.2 100.8,113.2 106.1,113.2 111.5,113.2 116.9,113.2 122.3,113.2 127.6,113.2 133.0,113.2 138.4,113.2 143.8,113.2 149.1,113.2 154.5,113.2 159.9,113.2 165.3,113.2 170.7,113.2 176.0,113.2 181.4,113.2 186.8,113.2 192.2,113.2 197.5,113.2 202.9,113.2 208.3,113.2 213.7,357.2 219.0,357.2 224.4,357.2 229.8,357.2 235.2,357.2 240.6,357.2 245.9,357.2 251.3,357.2 256.7,357.2 262.1,357.2 267.4,357.2 272.8,357.2 278.2,357.2 283.6,357.2 288.9,357.2 294.3,357.2 299.7,357.2 305.1,357.2 310.5,357.2 315.8,357.2 321.2,357.2 326.6,357.2 332.0,357.2 337.3,357.2 342.7,357.2 348.1,357.2 353.5,436.5 358.8,454.8 364.2,454.8 369.6,454.8 375.0,454.8 380.4,454.8 385.7,454.8 391.1,454.8 396.5,454.8 401.9,454.8 407.2,454.8 412.6,454.8 418.0,454.8 423.4,454.8 428.7,454.8 434.1,454.8 439.5,454.8 444.9,454.8 450.3,454.8 455.6,454.8 461.0,454.8 466.4,454.8 471.8,454.8 477.1,454.8 482.5,454.8 487.9,454.8 493.3,454.8 498.6,454.8 504.0,454.8 509.4,454.8 514.8,454.8 520.2,454.8 525.5,454.8 530.9,454.8 536.3,454.8 541.7,454.8 547.0,454.8 552.4,454.8 557.8,454.8 563.2,454.8 568.5,454.8 573.9,454.8 579.3,454.8 584.7,454.8 590.1,454.8 595.4,454.8 600.8,454.8 606.2,454.8 611.6,454.8 616.9,454.8 622.3,454.8 627.7,454.8 633.1,454.8 638.4,454.8 643.8,454.8 649.2,454.8 654.6,454.8 659.9,454.8 665.3,454.8 670.7,454.8 676.1,454.8 681.5,454.8 686.8,454.8 692.2,454.8 697.6,454.8 703.0,454.8 708.3,454.8 713.7,454.8 719.1,454.8 724.5,454.8 729.8,454.8 735.2,454.8 740.6,454.8 746.0,454.8 751.4,454.8 756.7,454.8 762.1,454.8 767.5,454.8 772.9,454.8 778.2,454.8 783.6,454.8 789.0,454.8 794.4,454.8 799.7,454.8 805.1,454.8 810.5,454.8 815.9,454.8 821.3,454.8 826.6,454.8 832.0,454.8 837.4,454.8 842.8,454.8 848.1,454.8 853.5,454.8 858.9,454.8 864.3,454.8 869.6,454.8 875.0,454.8 880.4,454.8 885.8,454.8 891.2,454.8 896.5,454.8 901.9,454.8 907.3,454.8 912.7,454.8 918.0,454.8 923.4,454.8 928.8,454.8 934.2,454.8 939.5,454.8 944.9,454.8 950.3,454.8 955.7,454.8 961.1,454.8 966.4,454.8 971.8,454.8 977.2,454.8 982.6,454.8 987.9,454.8 993.3,454.8 998.7,454.8 1004.1,454.8 1009.4,454.8 1014.8,454.8 1020.2,454.8 1025.6,454.8 1031.0,454.8 1036.3,454.8 1041.7,454.8 1047.1,454.8 1052.5,454.8 1057.8,454.8 1063.2,454.8 1068.6,454.8 1074.0,454.8 1079.3,454.8 1084.7,454.8 1090.1,454.8 1095.5,454.8 1100.9,454.8 1106.2,454.8 1111.6,454.8 1117.0,454.8 1122.4,454.8 1127.7,454.8 1133.1,454.8 1138.5,454.8 1143.9,454.8 1149.2,454.8 1154.6,454.8 1160.0,454.8" />
  <text x="90.0" y="618.0" text-anchor="middle" font-family="Arial" font-size="11" fill="#555">0</text><text x="305.1" y="618.0" text-anchor="middle" font-family="Arial" font-size="11" fill="#555">578</text><text x="520.2" y="618.0" text-anchor="middle" font-family="Arial" font-size="11" fill="#555">1156</text><text x="729.8" y="618.0" text-anchor="middle" font-family="Arial" font-size="11" fill="#555">1720</text><text x="944.9" y="618.0" text-anchor="middle" font-family="Arial" font-size="11" fill="#555">2298</text><text x="1160.0" y="618.0" text-anchor="middle" font-family="Arial" font-size="11" fill="#555">2877</text>
  <rect x="100" y="55" width="12" height="12" fill="#1f77b4" /><text x="118" y="65" font-family="Arial" font-size="12">adjacent</text><rect x="260" y="55" width="12" height="12" fill="#d62728" /><text x="278" y="65" font-family="Arial" font-size="12">n5</text><rect x="420" y="55" width="12" height="12" fill="#2ca02c" /><text x="438" y="65" font-family="Arial" font-size="12">n6</text>
  <text x="625.0" y="645.0" text-anchor="middle" font-family="Arial" font-size="14" font-weight="bold">Iteration</text>
  <text x="30.0" y="345.0" text-anchor="middle" font-family="Arial" font-size="14" font-weight="bold" transform="rotate(-90 30.0 345.0)">Makespan</text>
</svg>