<svg xmlns="http://www.w3.org/2000/svg" width="1200" height="700" viewBox="0 0 1200 700">
  <rect x="0" y="0" width="1200" height="700" fill="#ffffff" />
  <text x="600.0" y="32" text-anchor="middle" font-family="Arial" font-size="24" font-weight="bold">Neighborhood Comparison - Instance 4_3</text>
  <line x1="90.0" y1="600.0" x2="1160.0" y2="600.0" stroke="#e6e6e6" stroke-width="1" /><text x="82.0" y="604.0" text-anchor="end" font-family="Arial" font-size="11" fill="#555">780</text><line x1="90.0" y1="515.0" x2="1160.0" y2="515.0" stroke="#e6e6e6" stroke-width="1" /><text x="82.0" y="519.0" text-anchor="end" font-family="Arial" font-size="11" fill="#555">790</text><line x1="90.0" y1="430.0" x2="1160.0" y2="430.0" stroke="#e6e6e6" stroke-width="1" /><text x="82.0" y="434.0" text-anchor="end" font-family="Arial" font-size="11" fill="#555">800</text><line x1="90.0" y1="345.0" x2="1160.0" y2="345.0" stroke="#e6e6e6" stroke-width="1" /><text x="82.0" y="349.0" text-anchor="end" font-family="Arial" font-size="11" fill="#555">810</text><line x1="90.0" y1="260.0" x2="1160.0" y2="260.0" stroke="#e6e6e6" stroke-width="1" /><text x="82.0" y="264.0" text-anchor="end" font-family="Arial" font-size="11" fill="#555">820</text><line x1="90.0" y1="175.0" x2="1160.0" y2="175.0" stroke="#e6e6e6" stroke-width="1" /><text x="82.0" y="179.0" text-anchor="end" font-family="Arial" font-size="11" fill="#555">830</text><line x1="90.0" y1="90.0" x2="1160.0" y2="90.0" stroke="#e6e6e6" stroke-width="1" /><text x="82.0" y="94.0" text-anchor="end" font-family="Arial" font-size="11" fill="#555">840</text>
  <line x1="90" y1="600" x2="1160" y2="600" stroke="#333" stroke-width="1.5" />
  <line x1="90" y1="90" x2="90" y2="600" stroke="#333" stroke-width="1.5" />
  <polyline fill="none" stroke="#1f77b4" stroke-width="2.5" points="90.0,90.0 90.4,90.0 90.7,90.0 91.1,90.0 91.4,90.0 91.8,90.0 92.1,90.0 92.5,90.0 92.9,90.0 93.2,90.0 93.6,90.0 93.9,166.5 94.3,166.5 94.6,166.5 95.0,166.5 95.3,166.5 95.7,166.5 96.1,166.5 96.4,166.5 96.8,166.5 97.1,166.5 97.5,166.5 97.8,166.5 98.2,166.5 98.6,166.5 98.9,166.5 99.3,166.5 99.6,166.5 100.0,166.5 100.3,166.5 100.7,166.5 101.1,166.5 101.4,166.5 101.8,166.5 102.1,166.5 102.5,166.5 102.8,166.5 103.2,166.5 103.6,166.5 103.9,166.5 104.3,166.5 104.6,166.5 105.0,166.5 105.3,166.5 105.7,166.5 106.0,166.5 106.4,166.5 106.8,166.5 107.1,166.5 107.5,166.5 107.8,166.5 108.2,166.5 108.5,166.5 108.9,166.5 109.3,166.5 109.6,166.5 110.0,166.5 110.3,166.5 110.7,166.5 111.0,166.5 111.4,166.5 111.8,166.5 112.1,166.5 112.5,166.5 112.8,166.5 113.2,166.5 113.5,166.5 113.9,166.5 114.3,166.5 114.6,166.5 115.0,166.5 115.3,166.5 115.7,166.5 116.0,166.5 116.4,166.5 116.8,166.5 117.1,166.5 117.5,166.5 117.8,166.5 118.2,166.5 118.5,166.5 118.9,166.5 119.2,166.5 119.6,166.5 120.0,166.5 120.3,166.5 120.7,166.5 121.0,166.5 121.4,166.5 121.7,166.5 122.1,166.5 122.5,166.5 122.8,166.5 123.2,166.5 123.5,166.5 123.9,166.5 124.2,166.5 124.6,166.5 125.0,166.5 125.3,328.0 125.7,345.0 126.0,345.0 126.4,345.0 126.7,345.0 127.1,345.0 127.5,345.0 127.8,345.0 128.2,345.0 128.5,345.0 128.9,345.0 129.2,345.0 129.6,345.0 129.9,345.0 130.3,345.0 130.7,345.0 131.0,345.0 131.4,345.0 131.7,345.0 132.1,345.0 132.4,345.0 132.8,345.0 133.2,345.0 133.5,345.0 133.9,345.0 134.2,345.0 134.6,345.0 134.9,345.0 135.3,345.0 135.7,345.0 136.0,345.0 136.4,345.0 136.7,345.0 137.1,345.0 137.4,345.0 137.8,345.0 138.2,345.0 138.5,345.0 138.9,345.0 139.2,345.0 139.6,345.0 139.9,345.0 140.3,345.0 140.6,345.0 141.0,345.0 141.4,345.0 141.7,345.0 142.1,345.0 142.4,345.0 142.8,345.0 143.1,345.0 143.5,345.0 143.9,345.0 144.2,345.0 144.6,345.0 144.9,345.0 145.3,345.0 145.6,345.0 146.0,345.0 146.4,345.0 146.7,345.0 147.1,345.0 147.4,345.0 147.8,345.0 148.1,345.0 148.5,345.0 148.8,345.0 149.2,345.0 149.6,345.0 149.9,345.0 150.3,345.0 150.6,345.0 151.0,345.0 151.3,345.0 151.7,345.0 152.1,345.0 152.4,345.0 152.8,345.0 153.1,345.0 153.5,345.0 153.8,345.0 154.2,345.0 154.6,345.0 154.9,345.0 155.3,345.0 155.6,345.0 156.0,345.0 156.3,345.0 156.7,345.0 157.1,345.0 157.4,345.0 157.8,345.0 158.1,345.0 158.5,345.0 158.8,345.0 159.2,345.0 159.6,345.0 159.9,345.0 160.3,345.0 160.6,345.0 161.0,345.0 161.3,345.0 161.7,345.0 162.0,345.0 162.4,345.0 162.8,345.0 163.1,345.0 163.5,345.0 163.8,345.0 164.2,345.0 164.5,345.0 164.9,345.0 165.3,345.0 165.6,345.0 166.0,345.0 166.3,345.0 166.7,345.0 167.0,345.0 167.4,345.0 167.8,345.0 168.1,345.0 168.5,345.0 168.8,345.0 169.2,345.0 169.5,345.0 169.9,345.0 170.2,345.0 170.6,345.0 171.0,345.0 171.3,345.0 171.7,345.0 172.0,345.0 172.4,345.0 172.7,345.0 173.1,345.0 173.5,345.0 173.8,345.0 174.2,345.0 174.5,345.0 174.9,345.0 175.2,345.0 175.6,345.0 176.0,345.0 176.3,345.0 176.7,345.0 177.0,345.0 177.4,345.0 177.7,345.0 178.1,345.0 178.5,345.0 178.8,345.0 179.2,345.0 179.5,345.0 179.9,345.0 180.2,345.0 180.6,345.0 180.9,345.0 181.3,345.0 181.7,345.0 182.0,345.0 182.4,345.0 182.7,345.0 183.1,345.0 183.4,345.0 183.8,345.0 184.2,345.0 184.5,345.0 184.9,345.0 185.2,345.0 185.6,345.0 185.9,345.0 186.3,345.0 186.7,345.0 187.0,345.0 187.4,345.0 187.7,345.0 188.1,345.0 188.4,345.0 188.8,345.0 189.2,345.0 189.5,345.0 189.9,345.0 190.2,345.0 190.6,345.0 190.9,345.0 191.3,345.0 191.7,345.0 192.0,345.0 192.4,345.0 192.7,345.0 193.1,345.0 193.4,345.0 193.8,345.0 194.1,345.0 194.5,345.0 194.9,345.0 195.2,345.0 195.6,345.0 195.9,345.0 196.3,345.0 196.6,345.0 197.0,345.0 197.4,345.0 197.7,345.0 198.1,345.0 198.4,345.0 198.8,345.0 199.1,345.0 199.5,345.0 199.9,345.0 200.2,345.0 200.6,345.0 200.9,345.0 201.3,345.0 201.6,345.0 202.0,345.0 202.3,345.0 202.7,345.0 203.1,345.0 203.4,345.0 203.8,345.0 204.1,345.0 204.5,345.0 204.8,345.0 205.2,345.0 205.6,345.0 205.9,345.0 206.3,345.0 206.6,345.0 207.0,345.0 207.3,345.0 207.7,345.0 208.1,345.0 208.4,345.0 208.8,370.5 209.1,396.0 209.5,396.0 209.8,396.0 210.2,396.0 210.6,396.0 210.9,532.0 211.3,532.0 211.6,532.0 212.0,532.0 212.3,532.0 212.7,532.0 213.1,532.0 213.4,532.0 213.8,532.0 214.1,532.0 214.5,532.0 214.8,532.0 215.2,532.0 215.5,532.0 215.9,532.0 216.3,532.0 216.6,532.0 217.0,532.0 217.3,532.0 217.7,532.0 218.0,532.0 218.4,532.0 218.8,532.0 219.1,532.0 219.5,532.0 219.8,532.0 220.2,532.0 220.5,532.0 220.9,532.0 221.3,532.0 221.6,532.0 222.0,532.0 222.3,532.0 222.7,532.0 223.0,532.0 223.4,532.0 223.8,532.0 224.1,532.0 224.5,532.0 224.8,532.0 225.2,532.0 225.5,532.0 225.9,532.0 226.2,532.0 226.6,532.0 227.0,532.0 227.3,532.0 227.7,532.0 228.0,532.0 228.4,532.0 228.7,532.0 229.1,532.0 229.5,532.0 229.8,532.0 230.2,532.0 230.5,532.0 230.9,532.0 231.2,532.0 231.6,532.0 232.0,532.0 232.3,532.0 232.7,532.0 233.0,532.0 233.4,532.0 233.7,532.0 234.1,532.0 234.5,532.0 234.8,532.0 235.2,532.0 235.5,532.0 235.9,532.0 236.2,532.0 236.6,532.0 236.9,532.0 237.3,532.0 237.7,532.0 238.0,532.0 238.4,532.0 238.7,532.0 239.1,532.0 239.4,532.0 239.8,532.0 240.2,532.0 240.5,532.0 240.9,532.0 241.2,532.0 241.6,532.0 241.9,532.0 242.3,532.0 242.7,532.0 243.0,532.0 243.4,532.0 243.7,532.0 244.1,532.0 244.4,532.0 244.8,532.0 245.1,532.0 245.5,532.0 245.9,532.0 246.2,532.0 246.6,532.0 246.9,532.0 247.3,532.0 247.6,532.0 248.0,532.0 248.4,532.0 248.7,532.0 249.1,532.0 249.4,532.0 249.8,532.0 250.1,532.0 250.5,532.0 250.9,532.0 251.2,532.0 251.6,532.0 251.9,532.0 252.3,532.0 252.6,532.0 253.0,532.0 253.4,532.0 253.7,532.0 254.1,532.0 254.4,532.0 254.8,532.0 255.1,532.0 255.5,532.0 255.8,532.0 256.2,532.0 256.6,532.0 256.9,532.0 257.3,532.0 257.6,532.0 258.0,532.0 258.3,532.0 258.7,532.0 259.1,532.0 259.4,532.0 259.8,532.0 260.1,532.0 260.5,532.0 260.8,532.0 261.2,532.0 261.6,532.0 261.9,532.0 262.3,532.0 262.6,532.0 263.0,532.0 263.3,532.0 263.7,532.0 264.1,532.0 264.4,532.0 264.8,532.0 265.1,532.0 265.5,532.0 265.8,532.0 266.2,532.0 266.6,532.0 266.9,532.0 267.3,532.0 267.6,532.0 268.0,532.0 268.3,532.0 268.7,532.0 269.0,532.0 269.4,532.0 269.8,532.0 270.1,532.0 270.5,532.0 270.8,532.0 271.2,532.0 271.5,532.0 271.9,532.0 272.3,532.0 272.6,532.0 273.0,532.0 273.3,532.0 273.7,532.0 274.0,532.0 274.4,532.0 274.8,532.0 275.1,532.0 275.5,532.0 275.8,532.0 276.2,532.0 276.5,532.0 276.9,532.0 277.2,532.0 277.6,532.0 278.0,532.0 278.3,532.0 278.7,532.0 279.0,532.0 279.4,532.0 279.7,532.0 280.1,532.0 280.5,532.0 280.8,532.0 281.2,532.0 281.5,532.0 281.9,532.0 282.2,532.0 282.6,532.0 283.0,532.0 283.3,532.0 283.7,532.0 284.0,532.0 284.4,532.0 284.7,532.0 285.1,532.0 285.5,532.0 285.8,532.0 286.2,532.0 286.5,532.0 286.9,532.0 287.2,532.0 287.6,532.0 287.9,532.0 288.3,532.0 288.7,532.0 289.0,532.0 289.4,532.0 289.7,532.0 290.1,532.0 290.4,532.0 290.8,532.0 291.2,532.0 291.5,532.0 291.9,532.0 292.2,532.0 292.6,532.0 292.9,532.0 293.3,532.0 293.7,532.0 294.0,532.0 294.4,532.0 294.7,532.0 295.1,532.0 295.4,532.0 295.8,532.0 296.2,532.0 296.5,532.0 296.9,532.0 297.2,532.0 297.6,532.0 297.9,532.0 298.3,532.0 298.6,532.0 299.0,532.0 299.4,532.0 299.7,532.0 300.1,532.0 300.4,532.0 300.8,532.0 301.1,532.0 301.5,532.0 301.9,532.0 302.2,532.0 302.6,532.0 302.9,532.0 303.3,532.0 303.6,532.0 304.0,532.0 304.4,532.0 304.7,532.0 305.1,532.0 305.4,532.0 305.8,532.0 306.1,532.0 306.5,532.0 306.9,532.0 307.2,532.0 307.6,532.0 307.9,532.0 308.3,532.0 308.6,532.0 309.0,532.0 309.4,532.0 309.7,532.0 310.1,532.0 310.4,532.0 310.8,532.0 311.1,532.0 311.5,532.0 311.8,532.0 312.2,532.0 312.6,532.0 312.9,532.0 313.3,532.0 313.6,532.0 314.0,532.0 314.3,532.0 314.7,532.0 315.1,532.0 315.4,532.0 315.8,532.0 316.1,532.0 316.5,532.0 316.8,532.0 317.2,532.0 317.6,532.0 317.9,532.0 318.3,532.0 318.6,532.0 319.0,532.0 319.3,532.0 319.7,532.0 320.0,532.0 320.4,532.0 320.8,532.0 321.1,532.0 321.5,532.0 321.8,532.0 322.2,532.0 322.5,532.0 322.9,532.0 323.3,532.0 323.6,532.0 324.0,532.0 324.3,532.0 324.7,532.0 325.0,532.0 325.4,532.0 325.8,532.0 326.1,532.0 326.5,532.0 326.8,532.0 327.2,532.0 327.5,532.0 327.9,532.0 328.3,532.0 328.6,532.0 329.0,532.0 329.3,532.0 329.7,532.0 330.0,532.0 330.4,532.0 330.8,532.0 331.1,532.0 331.5,532.0 331.8,532.0 332.2,532.0 332.5,532.0 332.9,532.0 333.2,532.0 333.6,532.0 334.0,532.0 334.3,532.0 334.7,532.0 335.0,532.0 335.4,532.0 335.7,532.0 336.1,532.0 336.5,532.0 336.8,532.0 337.2,532.0 337.5,532.0 337.9,532.0 338.2,532.0 338.6,532.0 339.0,532.0 339.3,532.0 339.7,532.0 340.0,532.0 340.4,532.0 340.7,532.0 341.1,532.0 341.4,532.0 341.8,532.0 342.2,532.0 342.5,532.0 342.9,532.0 343.2,532.0 343.6,532.0 343.9,532.0 344.3,532.0 344.7,532.0 345.0,532.0 345.4,532.0 345.7,532.0 346.1,532.0 346.4,532.0 346.8,532.0 347.2,532.0 347.5,532.0 347.9,532.0 348.2,532.0 348.6,532.0 348.9,532.0 349.3,532.0 349.7,532.0 350.0,532.0 350.4,532.0 350.7,532.0 351.1,532.0 351.4,532.0 351.8,532.0 352.1,532.0 352.5,532.0 352.9,532.0 353.2,532.0 353.6,532.0 353.9,532.0 354.3,532.0 354.6,532.0 355.0,532.0 355.4,532.0 355.7,532.0 356.1,532.0 356.4,532.0 356.8,532.0 357.1,532.0 357.5,532.0 357.9,532.0 358.2,532.0 358.6,532.0 358.9,532.0 359.3,532.0 359.6,532.0 360.0,532.0 360.4,532.0 360.7,532.0 361.1,532.0 361.4,532.0 361.8,532.0 362.1,532.0 362.5,532.0 362.9,532.0 363.2,532.0 363.6,532.0 363.9,532.0 364.3,532.0 364.6,532.0 365.0,532.0 365.3,532.0 365.7,532.0 366.1,532.0 366.4,532.0 366.8,532.0 367.1,532.0 367.5,532.0 367.8,532.0 368.2,532.0 368.6,532.0 368.9,532.0 369.3,532.0 369.6,532.0 370.0,532.0 370.3,532.0 370.7,532.0 371.1,532.0 371.4,532.0 371.8,532.0 372.1,532.0 372.5,532.0 372.8,532.0 373.2,532.0 373.6,532.0 373.9,532.0 374.3,532.0 374.6,532.0 375.0,532.0 375.3,532.0 375.7,532.0 376.0,532.0 376.4,532.0 376.8,532.0 377.1,532.0 377.5,532.0 377.8,532.0 378.2,532.0 378.5,532.0 378.9,532.0 379.3,532.0 379.6,532.0 380.0,532.0 380.3,532.0 380.7,532.0 381.0,532.0 381.4,532.0 381.8,532.0 382.1,532.0 382.5,532.0 382.8,532.0 383.2,532.0 383.5,532.0 383.9,532.0 384.2,532.0 384.6,532.0 385.0,532.0 385.3,532.0 385.7,532.0 386.0,532.0 386.4,532.0 386.7,532.0 387.1,532.0 387.5,532.0 387.8,532.0 388.2,532.0 388.5,532.0 388.9,532.0 389.2,532.0 389.6,532.0 390.0,532.0 390.3,532.0 390.7,532.0 391.0,532.0 391.4,532.0 391.7,532.0 392.1,532.0 392.5,532.0 392.8,532.0 393.2,532.0 393.5,532.0 393.9,532.0 394.2,532.0 394.6,532.0 394.9,532.0 395.3,532.0 395.7,532.0 396.0,532.0 396.4,532.0 396.7,532.0 397.1,532.0 397.4,532.0 397.8,532.0 398.2,532.0 398.5,532.0 398.9,532.0 399.2,532.0 399.6,532.0 399.9,532.0 400.3,532.0 400.7,532.0 401.0,532.0 401.4,532.0 401.7,532.0 402.1,532.0 402.4,532.0 402.8,532.0 403.2,532.0 403.5,532.0 403.9,532.0 404.2,532.0 404.6,532.0 404.9,532.0 405.3,532.0 405.6,532.0 406.0,532.0 406.4,532.0 406.7,532.0 407.1,532.0 407.4,532.0 407.8,532.0 408.1,532.0 408.5,532.0 408.9,532.0 409.2,532.0 409.6,532.0 409.9,532.0 410.3,532.0 410.6,532.0 411.0,532.0 411.4,532.0 411.7,532.0 412.1,532.0 412.4,532.0 412.8,532.0 413.1,532.0 413.5,532.0 413.9,532.0 414.2,532.0 414.6,532.0 414.9,532.0 415.3,532.0 415.6,532.0 416.0,532.0 416.3,532.0 416.7,532.0 417.1,532.0 417.4,532.0 417.8,532.0 418.1,532.0 418.5,532.0 418.8,532.0 419.2,532.0 419.6,532.0 419.9,532.0 420.3,532.0 420.6,532.0 421.0,532.0 421.3,532.0 421.7,532.0 422.1,532.0 422.4,532.0 422.8,532.0 423.1,532.0 423.5,532.0 423.8,532.0 424.2,532.0 424.6,532.0 424.9,532.0 425.3,532.0 425.6,532.0 426.0,532.0 426.3,532.0 426.7,532.0 427.1,532.0 427.4,532.0 427.8,532.0 428.1,532.0 428.5,532.0 428.8,532.0 429.2,532.0 429.5,532.0 429.9,532.0 430.3,532.0 430.6,532.0 431.0,532.0 431.3,532.0 431.7,532.0 432.0,532.0 432.4,532.0 432.8,532.0 433.1,532.0 433.5,532.0 433.8,532.0 434.2,532.0 434.5,532.0 434.9,532.0 435.3,532.0 435.6,532.0 436.0,532.0 436.3,532.0 436.7,532.0 437.0,532.0 437.4,532.0 437.8,532.0 438.1,532.0 438.5,532.0 438.8,532.0 439.2,532.0 439.5,532.0 439.9,532.0 440.2,532.0 440.6,532.0 441.0,532.0 441.3,532.0 441.7,532.0 442.0,532.0 442.4,532.0 442.7,532.0 443.1,532.0 443.5,532.0 443.8,532.0 444.2,532.0 444.5,532.0 444.9,532.0 445.2,532.0 445.6,532.0 446.0,532.0 446.3,532.0 446.7,532.0 447.0,532.0 447.4,532.0 447.7,532.0 448.1,532.0 448.5,532.0 448.8,532.0 449.2,532.0 449.5,532.0 449.9,532.0 450.2,532.0 450.6,532.0 450.9,532.0 451.3,532.0 451.7,532.0 452.0,532.0 452.4,532.0 452.7,532.0 453.1,532.0 453.4,532.0 453.8,532.0 454.2,532.0 454.5,532.0 454.9,532.0 455.2,532.0 455.6,532.0 455.9,532.0 456.3,532.0 456.7,532.0 457.0,532.0 457.4,532.0 457.7,532.0 458.1,532.0 458.4,532.0 458.8,532.0 459.1,532.0 459.5,532.0 459.9,532.0 460.2,532.0 460.6,532.0 460.9,532.0 461.3,532.0 461.6,532.0 462.0,532.0 462.4,532.0 462.7,532.0 463.1,532.0 463.4,532.0 463.8,532.0 464.1,532.0 464.5,532.0 464.9,532.0 465.2,532.0 465.6,532.0 465.9,532.0 466.3,532.0 466.6,532.0 467.0,532.0 467.4,532.0 467.7,532.0 468.1,532.0 468.4,532.0 468.8,532.0 469.1,532.0 469.5,532.0 469.8,532.0 470.2,532.0 470.6,532.0 470.9,532.0 471.3,532.0 471.6,532.0 472.0,532.0 472.3,532.0 472.7,532.0 473.1,532.0 473.4,532.0 473.8,532.0 474.1,532.0 474.5,532.0 474.8,532.0 475.2,532.0 475.6,532.0 475.9,532.0 476.3,532.0 476.6,532.0 477.0,532.0 477.3,532.0 477.7,532.0 478.1,532.0 478.4,532.0 478.8,532.0 479.1,532.0 479.5,532.0 479.8,532.0 480.2,532.0 480.6,532.0 480.9,532.0 481.3,532.0 481.6,532.0 482.0,532.0 482.3,532.0 482.7,532.0 483.0,532.0 483.4,532.0 483.8,532.0 484.1,532.0 484.5,532.0 484.8,532.0 485.2,532.0 485.5,532.0 485.9,532.0 486.3,532.0 486.6,532.0 487.0,532.0 487.3,532.0 487.7,532.0 488.0,532.0 488.4,532.0 488.8,532.0 489.1,532.0 489.5,532.0 489.8,532.0 490.2,532.0 490.5,532.0 490.9,532.0 491.2,532.0 491.6,532.0 492.0,532.0 492.3,532.0 492.7,532.0 493.0,532.0 493.4,532.0 493.7,532.0 494.1,532.0 494.5,532.0 494.8,532.0 495.2,532.0 495.5,532.0 495.9,532.0 496.2,532.0 496.6,532.0 497.0,532.0 497.3,532.0 497.7,532.0 498.0,532.0 498.4,532.0 498.7,532.0 499.1,532.0 499.5,532.0 499.8,532.0 500.2,532.0 500.5,532.0 500.9,532.0 501.2,532.0 501.6,532.0 501.9,532.0 502.3,532.0 502.7,532.0 503.0,532.0 503.4,532.0 503.7,532.0 504.1,532.0 504.4,532.0 504.8,532.0 505.2,532.0 505.5,532.0 505.9,532.0 506.2,532.0 506.6,532.0 506.9,532.0 507.3,532.0 507.7,532.0 508.0,532.0 508.4,532.0 508.7,532.0 509.1,532.0 509.4,532.0 509.8,532.0 510.2,532.0 510.5,532.0 510.9,532.0 511.2,532.0 511.6,532.0 511.9,532.0 512.3,532.0 512.7,532.0 513.0,532.0 513.4,532.0 513.7,532.0 514.1,532.0 514.4,532.0 514.8,532.0 515.1,532.0 515.5,532.0 515.9,532.0 516.2,532.0 516.6,532.0 516.9,532.0 517.3,532.0 517.6,532.0 518.0,532.0 518.4,532.0 518.7,532.0 519.1,532.0 519.4,532.0 519.8,532.0 520.1,532.0 520.5,532.0 520.9,532.0 521.2,532.0 521.6,532.0 521.9,532.0 522.3,532.0 522.6,532.0 523.0,532.0 523.4,532.0 523.7,532.0 524.1,532.0 524.4,532.0 524.8,532.0 525.1,532.0 525.5,532.0 525.8,532.0 526.2,532.0 526.6,532.0 526.9,532.0 527.3,532.0 527.6,532.0 528.0,532.0 528.3,532.0 528.7,532.0 529.1,532.0 529.4,532.0 529.8,532.0 530.1,532.0 530.5,532.0 530.8,532.0 531.2,532.0 531.6,532.0 531.9,532.0 532.3,532.0 532.6,532.0 533.0,532.0 533.3,532.0 533.7,532.0 534.0,532.0 534.4,532.0 534.8,532.0 535.1,532.0 535.5,532.0 535.8,532.0 536.2,532.0 536.5,532.0 536.9,532.0 537.3,532.0 537.6,532.0 538.0,532.0 538.3,532.0 538.7,532.0 539.0,532.0 539.4,532.0 539.8,532.0 540.1,532.0 540.5,532.0 540.8,532.0 541.2,532.0 541.5,532.0 541.9,532.0 542.3,532.0 542.6,532.0 543.0,532.0 543.3,532.0 543.7,532.0 544.0,532.0 544.4,532.0 544.8,532.0 545.1,532.0 545.5,532.0 545.8,532.0 546.2,532.0 546.5,532.0 546.9,532.0 547.2,532.0 547.6,532.0 548.0,532.0 548.3,532.0 548.7,532.0 549.0,532.0 549.4,532.0 549.7,532.0 550.1,532.0 550.5,532.0 550.8,532.0 551.2,532.0 551.5,532.0 551.9,532.0 552.2,532.0 552.6,532.0 553.0,532.0 553.3,532.0 553.7,532.0 554.0,532.0 554.4,532.0 554.7,532.0 555.1,532.0 555.5,532.0 555.8,532.0 556.2,532.0 556.5,532.0 556.9,532.0 557.2,532.0 557.6,532.0 557.9,532.0 558.3,532.0 558.7,532.0 559.0,532.0 559.4,532.0 559.7,532.0 560.1,532.0 560.4,532.0 560.8,532.0 561.2,532.0 561.5,532.0 561.9,532.0 562.2,532.0 562.6,532.0 562.9,532.0 563.3,532.0 563.7,532.0 564.0,532.0 564.4,532.0 564.7,532.0 565.1,532.0 565.4,532.0 565.8,532.0 566.2,532.0 566.5,532.0 566.9,532.0 567.2,532.0 567.6,532.0" /><polyline fill="none" stroke="#d62728" stroke-width="2.5" points="90.0,90.0 90.4,90.0 90.7,90.0 91.1,90.0 91.4,90.0 91.8,90.0 92.1,90.0 92.9,90.0 93.2,90.0 93.6,90.0 93.9,90.0 94.3,90.0 94.6,90.0 95.3,90.0 95.7,90.0 96.1,90.0 96.4,90.0 96.8,90.0 97.1,90.0 97.5,90.0 98.2,90.0 98.6,90.0 98.9,90.0 99.3,90.0 99.6,90.0 100.0,90.0 100.7,90.0 101.1,90.0 101.4,90.0 101.8,90.0 102.1,90.0 102.5,90.0 102.8,90.0 103.6,90.0 103.9,90.0 104.3,90.0 104.6,90.0 105.0,90.0 105.3,90.0 106.0,90.0 106.4,90.0 106.8,90.0 107.1,90.0 107.5,90.0 107.8,90.0 108.2,90.0 108.9,90.0 109.3,90.0 109.6,90.0 110.0,90.0 110.3,90.0 110.7,90.0 111.4,90.0 111.8,90.0 112.1,90.0 112.5,90.0 112.8,90.0 113.2,90.0 113.5,90.0 114.3,90.0 114.6,90.0 115.0,90.0 115.3,90.0 115.7,90.0 116.0,90.0 116.8,90.0 117.1,90.0 117.5,90.0 117.8,90.0 118.2,90.0 118.5,90.0 119.2,90.0 119.6,90.0 120.0,90.0 120.3,90.0 120.7,90.0 121.0,90.0 121.4,90.0 122.1,90.0 122.5,90.0 122.8,90.0 123.2,90.0 123.5,90.0 123.9,90.0 124.6,90.0 125.0,90.0 125.3,90.0 125.7,90.0 126.0,90.0 126.4,90.0 126.7,90.0 127.5,90.0 127.8,90.0 128.2,90.0 128.5,90.0 128.9,90.0 129.2,90.0 129.9,90.0 130.3,90.0 130.7,90.0 131.0,90.0 131.4,90.0 131.7,90.0 132.1,90.0 132.8,90.0 133.2,90.0 133.5,90.0 133.9,90.0 134.2,90.0 134.6,90.0 135.3,90.0 135.7,90.0 136.0,90.0 136.4,90.0 136.7,90.0 137.1,90.0 137.4,90.0 138.2,90.0 138.5,90.0 138.9,90.0 139.2,90.0 139.6,90.0 139.9,90.0 140.6,90.0 141.0,90.0 141.4,90.0 141.7,90.0 142.1,90.0 142.4,90.0 143.1,90.0 143.5,90.0 143.9,90.0 144.2,90.0 144.6,90.0 144.9,90.0 145.3,90.0 146.0,90.0 146.4,90.0 146.7,90.0 147.1,90.0 147.4,90.0 147.8,90.0 148.5,90.0 148.8,90.0 149.2,90.0 149.6,90.0 149.9,90.0 150.3,90.0 150.6,90.0 151.3,90.0 151.7,90.0 152.1,90.0 152.4,90.0 152.8,90.0 153.1,90.0 153.8,90.0 154.2,90.0 154.6,90.0 154.9,90.0 155.3,90.0 155.6,90.0 156.0,90.0 156.7,90.0 157.1,90.0 157.4,90.0 157.8,90.0 158.1,90.0 158.5,90.0 159.2,90.0 159.6,90.0 159.9,90.0 160.3,90.0 160.6,90.0 161.0,90.0 161.3,90.0 162.0,90.0 162.4,90.0 162.8,90.0 163.1,90.0 163.5,90.0 163.8,90.0 164.5,90.0 164.9,90.0 165.3,90.0 165.6,90.0 166.0,90.0 166.3,90.0 166.7,90.0 167.4,90.0 167.8,90.0 168.1,90.0 168.5,90.0 168.8,90.0 169.2,90.0 169.9,90.0 170.2,90.0 170.6,90.0 171.0,90.0 171.3,90.0 171.7,90.0 172.4,90.0 172.7,90.0 173.1,90.0 173.5,90.0 173.8,90.0 174.2,90.0 174.5,90.0 175.2,90.0 175.6,90.0 176.0,90.0 176.3,90.0 176.7,90.0 177.0,90.0 177.7,90.0 178.1,90.0 178.5,90.0 178.8,90.0 179.2,90.0 179.5,90.0 179.9,90.0 180.6,90.0 180.9,90.0 181.3,90.0 181.7,90.0 182.0,90.0 182.4,90.0 183.1,90.0 183.4,90.0 183.8,90.0 184.2,90.0 184.5,90.0 184.9,90.0 185.2,90.0 185.9,90.0 186.3,90.0 186.7,90.0 187.0,90.0 187.4,90.0 187.7,90.0 188.4,90.0 188.8,90.0 189.2,90.0 189.5,90.0 189.9,90.0 190.2,90.0 190.6,90.0 191.3,90.0 191.7,90.0 192.0,90.0 192.4,90.0 192.7,90.0 193.1,90.0 193.8,90.0 194.1,90.0 194.5,90.0 194.9,90.0 195.2,90.0 195.6,90.0 196.3,90.0 196.6,90.0 197.0,90.0 197.4,90.0 197.7,90.0 198.1,90.0 198.4,90.0 199.1,90.0 199.5,90.0 199.9,90.0 200.2,90.0 200.6,90.0 200.9,90.0 201.6,90.0 202.0,90.0 202.3,90.0 202.7,90.0 203.1,90.0 203.4,90.0 203.8,90.0 204.5,90.0 204.8,90.0 205.2,90.0 205.6,90.0 205.9,90.0 206.3,90.0 207.0,90.0 207.3,90.0 207.7,90.0 208.1,90.0 208.4,90.0 208.8,90.0 209.1,90.0 209.8,90.0 210.2,90.0 210.6,90.0 210.9,90.0 211.3,90.0 211.6,90.0 212.3,90.0 212.7,90.0 213.1,90.0 213.4,90.0 213.8,90.0 214.1,90.0 214.5,90.0 215.2,90.0 215.5,90.0 215.9,90.0 216.3,90.0 216.6,90.0 217.0,90.0 217.7,90.0 218.0,90.0 218.4,90.0 218.8,90.0 219.1,90.0 219.5,90.0 220.2,90.0 220.5,90.0 220.9,90.0 221.3,90.0 221.6,90.0 222.0,90.0 222.3,90.0 223.0,90.0 223.4,90.0 223.8,90.0 224.1,90.0 224.5,90.0 224.8,90.0 225.5,90.0 225.9,90.0 226.2,90.0 226.6,90.0 227.0,90.0 227.3,90.0 227.7,90.0 228.4,90.0 228.7,90.0 229.1,90.0 229.5,90.0 229.8,90.0 230.2,90.0 230.9,90.0 231.2,90.0 231.6,90.0 232.0,90.0 232.3,90.0 232.7,90.0 233.0,90.0 233.7,90.0 234.1,90.0 234.5,90.0 234.8,90.0 235.2,90.0 235.5,90.0 236.2,90.0 236.6,90.0 236.9,90.0 237.3,90.0 237.7,90.0 238.0,90.0 238.4,90.0 239.1,90.0 239.4,90.0 239.8,90.0 240.2,90.0 240.5,90.0 240.9,90.0 241.6,90.0 241.9,90.0 242.3,90.0 242.7,90.0 243.0,90.0 243.4,90.0 243.7,90.0 244.4,90.0 244.8,90.0 245.1,90.0 245.5,90.0 245.9,90.0 246.2,90.0 246.9,90.0 247.3,90.0 247.6,90.0 248.0,90.0 248.4,90.0 248.7,90.0 249.4,90.0 249.8,90.0 250.1,90.0 250.5,90.0 250.9,90.0 251.2,90.0 251.6,90.0 252.3,90.0 252.6,90.0 253.0,90.0 253.4,90.0 253.7,90.0 254.1,90.0 254.8,90.0 255.1,90.0 255.5,90.0 255.8,90.0 256.2,90.0 256.6,90.0 256.9,90.0 257.6,90.0 258.0,90.0 258.3,90.0 258.7,90.0 259.1,90.0 259.4,90.0 260.1,90.0 260.5,90.0 260.8,90.0 261.2,90.0 261.6,90.0 261.9,90.0 262.3,90.0 263.0,90.0 263.3,90.0 263.7,90.0 264.1,90.0 264.4,90.0 264.8,90.0 265.5,90.0 265.8,90.0 266.2,90.0 266.6,90.0 266.9,90.0 267.3,90.0 267.6,90.0 268.3,90.0 268.7,90.0 269.0,90.0 269.4,90.0 269.8,90.0 270.1,90.0 270.8,90.0 271.2,90.0 271.5,90.0 271.9,90.0 272.3,90.0 272.6,90.0 273.3,90.0 273.7,90.0 274.0,90.0 274.4,90.0 274.8,90.0 275.1,90.0 275.5,90.0 276.2,90.0 276.5,90.0 276.9,90.0 277.2,90.0 277.6,90.0 278.0,90.0 278.7,90.0 279.0,90.0 279.4,90.0 279.7,90.0 280.1,90.0 280.5,90.0 280.8,90.0 281.5,90.0 281.9,90.0 282.2,90.0 282.6,90.0 283.0,90.0 283.3,90.0 284.0,90.0 284.4,90.0 284.7,90.0 285.1,90.0 285.5,90.0 285.8,90.0 286.2,90.0 286.9,90.0 287.2,90.0 287.6,90.0 287.9,90.0 288.3,90.0 288.7,90.0 289.4,90.0 289.7,90.0 290.1,90.0 290.4,90.0 290.8,90.0 291.2,90.0 291.5,90.0 292.2,90.0 292.6,90.0 292.9,90.0 293.3,90.0 293.7,90.0 294.0,90.0 294.7,90.0 295.1,90.0 295.4,90.0 295.8,90.0 296.2,90.0 296.5,90.0 297.2,90.0 297.6,90.0 297.9,90.0 298.3,90.0 298.6,90.0 299.0,90.0 299.4,90.0 300.1,90.0 300.4,90.0 300.8,90.0 301.1,90.0 301.5,90.0 301.9,90.0 302.6,90.0 302.9,90.0 303.3,90.0 303.6,90.0 304.0,90.0 304.4,90.0 304.7,90.0 305.4,90.0 305.8,90.0 306.1,90.0 306.5,90.0 306.9,90.0 307.2,90.0 307.9,90.0 308.3,90.0 308.6,90.0 309.0,90.0 309.4,90.0 309.7,90.0 310.1,90.0 310.8,90.0 311.1,90.0 311.5,90.0 311.8,90.0 312.2,90.0 312.6,90.0 313.3,90.0 313.6,90.0 314.0,90.0 314.3,90.0 314.7,90.0 315.1,90.0 315.4,90.0 316.1,90.0 316.5,90.0 316.8,90.0 317.2,90.0 317.6,90.0 317.9,90.0 318.6,90.0 319.0,90.0 319.3,90.0 319.7,90.0 320.0,90.0 320.4,90.0 320.8,90.0 321.5,90.0 321.8,90.0 322.2,90.0 322.5,90.0 322.9,90.0 323.3,90.0 324.0,90.0 324.3,90.0 324.7,90.0 325.0,90.0 325.4,90.0 325.8,90.0 326.5,90.0 326.8,90.0 327.2,90.0 327.5,90.0 327.9,90.0 328.3,90.0 328.6,90.0 329.3,90.0 329.7,90.0 330.0,90.0 330.4,90.0 330.8,90.0 331.1,90.0 331.8,90.0 332.2,90.0 332.5,90.0 332.9,90.0 333.2,90.0 333.6,90.0 334.0,90.0 334.7,90.0 335.0,90.0 335.4,90.0 335.7,90.0 336.1,90.0 336.5,90.0 337.2,90.0 337.5,90.0 337.9,90.0 338.2,90.0 338.6,90.0 339.0,90.0 339.3,90.0 340.0,90.0 340.4,90.0 340.7,90.0 341.1,90.0 341.4,90.0 341.8,90.0 342.5,90.0 342.9,90.0 343.2,90.0 343.6,90.0 343.9,90.0 344.3,90.0 344.7,90.0 345.4,90.0 345.7,90.0 346.1,90.0 346.4,90.0 346.8,90.0 347.2,90.0 347.9,90.0 348.2,90.0 348.6,90.0 348.9,90.0 349.3,90.0 349.7,90.0 350.4,90.0 350.7,90.0 351.1,90.0 351.4,90.0 351.8,90.0 352.1,90.0 352.5,90.0 353.2,90.0 353.6,90.0 353.9,90.0 354.3,90.0 354.6,90.0 355.0,90.0 355.7,90.0 356.1,90.0 356.4,90.0 356.8,90.0 357.1,90.0 357.5,90.0 357.9,90.0 358.6,90.0 358.9,90.0 359.3,90.0 359.6,90.0 360.0,90.0 360.4,98.5 361.1,158.0 361.4,158.0 361.8,158.0 362.1,158.0 362.5,158.0 362.9,158.0 363.2,158.0 363.9,158.0 364.3,158.0 364.6,158.0 365.0,158.0 365.3,158.0 365.7,158.0 366.4,158.0 366.8,158.0 367.1,158.0 367.5,158.0 367.8,158.0 368.2,158.0 368.6,158.0 369.3,158.0 369.6,158.0 370.0,158.0 370.3,158.0 370.7,158.0 371.1,158.0 371.8,158.0 372.1,158.0 372.5,158.0 372.8,158.0 373.2,158.0 373.6,158.0 374.3,158.0 374.6,158.0 375.0,158.0 375.3,158.0 375.7,158.0 376.0,158.0 376.4,158.0 377.1,158.0 377.5,158.0 377.8,158.0 378.2,158.0 378.5,158.0 378.9,158.0 379.6,158.0 380.0,158.0 380.3,158.0 380.7,158.0 381.0,158.0 381.4,158.0 381.8,158.0 382.5,158.0 382.8,158.0 383.2,158.0 383.5,158.0 383.9,158.0 384.2,158.0 385.0,158.0 385.3,158.0 385.7,158.0 386.0,158.0 386.4,158.0 386.7,158.0 387.1,158.0 387.8,158.0 388.2,158.0 388.5,158.0 388.9,158.0 389.2,158.0 389.6,158.0 390.3,158.0 390.7,158.0 391.0,158.0 391.4,158.0 391.7,158.0 392.1,158.0 392.5,158.0 393.2,158.0 393.5,158.0 393.9,158.0 394.2,158.0 394.6,158.0 394.9,158.0 395.7,158.0 396.0,158.0 396.4,158.0 396.7,158.0 397.1,158.0 397.4,158.0 397.8,158.0 398.5,158.0 398.9,158.0 399.2,158.0 399.6,158.0 399.9,158.0 400.3,158.0 401.0,158.0 401.4,158.0 401.7,158.0 402.1,158.0 402.4,158.0 402.8,158.0 403.5,158.0 403.9,158.0 404.2,158.0 404.6,158.0 404.9,158.0 405.3,158.0 405.6,158.0 406.4,158.0 406.7,158.0 407.1,158.0 407.4,158.0 407.8,158.0 408.1,158.0 408.9,158.0 409.2,158.0 409.6,158.0 409.9,158.0 410.3,158.0 410.6,158.0 411.0,158.0 411.7,158.0 412.1,158.0 412.4,158.0 412.8,158.0 413.1,158.0 413.5,158.0 414.2,158.0 414.6,158.0 414.9,158.0 415.3,158.0 415.6,158.0 416.0,158.0 416.3,158.0 417.1,158.0 417.4,158.0 417.8,158.0 418.1,158.0 418.5,158.0 418.8,158.0 419.6,158.0 419.9,158.0 420.3,158.0 420.6,158.0 421.0,158.0 421.3,158.0 421.7,158.0 422.4,158.0 422.8,158.0 423.1,158.0 423.5,158.0 423.8,158.0 424.2,158.0 424.9,158.0 425.3,158.0 425.6,158.0 426.0,158.0 426.3,158.0 426.7,158.0 427.4,158.0 427.8,158.0 428.1,158.0 428.5,158.0 428.8,158.0 429.2,158.0 429.5,158.0 430.3,158.0 430.6,158.0 431.0,158.0 431.3,158.0 431.7,158.0 432.0,158.0 432.8,319.5 433.1,319.5 433.5,319.5 433.8,319.5 434.2,319.5 434.5,319.5 434.9,319.5 435.6,319.5 436.0,319.5 436.3,319.5 436.7,319.5 437.0,319.5 437.4,319.5 438.1,319.5 438.5,319.5 438.8,319.5 439.2,319.5 439.5,319.5 439.9,319.5 440.2,319.5 441.0,319.5 441.3,319.5 441.7,319.5 442.0,319.5 442.4,319.5 442.7,319.5 443.5,319.5 443.8,319.5 444.2,319.5 444.5,319.5 444.9,319.5 445.2,319.5 445.6,319.5 446.3,319.5 446.7,319.5 447.0,319.5 447.4,319.5 447.7,319.5 448.1,319.5 448.8,319.5 449.2,319.5 449.5,319.5 449.9,319.5 450.2,319.5 450.6,319.5 451.3,319.5 451.7,319.5 452.0,319.5 452.4,319.5 452.7,319.5 453.1,319.5 453.4,319.5 454.2,319.5 454.5,319.5 454.9,319.5 455.2,319.5 455.6,319.5 455.9,319.5 456.7,319.5 457.0,319.5 457.4,319.5 457.7,319.5 458.1,319.5 458.4,319.5 458.8,319.5 459.5,319.5 459.9,319.5 460.2,319.5 460.6,319.5 460.9,319.5 461.3,319.5 462.0,319.5 462.4,319.5 462.7,319.5 463.1,319.5 463.4,319.5 463.8,319.5 464.1,319.5 464.9,319.5 465.2,319.5 465.6,319.5 465.9,319.5 466.3,319.5 466.6,319.5 467.4,319.5 467.7,319.5 468.1,319.5 468.4,319.5 468.8,319.5 469.1,319.5 469.5,319.5 470.2,319.5 470.6,319.5 470.9,319.5 471.3,319.5 471.6,319.5 472.0,319.5 472.7,319.5 473.1,319.5 473.4,319.5 473.8,319.5 474.1,319.5 474.5,319.5 474.8,319.5 475.6,319.5 475.9,319.5 476.3,319.5 476.6,319.5 477.0,319.5 477.3,319.5 478.1,319.5 478.4,319.5 478.8,319.5 479.1,319.5 479.5,319.5 479.8,319.5 480.6,319.5 480.9,319.5 481.3,319.5 481.6,319.5 482.0,319.5 482.3,319.5 482.7,319.5 483.4,319.5 483.8,319.5 484.1,319.5 484.5,319.5 484.8,319.5 485.2,319.5 485.9,319.5 486.3,319.5 486.6,319.5 487.0,319.5 487.3,319.5 487.7,319.5 488.0,319.5 488.8,319.5 489.1,319.5 489.5,319.5 489.8,319.5 490.2,319.5 490.5,319.5 491.2,319.5 491.6,319.5 492.0,319.5 492.3,319.5 492.7,319.5 493.0,319.5 493.4,319.5 494.1,319.5 494.5,319.5 494.8,319.5 495.2,319.5 495.5,319.5 495.9,319.5 496.6,319.5 497.0,319.5 497.3,319.5 497.7,319.5 498.0,319.5 498.4,319.5 498.7,319.5 499.5,319.5 499.8,319.5 500.2,319.5 500.5,319.5 500.9,319.5 501.2,319.5 501.9,319.5 502.3,319.5 502.7,319.5 503.0,319.5 503.4,319.5 503.7,319.5 504.4,319.5 504.8,319.5 505.2,319.5 505.5,319.5 505.9,319.5 506.2,319.5 506.6,319.5 507.3,319.5 507.7,319.5 508.0,319.5 508.4,319.5 508.7,319.5 509.1,319.5 509.8,319.5 510.2,319.5 510.5,319.5 510.9,319.5 511.2,319.5 511.6,319.5 511.9,319.5 512.7,319.5 513.0,319.5 513.4,319.5 513.7,319.5 514.1,319.5 514.4,319.5 515.1,319.5 515.5,319.5 515.9,319.5 516.2,319.5 516.6,319.5 516.9,319.5 517.3,319.5 518.0,319.5 518.4,319.5 518.7,319.5 519.1,319.5 519.4,319.5 519.8,319.5 520.5,319.5 520.9,319.5 521.2,319.5 521.6,319.5 521.9,319.5 522.3,319.5 522.6,319.5 523.4,319.5 523.7,319.5 524.1,319.5 524.4,319.5 524.8,319.5 525.1,319.5 525.8,319.5 526.2,319.5 526.6,319.5 526.9,319.5 527.3,319.5 527.6,319.5 528.3,319.5 528.7,319.5 529.1,319.5 529.4,319.5 529.8,319.5 530.1,319.5 530.5,319.5 531.2,319.5 531.6,319.5 531.9,319.5 532.3,319.5 532.6,319.5 533.0,319.5 533.7,319.5 534.0,319.5 534.4,319.5 534.8,319.5 535.1,319.5 535.5,319.5 535.8,319.5 536.5,319.5 536.9,319.5 537.3,319.5 537.6,319.5 538.0,319.5 538.3,319.5 539.0,319.5 539.4,319.5 539.8,319.5 540.1,319.5 540.5,319.5 540.8,319.5 541.2,319.5 541.9,319.5 542.3,319.5 542.6,319.5 543.0,319.5 543.3,319.5 543.7,319.5 544.4,319.5 544.8,319.5 545.1,319.5 545.5,319.5 545.8,319.5 546.2,319.5 546.5,319.5 547.2,319.5 547.6,319.5 548.0,319.5 548.3,319.5 548.7,319.5 549.0,319.5 549.7,319.5 550.1,319.5 550.5,319.5 550.8,319.5 551.2,319.5 551.5,319.5 551.9,319.5 552.6,319.5 553.0,319.5 553.3,319.5 553.7,319.5 554.0,319.5 554.4,319.5 555.1,319.5 555.5,319.5 555.8,319.5 556.2,319.5 556.5,379.0 556.9,404.5 557.6,404.5 557.9,404.5 558.3,404.5 558.7,404.5 559.0,404.5 559.4,404.5 559.7,404.5 560.4,404.5 560.8,404.5 561.2,404.5 561.5,404.5 561.9,404.5 562.2,404.5 562.9,404.5 563.3,404.5 563.7,404.5 564.0,404.5 564.4,404.5 564.7,404.5 565.1,404.5 565.8,404.5 566.2,404.5 566.5,404.5 566.9,404.5 567.2,404.5 567.6,404.5 568.3,404.5 568.6,404.5 569.0,404.5 569.4,404.5 569.7,404.5 570.1,404.5 570.4,404.5 571.1,404.5 571.5,404.5 571.9,404.5 572.2,404.5 572.6,404.5 572.9,404.5 573.6,404.5 574.0,404.5 574.4,404.5 574.7,404.5 575.1,404.5 575.4,404.5 575.8,404.5 576.5,404.5 576.9,404.5 577.2,404.5 577.6,404.5 577.9,404.5 578.3,404.5 579.0,404.5 579.3,404.5 579.7,404.5 580.1,404.5 580.4,404.5 580.8,404.5 581.5,404.5 581.8,404.5 582.2,404.5 582.6,404.5 582.9,404.5 583.3,404.5 583.6,404.5 584.3,404.5 584.7,404.5 585.1,404.5 585.4,404.5 585.8,404.5 586.1,404.5 586.8,404.5 587.2,404.5 587.5,404.5 587.9,404.5 588.3,404.5 588.6,404.5 589.0,404.5 589.7,404.5 590.0,404.5 590.4,404.5 590.8,404.5 591.1,404.5 591.5,404.5 592.2,404.5 592.5,404.5 592.9,404.5 593.3,404.5 593.6,404.5 594.0,404.5 594.3,404.5 595.0,404.5 595.4,404.5 595.8,404.5 596.1,404.5 596.5,404.5 596.8,404.5 597.5,404.5 597.9,404.5 598.2,404.5 598.6,404.5 599.0,404.5 599.3,404.5 599.7,404.5 600.4,404.5 600.7,404.5 601.1,404.5 601.5,404.5 601.8,404.5 602.2,404.5 602.9,404.5 603.2,404.5 603.6,404.5 604.0,404.5 604.3,404.5 604.7,404.5 605.4,404.5 605.7,404.5 606.1,404.5 606.5,404.5 606.8,404.5 607.2,404.5 607.5,404.5 608.2,404.5 608.6,404.5 608.9,404.5 609.3,404.5 609.7,404.5 610.0,404.5 610.7,404.5 611.1,404.5 611.4,404.5 611.8,404.5 612.2,404.5 612.5,404.5 612.9,404.5 613.6,404.5 613.9,404.5 614.3,404.5 614.7,404.5 615.0,404.5 615.4,404.5 616.1,404.5 616.4,404.5 616.8,404.5 617.2,404.5 617.5,404.5 617.9,404.5 618.2,404.5 618.9,404.5 619.3,404.5 619.6,404.5 620.0,404.5 620.4,404.5 620.7,404.5 621.4,404.5 621.8,404.5 622.1,404.5 622.5,404.5 622.9,404.5 623.2,404.5 623.6,404.5 624.3,404.5 624.6,404.5 625.0,404.5 625.4,404.5 625.7,404.5 626.1,404.5 626.8,404.5 627.1,404.5 627.5,404.5 627.9,404.5 628.2,404.5 628.6,404.5 628.9,404.5 629.6,404.5 630.0,404.5 630.4,404.5 630.7,404.5 631.1,404.5 631.4,404.5 632.1,404.5 632.5,404.5 632.8,404.5 633.2,404.5 633.6,404.5 633.9,404.5 634.6,404.5 635.0,404.5 635.3,404.5 635.7,404.5 636.1,404.5 636.4,404.5 636.8,404.5 637.5,404.5 637.8,404.5 638.2,404.5 638.6,404.5 638.9,404.5 639.3,404.5 640.0,404.5 640.3,404.5 640.7,404.5 641.1,404.5 641.4,404.5 641.8,404.5 642.1,404.5 642.8,404.5 643.2,404.5 643.5,404.5 643.9,404.5 644.3,404.5 644.6,404.5 645.3,404.5 645.7,404.5 646.0,404.5 646.4,404.5 646.8,404.5 647.1,404.5 647.5,404.5 648.2,404.5 648.5,404.5 648.9,404.5 649.3,404.5 649.6,404.5 650.0,404.5 650.7,404.5 651.0,404.5 651.4,404.5 651.8,404.5 652.1,404.5 652.5,404.5 652.8,404.5 653.5,404.5 653.9,404.5 654.2,404.5 654.6,404.5 655.0,404.5 655.3,404.5 656.0,404.5 656.4,404.5 656.7,404.5 657.1,404.5 657.5,404.5 657.8,404.5 658.5,404.5 658.9,404.5 659.2,404.5 659.6,404.5 660.0,404.5 660.3,404.5 660.7,404.5 661.4,404.5 661.7,404.5 662.1,404.5 662.5,404.5 662.8,404.5 663.2,404.5 663.9,404.5 664.2,404.5 664.6,404.5 664.9,404.5 665.3,404.5 665.7,404.5 666.0,404.5 666.7,404.5 667.1,404.5 667.4,404.5 667.8,404.5 668.2,404.5 668.5,404.5 669.2,404.5 669.6,404.5 669.9,404.5 670.3,404.5 670.7,404.5 671.0,404.5 671.4,404.5 672.1,404.5 672.4,404.5 672.8,404.5 673.2,404.5 673.5,404.5 673.9,404.5 674.6,404.5 674.9,404.5 675.3,404.5 675.6,404.5 676.0,404.5 676.4,404.5 676.7,404.5 677.4,404.5 677.8,404.5 678.1,404.5 678.5,404.5 678.9,404.5 679.2,404.5 679.9,404.5 680.3,404.5 680.6,404.5 681.0,404.5 681.4,404.5 681.7,404.5 682.4,404.5 682.8,404.5 683.1,404.5 683.5,404.5 683.9,404.5 684.2,404.5 684.6,404.5 685.3,404.5 685.6,404.5 686.0,404.5 686.3,404.5 686.7,404.5 687.1,404.5 687.8,404.5 688.1,404.5 688.5,404.5 688.8,404.5 689.2,404.5 689.6,404.5 689.9,404.5 690.6,404.5 691.0,404.5 691.3,404.5 691.7,404.5 692.1,404.5 692.4,404.5 693.1,404.5 693.5,404.5 693.8,404.5 694.2,404.5 694.5,404.5 694.9,404.5 695.3,404.5 696.0,404.5 696.3,404.5 696.7,404.5 697.0,404.5 697.4,404.5 697.8,404.5 698.5,404.5 698.8,404.5 699.2,404.5 699.5,404.5 699.9,404.5 700.3,404.5 700.6,404.5 701.3,404.5 701.7,404.5 702.0,404.5 702.4,404.5 702.8,404.5 703.1,404.5 703.8,404.5 704.2,404.5 704.5,404.5 704.9,404.5 705.2,404.5 705.6,404.5 706.0,404.5 706.7,404.5 707.0,404.5 707.4,404.5 707.7,404.5 708.1,404.5 708.5,404.5 709.2,404.5 709.5,404.5 709.9,404.5 710.2,404.5 710.6,404.5 711.0,404.5 711.7,404.5 712.0,404.5 712.4,404.5 712.7,404.5 713.1,404.5 713.5,404.5 713.8,404.5 714.5,404.5 714.9,404.5 715.2,404.5 715.6,404.5 715.9,404.5 716.3,404.5 717.0,404.5 717.4,404.5 717.7,404.5 718.1,404.5 718.4,404.5 718.8,404.5 719.2,404.5 719.9,404.5 720.2,404.5 720.6,404.5 720.9,404.5 721.3,404.5 721.7,404.5 722.4,404.5 722.7,404.5 723.1,404.5 723.4,404.5 723.8,404.5 724.2,404.5 724.5,404.5 725.2,404.5 725.6,404.5 725.9,404.5 726.3,404.5 726.6,404.5 727.0,404.5 727.7,404.5 728.1,404.5 728.4,404.5 728.8,404.5 729.1,404.5 729.5,404.5 729.9,404.5 730.6,404.5 730.9,404.5 731.3,404.5 731.6,404.5 732.0,404.5 732.4,404.5 733.1,404.5 733.4,404.5 733.8,404.5 734.1,404.5 734.5,404.5 734.9,404.5 735.6,404.5 735.9,404.5 736.3,404.5 736.6,404.5 737.0,404.5 737.4,404.5 737.7,404.5 738.4,404.5 738.8,404.5 739.1,404.5 739.5,404.5 739.8,404.5 740.2,404.5 740.9,404.5 741.3,404.5 741.6,404.5 742.0,404.5 742.3,404.5 742.7,404.5 743.1,404.5 743.8,404.5 744.1,404.5 744.5,404.5 744.8,404.5 745.2,404.5 745.6,404.5 746.3,404.5 746.6,404.5 747.0,404.5 747.3,404.5 747.7,404.5 748.0,404.5 748.4,404.5 749.1,404.5 749.5,404.5 749.8,404.5 750.2,404.5 750.5,404.5 750.9,404.5 751.6,404.5 752.0,404.5 752.3,404.5 752.7,404.5 753.0,404.5 753.4,404.5 753.8,404.5 754.5,404.5 754.8,404.5 755.2,404.5 755.5,404.5 755.9,404.5 756.3,404.5 757.0,404.5 757.3,404.5 757.7,404.5 758.0,404.5 758.4,404.5 758.8,404.5 759.5,404.5 759.8,404.5 760.2,404.5 760.5,404.5 760.9,404.5 761.2,404.5 761.6,404.5 762.3,404.5 762.7,404.5 763.0,404.5 763.4,404.5 763.7,404.5 764.1,404.5 764.8,404.5 765.2,404.5 765.5,404.5 765.9,404.5 766.2,404.5 766.6,404.5 767.0,404.5 767.7,404.5 768.0,404.5 768.4,404.5 768.7,404.5 769.1,404.5 769.5,404.5 770.2,404.5 770.5,404.5 770.9,404.5 771.2,404.5 771.6,404.5 771.9,404.5 772.3,404.5 773.0,404.5 773.4,404.5 773.7,404.5 774.1,404.5 774.4,404.5 774.8,404.5 775.5,404.5 775.9,404.5 776.2,404.5 776.6,404.5 776.9,404.5 777.3,404.5 777.7,404.5 778.4,404.5 778.7,404.5 779.1,404.5 779.4,404.5 779.8,404.5 780.1,404.5 780.9,404.5 781.2,404.5 781.6,404.5 781.9,404.5 782.3,404.5 782.6,404.5 783.0,404.5 783.7,404.5 784.1,404.5 784.4,404.5 784.8,404.5 785.1,404.5 785.5,404.5 786.2,404.5 786.6,404.5 786.9,404.5 787.3,404.5 787.6,404.5 788.0,404.5 788.7,404.5 789.1,404.5 789.4,404.5 789.8,404.5 790.1,404.5 790.5,404.5 790.9,404.5 791.6,404.5 791.9,404.5 792.3,404.5 792.6,404.5 793.0,404.5 793.3,404.5 794.1,404.5 794.4,404.5 794.8,404.5 795.1,404.5 795.5,404.5 795.8,404.5 796.2,404.5 796.9,404.5 797.3,404.5 797.6,404.5 798.0,404.5 798.3,404.5 798.7,404.5 799.4,404.5 799.8,404.5 800.1,404.5 800.5,404.5 800.8,404.5 801.2,404.5 801.6,404.5 802.3,404.5 802.6,404.5 803.0,404.5 803.3,404.5 803.7,404.5 804.0,404.5 804.8,404.5 805.1,404.5 805.5,404.5 805.8,404.5 806.2,404.5 806.5,404.5 806.9,404.5 807.6,404.5 808.0,404.5 808.3,404.5 808.7,404.5 809.0,404.5 809.4,404.5 810.1,404.5 810.5,404.5 810.8,404.5 811.2,404.5 811.5,404.5 811.9,404.5 812.6,404.5 813.0,404.5 813.3,404.5 813.7,404.5 814.0,404.5 814.4,404.5 814.7,404.5 815.5,404.5 815.8,404.5 816.2,404.5 816.5,404.5 816.9,404.5 817.2,404.5 818.0,404.5 818.3,404.5 818.7,404.5 819.0,404.5 819.4,404.5 819.7,404.5 820.1,404.5 820.8,404.5 821.2,404.5 821.5,404.5 821.9,404.5 822.2,404.5 822.6,404.5 823.3,404.5 823.7,404.5 824.0,404.5 824.4,404.5 824.7,404.5 825.1,404.5 825.4,404.5 826.2,404.5 826.5,404.5 826.9,404.5 827.2,404.5 827.6,404.5 827.9,404.5 828.7,404.5 829.0,404.5 829.4,404.5 829.7,404.5 830.1,404.5 830.4,404.5 830.8,404.5 831.5,404.5 831.9,404.5 832.2,404.5 832.6,404.5 832.9,404.5 833.3,404.5 834.0,404.5 834.4,404.5 834.7,404.5 835.1,404.5 835.4,404.5 835.8,404.5 836.5,404.5 836.9,404.5 837.2,404.5 837.6,404.5 837.9,404.5 838.3,404.5 838.6,404.5 839.4,404.5 839.7,404.5 840.1,404.5 840.4,404.5 840.8,404.5 841.1,404.5 841.9,404.5 842.2,404.5 842.6,404.5 842.9,404.5 843.3,404.5 843.6,404.5 844.0,404.5 844.7,404.5 845.1,404.5 845.4,404.5 845.8,404.5 846.1,404.5 846.5,404.5 847.2,404.5 847.6,404.5 847.9,404.5 848.3,404.5 848.6,404.5 849.0,404.5 849.3,404.5 850.1,404.5 850.4,404.5 850.8,404.5 851.1,404.5 851.5,404.5 851.8,404.5 852.6,404.5 852.9,404.5 853.3,404.5 853.6,404.5 854.0,404.5 854.3,404.5 854.7,404.5 855.4,404.5 855.8,404.5 856.1,404.5 856.5,404.5 856.8,404.5 857.2,404.5 857.9,404.5 858.3,404.5 858.6,404.5 859.0,404.5 859.3,404.5 859.7,404.5 860.0,404.5 860.8,404.5 861.1,404.5 861.5,404.5 861.8,404.5 862.2,404.5 862.5,404.5 863.3,404.5 863.6,404.5 864.0,404.5 864.3,404.5 864.7,404.5 865.0,404.5 865.8,404.5 866.1,404.5 866.5,404.5 866.8,404.5 867.2,404.5 867.5,404.5 867.9,404.5 868.6,404.5 869.0,404.5 869.3,404.5 869.7,404.5 870.0,404.5 870.4,404.5 871.1,404.5 871.5,404.5 871.8,404.5 872.2,404.5 872.5,404.5 872.9,404.5 873.2,404.5 874.0,404.5 874.3,404.5 874.7,404.5 875.0,404.5 875.4,404.5 875.7,404.5 876.4,404.5 876.8,404.5 877.2,404.5 877.5,404.5 877.9,404.5 878.2,404.5 878.6,404.5 879.3,404.5 879.7,404.5 880.0,404.5 880.4,404.5 880.7,404.5 881.1,404.5 881.8,404.5 882.2,404.5 882.5,404.5 882.9,404.5 883.2,404.5 883.6,404.5 883.9,404.5 884.7,404.5 885.0,404.5 885.4,404.5 885.7,404.5 886.1,404.5 886.4,404.5 887.1,404.5 887.5,404.5 887.9,404.5 888.2,404.5 888.6,404.5 888.9,404.5 889.6,404.5 890.0,404.5 890.4,404.5 890.7,404.5 891.1,404.5 891.4,404.5 891.8,404.5 892.5,404.5 892.9,404.5 893.2,404.5 893.6,404.5 893.9,404.5 894.3,404.5 895.0,404.5 895.4,404.5 895.7,404.5 896.1,404.5 896.4,404.5 896.8,404.5 897.1,404.5 897.9,404.5 898.2,404.5 898.6,404.5 898.9,404.5 899.3,404.5 899.6,404.5 900.3,404.5 900.7,404.5 901.1,404.5 901.4,404.5 901.8,404.5 902.1,404.5 902.5,404.5 903.2,404.5 903.6,404.5 903.9,404.5 904.3,404.5 904.6,404.5 905.0,404.5 905.7,404.5 906.1,404.5 906.4,404.5 906.8,404.5 907.1,404.5 907.5,404.5 907.8,404.5 908.6,404.5 908.9,404.5 909.3,404.5 909.6,404.5 910.0,404.5 910.3,404.5 911.0,404.5 911.4,404.5 911.8,404.5 912.1,404.5 912.5,404.5 912.8,404.5 913.5,404.5" /><polyline fill="none" stroke="#2ca02c" stroke-width="2.5" points="90.0,90.0 90.4,90.0 90.7,90.0 91.1,90.0 91.8,90.0 92.1,90.0 92.5,90.0 93.2,90.0 93.6,90.0 93.9,90.0 94.6,90.0 95.0,90.0 95.3,90.0 96.1,90.0 96.4,90.0 96.8,90.0 97.5,90.0 97.8,90.0 98.2,90.0 98.9,90.0 99.3,90.0 99.6,90.0 100.3,90.0 100.7,90.0 101.1,90.0 101.8,90.0 102.1,90.0 102.5,90.0 102.8,90.0 103.6,90.0 103.9,90.0 104.3,90.0 105.0,90.0 105.3,90.0 105.7,90.0 106.4,90.0 106.8,90.0 107.1,90.0 107.8,90.0 108.2,90.0 108.5,90.0 109.3,90.0 109.6,90.0 110.0,90.0 110.7,90.0 111.0,90.0 111.4,90.0 112.1,90.0 112.5,90.0 112.8,90.0 113.5,90.0 113.9,90.0 114.3,90.0 114.6,90.0 115.3,90.0 115.7,90.0 116.0,90.0 116.8,90.0 117.1,90.0 117.5,90.0 118.2,90.0 118.5,90.0 118.9,90.0 119.6,90.0 120.0,90.0 120.3,90.0 121.0,90.0 121.4,90.0 121.7,90.0 122.5,90.0 122.8,90.0 123.2,90.0 123.9,90.0 124.2,90.0 124.6,90.0 125.3,90.0 125.7,90.0 126.0,90.0 126.7,90.0 127.1,90.0 127.5,90.0 127.8,90.0 128.5,90.0 128.9,90.0 129.2,90.0 129.9,90.0 130.3,90.0 130.7,90.0 131.4,90.0 131.7,90.0 132.1,90.0 132.8,90.0 133.2,90.0 133.5,90.0 134.2,90.0 134.6,90.0 134.9,90.0 135.7,90.0 136.0,90.0 136.4,90.0 137.1,90.0 137.4,90.0 137.8,90.0 138.5,90.0 138.9,90.0 139.2,90.0 139.6,90.0 140.3,90.0 140.6,90.0 141.0,90.0 141.7,90.0 142.1,90.0 142.4,90.0 143.1,90.0 143.5,90.0 143.9,90.0 144.6,90.0 144.9,90.0 145.3,90.0 146.0,90.0 146.4,90.0 146.7,90.0 147.4,90.0 147.8,90.0 148.1,90.0 148.8,90.0 149.2,90.0 149.6,90.0 150.3,90.0 150.6,90.0 151.0,90.0 151.7,90.0 152.1,90.0 152.4,90.0 152.8,90.0 153.5,90.0 153.8,90.0 154.2,90.0 154.9,90.0 155.3,90.0 155.6,90.0 156.3,90.0 156.7,90.0 157.1,90.0 157.8,90.0 158.1,90.0 158.5,90.0 159.2,90.0 159.6,90.0 159.9,90.0 160.6,90.0 161.0,90.0 161.3,90.0 162.0,90.0 162.4,90.0 162.8,90.0 163.5,90.0 163.8,90.0 164.2,90.0 164.5,90.0 165.3,90.0 165.6,90.0 166.0,90.0 166.7,90.0 167.0,90.0 167.4,90.0 168.1,90.0 168.5,90.0 168.8,90.0 169.5,90.0 169.9,90.0 170.2,90.0 171.0,90.0 171.3,90.0 171.7,90.0 172.4,90.0 172.7,90.0 173.1,90.0 173.8,90.0 174.2,90.0 174.5,90.0 175.2,90.0 175.6,90.0 176.0,90.0 176.7,90.0 177.0,90.0 177.4,90.0 177.7,90.0 178.5,90.0 178.8,90.0 179.2,90.0 179.9,90.0 180.2,90.0 180.6,90.0 181.3,90.0 181.7,90.0 182.0,90.0 182.7,90.0 183.1,90.0 183.4,90.0 184.2,90.0 184.5,90.0 184.9,90.0 185.6,90.0 185.9,90.0 186.3,90.0 187.0,90.0 187.4,90.0 187.7,90.0 188.4,90.0 188.8,90.0 189.2,90.0 189.5,90.0 190.2,90.0 190.6,90.0 190.9,90.0 191.7,90.0 192.0,90.0 192.4,90.0 193.1,90.0 193.4,90.0 193.8,90.0 194.5,90.0 194.9,90.0 195.2,90.0 195.9,90.0 196.3,90.0 196.6,90.0 197.4,90.0 197.7,90.0 198.1,90.0 198.8,90.0 199.1,90.0 199.5,90.0 200.2,90.0 200.6,90.0 200.9,90.0 201.3,90.0 202.0,90.0 202.3,90.0 202.7,90.0 203.4,90.0 203.8,90.0 204.1,90.0 204.8,90.0 205.2,90.0 205.6,90.0 206.3,90.0 206.6,90.0 207.0,90.0 207.7,90.0 208.1,90.0 208.4,90.0 209.1,90.0 209.5,90.0 209.8,90.0 210.6,90.0 210.9,90.0 211.3,90.0 212.0,90.0 212.3,90.0 212.7,90.0 213.4,90.0 213.8,90.0 214.1,90.0 214.5,90.0 215.2,90.0 215.5,90.0 215.9,90.0 216.6,90.0 217.0,90.0 217.3,90.0 218.0,90.0 218.4,90.0 218.8,90.0 219.5,90.0 219.8,90.0 220.2,90.0 220.9,90.0 221.3,90.0 221.6,90.0 222.3,90.0 222.7,90.0 223.0,90.0 223.8,90.0 224.1,90.0 224.5,90.0 225.2,90.0 225.5,90.0 225.9,90.0 226.2,90.0 227.0,90.0 227.3,90.0 227.7,90.0 228.4,90.0 228.7,90.0 229.1,90.0 229.8,90.0 230.2,90.0 230.5,90.0 231.2,90.0 231.6,90.0 232.0,90.0 232.7,90.0 233.0,90.0 233.4,90.0 234.1,90.0 234.5,90.0 234.8,90.0 235.5,90.0 235.9,90.0 236.2,90.0 236.9,90.0 237.3,90.0 237.7,90.0 238.4,90.0 238.7,90.0 239.1,90.0 239.4,90.0 240.2,90.0 240.5,90.0 240.9,90.0 241.6,90.0 241.9,90.0 242.3,90.0 243.0,90.0 243.4,90.0 243.7,90.0 244.4,90.0 244.8,90.0 245.1,90.0 245.9,90.0 246.2,90.0 246.6,90.0 247.3,90.0 247.6,90.0 248.0,90.0 248.7,90.0 249.1,90.0 249.4,90.0 250.1,90.0 250.5,90.0 250.9,90.0 251.2,90.0 251.9,90.0 252.3,90.0 252.6,90.0 253.4,90.0 253.7,107.0 254.1,107.0 254.8,132.5 255.1,132.5 255.5,132.5 256.2,132.5 256.6,132.5 256.9,132.5 257.6,132.5 258.0,132.5 258.3,132.5 259.1,132.5 259.4,132.5 259.8,132.5 260.5,311.0 260.8,311.0 261.2,311.0 261.9,311.0 262.3,311.0 262.6,311.0 263.3,311.0 263.7,311.0 264.1,311.0 264.4,311.0 265.1,311.0 265.5,311.0 265.8,311.0 266.6,311.0 266.9,311.0 267.3,311.0 268.0,311.0 268.3,311.0 268.7,311.0 269.4,311.0 269.8,311.0 270.1,311.0 270.8,311.0 271.2,311.0 271.5,311.0 272.3,311.0 272.6,311.0 273.0,311.0 273.7,311.0 274.0,311.0 274.4,311.0 275.1,311.0 275.5,311.0 275.8,311.0 276.2,311.0 276.9,311.0 277.2,311.0 277.6,311.0 278.3,311.0 278.7,311.0 279.0,311.0 279.7,311.0 280.1,311.0 280.5,311.0 281.2,311.0 281.5,311.0 281.9,311.0 282.6,311.0 283.0,311.0 283.3,311.0 284.0,311.0 284.4,311.0 284.7,311.0 285.5,311.0 285.8,311.0 286.2,311.0 286.9,311.0 287.2,311.0 287.6,311.0 287.9,311.0 288.7,311.0 289.0,311.0 289.4,311.0 290.1,311.0 290.4,311.0 290.8,311.0 291.5,311.0 291.9,311.0 292.2,311.0 292.9,311.0 293.3,311.0 293.7,311.0 294.4,311.0 294.7,311.0 295.1,311.0 295.8,311.0 296.2,311.0 296.5,311.0 297.2,311.0 297.6,311.0 297.9,311.0 298.6,311.0 299.0,311.0 299.4,311.0 300.1,311.0 300.4,311.0 300.8,311.0 301.1,311.0 301.9,311.0 302.2,311.0 302.6,311.0 303.3,311.0 303.6,311.0 304.0,311.0 304.7,311.0 305.1,311.0 305.4,311.0 306.1,311.0 306.5,311.0 306.9,311.0 307.6,311.0 307.9,311.0 308.3,311.0 309.0,311.0 309.4,311.0 309.7,311.0 310.4,311.0 310.8,311.0 311.1,311.0 311.8,311.0 312.2,311.0 312.6,311.0 312.9,311.0 313.6,311.0 314.0,311.0 314.3,311.0 315.1,311.0 315.4,311.0 315.8,311.0 316.5,311.0 316.8,311.0 317.2,311.0 317.9,311.0 318.3,311.0 318.6,311.0 319.3,311.0 319.7,311.0 320.0,311.0 320.8,311.0 321.1,311.0 321.5,311.0 322.2,311.0 322.5,311.0 322.9,311.0 323.6,311.0 324.0,311.0 324.3,311.0 325.0,311.0 325.4,311.0 325.8,311.0 326.1,311.0 326.8,311.0 327.2,311.0 327.5,311.0 328.3,311.0 328.6,311.0 329.0,311.0 329.7,311.0 330.0,311.0 330.4,311.0 331.1,311.0 331.5,311.0 331.8,311.0 332.5,311.0 332.9,311.0 333.2,311.0 334.0,311.0 334.3,311.0 334.7,311.0 335.4,311.0 335.7,311.0 336.1,311.0 336.8,311.0 337.2,311.0 337.5,311.0 337.9,311.0 338.6,311.0 339.0,311.0 339.3,311.0 340.0,311.0 340.4,311.0 340.7,311.0 341.4,311.0 341.8,311.0 342.2,311.0 342.9,311.0 343.2,311.0 343.6,311.0 344.3,311.0 344.7,311.0 345.0,311.0 345.7,311.0 346.1,311.0 346.4,311.0 347.2,311.0 347.5,311.0 347.9,311.0 348.6,311.0 348.9,311.0 349.3,311.0 350.0,311.0 350.4,311.0 350.7,311.0 351.1,311.0 351.8,311.0 352.1,311.0 352.5,311.0 353.2,311.0 353.6,311.0 353.9,311.0 354.6,311.0 355.0,311.0 355.4,311.0 356.1,311.0 356.4,311.0 356.8,311.0 357.5,311.0 357.9,311.0 358.2,311.0 358.9,311.0 359.3,311.0 359.6,311.0 360.4,311.0 360.7,311.0 361.1,311.0 361.8,311.0 362.1,311.0 362.5,311.0 362.9,311.0 363.6,311.0 363.9,311.0 364.3,311.0 365.0,311.0 365.3,311.0 365.7,311.0 366.4,311.0 366.8,311.0 367.1,311.0 367.8,311.0 368.2,311.0 368.6,311.0 369.3,311.0 369.6,311.0 370.0,311.0 370.7,311.0 371.1,311.0 371.4,311.0 372.1,311.0 372.5,311.0 372.8,311.0 373.6,311.0 373.9,311.0 374.3,311.0 374.6,311.0 375.3,353.5 375.7,353.5 376.0,353.5 376.8,353.5 377.1,353.5 377.5,353.5 378.2,353.5 378.5,353.5 378.9,353.5 379.6,353.5 380.0,353.5 380.3,353.5 381.0,353.5 381.4,353.5 381.8,353.5 382.5,353.5 382.8,353.5 383.2,353.5 383.9,353.5 384.2,353.5 384.6,353.5 385.3,353.5 385.7,353.5 386.0,353.5 386.7,353.5 387.1,353.5 387.5,353.5 387.8,353.5 388.5,353.5 388.9,353.5 389.2,353.5 390.0,353.5 390.3,353.5 390.7,353.5 391.4,353.5 391.7,353.5 392.1,353.5 392.8,353.5 393.2,353.5 393.5,353.5 394.2,353.5 394.6,353.5 394.9,353.5 395.7,353.5 396.0,353.5 396.4,353.5 397.1,353.5 397.4,353.5 397.8,353.5 398.5,353.5 398.9,353.5 399.2,353.5 399.6,353.5 400.3,353.5 400.7,353.5 401.0,353.5 401.7,353.5 402.1,353.5 402.4,353.5 403.2,353.5 403.5,353.5 403.9,353.5 404.6,353.5 404.9,353.5 405.3,353.5 406.0,353.5 406.4,353.5 406.7,353.5 407.4,353.5 407.8,353.5 408.1,353.5 408.9,353.5 409.2,353.5 409.6,353.5 410.3,353.5 410.6,353.5 411.0,353.5 411.7,353.5 412.1,353.5 412.4,353.5 412.8,353.5 413.5,353.5 413.9,353.5 414.2,353.5 414.9,353.5 415.3,353.5 415.6,353.5 416.3,353.5 416.7,353.5 417.1,353.5 417.8,353.5 418.1,353.5 418.5,353.5 419.2,353.5 419.6,353.5 419.9,353.5 420.6,353.5 421.0,353.5 421.3,353.5 422.1,353.5 422.4,353.5 422.8,353.5 423.5,353.5 423.8,353.5 424.2,353.5 424.6,353.5 425.3,353.5 425.6,353.5 426.0,353.5 426.7,353.5 427.1,353.5 427.4,353.5 428.1,353.5 428.5,353.5 428.8,353.5 429.5,353.5 429.9,353.5 430.3,353.5 431.0,353.5 431.3,353.5 431.7,353.5 432.4,353.5 432.8,353.5 433.1,353.5 433.8,353.5 434.2,353.5 434.5,353.5 435.3,353.5 435.6,353.5 436.0,353.5 436.7,353.5 437.0,353.5 437.4,353.5 437.8,353.5 438.5,353.5 438.8,353.5 439.2,353.5 439.9,353.5 440.2,353.5 440.6,353.5 441.3,353.5 441.7,353.5 442.0,353.5 442.7,353.5 443.1,353.5 443.5,353.5 444.2,353.5 444.5,353.5 444.9,353.5 445.6,353.5 446.0,353.5 446.3,353.5 447.0,353.5 447.4,353.5 447.7,353.5 448.5,353.5 448.8,353.5 449.2,353.5 449.5,353.5 450.2,353.5 450.6,353.5 450.9,353.5 451.7,353.5 452.0,353.5 452.4,353.5 453.1,353.5 453.4,353.5 453.8,353.5 454.5,353.5 454.9,353.5 455.2,353.5 455.9,353.5 456.3,353.5 456.7,353.5 457.4,353.5 457.7,353.5 458.1,353.5 458.8,353.5 459.1,353.5 459.5,353.5 460.2,353.5 460.6,353.5 460.9,353.5 461.6,353.5 462.0,353.5 462.4,353.5 462.7,353.5 463.4,353.5 463.8,353.5 464.1,353.5 464.9,353.5 465.2,353.5 465.6,353.5 466.3,353.5 466.6,353.5 467.0,353.5 467.7,353.5 468.1,353.5 468.4,353.5 469.1,353.5 469.5,353.5 469.8,353.5 470.6,353.5 470.9,353.5 471.3,353.5 472.0,353.5 472.3,353.5 472.7,353.5 473.4,353.5 473.8,353.5 474.1,353.5 474.5,353.5 475.2,353.5 475.6,353.5 475.9,353.5 476.6,353.5 477.0,353.5 477.3,353.5 478.1,353.5 478.4,353.5 478.8,353.5 479.5,353.5 479.8,353.5 480.2,353.5 480.9,353.5 481.3,353.5 481.6,353.5 482.3,353.5 482.7,353.5 483.0,353.5 483.8,353.5 484.1,353.5 484.5,353.5 485.2,353.5 485.5,353.5 485.9,353.5 486.3,353.5 487.0,353.5 487.3,353.5 487.7,353.5 488.4,353.5 488.8,353.5 489.1,353.5 489.8,353.5 490.2,353.5 490.5,353.5 491.2,353.5 491.6,353.5 492.0,353.5 492.7,353.5 493.0,353.5 493.4,353.5 494.1,353.5 494.5,353.5 494.8,353.5 495.5,353.5 495.9,353.5 496.2,353.5 497.0,353.5 497.3,353.5 497.7,353.5 498.4,353.5 498.7,353.5 499.1,353.5 499.5,353.5 500.2,353.5 500.5,353.5 500.9,353.5 501.6,353.5 501.9,353.5 502.3,353.5 503.0,353.5 503.4,353.5 503.7,353.5 504.4,353.5 504.8,353.5 505.2,353.5 505.9,353.5 506.2,353.5 506.6,353.5 507.3,353.5 507.7,353.5 508.0,353.5 508.7,353.5 509.1,353.5 509.4,353.5 510.2,353.5 510.5,353.5 510.9,353.5 511.2,353.5 511.9,353.5 512.3,353.5 512.7,353.5 513.4,353.5 513.7,353.5 514.1,353.5 514.8,353.5 515.1,353.5 515.5,353.5 516.2,353.5 516.6,353.5 516.9,353.5 517.6,353.5 518.0,353.5 518.4,353.5 519.1,353.5 519.4,353.5 519.8,353.5 520.5,353.5 520.9,353.5 521.2,353.5 521.9,353.5 522.3,353.5 522.6,353.5 523.4,353.5 523.7,353.5 524.1,353.5 524.4,353.5 525.1,353.5 525.5,353.5 525.8,353.5 526.6,353.5 526.9,353.5 527.3,353.5 528.0,353.5 528.3,353.5 528.7,353.5 529.4,353.5 529.8,353.5 530.1,353.5 530.8,353.5 531.2,353.5 531.6,353.5 532.3,353.5 532.6,353.5 533.0,353.5 533.7,353.5 534.0,353.5 534.4,353.5 535.1,353.5 535.5,353.5 535.8,353.5 536.2,353.5 536.9,353.5 537.3,353.5 537.6,353.5 538.3,353.5 538.7,353.5 539.0,353.5 539.8,353.5 540.1,353.5 540.5,353.5 541.2,353.5 541.5,353.5 541.9,353.5 542.6,353.5 543.0,353.5 543.3,353.5 544.0,353.5 544.4,353.5 544.8,353.5 545.5,353.5 545.8,353.5 546.2,353.5 546.9,353.5 547.2,353.5 547.6,353.5 548.3,353.5 548.7,353.5 549.0,353.5 549.4,353.5 550.1,353.5 550.5,353.5 550.8,353.5 551.5,353.5 551.9,353.5 552.2,353.5 553.0,353.5 553.3,353.5 553.7,353.5 554.4,353.5 554.7,353.5 555.1,353.5 555.8,447.0 556.2,447.0 556.5,447.0 557.2,447.0 557.6,447.0 557.9,447.0 558.7,447.0 559.0,447.0 559.4,447.0 560.1,447.0 560.4,447.0 560.8,447.0 561.2,447.0 561.9,447.0 562.2,447.0 562.6,447.0 563.3,447.0 563.7,447.0 564.0,447.0 564.7,447.0 565.1,447.0 565.4,447.0 566.2,447.0 566.5,447.0 566.9,447.0 567.6,447.0 567.9,447.0 568.3,447.0 569.0,447.0 569.4,447.0 569.7,447.0 570.4,447.0 570.8,447.0 571.1,447.0 571.9,447.0 572.2,447.0 572.6,447.0 572.9,447.0 573.6,447.0 574.0,447.0 574.4,447.0 575.1,447.0 575.4,447.0 575.8,447.0 576.5,447.0 576.9,447.0 577.2,447.0 577.9,447.0 578.3,447.0 578.6,447.0 579.3,447.0 579.7,447.0 580.1,447.0 580.8,447.0 581.1,447.0 581.5,447.0 582.2,447.0 582.6,447.0 582.9,447.0 583.6,447.0 584.0,447.0 584.3,447.0 585.1,447.0 585.4,447.0 585.8,447.0 586.1,447.0 586.8,447.0 587.2,447.0 587.5,447.0 588.3,447.0 588.6,447.0 589.0,447.0 589.7,447.0 590.0,447.0 590.4,447.0 591.1,447.0 591.5,447.0 591.8,447.0 592.5,447.0 592.9,447.0 593.3,447.0 594.0,447.0 594.3,447.0 594.7,447.0 595.4,447.0 595.8,447.0 596.1,447.0 596.8,447.0 597.2,447.0 597.5,447.0 597.9,447.0 598.6,447.0 599.0,447.0 599.3,447.0 600.0,447.0 600.4,447.0 600.7,447.0 601.5,447.0 601.8,447.0 602.2,447.0 602.9,447.0 603.2,447.0 603.6,447.0 604.3,447.0 604.7,447.0 605.0,447.0 605.7,447.0 606.1,447.0 606.5,447.0 607.2,447.0 607.5,447.0 607.9,447.0 608.6,447.0 608.9,447.0 609.3,447.0 610.0,447.0 610.4,447.0 610.7,447.0 611.1,447.0 611.8,447.0 612.2,447.0 612.5,447.0 613.2,447.0 613.6,447.0 613.9,447.0 614.7,447.0 615.0,447.0 615.4,447.0 616.1,447.0 616.4,447.0 616.8,447.0 617.5,447.0 617.9,447.0 618.2,447.0 618.9,447.0 619.3,447.0 619.6,447.0 620.4,447.0 620.7,447.0 621.1,447.0 621.8,447.0 622.1,447.0 622.5,447.0 622.9,447.0 623.6,447.0 623.9,447.0 624.3,447.0 625.0,447.0 625.4,447.0 625.7,447.0 626.4,447.0 626.8,447.0 627.1,447.0 627.9,447.0 628.2,447.0 628.6,447.0 629.3,447.0 629.6,447.0 630.0,447.0 630.7,447.0 631.1,447.0 631.4,447.0 632.1,447.0 632.5,447.0 632.8,447.0 633.6,447.0 633.9,447.0 634.3,447.0 635.0,447.0 635.3,447.0 635.7,447.0 636.1,447.0 636.8,447.0 637.1,447.0 637.5,447.0 638.2,447.0 638.6,447.0 638.9,447.0 639.6,447.0 640.0,447.0 640.3,447.0 641.1,447.0 641.4,447.0 641.8,447.0 642.5,447.0 642.8,447.0 643.2,447.0 643.9,447.0 644.3,447.0 644.6,447.0 645.3,447.0 645.7,447.0 646.0,447.0 646.8,447.0 647.1,447.0 647.5,447.0 647.8,447.0 648.5,447.0 648.9,447.0 649.3,447.0 650.0,447.0 650.3,447.0 650.7,447.0 651.4,447.0 651.8,447.0 652.1,447.0 652.8,447.0 653.2,447.0 653.5,447.0 654.2,447.0 654.6,447.0 655.0,447.0 655.7,447.0 656.0,447.0 656.4,447.0 657.1,447.0 657.5,447.0 657.8,447.0 658.5,447.0 658.9,447.0 659.2,447.0 659.6,447.0 660.3,447.0 660.7,447.0 661.0,447.0 661.7,447.0 662.1,447.0 662.5,447.0 663.2,447.0 663.5,447.0 663.9,447.0 664.6,447.0 664.9,447.0 665.3,447.0 666.0,447.0 666.4,447.0 666.7,447.0 667.4,447.0 667.8,447.0 668.2,447.0 668.9,447.0 669.2,447.0 669.6,447.0 670.3,447.0 670.7,447.0 671.0,447.0 671.7,447.0 672.1,447.0 672.4,447.0 672.8,447.0 673.5,489.5 673.9,489.5 674.2,489.5 674.9,532.0 675.3,532.0 675.6,532.0 676.4,532.0 676.7,532.0 677.1,532.0 677.8,532.0 678.1,532.0 678.5,532.0 679.2,532.0 679.6,532.0 679.9,532.0 680.6,532.0 681.0,532.0 681.4,532.0 682.1,532.0 682.4,532.0 682.8,532.0 683.5,532.0 683.9,532.0 684.2,532.0 684.6,532.0 685.3,532.0 685.6,532.0 686.0,532.0 686.7,532.0 687.1,532.0 687.4,532.0 688.1,532.0 688.5,532.0 688.8,532.0 689.6,532.0 689.9,532.0 690.3,532.0 691.0,532.0 691.3,532.0 691.7,532.0 692.4,532.0 692.8,532.0 693.1,532.0 693.8,532.0 694.2,532.0 694.5,532.0 695.3,532.0 695.6,532.0 696.0,532.0 696.7,532.0 697.0,532.0 697.4,532.0 697.8,532.0 698.5,532.0 698.8,532.0 699.2,532.0 699.9,532.0 700.3,532.0 700.6,532.0 701.3,532.0 701.7,532.0 702.0,532.0 702.8,532.0 703.1,532.0 703.5,532.0 704.2,532.0 704.5,532.0 704.9,532.0 705.6,532.0 706.0,532.0 706.3,532.0 707.0,532.0 707.4,532.0 707.7,532.0 708.5,532.0 708.8,532.0 709.2,532.0 709.5,532.0 710.2,532.0 710.6,532.0 711.0,532.0 711.7,532.0 712.0,532.0 712.4,532.0 713.1,532.0 713.5,532.0 713.8,532.0 714.5,532.0 714.9,532.0 715.2,532.0 715.9,532.0 716.3,532.0 716.7,532.0 717.4,532.0 717.7,532.0 718.1,532.0 718.8,532.0 719.2,532.0 719.5,532.0 720.2,532.0 720.6,532.0 720.9,532.0 721.7,532.0 722.0,532.0 722.4,532.0 722.7,532.0 723.4,532.0 723.8,532.0 724.2,532.0 724.9,532.0 725.2,532.0 725.6,532.0 726.3,532.0 726.6,532.0 727.0,532.0 727.7,532.0 728.1,532.0 728.4,532.0 729.1,532.0 729.5,532.0 729.9,532.0 730.6,532.0 730.9,532.0 731.3,532.0 732.0,532.0 732.4,532.0 732.7,532.0 733.4,532.0 733.8,532.0 734.1,532.0 734.5,532.0 735.2,532.0 735.6,532.0 735.9,532.0 736.6,532.0 737.0,532.0 737.4,532.0 738.1,532.0 738.4,532.0 738.8,532.0 739.5,532.0 739.8,532.0 740.2,532.0 740.9,532.0 741.3,532.0 741.6,532.0 742.3,532.0 742.7,532.0 743.1,532.0 743.8,532.0 744.1,532.0 744.5,532.0 745.2,532.0 745.6,532.0 745.9,532.0 746.6,532.0 747.0,532.0 747.3,532.0 747.7,532.0 748.4,532.0 748.8,532.0 749.1,532.0 749.8,532.0 750.2,532.0 750.5,532.0 751.3,532.0 751.6,532.0 752.0,532.0 752.7,532.0 753.0,532.0 753.4,532.0 754.1,532.0 754.5,532.0 754.8,532.0 755.5,532.0 755.9,532.0 756.3,532.0 757.0,532.0 757.3,532.0 757.7,532.0 758.4,532.0 758.8,532.0 759.1,532.0 759.5,532.0 760.2,532.0 760.5,532.0 760.9,532.0 761.6,532.0 762.0,532.0 762.3,532.0 763.0,532.0 763.4,532.0 763.7,532.0 764.5,532.0 764.8,532.0 765.2,532.0 765.9,532.0 766.2,532.0 766.6,532.0 767.3,532.0 767.7,532.0 768.0,532.0 768.7,532.0 769.1,532.0 769.5,532.0 770.2,532.0 770.5,532.0 770.9,532.0 771.2,532.0 771.9,532.0 772.3,532.0 772.7,532.0 773.4,532.0 773.7,532.0 774.1,532.0 774.8,532.0 775.2,532.0 775.5,532.0 776.2,532.0 776.6,532.0 776.9,532.0 777.7,532.0 778.0,532.0 778.4,532.0 779.1,532.0 779.4,532.0 779.8,532.0 780.5,532.0 780.9,532.0 781.2,532.0 781.9,532.0 782.3,532.0 782.6,532.0 783.4,532.0 783.7,532.0 784.1,532.0 784.4,532.0 785.1,532.0 785.5,532.0 785.9,532.0 786.6,532.0 786.9,532.0 787.3,532.0 788.0,532.0 788.4,532.0 788.7,532.0 789.4,532.0 789.8,532.0 790.1,532.0 790.9,532.0 791.2,532.0 791.6,532.0 792.3,532.0 792.6,532.0 793.0,532.0 793.7,532.0 794.1,532.0 794.4,532.0 795.1,532.0 795.5,532.0 795.8,532.0 796.2,532.0 796.9,532.0 797.3,532.0 797.6,532.0 798.3,532.0 798.7,532.0 799.1,532.0 799.8,532.0 800.1,532.0 800.5,532.0 801.2,532.0 801.6,532.0 801.9,532.0 802.6,532.0 803.0,532.0 803.3,532.0 804.0,532.0 804.4,532.0 804.8,532.0 805.5,532.0 805.8,532.0 806.2,532.0 806.9,532.0 807.3,532.0 807.6,532.0 808.3,532.0 808.7,532.0 809.0,532.0 809.4,532.0 810.1,532.0 810.5,532.0 810.8,532.0 811.5,532.0 811.9,532.0 812.2,532.0 813.0,532.0 813.3,532.0 813.7,532.0 814.4,532.0 814.7,532.0 815.1,532.0 815.8,532.0 816.2,532.0 816.5,532.0 817.2,532.0 817.6,532.0 818.0,532.0 818.7,532.0 819.0,532.0 819.4,532.0 820.1,532.0 820.5,532.0 820.8,532.0 821.2,532.0 821.9,532.0 822.2,532.0 822.6,532.0 823.3,532.0 823.7,532.0 824.0,532.0 824.7,532.0 825.1,532.0 825.4,532.0 826.2,532.0 826.5,532.0 826.9,532.0 827.6,532.0 827.9,532.0 828.3,532.0 829.0,532.0 829.4,532.0 829.7,532.0 830.4,532.0 830.8,532.0 831.2,532.0 831.9,532.0 832.2,532.0 832.6,532.0 833.3,532.0 833.6,532.0 834.0,532.0 834.4,532.0 835.1,532.0 835.4,532.0 835.8,532.0 836.5,532.0 836.9,532.0 837.2,532.0 837.9,532.0 838.3,532.0 838.6,532.0 839.4,532.0 839.7,532.0 840.1,532.0 840.8,532.0 841.1,532.0 841.5,532.0 842.2,532.0 842.6,532.0 842.9,532.0 843.6,532.0 844.0,532.0 844.3,532.0 845.1,532.0 845.4,532.0 845.8,532.0 846.1,532.0 846.8,532.0 847.2,532.0 847.6,532.0 848.3,532.0 848.6,532.0 849.0,532.0 849.7,532.0 850.1,532.0 850.4,532.0 851.1,532.0 851.5,532.0 851.8,532.0 852.6,532.0 852.9,532.0 853.3,532.0 854.0,532.0 854.3,532.0 854.7,532.0 855.4,532.0 855.8,532.0 856.1,532.0 856.8,532.0 857.2,532.0 857.5,532.0 857.9,532.0 858.6,532.0 859.0,532.0 859.3,532.0 860.0,532.0 860.4,532.0 860.8,532.0 861.5,532.0 861.8,532.0 862.2,532.0 862.9,532.0 863.3,532.0 863.6,532.0 864.3,532.0 864.7,532.0 865.0,532.0 865.8,532.0 866.1,532.0 866.5,532.0 867.2,532.0 867.5,532.0 867.9,532.0 868.6,532.0 869.0,532.0 869.3,532.0 870.0,532.0 870.4,532.0 870.7,532.0 871.1,532.0 871.8,532.0 872.2,532.0 872.5,532.0 873.2,532.0 873.6,532.0 874.0,532.0 874.7,532.0 875.0,532.0 875.4,532.0 876.1,532.0 876.4,532.0 876.8,532.0 877.5,532.0 877.9,532.0 878.2,532.0 878.9,532.0 879.3,532.0 879.7,532.0 880.4,532.0 880.7,532.0 881.1,532.0 881.8,532.0 882.2,532.0 882.5,532.0 882.9,532.0 883.6,532.0 883.9,532.0 884.3,532.0 885.0,532.0 885.4,532.0 885.7,532.0 886.4,532.0 886.8,532.0 887.1,532.0 887.9,532.0 888.2,532.0 888.6,532.0 889.3,532.0 889.6,532.0 890.0,532.0 890.7,532.0 891.1,532.0 891.4,532.0 892.1,532.0 892.5,532.0 892.9,532.0 893.6,532.0 893.9,532.0 894.3,532.0 895.0,532.0 895.4,532.0 895.7,532.0 896.1,532.0 896.8,532.0 897.1,532.0 897.5,532.0 898.2,532.0 898.6,532.0 898.9,532.0 899.6,532.0 900.0,532.0 900.3,532.0 901.1,532.0 901.4,532.0 901.8,532.0 902.5,532.0 902.8,532.0 903.2,532.0 903.9,532.0 904.3,532.0 904.6,532.0 905.3,532.0 905.7,532.0 906.1,532.0 906.8,532.0 907.1,532.0 907.5,532.0 907.8,532.0 908.6,532.0 908.9,532.0 909.3,532.0 910.0,532.0 910.3,532.0 910.7,532.0 911.4,532.0 911.8,532.0 912.1,532.0 912.8,532.0 913.2,532.0 913.5,532.0 914.3,532.0 914.6,532.0 915.0,532.0 915.7,532.0 916.0,532.0 916.4,532.0 917.1,532.0 917.5,532.0 917.8,532.0 918.5,532.0 918.9,532.0 919.2,532.0 920.0,532.0 920.3,532.0 920.7,532.0 921.0,532.0 921.7,532.0 922.1,532.0 922.5,532.0 923.2,532.0 923.5,532.0 923.9,532.0 924.6,532.0 925.0,532.0 925.3,532.0 926.0,532.0 926.4,532.0 926.7,532.0 927.5,532.0 927.8,532.0 928.2,532.0 928.9,532.0 929.2,532.0 929.6,532.0 930.3,532.0 930.7,532.0 931.0,532.0 931.7,532.0 932.1,532.0 932.4,532.0 932.8,532.0 933.5,532.0 933.9,532.0 934.2,532.0 934.9,532.0 935.3,532.0 935.7,532.0 936.4,532.0 936.7,532.0 937.1,532.0 937.8,532.0 938.2,532.0 938.5,532.0 939.2,532.0 939.6,532.0 939.9,532.0 940.7,532.0 941.0,532.0 941.4,532.0 942.1,532.0 942.4,532.0 942.8,532.0 943.5,532.0 943.9,532.0 944.2,532.0 944.6,532.0 945.3,532.0 945.6,532.0 946.0,532.0 946.7,532.0 947.1,532.0 947.4,532.0 948.1,532.0 948.5,532.0 948.9,532.0 949.6,532.0 949.9,532.0 950.3,532.0 951.0,532.0 951.4,532.0 951.7,532.0 952.4,532.0 952.8,532.0 953.1,532.0 953.8,532.0 954.2,532.0 954.6,532.0 955.3,532.0 955.6,532.0 956.0,532.0 956.7,532.0 957.1,532.0 957.4,532.0 957.8,532.0 958.5,532.0 958.8,532.0 959.2,532.0 959.9,532.0 960.3,532.0 960.6,532.0 961.3,532.0 961.7,532.0 962.0,532.0 962.8,532.0 963.1,532.0 963.5,532.0 964.2,532.0 964.5,532.0 964.9,532.0 965.6,532.0 966.0,532.0 966.3,532.0 967.0,532.0 967.4,532.0 967.8,532.0 968.5,532.0 968.8,532.0 969.2,532.0 969.5,532.0 970.3,532.0 970.6,532.0 971.0,532.0 971.7,532.0 972.0,532.0 972.4,532.0 973.1,532.0 973.5,532.0 973.8,532.0 974.5,532.0 974.9,532.0 975.2,532.0 976.0,532.0 976.3,532.0 976.7,532.0 977.4,532.0 977.7,532.0 978.1,532.0 978.8,532.0 979.2,532.0 979.5,532.0 980.2,532.0 980.6,532.0 981.0,532.0 981.7,532.0 982.0,532.0 982.4,532.0 982.7,532.0 983.4,532.0 983.8,532.0 984.2,532.0 984.9,532.0 985.2,532.0 985.6,532.0 986.3,532.0 986.7,532.0 987.0,532.0 987.7,532.0 988.1,532.0 988.4,532.0 989.2,532.0 989.5,532.0 989.9,532.0 990.6,532.0 990.9,532.0 991.3,532.0 992.0,532.0 992.4,532.0 992.7,532.0 993.4,532.0 993.8,532.0 994.1,532.0 994.5,532.0 995.2,532.0 995.6,532.0 995.9,532.0 996.6,532.0 997.0,532.0 997.4,532.0 998.1,532.0 998.4,532.0 998.8,532.0 999.5,532.0 999.9,532.0 1000.2,532.0 1000.9,532.0 1001.3,532.0 1001.6,532.0 1002.4,532.0 1002.7,532.0 1003.1,532.0 1003.8,532.0 1004.1,532.0 1004.5,532.0 1005.2,532.0 1005.6,532.0 1005.9,532.0 1006.6,532.0 1007.0,532.0 1007.3,532.0 1007.7,532.0 1008.4,532.0 1008.8,532.0 1009.1,532.0 1009.8,532.0 1010.2,532.0 1010.6,532.0 1011.3,532.0 1011.6,532.0 1012.0,532.0 1012.7,532.0 1013.1,532.0 1013.4,532.0 1014.1,532.0 1014.5,532.0 1014.8,532.0 1015.5,532.0 1015.9,532.0 1016.3,532.0 1017.0,532.0 1017.3,532.0 1017.7,532.0 1018.4,532.0 1018.8,532.0 1019.1,532.0 1019.5,532.0 1020.2,532.0 1020.5,532.0 1020.9,532.0 1021.6,532.0 1022.0,532.0 1022.3,532.0 1023.0,532.0 1023.4,532.0 1023.8,532.0 1024.5,532.0 1024.8,532.0 1025.2,532.0 1025.9,532.0 1026.2,532.0 1026.6,532.0 1027.3,532.0 1027.7,532.0 1028.0,532.0 1028.7,532.0 1029.1,532.0 1029.5,532.0 1030.2,532.0 1030.5,532.0 1030.9,532.0 1031.6,532.0" />
  <text x="90.0" y="618.0" text-anchor="middle" font-family="Arial" font-size="11" fill="#555">0</text><text x="268.3" y="618.0" text-anchor="middle" font-family="Arial" font-size="11" fill="#555">500</text><text x="446.7" y="618.0" text-anchor="middle" font-family="Arial" font-size="11" fill="#555">1000</text><text x="625.0" y="618.0" text-anchor="middle" font-family="Arial" font-size="11" fill="#555">1500</text><text x="803.3" y="618.0" text-anchor="middle" font-family="Arial" font-size="11" fill="#555">2000</text><text x="981.7" y="618.0" text-anchor="middle" font-family="Arial" font-size="11" fill="#555">2500</text><text x="1160.0" y="618.0" text-anchor="middle" font-family="Arial" font-size="11" fill="#555">3000</text>
  <rect x="100" y="55" width="12" height="12" fill="#1f77b4" /><text x="118" y="65" font-family="Arial" font-size="12">Adjacent-Swap</text><rect x="260" y="55" width="12" height="12" fill="#d62728" /><text x="278" y="65" font-family="Arial" font-size="12">N5</text><rect x="420" y="55" width="12" height="12" fill="#2ca02c" /><text x="438" y="65" font-family="Arial" font-size="12">N6</text>
  <text x="625.0" y="645.0" text-anchor="middle" font-family="Arial" font-size="14" font-weight="bold">Iteration</text>
  <text x="30.0" y="345.0" text-anchor="middle" font-family="Arial" font-size="14" font-weight="bold" transform="rotate(-90 30.0 345.0)">Makespan</text>
</svg>