<svg xmlns="http://www.w3.org/2000/svg" width="1525" height="710" viewBox="0 0 1525 710">
  <rect x="0" y="0" width="1525" height="710" fill="#ffffff" />
  <text x="762.5" y="28" text-anchor="middle" font-family="Arial" font-size="22" font-weight="bold">Priority Rule Comparison - Giffler-Thompson</text>
  <text x="762.5" y="50" text-anchor="middle" font-family="Arial" font-size="13" fill="#555">* = best rule per instance</text>
  <line x1="90.0" y1="550.0" x2="1485.0" y2="550.0" stroke="#e6e6e6" stroke-width="1" /><text x="82.0" y="554.0" text-anchor="end" font-family="Arial" font-size="11" fill="#555">0</text><line x1="90.0" y1="466.0" x2="1485.0" y2="466.0" stroke="#e6e6e6" stroke-width="1" /><text x="82.0" y="470.0" text-anchor="end" font-family="Arial" font-size="11" fill="#555">1000</text><line x1="90.0" y1="382.0" x2="1485.0" y2="382.0" stroke="#e6e6e6" stroke-width="1" /><text x="82.0" y="386.0" text-anchor="end" font-family="Arial" font-size="11" fill="#555">2000</text><line x1="90.0" y1="298.0" x2="1485.0" y2="298.0" stroke="#e6e6e6" stroke-width="1" /><text x="82.0" y="302.0" text-anchor="end" font-family="Arial" font-size="11" fill="#555">3000</text><line x1="90.0" y1="214.0" x2="1485.0" y2="214.0" stroke="#e6e6e6" stroke-width="1" /><text x="82.0" y="218.0" text-anchor="end" font-family="Arial" font-size="11" fill="#555">4000</text><line x1="90.0" y1="130.0" x2="1485.0" y2="130.0" stroke="#e6e6e6" stroke-width="1" /><text x="82.0" y="134.0" text-anchor="end" font-family="Arial" font-size="11" fill="#555">5000</text>
  <line x1="90" y1="550" x2="1485" y2="550" stroke="#333" stroke-width="1.5" />
  <line x1="90" y1="130" x2="90" y2="550" stroke="#333" stroke-width="1.5" />
  <rect x="90.0" y="515.2" width="18" height="34.8" fill="#1f77b4" /><text x="99.0" y="510.2" text-anchor="middle" font-family="Arial" font-size="8" fill="#1f77b4">414</text><text x="99.0" y="564.0" text-anchor="end" font-family="Arial" font-size="9" fill="#444" transform="rotate(-40 99.0 564.0)">Shortest Processing Time</text><rect x="111.0" y="515.5" width="18" height="34.5" fill="#ff7f0e" /><text x="120.0" y="510.5" text-anchor="middle" font-family="Arial" font-size="8" fill="#ff7f0e">411</text><text x="120.0" y="564.0" text-anchor="end" font-family="Arial" font-size="9" fill="#444" transform="rotate(-40 120.0 564.0)">Shortest Processing Time + Setup</text><rect x="132.0" y="512.6" width="18" height="37.4" fill="#2ca02c" /><text x="141.0" y="507.6" text-anchor="middle" font-family="Arial" font-size="8" fill="#2ca02c">445</text><text x="141.0" y="564.0" text-anchor="end" font-family="Arial" font-size="9" fill="#444" transform="rotate(-40 141.0 564.0)">Longest Processing Time</text><rect x="153.0" y="504.9" width="18" height="45.1" fill="#d62728" /><text x="162.0" y="499.9" text-anchor="middle" font-family="Arial" font-size="8" fill="#d62728">537</text><text x="162.0" y="564.0" text-anchor="end" font-family="Arial" font-size="9" fill="#444" transform="rotate(-40 162.0 564.0)">First Job</text><rect x="174.0" y="520.1" width="18" height="29.9" fill="#9467bd" stroke="#222" stroke-width="1.5" /><text x="183.0" y="515.1" text-anchor="middle" font-family="Arial" font-size="8" fill="#9467bd">*356</text><text x="183.0" y="564.0" text-anchor="end" font-family="Arial" font-size="9" fill="#444" transform="rotate(-40 183.0 564.0)">MINSTART</text><rect x="195.0" y="515.5" width="18" height="34.5" fill="#8c564b" /><text x="204.0" y="510.5" text-anchor="middle" font-family="Arial" font-size="8" fill="#8c564b">411</text><text x="204.0" y="564.0" text-anchor="end" font-family="Arial" font-size="9" fill="#444" transform="rotate(-40 204.0 564.0)">MINEND</text><rect x="216.0" y="516.9" width="18" height="33.1" fill="#e377c2" /><text x="225.0" y="511.9" text-anchor="middle" font-family="Arial" font-size="8" fill="#e377c2">394</text><text x="225.0" y="564.0" text-anchor="end" font-family="Arial" font-size="9" fill="#444" transform="rotate(-40 225.0 564.0)">MWKR</text><rect x="237.0" y="519.8" width="18" height="30.2" fill="#17becf" /><text x="246.0" y="514.8" text-anchor="middle" font-family="Arial" font-size="8" fill="#17becf">359</text><text x="246.0" y="564.0" text-anchor="end" font-family="Arial" font-size="9" fill="#444" transform="rotate(-40 246.0 564.0)">FDD + MWKR + SS</text><rect x="295.0" y="458.4" width="18" height="91.6" fill="#1f77b4" /><text x="304.0" y="453.4" text-anchor="middle" font-family="Arial" font-size="8" fill="#1f77b4">1091</text><text x="304.0" y="564.0" text-anchor="end" font-family="Arial" font-size="9" fill="#444" transform="rotate(-40 304.0 564.0)">Shortest Processing Time</text><rect x="316.0" y="460.9" width="18" height="89.1" fill="#ff7f0e" /><text x="325.0" y="455.9" text-anchor="middle" font-family="Arial" font-size="8" fill="#ff7f0e">1061</text><text x="325.0" y="564.0" text-anchor="end" font-family="Arial" font-size="9" fill="#444" transform="rotate(-40 325.0 564.0)">Shortest Processing Time + Setup</text><rect x="337.0" y="483.7" width="18" height="66.3" fill="#2ca02c" /><text x="346.0" y="478.7" text-anchor="middle" font-family="Arial" font-size="8" fill="#2ca02c">789</text><text x="346.0" y="564.0" text-anchor="end" font-family="Arial" font-size="9" fill="#444" transform="rotate(-40 346.0 564.0)">Longest Processing Time</text><rect x="358.0" y="480.3" width="18" height="69.7" fill="#d62728" /><text x="367.0" y="475.3" text-anchor="middle" font-family="Arial" font-size="8" fill="#d62728">830</text><text x="367.0" y="564.0" text-anchor="end" font-family="Arial" font-size="9" fill="#444" transform="rotate(-40 367.0 564.0)">First Job</text><rect x="379.0" y="485.3" width="18" height="64.7" fill="#9467bd" /><text x="388.0" y="480.3" text-anchor="middle" font-family="Arial" font-size="8" fill="#9467bd">770</text><text x="388.0" y="564.0" text-anchor="end" font-family="Arial" font-size="9" fill="#444" transform="rotate(-40 388.0 564.0)">MINSTART</text><rect x="400.0" y="471.3" width="18" height="78.7" fill="#8c564b" /><text x="409.0" y="466.3" text-anchor="middle" font-family="Arial" font-size="8" fill="#8c564b">937</text><text x="409.0" y="564.0" text-anchor="end" font-family="Arial" font-size="9" fill="#444" transform="rotate(-40 409.0 564.0)">MINEND</text><rect x="421.0" y="492.3" width="18" height="57.7" fill="#e377c2" stroke="#222" stroke-width="1.5" /><text x="430.0" y="487.3" text-anchor="middle" font-family="Arial" font-size="8" fill="#e377c2">*687</text><text x="430.0" y="564.0" text-anchor="end" font-family="Arial" font-size="9" fill="#444" transform="rotate(-40 430.0 564.0)">MWKR</text><rect x="442.0" y="490.2" width="18" height="59.8" fill="#17becf" /><text x="451.0" y="485.2" text-anchor="middle" font-family="Arial" font-size="8" fill="#17becf">712</text><text x="451.0" y="564.0" text-anchor="end" font-family="Arial" font-size="9" fill="#444" transform="rotate(-40 451.0 564.0)">FDD + MWKR + SS</text><rect x="500.0" y="429.9" width="18" height="120.1" fill="#1f77b4" /><text x="509.0" y="424.9" text-anchor="middle" font-family="Arial" font-size="8" fill="#1f77b4">1430</text><text x="509.0" y="564.0" text-anchor="end" font-family="Arial" font-size="9" fill="#444" transform="rotate(-40 509.0 564.0)">Shortest Processing Time</text><rect x="521.0" y="437.8" width="18" height="112.2" fill="#ff7f0e" /><text x="530.0" y="432.8" text-anchor="middle" font-family="Arial" font-size="8" fill="#ff7f0e">1336</text><text x="530.0" y="564.0" text-anchor="end" font-family="Arial" font-size="9" fill="#444" transform="rotate(-40 530.0 564.0)">Shortest Processing Time + Setup</text><rect x="542.0" y="453.5" width="18" height="96.5" fill="#2ca02c" /><text x="551.0" y="448.5" text-anchor="middle" font-family="Arial" font-size="8" fill="#2ca02c">1149</text><text x="551.0" y="564.0" text-anchor="end" font-family="Arial" font-size="9" fill="#444" transform="rotate(-40 551.0 564.0)">Longest Processing Time</text><rect x="563.0" y="452.6" width="18" height="97.4" fill="#d62728" /><text x="572.0" y="447.6" text-anchor="middle" font-family="Arial" font-size="8" fill="#d62728">1159</text><text x="572.0" y="564.0" text-anchor="end" font-family="Arial" font-size="9" fill="#444" transform="rotate(-40 572.0 564.0)">First Job</text><rect x="584.0" y="467.0" width="18" height="83.0" fill="#9467bd" /><text x="593.0" y="462.0" text-anchor="middle" font-family="Arial" font-size="8" fill="#9467bd">988</text><text x="593.0" y="564.0" text-anchor="end" font-family="Arial" font-size="9" fill="#444" transform="rotate(-40 593.0 564.0)">MINSTART</text><rect x="605.0" y="443.9" width="18" height="106.1" fill="#8c564b" /><text x="614.0" y="438.9" text-anchor="middle" font-family="Arial" font-size="8" fill="#8c564b">1263</text><text x="614.0" y="564.0" text-anchor="end" font-family="Arial" font-size="9" fill="#444" transform="rotate(-40 614.0 564.0)">MINEND</text><rect x="626.0" y="458.8" width="18" height="91.2" fill="#e377c2" /><text x="635.0" y="453.8" text-anchor="middle" font-family="Arial" font-size="8" fill="#e377c2">1086</text><text x="635.0" y="564.0" text-anchor="end" font-family="Arial" font-size="9" fill="#444" transform="rotate(-40 635.0 564.0)">MWKR</text><rect x="647.0" y="471.5" width="18" height="78.5" fill="#17becf" stroke="#222" stroke-width="1.5" /><text x="656.0" y="466.5" text-anchor="middle" font-family="Arial" font-size="8" fill="#17becf">*935</text><text x="656.0" y="564.0" text-anchor="end" font-family="Arial" font-size="9" fill="#444" transform="rotate(-40 656.0 564.0)">FDD + MWKR + SS</text><rect x="705.0" y="391.2" width="18" height="158.8" fill="#1f77b4" /><text x="714.0" y="386.2" text-anchor="middle" font-family="Arial" font-size="8" fill="#1f77b4">1891</text><text x="714.0" y="564.0" text-anchor="end" font-family="Arial" font-size="9" fill="#444" transform="rotate(-40 714.0 564.0)">Shortest Processing Time</text><rect x="726.0" y="417.0" width="18" height="133.0" fill="#ff7f0e" /><text x="735.0" y="412.0" text-anchor="middle" font-family="Arial" font-size="8" fill="#ff7f0e">1583</text><text x="735.0" y="564.0" text-anchor="end" font-family="Arial" font-size="9" fill="#444" transform="rotate(-40 735.0 564.0)">Shortest Processing Time + Setup</text><rect x="747.0" y="416.2" width="18" height="133.8" fill="#2ca02c" /><text x="756.0" y="411.2" text-anchor="middle" font-family="Arial" font-size="8" fill="#2ca02c">1593</text><text x="756.0" y="564.0" text-anchor="end" font-family="Arial" font-size="9" fill="#444" transform="rotate(-40 756.0 564.0)">Longest Processing Time</text><rect x="768.0" y="405.7" width="18" height="144.3" fill="#d62728" /><text x="777.0" y="400.7" text-anchor="middle" font-family="Arial" font-size="8" fill="#d62728">1718</text><text x="777.0" y="564.0" text-anchor="end" font-family="Arial" font-size="9" fill="#444" transform="rotate(-40 777.0 564.0)">First Job</text><rect x="789.0" y="440.5" width="18" height="109.5" fill="#9467bd" stroke="#222" stroke-width="1.5" /><text x="798.0" y="435.5" text-anchor="middle" font-family="Arial" font-size="8" fill="#9467bd">*1304</text><text x="798.0" y="564.0" text-anchor="end" font-family="Arial" font-size="9" fill="#444" transform="rotate(-40 798.0 564.0)">MINSTART</text><rect x="810.0" y="428.5" width="18" height="121.5" fill="#8c564b" /><text x="819.0" y="423.5" text-anchor="middle" font-family="Arial" font-size="8" fill="#8c564b">1447</text><text x="819.0" y="564.0" text-anchor="end" font-family="Arial" font-size="9" fill="#444" transform="rotate(-40 819.0 564.0)">MINEND</text><rect x="831.0" y="425.4" width="18" height="124.6" fill="#e377c2" /><text x="840.0" y="420.4" text-anchor="middle" font-family="Arial" font-size="8" fill="#e377c2">1483</text><text x="840.0" y="564.0" text-anchor="end" font-family="Arial" font-size="9" fill="#444" transform="rotate(-40 840.0 564.0)">MWKR</text><rect x="852.0" y="428.4" width="18" height="121.6" fill="#17becf" /><text x="861.0" y="423.4" text-anchor="middle" font-family="Arial" font-size="8" fill="#17becf">1448</text><text x="861.0" y="564.0" text-anchor="end" font-family="Arial" font-size="9" fill="#444" transform="rotate(-40 861.0 564.0)">FDD + MWKR + SS</text><rect x="910.0" y="303.0" width="18" height="247.0" fill="#1f77b4" /><text x="919.0" y="298.0" text-anchor="middle" font-family="Arial" font-size="8" fill="#1f77b4">2940</text><text x="919.0" y="564.0" text-anchor="end" font-family="Arial" font-size="9" fill="#444" transform="rotate(-40 919.0 564.0)">Shortest Processing Time</text><rect x="931.0" y="313.2" width="18" height="236.8" fill="#ff7f0e" /><text x="940.0" y="308.2" text-anchor="middle" font-family="Arial" font-size="8" fill="#ff7f0e">2819</text><text x="940.0" y="564.0" text-anchor="end" font-family="Arial" font-size="9" fill="#444" transform="rotate(-40 940.0 564.0)">Shortest Processing Time + Setup</text><rect x="952.0" y="338.6" width="18" height="211.4" fill="#2ca02c" /><text x="961.0" y="333.6" text-anchor="middle" font-family="Arial" font-size="8" fill="#2ca02c">2517</text><text x="961.0" y="564.0" text-anchor="end" font-family="Arial" font-size="9" fill="#444" transform="rotate(-40 961.0 564.0)">Longest Processing Time</text><rect x="973.0" y="305.4" width="18" height="244.6" fill="#d62728" /><text x="982.0" y="300.4" text-anchor="middle" font-family="Arial" font-size="8" fill="#d62728">2912</text><text x="982.0" y="564.0" text-anchor="end" font-family="Arial" font-size="9" fill="#444" transform="rotate(-40 982.0 564.0)">First Job</text><rect x="994.0" y="353.7" width="18" height="196.3" fill="#9467bd" /><text x="1003.0" y="348.7" text-anchor="middle" font-family="Arial" font-size="8" fill="#9467bd">2337</text><text x="1003.0" y="564.0" text-anchor="end" font-family="Arial" font-size="9" fill="#444" transform="rotate(-40 1003.0 564.0)">MINSTART</text><rect x="1015.0" y="343.6" width="18" height="206.4" fill="#8c564b" /><text x="1024.0" y="338.6" text-anchor="middle" font-family="Arial" font-size="8" fill="#8c564b">2457</text><text x="1024.0" y="564.0" text-anchor="end" font-family="Arial" font-size="9" fill="#444" transform="rotate(-40 1024.0 564.0)">MINEND</text><rect x="1036.0" y="358.1" width="18" height="191.9" fill="#e377c2" stroke="#222" stroke-width="1.5" /><text x="1045.0" y="353.1" text-anchor="middle" font-family="Arial" font-size="8" fill="#e377c2">*2285</text><text x="1045.0" y="564.0" text-anchor="end" font-family="Arial" font-size="9" fill="#444" transform="rotate(-40 1045.0 564.0)">MWKR</text><rect x="1057.0" y="353.5" width="18" height="196.5" fill="#17becf" /><text x="1066.0" y="348.5" text-anchor="middle" font-family="Arial" font-size="8" fill="#17becf">2339</text><text x="1066.0" y="564.0" text-anchor="end" font-family="Arial" font-size="9" fill="#444" transform="rotate(-40 1066.0 564.0)">FDD + MWKR + SS</text><rect x="1115.0" y="314.8" width="18" height="235.2" fill="#1f77b4" /><text x="1124.0" y="309.8" text-anchor="middle" font-family="Arial" font-size="8" fill="#1f77b4">2800</text><text x="1124.0" y="564.0" text-anchor="end" font-family="Arial" font-size="9" fill="#444" transform="rotate(-40 1124.0 564.0)">Shortest Processing Time</text><rect x="1136.0" y="309.7" width="18" height="240.3" fill="#ff7f0e" /><text x="1145.0" y="304.7" text-anchor="middle" font-family="Arial" font-size="8" fill="#ff7f0e">2861</text><text x="1145.0" y="564.0" text-anchor="end" font-family="Arial" font-size="9" fill="#444" transform="rotate(-40 1145.0 564.0)">Shortest Processing Time + Setup</text><rect x="1157.0" y="305.9" width="18" height="244.1" fill="#2ca02c" /><text x="1166.0" y="300.9" text-anchor="middle" font-family="Arial" font-size="8" fill="#2ca02c">2906</text><text x="1166.0" y="564.0" text-anchor="end" font-family="Arial" font-size="9" fill="#444" transform="rotate(-40 1166.0 564.0)">Longest Processing Time</text><rect x="1178.0" y="263.2" width="18" height="286.8" fill="#d62728" /><text x="1187.0" y="258.2" text-anchor="middle" font-family="Arial" font-size="8" fill="#d62728">3414</text><text x="1187.0" y="564.0" text-anchor="end" font-family="Arial" font-size="9" fill="#444" transform="rotate(-40 1187.0 564.0)">First Job</text><rect x="1199.0" y="340.7" width="18" height="209.3" fill="#9467bd" /><text x="1208.0" y="335.7" text-anchor="middle" font-family="Arial" font-size="8" fill="#9467bd">2492</text><text x="1208.0" y="564.0" text-anchor="end" font-family="Arial" font-size="9" fill="#444" transform="rotate(-40 1208.0 564.0)">MINSTART</text><rect x="1220.0" y="327.7" width="18" height="222.3" fill="#8c564b" /><text x="1229.0" y="322.7" text-anchor="middle" font-family="Arial" font-size="8" fill="#8c564b">2646</text><text x="1229.0" y="564.0" text-anchor="end" font-family="Arial" font-size="9" fill="#444" transform="rotate(-40 1229.0 564.0)">MINEND</text><rect x="1241.0" y="338.7" width="18" height="211.3" fill="#e377c2" /><text x="1250.0" y="333.7" text-anchor="middle" font-family="Arial" font-size="8" fill="#e377c2">2515</text><text x="1250.0" y="564.0" text-anchor="end" font-family="Arial" font-size="9" fill="#444" transform="rotate(-40 1250.0 564.0)">MWKR</text><rect x="1262.0" y="342.4" width="18" height="207.6" fill="#17becf" stroke="#222" stroke-width="1.5" /><text x="1271.0" y="337.4" text-anchor="middle" font-family="Arial" font-size="8" fill="#17becf">*2471</text><text x="1271.0" y="564.0" text-anchor="end" font-family="Arial" font-size="9" fill="#444" transform="rotate(-40 1271.0 564.0)">FDD + MWKR + SS</text><rect x="1320.0" y="163.5" width="18" height="386.5" fill="#1f77b4" /><text x="1329.0" y="158.5" text-anchor="middle" font-family="Arial" font-size="8" fill="#1f77b4">4601</text><text x="1329.0" y="564.0" text-anchor="end" font-family="Arial" font-size="9" fill="#444" transform="rotate(-40 1329.0 564.0)">Shortest Processing Time</text><rect x="1341.0" y="194.6" width="18" height="355.4" fill="#ff7f0e" /><text x="1350.0" y="189.6" text-anchor="middle" font-family="Arial" font-size="8" fill="#ff7f0e">4231</text><text x="1350.0" y="564.0" text-anchor="end" font-family="Arial" font-size="9" fill="#444" transform="rotate(-40 1350.0 564.0)">Shortest Processing Time + Setup</text><rect x="1362.0" y="221.1" width="18" height="328.9" fill="#2ca02c" /><text x="1371.0" y="216.1" text-anchor="middle" font-family="Arial" font-size="8" fill="#2ca02c">3916</text><text x="1371.0" y="564.0" text-anchor="end" font-family="Arial" font-size="9" fill="#444" transform="rotate(-40 1371.0 564.0)">Longest Processing Time</text><rect x="1383.0" y="165.8" width="18" height="384.2" fill="#d62728" /><text x="1392.0" y="160.8" text-anchor="middle" font-family="Arial" font-size="8" fill="#d62728">4574</text><text x="1392.0" y="564.0" text-anchor="end" font-family="Arial" font-size="9" fill="#444" transform="rotate(-40 1392.0 564.0)">First Job</text><rect x="1404.0" y="248.0" width="18" height="302.0" fill="#9467bd" /><text x="1413.0" y="243.0" text-anchor="middle" font-family="Arial" font-size="8" fill="#9467bd">3595</text><text x="1413.0" y="564.0" text-anchor="end" font-family="Arial" font-size="9" fill="#444" transform="rotate(-40 1413.0 564.0)">MINSTART</text><rect x="1425.0" y="249.2" width="18" height="300.8" fill="#8c564b" /><text x="1434.0" y="244.2" text-anchor="middle" font-family="Arial" font-size="8" fill="#8c564b">3581</text><text x="1434.0" y="564.0" text-anchor="end" font-family="Arial" font-size="9" fill="#444" transform="rotate(-40 1434.0 564.0)">MINEND</text><rect x="1446.0" y="257.8" width="18" height="292.2" fill="#e377c2" /><text x="1455.0" y="252.8" text-anchor="middle" font-family="Arial" font-size="8" fill="#e377c2">3479</text><text x="1455.0" y="564.0" text-anchor="end" font-family="Arial" font-size="9" fill="#444" transform="rotate(-40 1455.0 564.0)">MWKR</text><rect x="1467.0" y="268.5" width="18" height="281.5" fill="#17becf" stroke="#222" stroke-width="1.5" /><text x="1476.0" y="263.5" text-anchor="middle" font-family="Arial" font-size="8" fill="#17becf">*3351</text><text x="1476.0" y="564.0" text-anchor="end" font-family="Arial" font-size="9" fill="#444" transform="rotate(-40 1476.0 564.0)">FDD + MWKR + SS</text>
  <text x="172.5" y="670.0" text-anchor="middle" font-family="Arial" font-size="13" font-weight="bold" fill="#222">Set1_3</text><line x1="275.0" y1="130.0" x2="275.0" y2="550.0" stroke="#ccc" stroke-width="1" stroke-dasharray="4,4" /><text x="377.5" y="670.0" text-anchor="middle" font-family="Arial" font-size="13" font-weight="bold" fill="#222">Set3_1</text><line x1="480.0" y1="130.0" x2="480.0" y2="550.0" stroke="#ccc" stroke-width="1" stroke-dasharray="4,4" /><text x="582.5" y="670.0" text-anchor="middle" font-family="Arial" font-size="13" font-weight="bold" fill="#222">Set4_1</text><line x1="685.0" y1="130.0" x2="685.0" y2="550.0" stroke="#ccc" stroke-width="1" stroke-dasharray="4,4" /><text x="787.5" y="670.0" text-anchor="middle" font-family="Arial" font-size="13" font-weight="bold" fill="#222">Set5_2</text><line x1="890.0" y1="130.0" x2="890.0" y2="550.0" stroke="#ccc" stroke-width="1" stroke-dasharray="4,4" /><text x="992.5" y="670.0" text-anchor="middle" font-family="Arial" font-size="13" font-weight="bold" fill="#222">Set7_3</text><line x1="1095.0" y1="130.0" x2="1095.0" y2="550.0" stroke="#ccc" stroke-width="1" stroke-dasharray="4,4" /><text x="1197.5" y="670.0" text-anchor="middle" font-family="Arial" font-size="13" font-weight="bold" fill="#222">Set8_3</text><line x1="1300.0" y1="130.0" x2="1300.0" y2="550.0" stroke="#ccc" stroke-width="1" stroke-dasharray="4,4" /><text x="1402.5" y="670.0" text-anchor="middle" font-family="Arial" font-size="13" font-weight="bold" fill="#222">Set10_2</text>
  <rect x="90" y="75" width="12" height="12" fill="#1f77b4" /><text x="107" y="86" font-family="Arial" font-size="11">Shortest Processing Time</text><rect x="461" y="75" width="12" height="12" fill="#ff7f0e" /><text x="478" y="86" font-family="Arial" font-size="11">Shortest Processing Time + Setup</text><rect x="832" y="75" width="12" height="12" fill="#2ca02c" /><text x="849" y="86" font-family="Arial" font-size="11">Longest Processing Time</text><rect x="1203" y="75" width="12" height="12" fill="#d62728" /><text x="1220" y="86" font-family="Arial" font-size="11">First Job</text><rect x="90" y="97" width="12" height="12" fill="#9467bd" /><text x="107" y="108" font-family="Arial" font-size="11">MINSTART</text><rect x="461" y="97" width="12" height="12" fill="#8c564b" /><text x="478" y="108" font-family="Arial" font-size="11">MINEND</text><rect x="832" y="97" width="12" height="12" fill="#e377c2" /><text x="849" y="108" font-family="Arial" font-size="11">MWKR</text><rect x="1203" y="97" width="12" height="12" fill="#17becf" /><text x="1220" y="108" font-family="Arial" font-size="11">FDD + MWKR + SS</text>
  <text x="787.5" y="700.0" text-anchor="middle" font-family="Arial" font-size="13" font-weight="bold">Instance</text>
  <text x="25.0" y="340.0" text-anchor="middle" font-family="Arial" font-size="13" font-weight="bold" transform="rotate(-90 25.0 340.0)">Makespan (Cmax)</text>
</svg>