<svg xmlns="http://www.w3.org/2000/svg" width="964" height="670" viewBox="0 0 964 670">
  <rect x="0" y="0" width="964" height="670" fill="#ffffff" />
  <text x="482.0" y="32" text-anchor="middle" font-family="Arial" font-size="24" font-weight="bold">Comparison with Google OR-Tools solver - Time limit:90</text>
  <line x1="90.0" y1="540.0" x2="924.0" y2="540.0" stroke="#e6e6e6" stroke-width="1" /><text x="82.0" y="544.0" text-anchor="end" font-family="Arial" font-size="11" fill="#555">0</text><line x1="90.0" y1="435.0" x2="924.0" y2="435.0" stroke="#e6e6e6" stroke-width="1" /><text x="82.0" y="439.0" text-anchor="end" font-family="Arial" font-size="11" fill="#555">974</text><line x1="90.0" y1="330.0" x2="924.0" y2="330.0" stroke="#e6e6e6" stroke-width="1" /><text x="82.0" y="334.0" text-anchor="end" font-family="Arial" font-size="11" fill="#555">1948</text><line x1="90.0" y1="225.0" x2="924.0" y2="225.0" stroke="#e6e6e6" stroke-width="1" /><text x="82.0" y="229.0" text-anchor="end" font-family="Arial" font-size="11" fill="#555">2922</text><line x1="90.0" y1="120.0" x2="924.0" y2="120.0" stroke="#e6e6e6" stroke-width="1" /><text x="82.0" y="124.0" text-anchor="end" font-family="Arial" font-size="11" fill="#555">3896</text>
  <line x1="90" y1="540" x2="924" y2="540" stroke="#333" stroke-width="1.5" />
  <line x1="90" y1="120" x2="90" y2="540" stroke="#333" stroke-width="1.5" />
  <rect x="90.0" y="221.4" width="26" height="318.6" fill="#1f77b4" /><text x="103.0" y="215.4" text-anchor="middle" font-family="Arial" font-size="11" fill="#1f77b4">2956</text><rect x="126.0" y="224.7" width="26" height="315.3" fill="#7f7f7f" /><text x="139.0" y="218.7" text-anchor="middle" font-family="Arial" font-size="11" fill="#7f7f7f">2925</text><rect x="178.0" y="210.6" width="26" height="329.4" fill="#d62728" /><text x="191.0" y="204.6" text-anchor="middle" font-family="Arial" font-size="11" fill="#d62728">3056</text><rect x="214.0" y="224.7" width="26" height="315.3" fill="#7f7f7f" /><text x="227.0" y="218.7" text-anchor="middle" font-family="Arial" font-size="11" fill="#7f7f7f">2925</text><rect x="266.0" y="209.2" width="26" height="330.8" fill="#2ca02c" /><text x="279.0" y="203.2" text-anchor="middle" font-family="Arial" font-size="11" fill="#2ca02c">3069</text><rect x="302.0" y="224.7" width="26" height="315.3" fill="#7f7f7f" /><text x="315.0" y="218.7" text-anchor="middle" font-family="Arial" font-size="11" fill="#7f7f7f">2925</text><rect x="388.0" y="225.2" width="26" height="314.8" fill="#1f77b4" /><text x="401.0" y="219.2" text-anchor="middle" font-family="Arial" font-size="11" fill="#1f77b4">2920</text><rect x="424.0" y="225.0" width="26" height="315.0" fill="#7f7f7f" /><text x="437.0" y="219.0" text-anchor="middle" font-family="Arial" font-size="11" fill="#7f7f7f">2922</text><rect x="476.0" y="225.0" width="26" height="315.0" fill="#d62728" /><text x="489.0" y="219.0" text-anchor="middle" font-family="Arial" font-size="11" fill="#d62728">2922</text><rect x="512.0" y="225.0" width="26" height="315.0" fill="#7f7f7f" /><text x="525.0" y="219.0" text-anchor="middle" font-family="Arial" font-size="11" fill="#7f7f7f">2922</text><rect x="564.0" y="214.3" width="26" height="325.7" fill="#2ca02c" /><text x="577.0" y="208.3" text-anchor="middle" font-family="Arial" font-size="11" fill="#2ca02c">3021</text><rect x="600.0" y="225.0" width="26" height="315.0" fill="#7f7f7f" /><text x="613.0" y="219.0" text-anchor="middle" font-family="Arial" font-size="11" fill="#7f7f7f">2922</text><rect x="686.0" y="189.3" width="26" height="350.7" fill="#1f77b4" /><text x="699.0" y="183.3" text-anchor="middle" font-family="Arial" font-size="11" fill="#1f77b4">3253</text><rect x="722.0" y="217.0" width="26" height="323.0" fill="#7f7f7f" /><text x="735.0" y="211.0" text-anchor="middle" font-family="Arial" font-size="11" fill="#7f7f7f">2996</text><rect x="774.0" y="174.8" width="26" height="365.2" fill="#d62728" /><text x="787.0" y="168.8" text-anchor="middle" font-family="Arial" font-size="11" fill="#d62728">3388</text><rect x="810.0" y="217.0" width="26" height="323.0" fill="#7f7f7f" /><text x="823.0" y="211.0" text-anchor="middle" font-family="Arial" font-size="11" fill="#7f7f7f">2996</text><rect x="862.0" y="188.6" width="26" height="351.4" fill="#2ca02c" /><text x="875.0" y="182.6" text-anchor="middle" font-family="Arial" font-size="11" fill="#2ca02c">3260</text><rect x="898.0" y="217.0" width="26" height="323.0" fill="#7f7f7f" /><text x="911.0" y="211.0" text-anchor="middle" font-family="Arial" font-size="11" fill="#7f7f7f">2996</text>
  <text x="121.0" y="197.4" text-anchor="middle" font-family="Arial" font-size="11" font-weight="bold" fill="#d62728">&#916; +31</text><text x="209.0" y="186.6" text-anchor="middle" font-family="Arial" font-size="11" font-weight="bold" fill="#d62728">&#916; +131</text><text x="297.0" y="185.2" text-anchor="middle" font-family="Arial" font-size="11" font-weight="bold" fill="#d62728">&#916; +144</text><text x="419.0" y="201.0" text-anchor="middle" font-family="Arial" font-size="11" font-weight="bold" fill="#2ca02c">&#916; -2</text><text x="507.0" y="201.0" text-anchor="middle" font-family="Arial" font-size="11" font-weight="bold" fill="#2ca02c">&#916; 0</text><text x="595.0" y="190.3" text-anchor="middle" font-family="Arial" font-size="11" font-weight="bold" fill="#d62728">&#916; +99</text><text x="717.0" y="165.3" text-anchor="middle" font-family="Arial" font-size="11" font-weight="bold" fill="#d62728">&#916; +257</text><text x="805.0" y="150.8" text-anchor="middle" font-family="Arial" font-size="11" font-weight="bold" fill="#d62728">&#916; +392</text><text x="893.0" y="164.6" text-anchor="middle" font-family="Arial" font-size="11" font-weight="bold" fill="#d62728">&#916; +264</text>
  <text x="121.0" y="558.0" text-anchor="middle" font-family="Arial" font-size="10" fill="#555">adjacent</text><text x="209.0" y="558.0" text-anchor="middle" font-family="Arial" font-size="10" fill="#555">n5</text><text x="297.0" y="558.0" text-anchor="middle" font-family="Arial" font-size="10" fill="#555">n6</text><text x="209.0" y="580.0" text-anchor="middle" font-family="Arial" font-size="13" font-weight="bold" fill="#222">ClassroomInstanceSet10_1</text><text x="419.0" y="558.0" text-anchor="middle" font-family="Arial" font-size="10" fill="#555">adjacent</text><text x="507.0" y="558.0" text-anchor="middle" font-family="Arial" font-size="10" fill="#555">n5</text><text x="595.0" y="558.0" text-anchor="middle" font-family="Arial" font-size="10" fill="#555">n6</text><text x="507.0" y="580.0" text-anchor="middle" font-family="Arial" font-size="13" font-weight="bold" fill="#222">ClassroomInstanceSet10_2</text><text x="717.0" y="558.0" text-anchor="middle" font-family="Arial" font-size="10" fill="#555">adjacent</text><text x="805.0" y="558.0" text-anchor="middle" font-family="Arial" font-size="10" fill="#555">n5</text><text x="893.0" y="558.0" text-anchor="middle" font-family="Arial" font-size="10" fill="#555">n6</text><text x="805.0" y="580.0" text-anchor="middle" font-family="Arial" font-size="13" font-weight="bold" fill="#222">ClassroomInstanceSet10_3</text>
  <rect x="90" y="65" width="12" height="12" fill="#1f77b4" /><text x="108" y="75" font-family="Arial" font-size="12">Tabu (adjacent)</text><rect x="260" y="65" width="12" height="12" fill="#d62728" /><text x="278" y="75" font-family="Arial" font-size="12">Tabu (n5)</text><rect x="430" y="65" width="12" height="12" fill="#2ca02c" /><text x="448" y="75" font-family="Arial" font-size="12">Tabu (n6)</text><rect x="600" y="65" width="12" height="12" fill="#7f7f7f" /><text x="618" y="75" font-family="Arial" font-size="12">OR-Tools</text>
  <text x="507.0" y="650.0" text-anchor="middle" font-family="Arial" font-size="14" font-weight="bold">Instance set</text>
  <text x="30.0" y="330.0" text-anchor="middle" font-family="Arial" font-size="14" font-weight="bold" transform="rotate(-90 30.0 330.0)">Makespan (Cmax)</text>
</svg>